G75*
%MOIN*%
%OFA0B0*%
%FSLAX25Y25*%
%IPPOS*%
%LPD*%
%AMOC8*
5,1,8,0,0,1.08239X$1,22.5*
%
%ADD10C,0.01500*%
%ADD11C,0.01100*%
%ADD12C,0.00079*%
D10*
X0001750Y0027500D02*
X0656750Y0027500D01*
X0656750Y0129500D02*
X0001750Y0129500D01*
X0001750Y0231500D02*
X0656750Y0231500D01*
X0656750Y0333500D02*
X0001750Y0333500D01*
X0001750Y0435500D02*
X0656750Y0435500D01*
D11*
X0669541Y0436483D02*
X0670852Y0432550D01*
X0672163Y0436483D01*
X0674834Y0434844D02*
X0678768Y0434844D01*
X0682136Y0434844D02*
X0683774Y0434189D01*
X0683775Y0434189D02*
X0683827Y0434166D01*
X0683878Y0434139D01*
X0683927Y0434109D01*
X0683974Y0434076D01*
X0684019Y0434040D01*
X0684061Y0434000D01*
X0684100Y0433958D01*
X0684136Y0433914D01*
X0684169Y0433867D01*
X0684199Y0433817D01*
X0684226Y0433766D01*
X0684249Y0433714D01*
X0684268Y0433660D01*
X0684284Y0433604D01*
X0684296Y0433548D01*
X0684304Y0433491D01*
X0684308Y0433434D01*
X0684309Y0433376D01*
X0684305Y0433319D01*
X0684298Y0433262D01*
X0684286Y0433205D01*
X0684271Y0433150D01*
X0684253Y0433095D01*
X0684230Y0433042D01*
X0684204Y0432991D01*
X0684175Y0432942D01*
X0684142Y0432894D01*
X0684106Y0432849D01*
X0684068Y0432807D01*
X0684026Y0432767D01*
X0683982Y0432730D01*
X0683935Y0432696D01*
X0683887Y0432665D01*
X0683836Y0432638D01*
X0683784Y0432614D01*
X0683730Y0432594D01*
X0683675Y0432578D01*
X0683619Y0432565D01*
X0683562Y0432556D01*
X0683504Y0432551D01*
X0683447Y0432550D01*
X0683938Y0436155D02*
X0683831Y0436201D01*
X0683722Y0436244D01*
X0683612Y0436284D01*
X0683500Y0436320D01*
X0683388Y0436352D01*
X0683274Y0436381D01*
X0683160Y0436407D01*
X0683045Y0436428D01*
X0682930Y0436447D01*
X0682813Y0436461D01*
X0682697Y0436472D01*
X0682580Y0436479D01*
X0682463Y0436483D01*
X0682463Y0436484D02*
X0682406Y0436483D01*
X0682348Y0436478D01*
X0682291Y0436469D01*
X0682235Y0436456D01*
X0682180Y0436440D01*
X0682126Y0436420D01*
X0682074Y0436396D01*
X0682023Y0436369D01*
X0681975Y0436338D01*
X0681928Y0436304D01*
X0681884Y0436267D01*
X0681842Y0436227D01*
X0681804Y0436185D01*
X0681768Y0436140D01*
X0681735Y0436092D01*
X0681706Y0436043D01*
X0681680Y0435992D01*
X0681657Y0435939D01*
X0681639Y0435884D01*
X0681624Y0435829D01*
X0681612Y0435772D01*
X0681605Y0435715D01*
X0681601Y0435658D01*
X0681602Y0435600D01*
X0681606Y0435543D01*
X0681614Y0435486D01*
X0681626Y0435430D01*
X0681642Y0435374D01*
X0681661Y0435320D01*
X0681684Y0435268D01*
X0681711Y0435217D01*
X0681741Y0435167D01*
X0681774Y0435120D01*
X0681810Y0435076D01*
X0681849Y0435034D01*
X0681891Y0434994D01*
X0681936Y0434958D01*
X0681983Y0434925D01*
X0682032Y0434895D01*
X0682083Y0434868D01*
X0682135Y0434845D01*
X0681644Y0432878D02*
X0681778Y0432832D01*
X0681913Y0432789D01*
X0682049Y0432750D01*
X0682186Y0432714D01*
X0682323Y0432682D01*
X0682462Y0432653D01*
X0682601Y0432627D01*
X0682741Y0432606D01*
X0682882Y0432587D01*
X0683022Y0432573D01*
X0683164Y0432562D01*
X0683305Y0432554D01*
X0683447Y0432551D01*
X0686988Y0433533D02*
X0686988Y0435500D01*
X0686990Y0435562D01*
X0686996Y0435623D01*
X0687005Y0435684D01*
X0687019Y0435744D01*
X0687036Y0435804D01*
X0687057Y0435862D01*
X0687082Y0435919D01*
X0687110Y0435974D01*
X0687141Y0436027D01*
X0687176Y0436078D01*
X0687214Y0436127D01*
X0687254Y0436173D01*
X0687298Y0436217D01*
X0687344Y0436257D01*
X0687393Y0436295D01*
X0687444Y0436330D01*
X0687497Y0436361D01*
X0687552Y0436389D01*
X0687609Y0436414D01*
X0687667Y0436435D01*
X0687727Y0436452D01*
X0687787Y0436466D01*
X0687848Y0436475D01*
X0687909Y0436481D01*
X0687971Y0436483D01*
X0689282Y0436483D01*
X0691695Y0435172D02*
X0691695Y0433861D01*
X0691696Y0433861D02*
X0691698Y0433790D01*
X0691704Y0433719D01*
X0691713Y0433649D01*
X0691727Y0433579D01*
X0691744Y0433510D01*
X0691765Y0433442D01*
X0691789Y0433376D01*
X0691817Y0433311D01*
X0691849Y0433247D01*
X0691884Y0433185D01*
X0691922Y0433125D01*
X0691963Y0433068D01*
X0692008Y0433012D01*
X0692055Y0432959D01*
X0692105Y0432909D01*
X0692158Y0432862D01*
X0692214Y0432817D01*
X0692271Y0432776D01*
X0692331Y0432738D01*
X0692393Y0432703D01*
X0692457Y0432671D01*
X0692522Y0432643D01*
X0692588Y0432619D01*
X0692656Y0432598D01*
X0692725Y0432581D01*
X0692795Y0432567D01*
X0692865Y0432558D01*
X0692936Y0432552D01*
X0693007Y0432550D01*
X0693078Y0432552D01*
X0693149Y0432558D01*
X0693219Y0432567D01*
X0693289Y0432581D01*
X0693358Y0432598D01*
X0693426Y0432619D01*
X0693492Y0432643D01*
X0693557Y0432671D01*
X0693621Y0432703D01*
X0693683Y0432738D01*
X0693743Y0432776D01*
X0693800Y0432817D01*
X0693856Y0432862D01*
X0693909Y0432909D01*
X0693959Y0432959D01*
X0694006Y0433012D01*
X0694051Y0433068D01*
X0694092Y0433125D01*
X0694130Y0433185D01*
X0694165Y0433247D01*
X0694197Y0433311D01*
X0694225Y0433376D01*
X0694249Y0433442D01*
X0694270Y0433510D01*
X0694287Y0433579D01*
X0694301Y0433649D01*
X0694310Y0433719D01*
X0694316Y0433790D01*
X0694318Y0433861D01*
X0694318Y0435172D01*
X0694316Y0435243D01*
X0694310Y0435314D01*
X0694301Y0435384D01*
X0694287Y0435454D01*
X0694270Y0435523D01*
X0694249Y0435591D01*
X0694225Y0435657D01*
X0694197Y0435722D01*
X0694165Y0435786D01*
X0694130Y0435848D01*
X0694092Y0435908D01*
X0694051Y0435965D01*
X0694006Y0436021D01*
X0693959Y0436074D01*
X0693909Y0436124D01*
X0693856Y0436171D01*
X0693800Y0436216D01*
X0693743Y0436257D01*
X0693683Y0436295D01*
X0693621Y0436330D01*
X0693557Y0436362D01*
X0693492Y0436390D01*
X0693426Y0436414D01*
X0693358Y0436435D01*
X0693289Y0436452D01*
X0693219Y0436466D01*
X0693149Y0436475D01*
X0693078Y0436481D01*
X0693007Y0436483D01*
X0692936Y0436481D01*
X0692865Y0436475D01*
X0692795Y0436466D01*
X0692725Y0436452D01*
X0692656Y0436435D01*
X0692588Y0436414D01*
X0692522Y0436390D01*
X0692457Y0436362D01*
X0692393Y0436330D01*
X0692331Y0436295D01*
X0692271Y0436257D01*
X0692214Y0436216D01*
X0692158Y0436171D01*
X0692105Y0436124D01*
X0692055Y0436074D01*
X0692008Y0436021D01*
X0691963Y0435965D01*
X0691922Y0435908D01*
X0691884Y0435848D01*
X0691849Y0435786D01*
X0691817Y0435722D01*
X0691789Y0435657D01*
X0691765Y0435591D01*
X0691744Y0435523D01*
X0691727Y0435454D01*
X0691713Y0435384D01*
X0691704Y0435314D01*
X0691698Y0435243D01*
X0691696Y0435172D01*
X0689282Y0432550D02*
X0687971Y0432550D01*
X0687909Y0432552D01*
X0687848Y0432558D01*
X0687787Y0432567D01*
X0687727Y0432581D01*
X0687667Y0432598D01*
X0687609Y0432619D01*
X0687552Y0432644D01*
X0687497Y0432672D01*
X0687444Y0432703D01*
X0687393Y0432738D01*
X0687344Y0432776D01*
X0687298Y0432816D01*
X0687254Y0432860D01*
X0687214Y0432906D01*
X0687176Y0432955D01*
X0687141Y0433006D01*
X0687110Y0433059D01*
X0687082Y0433114D01*
X0687057Y0433171D01*
X0687036Y0433229D01*
X0687019Y0433289D01*
X0687005Y0433349D01*
X0686996Y0433410D01*
X0686990Y0433471D01*
X0686988Y0433533D01*
X0697284Y0432550D02*
X0697284Y0436483D01*
X0699251Y0436483D01*
X0699251Y0435828D01*
X0701337Y0435172D02*
X0701337Y0433533D01*
X0701339Y0433471D01*
X0701345Y0433410D01*
X0701354Y0433349D01*
X0701368Y0433289D01*
X0701385Y0433229D01*
X0701406Y0433171D01*
X0701431Y0433114D01*
X0701459Y0433059D01*
X0701490Y0433006D01*
X0701525Y0432955D01*
X0701563Y0432906D01*
X0701603Y0432860D01*
X0701647Y0432816D01*
X0701693Y0432776D01*
X0701742Y0432738D01*
X0701793Y0432703D01*
X0701846Y0432672D01*
X0701901Y0432644D01*
X0701958Y0432619D01*
X0702016Y0432598D01*
X0702076Y0432581D01*
X0702136Y0432567D01*
X0702197Y0432558D01*
X0702258Y0432552D01*
X0702320Y0432550D01*
X0703959Y0432550D01*
X0703959Y0434517D02*
X0701337Y0434517D01*
X0701337Y0435172D02*
X0701339Y0435243D01*
X0701345Y0435314D01*
X0701354Y0435384D01*
X0701368Y0435454D01*
X0701385Y0435523D01*
X0701406Y0435591D01*
X0701430Y0435657D01*
X0701458Y0435722D01*
X0701490Y0435786D01*
X0701525Y0435848D01*
X0701563Y0435908D01*
X0701604Y0435965D01*
X0701649Y0436021D01*
X0701696Y0436074D01*
X0701746Y0436124D01*
X0701799Y0436171D01*
X0701855Y0436216D01*
X0701912Y0436257D01*
X0701972Y0436295D01*
X0702034Y0436330D01*
X0702098Y0436362D01*
X0702163Y0436390D01*
X0702229Y0436414D01*
X0702297Y0436435D01*
X0702366Y0436452D01*
X0702436Y0436466D01*
X0702506Y0436475D01*
X0702577Y0436481D01*
X0702648Y0436483D01*
X0702719Y0436481D01*
X0702790Y0436475D01*
X0702860Y0436466D01*
X0702930Y0436452D01*
X0702999Y0436435D01*
X0703067Y0436414D01*
X0703133Y0436390D01*
X0703198Y0436362D01*
X0703262Y0436330D01*
X0703324Y0436295D01*
X0703384Y0436257D01*
X0703441Y0436216D01*
X0703497Y0436171D01*
X0703550Y0436124D01*
X0703600Y0436074D01*
X0703647Y0436021D01*
X0703692Y0435965D01*
X0703733Y0435908D01*
X0703771Y0435848D01*
X0703806Y0435786D01*
X0703838Y0435722D01*
X0703866Y0435657D01*
X0703890Y0435591D01*
X0703911Y0435523D01*
X0703928Y0435454D01*
X0703942Y0435384D01*
X0703951Y0435314D01*
X0703957Y0435243D01*
X0703959Y0435172D01*
X0703959Y0434517D01*
X0699251Y0334483D02*
X0699251Y0333828D01*
X0699251Y0334483D02*
X0697284Y0334483D01*
X0697284Y0330550D01*
X0694318Y0331861D02*
X0694318Y0333172D01*
X0694316Y0333243D01*
X0694310Y0333314D01*
X0694301Y0333384D01*
X0694287Y0333454D01*
X0694270Y0333523D01*
X0694249Y0333591D01*
X0694225Y0333657D01*
X0694197Y0333722D01*
X0694165Y0333786D01*
X0694130Y0333848D01*
X0694092Y0333908D01*
X0694051Y0333965D01*
X0694006Y0334021D01*
X0693959Y0334074D01*
X0693909Y0334124D01*
X0693856Y0334171D01*
X0693800Y0334216D01*
X0693743Y0334257D01*
X0693683Y0334295D01*
X0693621Y0334330D01*
X0693557Y0334362D01*
X0693492Y0334390D01*
X0693426Y0334414D01*
X0693358Y0334435D01*
X0693289Y0334452D01*
X0693219Y0334466D01*
X0693149Y0334475D01*
X0693078Y0334481D01*
X0693007Y0334483D01*
X0692936Y0334481D01*
X0692865Y0334475D01*
X0692795Y0334466D01*
X0692725Y0334452D01*
X0692656Y0334435D01*
X0692588Y0334414D01*
X0692522Y0334390D01*
X0692457Y0334362D01*
X0692393Y0334330D01*
X0692331Y0334295D01*
X0692271Y0334257D01*
X0692214Y0334216D01*
X0692158Y0334171D01*
X0692105Y0334124D01*
X0692055Y0334074D01*
X0692008Y0334021D01*
X0691963Y0333965D01*
X0691922Y0333908D01*
X0691884Y0333848D01*
X0691849Y0333786D01*
X0691817Y0333722D01*
X0691789Y0333657D01*
X0691765Y0333591D01*
X0691744Y0333523D01*
X0691727Y0333454D01*
X0691713Y0333384D01*
X0691704Y0333314D01*
X0691698Y0333243D01*
X0691696Y0333172D01*
X0691695Y0333172D02*
X0691695Y0331861D01*
X0691696Y0331861D02*
X0691698Y0331790D01*
X0691704Y0331719D01*
X0691713Y0331649D01*
X0691727Y0331579D01*
X0691744Y0331510D01*
X0691765Y0331442D01*
X0691789Y0331376D01*
X0691817Y0331311D01*
X0691849Y0331247D01*
X0691884Y0331185D01*
X0691922Y0331125D01*
X0691963Y0331068D01*
X0692008Y0331012D01*
X0692055Y0330959D01*
X0692105Y0330909D01*
X0692158Y0330862D01*
X0692214Y0330817D01*
X0692271Y0330776D01*
X0692331Y0330738D01*
X0692393Y0330703D01*
X0692457Y0330671D01*
X0692522Y0330643D01*
X0692588Y0330619D01*
X0692656Y0330598D01*
X0692725Y0330581D01*
X0692795Y0330567D01*
X0692865Y0330558D01*
X0692936Y0330552D01*
X0693007Y0330550D01*
X0693078Y0330552D01*
X0693149Y0330558D01*
X0693219Y0330567D01*
X0693289Y0330581D01*
X0693358Y0330598D01*
X0693426Y0330619D01*
X0693492Y0330643D01*
X0693557Y0330671D01*
X0693621Y0330703D01*
X0693683Y0330738D01*
X0693743Y0330776D01*
X0693800Y0330817D01*
X0693856Y0330862D01*
X0693909Y0330909D01*
X0693959Y0330959D01*
X0694006Y0331012D01*
X0694051Y0331068D01*
X0694092Y0331125D01*
X0694130Y0331185D01*
X0694165Y0331247D01*
X0694197Y0331311D01*
X0694225Y0331376D01*
X0694249Y0331442D01*
X0694270Y0331510D01*
X0694287Y0331579D01*
X0694301Y0331649D01*
X0694310Y0331719D01*
X0694316Y0331790D01*
X0694318Y0331861D01*
X0689282Y0330550D02*
X0687971Y0330550D01*
X0687909Y0330552D01*
X0687848Y0330558D01*
X0687787Y0330567D01*
X0687727Y0330581D01*
X0687667Y0330598D01*
X0687609Y0330619D01*
X0687552Y0330644D01*
X0687497Y0330672D01*
X0687444Y0330703D01*
X0687393Y0330738D01*
X0687344Y0330776D01*
X0687298Y0330816D01*
X0687254Y0330860D01*
X0687214Y0330906D01*
X0687176Y0330955D01*
X0687141Y0331006D01*
X0687110Y0331059D01*
X0687082Y0331114D01*
X0687057Y0331171D01*
X0687036Y0331229D01*
X0687019Y0331289D01*
X0687005Y0331349D01*
X0686996Y0331410D01*
X0686990Y0331471D01*
X0686988Y0331533D01*
X0686988Y0333500D01*
X0686990Y0333562D01*
X0686996Y0333623D01*
X0687005Y0333684D01*
X0687019Y0333744D01*
X0687036Y0333804D01*
X0687057Y0333862D01*
X0687082Y0333919D01*
X0687110Y0333974D01*
X0687141Y0334027D01*
X0687176Y0334078D01*
X0687214Y0334127D01*
X0687254Y0334173D01*
X0687298Y0334217D01*
X0687344Y0334257D01*
X0687393Y0334295D01*
X0687444Y0334330D01*
X0687497Y0334361D01*
X0687552Y0334389D01*
X0687609Y0334414D01*
X0687667Y0334435D01*
X0687727Y0334452D01*
X0687787Y0334466D01*
X0687848Y0334475D01*
X0687909Y0334481D01*
X0687971Y0334483D01*
X0689282Y0334483D01*
X0683774Y0332189D02*
X0682136Y0332844D01*
X0682135Y0332845D02*
X0682083Y0332868D01*
X0682032Y0332895D01*
X0681983Y0332925D01*
X0681936Y0332958D01*
X0681891Y0332994D01*
X0681849Y0333034D01*
X0681810Y0333076D01*
X0681774Y0333120D01*
X0681741Y0333167D01*
X0681711Y0333217D01*
X0681684Y0333268D01*
X0681661Y0333320D01*
X0681642Y0333374D01*
X0681626Y0333430D01*
X0681614Y0333486D01*
X0681606Y0333543D01*
X0681602Y0333600D01*
X0681601Y0333658D01*
X0681605Y0333715D01*
X0681612Y0333772D01*
X0681624Y0333829D01*
X0681639Y0333884D01*
X0681657Y0333939D01*
X0681680Y0333992D01*
X0681706Y0334043D01*
X0681735Y0334092D01*
X0681768Y0334140D01*
X0681804Y0334185D01*
X0681842Y0334227D01*
X0681884Y0334267D01*
X0681928Y0334304D01*
X0681975Y0334338D01*
X0682023Y0334369D01*
X0682074Y0334396D01*
X0682126Y0334420D01*
X0682180Y0334440D01*
X0682235Y0334456D01*
X0682291Y0334469D01*
X0682348Y0334478D01*
X0682406Y0334483D01*
X0682463Y0334484D01*
X0681644Y0330878D02*
X0681778Y0330832D01*
X0681913Y0330789D01*
X0682049Y0330750D01*
X0682186Y0330714D01*
X0682323Y0330682D01*
X0682462Y0330653D01*
X0682601Y0330627D01*
X0682741Y0330606D01*
X0682882Y0330587D01*
X0683022Y0330573D01*
X0683164Y0330562D01*
X0683305Y0330554D01*
X0683447Y0330551D01*
X0683447Y0330550D02*
X0683504Y0330551D01*
X0683562Y0330556D01*
X0683619Y0330565D01*
X0683675Y0330578D01*
X0683730Y0330594D01*
X0683784Y0330614D01*
X0683836Y0330638D01*
X0683887Y0330665D01*
X0683935Y0330696D01*
X0683982Y0330730D01*
X0684026Y0330767D01*
X0684068Y0330807D01*
X0684106Y0330849D01*
X0684142Y0330894D01*
X0684175Y0330942D01*
X0684204Y0330991D01*
X0684230Y0331042D01*
X0684253Y0331095D01*
X0684271Y0331150D01*
X0684286Y0331205D01*
X0684298Y0331262D01*
X0684305Y0331319D01*
X0684309Y0331376D01*
X0684308Y0331434D01*
X0684304Y0331491D01*
X0684296Y0331548D01*
X0684284Y0331604D01*
X0684268Y0331660D01*
X0684249Y0331714D01*
X0684226Y0331766D01*
X0684199Y0331817D01*
X0684169Y0331867D01*
X0684136Y0331914D01*
X0684100Y0331958D01*
X0684061Y0332000D01*
X0684019Y0332040D01*
X0683974Y0332076D01*
X0683927Y0332109D01*
X0683878Y0332139D01*
X0683827Y0332166D01*
X0683775Y0332189D01*
X0683938Y0334155D02*
X0683831Y0334201D01*
X0683722Y0334244D01*
X0683612Y0334284D01*
X0683500Y0334320D01*
X0683388Y0334352D01*
X0683274Y0334381D01*
X0683160Y0334407D01*
X0683045Y0334428D01*
X0682930Y0334447D01*
X0682813Y0334461D01*
X0682697Y0334472D01*
X0682580Y0334479D01*
X0682463Y0334483D01*
X0678768Y0332844D02*
X0674834Y0332844D01*
X0672163Y0334483D02*
X0670852Y0330550D01*
X0669541Y0334483D01*
X0701337Y0333172D02*
X0701337Y0331533D01*
X0701339Y0331471D01*
X0701345Y0331410D01*
X0701354Y0331349D01*
X0701368Y0331289D01*
X0701385Y0331229D01*
X0701406Y0331171D01*
X0701431Y0331114D01*
X0701459Y0331059D01*
X0701490Y0331006D01*
X0701525Y0330955D01*
X0701563Y0330906D01*
X0701603Y0330860D01*
X0701647Y0330816D01*
X0701693Y0330776D01*
X0701742Y0330738D01*
X0701793Y0330703D01*
X0701846Y0330672D01*
X0701901Y0330644D01*
X0701958Y0330619D01*
X0702016Y0330598D01*
X0702076Y0330581D01*
X0702136Y0330567D01*
X0702197Y0330558D01*
X0702258Y0330552D01*
X0702320Y0330550D01*
X0703959Y0330550D01*
X0703959Y0332517D02*
X0701337Y0332517D01*
X0701337Y0333172D02*
X0701339Y0333243D01*
X0701345Y0333314D01*
X0701354Y0333384D01*
X0701368Y0333454D01*
X0701385Y0333523D01*
X0701406Y0333591D01*
X0701430Y0333657D01*
X0701458Y0333722D01*
X0701490Y0333786D01*
X0701525Y0333848D01*
X0701563Y0333908D01*
X0701604Y0333965D01*
X0701649Y0334021D01*
X0701696Y0334074D01*
X0701746Y0334124D01*
X0701799Y0334171D01*
X0701855Y0334216D01*
X0701912Y0334257D01*
X0701972Y0334295D01*
X0702034Y0334330D01*
X0702098Y0334362D01*
X0702163Y0334390D01*
X0702229Y0334414D01*
X0702297Y0334435D01*
X0702366Y0334452D01*
X0702436Y0334466D01*
X0702506Y0334475D01*
X0702577Y0334481D01*
X0702648Y0334483D01*
X0702719Y0334481D01*
X0702790Y0334475D01*
X0702860Y0334466D01*
X0702930Y0334452D01*
X0702999Y0334435D01*
X0703067Y0334414D01*
X0703133Y0334390D01*
X0703198Y0334362D01*
X0703262Y0334330D01*
X0703324Y0334295D01*
X0703384Y0334257D01*
X0703441Y0334216D01*
X0703497Y0334171D01*
X0703550Y0334124D01*
X0703600Y0334074D01*
X0703647Y0334021D01*
X0703692Y0333965D01*
X0703733Y0333908D01*
X0703771Y0333848D01*
X0703806Y0333786D01*
X0703838Y0333722D01*
X0703866Y0333657D01*
X0703890Y0333591D01*
X0703911Y0333523D01*
X0703928Y0333454D01*
X0703942Y0333384D01*
X0703951Y0333314D01*
X0703957Y0333243D01*
X0703959Y0333172D01*
X0703959Y0332517D01*
X0699251Y0232483D02*
X0699251Y0231828D01*
X0699251Y0232483D02*
X0697284Y0232483D01*
X0697284Y0228550D01*
X0694318Y0229861D02*
X0694318Y0231172D01*
X0694316Y0231243D01*
X0694310Y0231314D01*
X0694301Y0231384D01*
X0694287Y0231454D01*
X0694270Y0231523D01*
X0694249Y0231591D01*
X0694225Y0231657D01*
X0694197Y0231722D01*
X0694165Y0231786D01*
X0694130Y0231848D01*
X0694092Y0231908D01*
X0694051Y0231965D01*
X0694006Y0232021D01*
X0693959Y0232074D01*
X0693909Y0232124D01*
X0693856Y0232171D01*
X0693800Y0232216D01*
X0693743Y0232257D01*
X0693683Y0232295D01*
X0693621Y0232330D01*
X0693557Y0232362D01*
X0693492Y0232390D01*
X0693426Y0232414D01*
X0693358Y0232435D01*
X0693289Y0232452D01*
X0693219Y0232466D01*
X0693149Y0232475D01*
X0693078Y0232481D01*
X0693007Y0232483D01*
X0692936Y0232481D01*
X0692865Y0232475D01*
X0692795Y0232466D01*
X0692725Y0232452D01*
X0692656Y0232435D01*
X0692588Y0232414D01*
X0692522Y0232390D01*
X0692457Y0232362D01*
X0692393Y0232330D01*
X0692331Y0232295D01*
X0692271Y0232257D01*
X0692214Y0232216D01*
X0692158Y0232171D01*
X0692105Y0232124D01*
X0692055Y0232074D01*
X0692008Y0232021D01*
X0691963Y0231965D01*
X0691922Y0231908D01*
X0691884Y0231848D01*
X0691849Y0231786D01*
X0691817Y0231722D01*
X0691789Y0231657D01*
X0691765Y0231591D01*
X0691744Y0231523D01*
X0691727Y0231454D01*
X0691713Y0231384D01*
X0691704Y0231314D01*
X0691698Y0231243D01*
X0691696Y0231172D01*
X0691695Y0231172D02*
X0691695Y0229861D01*
X0691696Y0229861D02*
X0691698Y0229790D01*
X0691704Y0229719D01*
X0691713Y0229649D01*
X0691727Y0229579D01*
X0691744Y0229510D01*
X0691765Y0229442D01*
X0691789Y0229376D01*
X0691817Y0229311D01*
X0691849Y0229247D01*
X0691884Y0229185D01*
X0691922Y0229125D01*
X0691963Y0229068D01*
X0692008Y0229012D01*
X0692055Y0228959D01*
X0692105Y0228909D01*
X0692158Y0228862D01*
X0692214Y0228817D01*
X0692271Y0228776D01*
X0692331Y0228738D01*
X0692393Y0228703D01*
X0692457Y0228671D01*
X0692522Y0228643D01*
X0692588Y0228619D01*
X0692656Y0228598D01*
X0692725Y0228581D01*
X0692795Y0228567D01*
X0692865Y0228558D01*
X0692936Y0228552D01*
X0693007Y0228550D01*
X0693078Y0228552D01*
X0693149Y0228558D01*
X0693219Y0228567D01*
X0693289Y0228581D01*
X0693358Y0228598D01*
X0693426Y0228619D01*
X0693492Y0228643D01*
X0693557Y0228671D01*
X0693621Y0228703D01*
X0693683Y0228738D01*
X0693743Y0228776D01*
X0693800Y0228817D01*
X0693856Y0228862D01*
X0693909Y0228909D01*
X0693959Y0228959D01*
X0694006Y0229012D01*
X0694051Y0229068D01*
X0694092Y0229125D01*
X0694130Y0229185D01*
X0694165Y0229247D01*
X0694197Y0229311D01*
X0694225Y0229376D01*
X0694249Y0229442D01*
X0694270Y0229510D01*
X0694287Y0229579D01*
X0694301Y0229649D01*
X0694310Y0229719D01*
X0694316Y0229790D01*
X0694318Y0229861D01*
X0689282Y0228550D02*
X0687971Y0228550D01*
X0687909Y0228552D01*
X0687848Y0228558D01*
X0687787Y0228567D01*
X0687727Y0228581D01*
X0687667Y0228598D01*
X0687609Y0228619D01*
X0687552Y0228644D01*
X0687497Y0228672D01*
X0687444Y0228703D01*
X0687393Y0228738D01*
X0687344Y0228776D01*
X0687298Y0228816D01*
X0687254Y0228860D01*
X0687214Y0228906D01*
X0687176Y0228955D01*
X0687141Y0229006D01*
X0687110Y0229059D01*
X0687082Y0229114D01*
X0687057Y0229171D01*
X0687036Y0229229D01*
X0687019Y0229289D01*
X0687005Y0229349D01*
X0686996Y0229410D01*
X0686990Y0229471D01*
X0686988Y0229533D01*
X0686988Y0231500D01*
X0686990Y0231562D01*
X0686996Y0231623D01*
X0687005Y0231684D01*
X0687019Y0231744D01*
X0687036Y0231804D01*
X0687057Y0231862D01*
X0687082Y0231919D01*
X0687110Y0231974D01*
X0687141Y0232027D01*
X0687176Y0232078D01*
X0687214Y0232127D01*
X0687254Y0232173D01*
X0687298Y0232217D01*
X0687344Y0232257D01*
X0687393Y0232295D01*
X0687444Y0232330D01*
X0687497Y0232361D01*
X0687552Y0232389D01*
X0687609Y0232414D01*
X0687667Y0232435D01*
X0687727Y0232452D01*
X0687787Y0232466D01*
X0687848Y0232475D01*
X0687909Y0232481D01*
X0687971Y0232483D01*
X0689282Y0232483D01*
X0683774Y0230189D02*
X0682136Y0230844D01*
X0682135Y0230845D02*
X0682083Y0230868D01*
X0682032Y0230895D01*
X0681983Y0230925D01*
X0681936Y0230958D01*
X0681891Y0230994D01*
X0681849Y0231034D01*
X0681810Y0231076D01*
X0681774Y0231120D01*
X0681741Y0231167D01*
X0681711Y0231217D01*
X0681684Y0231268D01*
X0681661Y0231320D01*
X0681642Y0231374D01*
X0681626Y0231430D01*
X0681614Y0231486D01*
X0681606Y0231543D01*
X0681602Y0231600D01*
X0681601Y0231658D01*
X0681605Y0231715D01*
X0681612Y0231772D01*
X0681624Y0231829D01*
X0681639Y0231884D01*
X0681657Y0231939D01*
X0681680Y0231992D01*
X0681706Y0232043D01*
X0681735Y0232092D01*
X0681768Y0232140D01*
X0681804Y0232185D01*
X0681842Y0232227D01*
X0681884Y0232267D01*
X0681928Y0232304D01*
X0681975Y0232338D01*
X0682023Y0232369D01*
X0682074Y0232396D01*
X0682126Y0232420D01*
X0682180Y0232440D01*
X0682235Y0232456D01*
X0682291Y0232469D01*
X0682348Y0232478D01*
X0682406Y0232483D01*
X0682463Y0232484D01*
X0681644Y0228878D02*
X0681778Y0228832D01*
X0681913Y0228789D01*
X0682049Y0228750D01*
X0682186Y0228714D01*
X0682323Y0228682D01*
X0682462Y0228653D01*
X0682601Y0228627D01*
X0682741Y0228606D01*
X0682882Y0228587D01*
X0683022Y0228573D01*
X0683164Y0228562D01*
X0683305Y0228554D01*
X0683447Y0228551D01*
X0683447Y0228550D02*
X0683504Y0228551D01*
X0683562Y0228556D01*
X0683619Y0228565D01*
X0683675Y0228578D01*
X0683730Y0228594D01*
X0683784Y0228614D01*
X0683836Y0228638D01*
X0683887Y0228665D01*
X0683935Y0228696D01*
X0683982Y0228730D01*
X0684026Y0228767D01*
X0684068Y0228807D01*
X0684106Y0228849D01*
X0684142Y0228894D01*
X0684175Y0228942D01*
X0684204Y0228991D01*
X0684230Y0229042D01*
X0684253Y0229095D01*
X0684271Y0229150D01*
X0684286Y0229205D01*
X0684298Y0229262D01*
X0684305Y0229319D01*
X0684309Y0229376D01*
X0684308Y0229434D01*
X0684304Y0229491D01*
X0684296Y0229548D01*
X0684284Y0229604D01*
X0684268Y0229660D01*
X0684249Y0229714D01*
X0684226Y0229766D01*
X0684199Y0229817D01*
X0684169Y0229867D01*
X0684136Y0229914D01*
X0684100Y0229958D01*
X0684061Y0230000D01*
X0684019Y0230040D01*
X0683974Y0230076D01*
X0683927Y0230109D01*
X0683878Y0230139D01*
X0683827Y0230166D01*
X0683775Y0230189D01*
X0683938Y0232155D02*
X0683831Y0232201D01*
X0683722Y0232244D01*
X0683612Y0232284D01*
X0683500Y0232320D01*
X0683388Y0232352D01*
X0683274Y0232381D01*
X0683160Y0232407D01*
X0683045Y0232428D01*
X0682930Y0232447D01*
X0682813Y0232461D01*
X0682697Y0232472D01*
X0682580Y0232479D01*
X0682463Y0232483D01*
X0678768Y0230844D02*
X0674834Y0230844D01*
X0672163Y0232483D02*
X0670852Y0228550D01*
X0669541Y0232483D01*
X0701337Y0231172D02*
X0701337Y0229533D01*
X0701339Y0229471D01*
X0701345Y0229410D01*
X0701354Y0229349D01*
X0701368Y0229289D01*
X0701385Y0229229D01*
X0701406Y0229171D01*
X0701431Y0229114D01*
X0701459Y0229059D01*
X0701490Y0229006D01*
X0701525Y0228955D01*
X0701563Y0228906D01*
X0701603Y0228860D01*
X0701647Y0228816D01*
X0701693Y0228776D01*
X0701742Y0228738D01*
X0701793Y0228703D01*
X0701846Y0228672D01*
X0701901Y0228644D01*
X0701958Y0228619D01*
X0702016Y0228598D01*
X0702076Y0228581D01*
X0702136Y0228567D01*
X0702197Y0228558D01*
X0702258Y0228552D01*
X0702320Y0228550D01*
X0703959Y0228550D01*
X0703959Y0230517D02*
X0701337Y0230517D01*
X0701337Y0231172D02*
X0701339Y0231243D01*
X0701345Y0231314D01*
X0701354Y0231384D01*
X0701368Y0231454D01*
X0701385Y0231523D01*
X0701406Y0231591D01*
X0701430Y0231657D01*
X0701458Y0231722D01*
X0701490Y0231786D01*
X0701525Y0231848D01*
X0701563Y0231908D01*
X0701604Y0231965D01*
X0701649Y0232021D01*
X0701696Y0232074D01*
X0701746Y0232124D01*
X0701799Y0232171D01*
X0701855Y0232216D01*
X0701912Y0232257D01*
X0701972Y0232295D01*
X0702034Y0232330D01*
X0702098Y0232362D01*
X0702163Y0232390D01*
X0702229Y0232414D01*
X0702297Y0232435D01*
X0702366Y0232452D01*
X0702436Y0232466D01*
X0702506Y0232475D01*
X0702577Y0232481D01*
X0702648Y0232483D01*
X0702719Y0232481D01*
X0702790Y0232475D01*
X0702860Y0232466D01*
X0702930Y0232452D01*
X0702999Y0232435D01*
X0703067Y0232414D01*
X0703133Y0232390D01*
X0703198Y0232362D01*
X0703262Y0232330D01*
X0703324Y0232295D01*
X0703384Y0232257D01*
X0703441Y0232216D01*
X0703497Y0232171D01*
X0703550Y0232124D01*
X0703600Y0232074D01*
X0703647Y0232021D01*
X0703692Y0231965D01*
X0703733Y0231908D01*
X0703771Y0231848D01*
X0703806Y0231786D01*
X0703838Y0231722D01*
X0703866Y0231657D01*
X0703890Y0231591D01*
X0703911Y0231523D01*
X0703928Y0231454D01*
X0703942Y0231384D01*
X0703951Y0231314D01*
X0703957Y0231243D01*
X0703959Y0231172D01*
X0703959Y0230517D01*
X0699251Y0130483D02*
X0699251Y0129828D01*
X0699251Y0130483D02*
X0697284Y0130483D01*
X0697284Y0126550D01*
X0694318Y0127861D02*
X0694318Y0129172D01*
X0694316Y0129243D01*
X0694310Y0129314D01*
X0694301Y0129384D01*
X0694287Y0129454D01*
X0694270Y0129523D01*
X0694249Y0129591D01*
X0694225Y0129657D01*
X0694197Y0129722D01*
X0694165Y0129786D01*
X0694130Y0129848D01*
X0694092Y0129908D01*
X0694051Y0129965D01*
X0694006Y0130021D01*
X0693959Y0130074D01*
X0693909Y0130124D01*
X0693856Y0130171D01*
X0693800Y0130216D01*
X0693743Y0130257D01*
X0693683Y0130295D01*
X0693621Y0130330D01*
X0693557Y0130362D01*
X0693492Y0130390D01*
X0693426Y0130414D01*
X0693358Y0130435D01*
X0693289Y0130452D01*
X0693219Y0130466D01*
X0693149Y0130475D01*
X0693078Y0130481D01*
X0693007Y0130483D01*
X0692936Y0130481D01*
X0692865Y0130475D01*
X0692795Y0130466D01*
X0692725Y0130452D01*
X0692656Y0130435D01*
X0692588Y0130414D01*
X0692522Y0130390D01*
X0692457Y0130362D01*
X0692393Y0130330D01*
X0692331Y0130295D01*
X0692271Y0130257D01*
X0692214Y0130216D01*
X0692158Y0130171D01*
X0692105Y0130124D01*
X0692055Y0130074D01*
X0692008Y0130021D01*
X0691963Y0129965D01*
X0691922Y0129908D01*
X0691884Y0129848D01*
X0691849Y0129786D01*
X0691817Y0129722D01*
X0691789Y0129657D01*
X0691765Y0129591D01*
X0691744Y0129523D01*
X0691727Y0129454D01*
X0691713Y0129384D01*
X0691704Y0129314D01*
X0691698Y0129243D01*
X0691696Y0129172D01*
X0691695Y0129172D02*
X0691695Y0127861D01*
X0691696Y0127861D02*
X0691698Y0127790D01*
X0691704Y0127719D01*
X0691713Y0127649D01*
X0691727Y0127579D01*
X0691744Y0127510D01*
X0691765Y0127442D01*
X0691789Y0127376D01*
X0691817Y0127311D01*
X0691849Y0127247D01*
X0691884Y0127185D01*
X0691922Y0127125D01*
X0691963Y0127068D01*
X0692008Y0127012D01*
X0692055Y0126959D01*
X0692105Y0126909D01*
X0692158Y0126862D01*
X0692214Y0126817D01*
X0692271Y0126776D01*
X0692331Y0126738D01*
X0692393Y0126703D01*
X0692457Y0126671D01*
X0692522Y0126643D01*
X0692588Y0126619D01*
X0692656Y0126598D01*
X0692725Y0126581D01*
X0692795Y0126567D01*
X0692865Y0126558D01*
X0692936Y0126552D01*
X0693007Y0126550D01*
X0693078Y0126552D01*
X0693149Y0126558D01*
X0693219Y0126567D01*
X0693289Y0126581D01*
X0693358Y0126598D01*
X0693426Y0126619D01*
X0693492Y0126643D01*
X0693557Y0126671D01*
X0693621Y0126703D01*
X0693683Y0126738D01*
X0693743Y0126776D01*
X0693800Y0126817D01*
X0693856Y0126862D01*
X0693909Y0126909D01*
X0693959Y0126959D01*
X0694006Y0127012D01*
X0694051Y0127068D01*
X0694092Y0127125D01*
X0694130Y0127185D01*
X0694165Y0127247D01*
X0694197Y0127311D01*
X0694225Y0127376D01*
X0694249Y0127442D01*
X0694270Y0127510D01*
X0694287Y0127579D01*
X0694301Y0127649D01*
X0694310Y0127719D01*
X0694316Y0127790D01*
X0694318Y0127861D01*
X0689282Y0126550D02*
X0687971Y0126550D01*
X0687909Y0126552D01*
X0687848Y0126558D01*
X0687787Y0126567D01*
X0687727Y0126581D01*
X0687667Y0126598D01*
X0687609Y0126619D01*
X0687552Y0126644D01*
X0687497Y0126672D01*
X0687444Y0126703D01*
X0687393Y0126738D01*
X0687344Y0126776D01*
X0687298Y0126816D01*
X0687254Y0126860D01*
X0687214Y0126906D01*
X0687176Y0126955D01*
X0687141Y0127006D01*
X0687110Y0127059D01*
X0687082Y0127114D01*
X0687057Y0127171D01*
X0687036Y0127229D01*
X0687019Y0127289D01*
X0687005Y0127349D01*
X0686996Y0127410D01*
X0686990Y0127471D01*
X0686988Y0127533D01*
X0686988Y0129500D01*
X0686990Y0129562D01*
X0686996Y0129623D01*
X0687005Y0129684D01*
X0687019Y0129744D01*
X0687036Y0129804D01*
X0687057Y0129862D01*
X0687082Y0129919D01*
X0687110Y0129974D01*
X0687141Y0130027D01*
X0687176Y0130078D01*
X0687214Y0130127D01*
X0687254Y0130173D01*
X0687298Y0130217D01*
X0687344Y0130257D01*
X0687393Y0130295D01*
X0687444Y0130330D01*
X0687497Y0130361D01*
X0687552Y0130389D01*
X0687609Y0130414D01*
X0687667Y0130435D01*
X0687727Y0130452D01*
X0687787Y0130466D01*
X0687848Y0130475D01*
X0687909Y0130481D01*
X0687971Y0130483D01*
X0689282Y0130483D01*
X0683774Y0128189D02*
X0682136Y0128844D01*
X0682135Y0128845D02*
X0682083Y0128868D01*
X0682032Y0128895D01*
X0681983Y0128925D01*
X0681936Y0128958D01*
X0681891Y0128994D01*
X0681849Y0129034D01*
X0681810Y0129076D01*
X0681774Y0129120D01*
X0681741Y0129167D01*
X0681711Y0129217D01*
X0681684Y0129268D01*
X0681661Y0129320D01*
X0681642Y0129374D01*
X0681626Y0129430D01*
X0681614Y0129486D01*
X0681606Y0129543D01*
X0681602Y0129600D01*
X0681601Y0129658D01*
X0681605Y0129715D01*
X0681612Y0129772D01*
X0681624Y0129829D01*
X0681639Y0129884D01*
X0681657Y0129939D01*
X0681680Y0129992D01*
X0681706Y0130043D01*
X0681735Y0130092D01*
X0681768Y0130140D01*
X0681804Y0130185D01*
X0681842Y0130227D01*
X0681884Y0130267D01*
X0681928Y0130304D01*
X0681975Y0130338D01*
X0682023Y0130369D01*
X0682074Y0130396D01*
X0682126Y0130420D01*
X0682180Y0130440D01*
X0682235Y0130456D01*
X0682291Y0130469D01*
X0682348Y0130478D01*
X0682406Y0130483D01*
X0682463Y0130484D01*
X0681644Y0126878D02*
X0681778Y0126832D01*
X0681913Y0126789D01*
X0682049Y0126750D01*
X0682186Y0126714D01*
X0682323Y0126682D01*
X0682462Y0126653D01*
X0682601Y0126627D01*
X0682741Y0126606D01*
X0682882Y0126587D01*
X0683022Y0126573D01*
X0683164Y0126562D01*
X0683305Y0126554D01*
X0683447Y0126551D01*
X0683447Y0126550D02*
X0683504Y0126551D01*
X0683562Y0126556D01*
X0683619Y0126565D01*
X0683675Y0126578D01*
X0683730Y0126594D01*
X0683784Y0126614D01*
X0683836Y0126638D01*
X0683887Y0126665D01*
X0683935Y0126696D01*
X0683982Y0126730D01*
X0684026Y0126767D01*
X0684068Y0126807D01*
X0684106Y0126849D01*
X0684142Y0126894D01*
X0684175Y0126942D01*
X0684204Y0126991D01*
X0684230Y0127042D01*
X0684253Y0127095D01*
X0684271Y0127150D01*
X0684286Y0127205D01*
X0684298Y0127262D01*
X0684305Y0127319D01*
X0684309Y0127376D01*
X0684308Y0127434D01*
X0684304Y0127491D01*
X0684296Y0127548D01*
X0684284Y0127604D01*
X0684268Y0127660D01*
X0684249Y0127714D01*
X0684226Y0127766D01*
X0684199Y0127817D01*
X0684169Y0127867D01*
X0684136Y0127914D01*
X0684100Y0127958D01*
X0684061Y0128000D01*
X0684019Y0128040D01*
X0683974Y0128076D01*
X0683927Y0128109D01*
X0683878Y0128139D01*
X0683827Y0128166D01*
X0683775Y0128189D01*
X0683938Y0130155D02*
X0683831Y0130201D01*
X0683722Y0130244D01*
X0683612Y0130284D01*
X0683500Y0130320D01*
X0683388Y0130352D01*
X0683274Y0130381D01*
X0683160Y0130407D01*
X0683045Y0130428D01*
X0682930Y0130447D01*
X0682813Y0130461D01*
X0682697Y0130472D01*
X0682580Y0130479D01*
X0682463Y0130483D01*
X0678768Y0128844D02*
X0674834Y0128844D01*
X0672163Y0130483D02*
X0670852Y0126550D01*
X0669541Y0130483D01*
X0701337Y0129172D02*
X0701337Y0127533D01*
X0701339Y0127471D01*
X0701345Y0127410D01*
X0701354Y0127349D01*
X0701368Y0127289D01*
X0701385Y0127229D01*
X0701406Y0127171D01*
X0701431Y0127114D01*
X0701459Y0127059D01*
X0701490Y0127006D01*
X0701525Y0126955D01*
X0701563Y0126906D01*
X0701603Y0126860D01*
X0701647Y0126816D01*
X0701693Y0126776D01*
X0701742Y0126738D01*
X0701793Y0126703D01*
X0701846Y0126672D01*
X0701901Y0126644D01*
X0701958Y0126619D01*
X0702016Y0126598D01*
X0702076Y0126581D01*
X0702136Y0126567D01*
X0702197Y0126558D01*
X0702258Y0126552D01*
X0702320Y0126550D01*
X0703959Y0126550D01*
X0703959Y0128517D02*
X0701337Y0128517D01*
X0701337Y0129172D02*
X0701339Y0129243D01*
X0701345Y0129314D01*
X0701354Y0129384D01*
X0701368Y0129454D01*
X0701385Y0129523D01*
X0701406Y0129591D01*
X0701430Y0129657D01*
X0701458Y0129722D01*
X0701490Y0129786D01*
X0701525Y0129848D01*
X0701563Y0129908D01*
X0701604Y0129965D01*
X0701649Y0130021D01*
X0701696Y0130074D01*
X0701746Y0130124D01*
X0701799Y0130171D01*
X0701855Y0130216D01*
X0701912Y0130257D01*
X0701972Y0130295D01*
X0702034Y0130330D01*
X0702098Y0130362D01*
X0702163Y0130390D01*
X0702229Y0130414D01*
X0702297Y0130435D01*
X0702366Y0130452D01*
X0702436Y0130466D01*
X0702506Y0130475D01*
X0702577Y0130481D01*
X0702648Y0130483D01*
X0702719Y0130481D01*
X0702790Y0130475D01*
X0702860Y0130466D01*
X0702930Y0130452D01*
X0702999Y0130435D01*
X0703067Y0130414D01*
X0703133Y0130390D01*
X0703198Y0130362D01*
X0703262Y0130330D01*
X0703324Y0130295D01*
X0703384Y0130257D01*
X0703441Y0130216D01*
X0703497Y0130171D01*
X0703550Y0130124D01*
X0703600Y0130074D01*
X0703647Y0130021D01*
X0703692Y0129965D01*
X0703733Y0129908D01*
X0703771Y0129848D01*
X0703806Y0129786D01*
X0703838Y0129722D01*
X0703866Y0129657D01*
X0703890Y0129591D01*
X0703911Y0129523D01*
X0703928Y0129454D01*
X0703942Y0129384D01*
X0703951Y0129314D01*
X0703957Y0129243D01*
X0703959Y0129172D01*
X0703959Y0128517D01*
X0699251Y0028483D02*
X0699251Y0027828D01*
X0699251Y0028483D02*
X0697284Y0028483D01*
X0697284Y0024550D01*
X0694318Y0025861D02*
X0694318Y0027172D01*
X0694316Y0027243D01*
X0694310Y0027314D01*
X0694301Y0027384D01*
X0694287Y0027454D01*
X0694270Y0027523D01*
X0694249Y0027591D01*
X0694225Y0027657D01*
X0694197Y0027722D01*
X0694165Y0027786D01*
X0694130Y0027848D01*
X0694092Y0027908D01*
X0694051Y0027965D01*
X0694006Y0028021D01*
X0693959Y0028074D01*
X0693909Y0028124D01*
X0693856Y0028171D01*
X0693800Y0028216D01*
X0693743Y0028257D01*
X0693683Y0028295D01*
X0693621Y0028330D01*
X0693557Y0028362D01*
X0693492Y0028390D01*
X0693426Y0028414D01*
X0693358Y0028435D01*
X0693289Y0028452D01*
X0693219Y0028466D01*
X0693149Y0028475D01*
X0693078Y0028481D01*
X0693007Y0028483D01*
X0692936Y0028481D01*
X0692865Y0028475D01*
X0692795Y0028466D01*
X0692725Y0028452D01*
X0692656Y0028435D01*
X0692588Y0028414D01*
X0692522Y0028390D01*
X0692457Y0028362D01*
X0692393Y0028330D01*
X0692331Y0028295D01*
X0692271Y0028257D01*
X0692214Y0028216D01*
X0692158Y0028171D01*
X0692105Y0028124D01*
X0692055Y0028074D01*
X0692008Y0028021D01*
X0691963Y0027965D01*
X0691922Y0027908D01*
X0691884Y0027848D01*
X0691849Y0027786D01*
X0691817Y0027722D01*
X0691789Y0027657D01*
X0691765Y0027591D01*
X0691744Y0027523D01*
X0691727Y0027454D01*
X0691713Y0027384D01*
X0691704Y0027314D01*
X0691698Y0027243D01*
X0691696Y0027172D01*
X0691695Y0027172D02*
X0691695Y0025861D01*
X0691696Y0025861D02*
X0691698Y0025790D01*
X0691704Y0025719D01*
X0691713Y0025649D01*
X0691727Y0025579D01*
X0691744Y0025510D01*
X0691765Y0025442D01*
X0691789Y0025376D01*
X0691817Y0025311D01*
X0691849Y0025247D01*
X0691884Y0025185D01*
X0691922Y0025125D01*
X0691963Y0025068D01*
X0692008Y0025012D01*
X0692055Y0024959D01*
X0692105Y0024909D01*
X0692158Y0024862D01*
X0692214Y0024817D01*
X0692271Y0024776D01*
X0692331Y0024738D01*
X0692393Y0024703D01*
X0692457Y0024671D01*
X0692522Y0024643D01*
X0692588Y0024619D01*
X0692656Y0024598D01*
X0692725Y0024581D01*
X0692795Y0024567D01*
X0692865Y0024558D01*
X0692936Y0024552D01*
X0693007Y0024550D01*
X0693078Y0024552D01*
X0693149Y0024558D01*
X0693219Y0024567D01*
X0693289Y0024581D01*
X0693358Y0024598D01*
X0693426Y0024619D01*
X0693492Y0024643D01*
X0693557Y0024671D01*
X0693621Y0024703D01*
X0693683Y0024738D01*
X0693743Y0024776D01*
X0693800Y0024817D01*
X0693856Y0024862D01*
X0693909Y0024909D01*
X0693959Y0024959D01*
X0694006Y0025012D01*
X0694051Y0025068D01*
X0694092Y0025125D01*
X0694130Y0025185D01*
X0694165Y0025247D01*
X0694197Y0025311D01*
X0694225Y0025376D01*
X0694249Y0025442D01*
X0694270Y0025510D01*
X0694287Y0025579D01*
X0694301Y0025649D01*
X0694310Y0025719D01*
X0694316Y0025790D01*
X0694318Y0025861D01*
X0689282Y0024550D02*
X0687971Y0024550D01*
X0687909Y0024552D01*
X0687848Y0024558D01*
X0687787Y0024567D01*
X0687727Y0024581D01*
X0687667Y0024598D01*
X0687609Y0024619D01*
X0687552Y0024644D01*
X0687497Y0024672D01*
X0687444Y0024703D01*
X0687393Y0024738D01*
X0687344Y0024776D01*
X0687298Y0024816D01*
X0687254Y0024860D01*
X0687214Y0024906D01*
X0687176Y0024955D01*
X0687141Y0025006D01*
X0687110Y0025059D01*
X0687082Y0025114D01*
X0687057Y0025171D01*
X0687036Y0025229D01*
X0687019Y0025289D01*
X0687005Y0025349D01*
X0686996Y0025410D01*
X0686990Y0025471D01*
X0686988Y0025533D01*
X0686988Y0027500D01*
X0686990Y0027562D01*
X0686996Y0027623D01*
X0687005Y0027684D01*
X0687019Y0027744D01*
X0687036Y0027804D01*
X0687057Y0027862D01*
X0687082Y0027919D01*
X0687110Y0027974D01*
X0687141Y0028027D01*
X0687176Y0028078D01*
X0687214Y0028127D01*
X0687254Y0028173D01*
X0687298Y0028217D01*
X0687344Y0028257D01*
X0687393Y0028295D01*
X0687444Y0028330D01*
X0687497Y0028361D01*
X0687552Y0028389D01*
X0687609Y0028414D01*
X0687667Y0028435D01*
X0687727Y0028452D01*
X0687787Y0028466D01*
X0687848Y0028475D01*
X0687909Y0028481D01*
X0687971Y0028483D01*
X0689282Y0028483D01*
X0683774Y0026189D02*
X0682136Y0026844D01*
X0682135Y0026845D02*
X0682083Y0026868D01*
X0682032Y0026895D01*
X0681983Y0026925D01*
X0681936Y0026958D01*
X0681891Y0026994D01*
X0681849Y0027034D01*
X0681810Y0027076D01*
X0681774Y0027120D01*
X0681741Y0027167D01*
X0681711Y0027217D01*
X0681684Y0027268D01*
X0681661Y0027320D01*
X0681642Y0027374D01*
X0681626Y0027430D01*
X0681614Y0027486D01*
X0681606Y0027543D01*
X0681602Y0027600D01*
X0681601Y0027658D01*
X0681605Y0027715D01*
X0681612Y0027772D01*
X0681624Y0027829D01*
X0681639Y0027884D01*
X0681657Y0027939D01*
X0681680Y0027992D01*
X0681706Y0028043D01*
X0681735Y0028092D01*
X0681768Y0028140D01*
X0681804Y0028185D01*
X0681842Y0028227D01*
X0681884Y0028267D01*
X0681928Y0028304D01*
X0681975Y0028338D01*
X0682023Y0028369D01*
X0682074Y0028396D01*
X0682126Y0028420D01*
X0682180Y0028440D01*
X0682235Y0028456D01*
X0682291Y0028469D01*
X0682348Y0028478D01*
X0682406Y0028483D01*
X0682463Y0028484D01*
X0681644Y0024878D02*
X0681778Y0024832D01*
X0681913Y0024789D01*
X0682049Y0024750D01*
X0682186Y0024714D01*
X0682323Y0024682D01*
X0682462Y0024653D01*
X0682601Y0024627D01*
X0682741Y0024606D01*
X0682882Y0024587D01*
X0683022Y0024573D01*
X0683164Y0024562D01*
X0683305Y0024554D01*
X0683447Y0024551D01*
X0683447Y0024550D02*
X0683504Y0024551D01*
X0683562Y0024556D01*
X0683619Y0024565D01*
X0683675Y0024578D01*
X0683730Y0024594D01*
X0683784Y0024614D01*
X0683836Y0024638D01*
X0683887Y0024665D01*
X0683935Y0024696D01*
X0683982Y0024730D01*
X0684026Y0024767D01*
X0684068Y0024807D01*
X0684106Y0024849D01*
X0684142Y0024894D01*
X0684175Y0024942D01*
X0684204Y0024991D01*
X0684230Y0025042D01*
X0684253Y0025095D01*
X0684271Y0025150D01*
X0684286Y0025205D01*
X0684298Y0025262D01*
X0684305Y0025319D01*
X0684309Y0025376D01*
X0684308Y0025434D01*
X0684304Y0025491D01*
X0684296Y0025548D01*
X0684284Y0025604D01*
X0684268Y0025660D01*
X0684249Y0025714D01*
X0684226Y0025766D01*
X0684199Y0025817D01*
X0684169Y0025867D01*
X0684136Y0025914D01*
X0684100Y0025958D01*
X0684061Y0026000D01*
X0684019Y0026040D01*
X0683974Y0026076D01*
X0683927Y0026109D01*
X0683878Y0026139D01*
X0683827Y0026166D01*
X0683775Y0026189D01*
X0683938Y0028155D02*
X0683831Y0028201D01*
X0683722Y0028244D01*
X0683612Y0028284D01*
X0683500Y0028320D01*
X0683388Y0028352D01*
X0683274Y0028381D01*
X0683160Y0028407D01*
X0683045Y0028428D01*
X0682930Y0028447D01*
X0682813Y0028461D01*
X0682697Y0028472D01*
X0682580Y0028479D01*
X0682463Y0028483D01*
X0678768Y0026844D02*
X0674834Y0026844D01*
X0672163Y0028483D02*
X0670852Y0024550D01*
X0669541Y0028483D01*
X0701337Y0027172D02*
X0701337Y0025533D01*
X0701339Y0025471D01*
X0701345Y0025410D01*
X0701354Y0025349D01*
X0701368Y0025289D01*
X0701385Y0025229D01*
X0701406Y0025171D01*
X0701431Y0025114D01*
X0701459Y0025059D01*
X0701490Y0025006D01*
X0701525Y0024955D01*
X0701563Y0024906D01*
X0701603Y0024860D01*
X0701647Y0024816D01*
X0701693Y0024776D01*
X0701742Y0024738D01*
X0701793Y0024703D01*
X0701846Y0024672D01*
X0701901Y0024644D01*
X0701958Y0024619D01*
X0702016Y0024598D01*
X0702076Y0024581D01*
X0702136Y0024567D01*
X0702197Y0024558D01*
X0702258Y0024552D01*
X0702320Y0024550D01*
X0703959Y0024550D01*
X0703959Y0026517D02*
X0701337Y0026517D01*
X0701337Y0027172D02*
X0701339Y0027243D01*
X0701345Y0027314D01*
X0701354Y0027384D01*
X0701368Y0027454D01*
X0701385Y0027523D01*
X0701406Y0027591D01*
X0701430Y0027657D01*
X0701458Y0027722D01*
X0701490Y0027786D01*
X0701525Y0027848D01*
X0701563Y0027908D01*
X0701604Y0027965D01*
X0701649Y0028021D01*
X0701696Y0028074D01*
X0701746Y0028124D01*
X0701799Y0028171D01*
X0701855Y0028216D01*
X0701912Y0028257D01*
X0701972Y0028295D01*
X0702034Y0028330D01*
X0702098Y0028362D01*
X0702163Y0028390D01*
X0702229Y0028414D01*
X0702297Y0028435D01*
X0702366Y0028452D01*
X0702436Y0028466D01*
X0702506Y0028475D01*
X0702577Y0028481D01*
X0702648Y0028483D01*
X0702719Y0028481D01*
X0702790Y0028475D01*
X0702860Y0028466D01*
X0702930Y0028452D01*
X0702999Y0028435D01*
X0703067Y0028414D01*
X0703133Y0028390D01*
X0703198Y0028362D01*
X0703262Y0028330D01*
X0703324Y0028295D01*
X0703384Y0028257D01*
X0703441Y0028216D01*
X0703497Y0028171D01*
X0703550Y0028124D01*
X0703600Y0028074D01*
X0703647Y0028021D01*
X0703692Y0027965D01*
X0703733Y0027908D01*
X0703771Y0027848D01*
X0703806Y0027786D01*
X0703838Y0027722D01*
X0703866Y0027657D01*
X0703890Y0027591D01*
X0703911Y0027523D01*
X0703928Y0027454D01*
X0703942Y0027384D01*
X0703951Y0027314D01*
X0703957Y0027243D01*
X0703959Y0027172D01*
X0703959Y0026517D01*
D12*
X0437844Y0067654D02*
X0436270Y0067654D01*
X0436270Y0067653D02*
X0436203Y0067649D01*
X0436136Y0067649D01*
X0436068Y0067653D01*
X0436002Y0067661D01*
X0435935Y0067672D01*
X0435870Y0067688D01*
X0435805Y0067707D01*
X0435742Y0067729D01*
X0435680Y0067755D01*
X0435619Y0067785D01*
X0435561Y0067818D01*
X0435504Y0067854D01*
X0435450Y0067894D01*
X0435397Y0067936D01*
X0435348Y0067982D01*
X0435301Y0068030D01*
X0435257Y0068081D01*
X0435215Y0068134D01*
X0435177Y0068189D01*
X0435143Y0068247D01*
X0435111Y0068306D01*
X0435083Y0068368D01*
X0435058Y0068430D01*
X0435037Y0068494D01*
X0435020Y0068559D01*
X0435007Y0068625D01*
X0434997Y0068692D01*
X0434991Y0068759D01*
X0434989Y0068826D01*
X0434991Y0068893D01*
X0434990Y0068893D02*
X0434993Y0068966D01*
X0435000Y0069038D01*
X0435011Y0069109D01*
X0435025Y0069180D01*
X0435043Y0069250D01*
X0435066Y0069319D01*
X0435091Y0069387D01*
X0435121Y0069453D01*
X0435154Y0069517D01*
X0435190Y0069580D01*
X0435230Y0069640D01*
X0435273Y0069699D01*
X0435319Y0069754D01*
X0435368Y0069808D01*
X0435419Y0069858D01*
X0435474Y0069906D01*
X0435531Y0069951D01*
X0435590Y0069992D01*
X0435651Y0070030D01*
X0435715Y0070065D01*
X0435780Y0070097D01*
X0435847Y0070124D01*
X0435915Y0070149D01*
X0435984Y0070169D01*
X0436055Y0070186D01*
X0436126Y0070199D01*
X0436198Y0070208D01*
X0436270Y0070213D01*
X0437844Y0070213D01*
X0437914Y0070212D01*
X0437983Y0070207D01*
X0438052Y0070199D01*
X0438121Y0070187D01*
X0438188Y0070171D01*
X0438255Y0070151D01*
X0438321Y0070127D01*
X0438385Y0070100D01*
X0438447Y0070070D01*
X0438508Y0070036D01*
X0438567Y0069999D01*
X0438624Y0069958D01*
X0438678Y0069915D01*
X0438730Y0069868D01*
X0438779Y0069819D01*
X0438826Y0069767D01*
X0438869Y0069713D01*
X0438910Y0069656D01*
X0438947Y0069597D01*
X0438981Y0069536D01*
X0439011Y0069474D01*
X0439038Y0069410D01*
X0439062Y0069344D01*
X0439082Y0069277D01*
X0439098Y0069210D01*
X0439110Y0069141D01*
X0439118Y0069072D01*
X0439123Y0069003D01*
X0439124Y0068933D01*
X0439122Y0068864D01*
X0439116Y0068795D01*
X0439107Y0068726D01*
X0439094Y0068658D01*
X0439077Y0068591D01*
X0439057Y0068524D01*
X0439033Y0068459D01*
X0439006Y0068396D01*
X0438975Y0068333D01*
X0438941Y0068273D01*
X0438903Y0068215D01*
X0438863Y0068158D01*
X0438820Y0068104D01*
X0438773Y0068053D01*
X0438724Y0068004D01*
X0438673Y0067957D01*
X0438619Y0067914D01*
X0438562Y0067874D01*
X0438504Y0067836D01*
X0438444Y0067802D01*
X0438381Y0067771D01*
X0438318Y0067744D01*
X0438253Y0067720D01*
X0438186Y0067700D01*
X0438119Y0067683D01*
X0438051Y0067670D01*
X0437982Y0067661D01*
X0437913Y0067655D01*
X0437844Y0067653D01*
X0426309Y0066374D02*
X0423947Y0066374D01*
X0423876Y0066384D01*
X0423807Y0066398D01*
X0423738Y0066416D01*
X0423670Y0066437D01*
X0423603Y0066462D01*
X0423538Y0066491D01*
X0423474Y0066523D01*
X0423413Y0066558D01*
X0423353Y0066596D01*
X0423295Y0066638D01*
X0423240Y0066683D01*
X0423186Y0066730D01*
X0423136Y0066780D01*
X0423088Y0066833D01*
X0423043Y0066888D01*
X0423002Y0066946D01*
X0422963Y0067005D01*
X0422927Y0067067D01*
X0422895Y0067130D01*
X0422866Y0067196D01*
X0422841Y0067262D01*
X0422819Y0067330D01*
X0422801Y0067399D01*
X0422786Y0067468D01*
X0422776Y0067538D01*
X0422769Y0067609D01*
X0422765Y0067680D01*
X0422766Y0067751D01*
X0422766Y0067752D02*
X0422765Y0067823D01*
X0422769Y0067894D01*
X0422776Y0067965D01*
X0422786Y0068035D01*
X0422801Y0068104D01*
X0422819Y0068173D01*
X0422841Y0068241D01*
X0422866Y0068307D01*
X0422895Y0068373D01*
X0422927Y0068436D01*
X0422963Y0068498D01*
X0423002Y0068557D01*
X0423043Y0068615D01*
X0423088Y0068670D01*
X0423136Y0068723D01*
X0423186Y0068773D01*
X0423240Y0068820D01*
X0423295Y0068865D01*
X0423353Y0068907D01*
X0423413Y0068945D01*
X0423474Y0068980D01*
X0423538Y0069012D01*
X0423603Y0069041D01*
X0423670Y0069066D01*
X0423738Y0069087D01*
X0423807Y0069105D01*
X0423876Y0069119D01*
X0423947Y0069129D01*
X0423947Y0069130D02*
X0426309Y0069130D01*
X0426309Y0069129D02*
X0426380Y0069119D01*
X0426449Y0069105D01*
X0426518Y0069087D01*
X0426586Y0069066D01*
X0426653Y0069041D01*
X0426718Y0069012D01*
X0426782Y0068980D01*
X0426843Y0068945D01*
X0426903Y0068907D01*
X0426961Y0068865D01*
X0427016Y0068820D01*
X0427070Y0068773D01*
X0427120Y0068723D01*
X0427168Y0068670D01*
X0427213Y0068615D01*
X0427254Y0068557D01*
X0427293Y0068498D01*
X0427329Y0068436D01*
X0427361Y0068373D01*
X0427390Y0068307D01*
X0427415Y0068241D01*
X0427437Y0068173D01*
X0427455Y0068104D01*
X0427470Y0068035D01*
X0427480Y0067965D01*
X0427487Y0067894D01*
X0427491Y0067823D01*
X0427490Y0067752D01*
X0427490Y0067751D02*
X0427491Y0067680D01*
X0427487Y0067609D01*
X0427480Y0067538D01*
X0427470Y0067468D01*
X0427455Y0067399D01*
X0427437Y0067330D01*
X0427415Y0067262D01*
X0427390Y0067196D01*
X0427361Y0067130D01*
X0427329Y0067067D01*
X0427293Y0067005D01*
X0427254Y0066946D01*
X0427213Y0066888D01*
X0427168Y0066833D01*
X0427120Y0066780D01*
X0427070Y0066730D01*
X0427016Y0066683D01*
X0426961Y0066638D01*
X0426903Y0066596D01*
X0426843Y0066558D01*
X0426782Y0066523D01*
X0426718Y0066491D01*
X0426653Y0066462D01*
X0426586Y0066437D01*
X0426518Y0066416D01*
X0426449Y0066398D01*
X0426380Y0066384D01*
X0426309Y0066374D01*
X0426309Y0087870D02*
X0423947Y0087870D01*
X0423947Y0087871D02*
X0423876Y0087881D01*
X0423807Y0087895D01*
X0423738Y0087913D01*
X0423670Y0087934D01*
X0423603Y0087959D01*
X0423538Y0087988D01*
X0423474Y0088020D01*
X0423413Y0088055D01*
X0423353Y0088093D01*
X0423295Y0088135D01*
X0423240Y0088180D01*
X0423186Y0088227D01*
X0423136Y0088277D01*
X0423088Y0088330D01*
X0423043Y0088385D01*
X0423002Y0088443D01*
X0422963Y0088502D01*
X0422927Y0088564D01*
X0422895Y0088627D01*
X0422866Y0088693D01*
X0422841Y0088759D01*
X0422819Y0088827D01*
X0422801Y0088896D01*
X0422786Y0088965D01*
X0422776Y0089035D01*
X0422769Y0089106D01*
X0422765Y0089177D01*
X0422766Y0089248D01*
X0422766Y0089249D02*
X0422765Y0089320D01*
X0422769Y0089391D01*
X0422776Y0089462D01*
X0422786Y0089532D01*
X0422801Y0089601D01*
X0422819Y0089670D01*
X0422841Y0089738D01*
X0422866Y0089804D01*
X0422895Y0089870D01*
X0422927Y0089933D01*
X0422963Y0089995D01*
X0423002Y0090054D01*
X0423043Y0090112D01*
X0423088Y0090167D01*
X0423136Y0090220D01*
X0423186Y0090270D01*
X0423240Y0090317D01*
X0423295Y0090362D01*
X0423353Y0090404D01*
X0423413Y0090442D01*
X0423474Y0090477D01*
X0423538Y0090509D01*
X0423603Y0090538D01*
X0423670Y0090563D01*
X0423738Y0090584D01*
X0423807Y0090602D01*
X0423876Y0090616D01*
X0423947Y0090626D01*
X0426309Y0090626D01*
X0426380Y0090616D01*
X0426449Y0090602D01*
X0426518Y0090584D01*
X0426586Y0090563D01*
X0426653Y0090538D01*
X0426718Y0090509D01*
X0426782Y0090477D01*
X0426843Y0090442D01*
X0426903Y0090404D01*
X0426961Y0090362D01*
X0427016Y0090317D01*
X0427070Y0090270D01*
X0427120Y0090220D01*
X0427168Y0090167D01*
X0427213Y0090112D01*
X0427254Y0090054D01*
X0427293Y0089995D01*
X0427329Y0089933D01*
X0427361Y0089870D01*
X0427390Y0089804D01*
X0427415Y0089738D01*
X0427437Y0089670D01*
X0427455Y0089601D01*
X0427470Y0089532D01*
X0427480Y0089462D01*
X0427487Y0089391D01*
X0427491Y0089320D01*
X0427490Y0089249D01*
X0427490Y0089248D02*
X0427491Y0089177D01*
X0427487Y0089106D01*
X0427480Y0089035D01*
X0427470Y0088965D01*
X0427455Y0088896D01*
X0427437Y0088827D01*
X0427415Y0088759D01*
X0427390Y0088693D01*
X0427361Y0088627D01*
X0427329Y0088564D01*
X0427293Y0088502D01*
X0427254Y0088443D01*
X0427213Y0088385D01*
X0427168Y0088330D01*
X0427120Y0088277D01*
X0427070Y0088227D01*
X0427016Y0088180D01*
X0426961Y0088135D01*
X0426903Y0088093D01*
X0426843Y0088055D01*
X0426782Y0088020D01*
X0426718Y0087988D01*
X0426653Y0087959D01*
X0426586Y0087934D01*
X0426518Y0087913D01*
X0426449Y0087895D01*
X0426380Y0087881D01*
X0426309Y0087871D01*
X0434991Y0088027D02*
X0434989Y0087960D01*
X0434991Y0087893D01*
X0434997Y0087826D01*
X0435007Y0087759D01*
X0435020Y0087693D01*
X0435037Y0087628D01*
X0435058Y0087564D01*
X0435083Y0087502D01*
X0435111Y0087440D01*
X0435143Y0087381D01*
X0435177Y0087323D01*
X0435215Y0087268D01*
X0435257Y0087215D01*
X0435301Y0087164D01*
X0435348Y0087116D01*
X0435397Y0087070D01*
X0435450Y0087028D01*
X0435504Y0086988D01*
X0435561Y0086952D01*
X0435619Y0086919D01*
X0435680Y0086889D01*
X0435742Y0086863D01*
X0435805Y0086841D01*
X0435870Y0086822D01*
X0435935Y0086806D01*
X0436002Y0086795D01*
X0436068Y0086787D01*
X0436136Y0086783D01*
X0436203Y0086783D01*
X0436270Y0086787D01*
X0437844Y0086787D01*
X0437913Y0086789D01*
X0437982Y0086795D01*
X0438051Y0086804D01*
X0438119Y0086817D01*
X0438186Y0086834D01*
X0438253Y0086854D01*
X0438318Y0086878D01*
X0438381Y0086905D01*
X0438444Y0086936D01*
X0438504Y0086970D01*
X0438562Y0087008D01*
X0438619Y0087048D01*
X0438673Y0087091D01*
X0438724Y0087138D01*
X0438773Y0087187D01*
X0438820Y0087238D01*
X0438863Y0087292D01*
X0438903Y0087349D01*
X0438941Y0087407D01*
X0438975Y0087467D01*
X0439006Y0087530D01*
X0439033Y0087593D01*
X0439057Y0087658D01*
X0439077Y0087725D01*
X0439094Y0087792D01*
X0439107Y0087860D01*
X0439116Y0087929D01*
X0439122Y0087998D01*
X0439124Y0088067D01*
X0439123Y0088137D01*
X0439118Y0088206D01*
X0439110Y0088275D01*
X0439098Y0088344D01*
X0439082Y0088411D01*
X0439062Y0088478D01*
X0439038Y0088544D01*
X0439011Y0088608D01*
X0438981Y0088670D01*
X0438947Y0088731D01*
X0438910Y0088790D01*
X0438869Y0088847D01*
X0438826Y0088901D01*
X0438779Y0088953D01*
X0438730Y0089002D01*
X0438678Y0089049D01*
X0438624Y0089092D01*
X0438567Y0089133D01*
X0438508Y0089170D01*
X0438447Y0089204D01*
X0438385Y0089234D01*
X0438321Y0089261D01*
X0438255Y0089285D01*
X0438188Y0089305D01*
X0438121Y0089321D01*
X0438052Y0089333D01*
X0437983Y0089341D01*
X0437914Y0089346D01*
X0437844Y0089347D01*
X0437844Y0089346D02*
X0436270Y0089346D01*
X0436270Y0089347D02*
X0436198Y0089342D01*
X0436126Y0089333D01*
X0436055Y0089320D01*
X0435984Y0089303D01*
X0435915Y0089283D01*
X0435847Y0089258D01*
X0435780Y0089231D01*
X0435715Y0089199D01*
X0435651Y0089164D01*
X0435590Y0089126D01*
X0435531Y0089085D01*
X0435474Y0089040D01*
X0435419Y0088992D01*
X0435368Y0088942D01*
X0435319Y0088888D01*
X0435273Y0088833D01*
X0435230Y0088774D01*
X0435190Y0088714D01*
X0435154Y0088651D01*
X0435121Y0088587D01*
X0435091Y0088521D01*
X0435066Y0088453D01*
X0435043Y0088384D01*
X0435025Y0088314D01*
X0435011Y0088243D01*
X0435000Y0088172D01*
X0434993Y0088100D01*
X0434990Y0088027D01*
X0426309Y0168374D02*
X0423947Y0168374D01*
X0423876Y0168384D01*
X0423807Y0168398D01*
X0423738Y0168416D01*
X0423670Y0168437D01*
X0423603Y0168462D01*
X0423538Y0168491D01*
X0423474Y0168523D01*
X0423413Y0168558D01*
X0423353Y0168596D01*
X0423295Y0168638D01*
X0423240Y0168683D01*
X0423186Y0168730D01*
X0423136Y0168780D01*
X0423088Y0168833D01*
X0423043Y0168888D01*
X0423002Y0168946D01*
X0422963Y0169005D01*
X0422927Y0169067D01*
X0422895Y0169130D01*
X0422866Y0169196D01*
X0422841Y0169262D01*
X0422819Y0169330D01*
X0422801Y0169399D01*
X0422786Y0169468D01*
X0422776Y0169538D01*
X0422769Y0169609D01*
X0422765Y0169680D01*
X0422766Y0169751D01*
X0422766Y0169752D02*
X0422765Y0169823D01*
X0422769Y0169894D01*
X0422776Y0169965D01*
X0422786Y0170035D01*
X0422801Y0170104D01*
X0422819Y0170173D01*
X0422841Y0170241D01*
X0422866Y0170307D01*
X0422895Y0170373D01*
X0422927Y0170436D01*
X0422963Y0170498D01*
X0423002Y0170557D01*
X0423043Y0170615D01*
X0423088Y0170670D01*
X0423136Y0170723D01*
X0423186Y0170773D01*
X0423240Y0170820D01*
X0423295Y0170865D01*
X0423353Y0170907D01*
X0423413Y0170945D01*
X0423474Y0170980D01*
X0423538Y0171012D01*
X0423603Y0171041D01*
X0423670Y0171066D01*
X0423738Y0171087D01*
X0423807Y0171105D01*
X0423876Y0171119D01*
X0423947Y0171129D01*
X0423947Y0171130D02*
X0426309Y0171130D01*
X0426309Y0171129D02*
X0426380Y0171119D01*
X0426449Y0171105D01*
X0426518Y0171087D01*
X0426586Y0171066D01*
X0426653Y0171041D01*
X0426718Y0171012D01*
X0426782Y0170980D01*
X0426843Y0170945D01*
X0426903Y0170907D01*
X0426961Y0170865D01*
X0427016Y0170820D01*
X0427070Y0170773D01*
X0427120Y0170723D01*
X0427168Y0170670D01*
X0427213Y0170615D01*
X0427254Y0170557D01*
X0427293Y0170498D01*
X0427329Y0170436D01*
X0427361Y0170373D01*
X0427390Y0170307D01*
X0427415Y0170241D01*
X0427437Y0170173D01*
X0427455Y0170104D01*
X0427470Y0170035D01*
X0427480Y0169965D01*
X0427487Y0169894D01*
X0427491Y0169823D01*
X0427490Y0169752D01*
X0427490Y0169751D02*
X0427491Y0169680D01*
X0427487Y0169609D01*
X0427480Y0169538D01*
X0427470Y0169468D01*
X0427455Y0169399D01*
X0427437Y0169330D01*
X0427415Y0169262D01*
X0427390Y0169196D01*
X0427361Y0169130D01*
X0427329Y0169067D01*
X0427293Y0169005D01*
X0427254Y0168946D01*
X0427213Y0168888D01*
X0427168Y0168833D01*
X0427120Y0168780D01*
X0427070Y0168730D01*
X0427016Y0168683D01*
X0426961Y0168638D01*
X0426903Y0168596D01*
X0426843Y0168558D01*
X0426782Y0168523D01*
X0426718Y0168491D01*
X0426653Y0168462D01*
X0426586Y0168437D01*
X0426518Y0168416D01*
X0426449Y0168398D01*
X0426380Y0168384D01*
X0426309Y0168374D01*
X0436270Y0169654D02*
X0437844Y0169654D01*
X0437844Y0169653D02*
X0437913Y0169655D01*
X0437982Y0169661D01*
X0438051Y0169670D01*
X0438119Y0169683D01*
X0438186Y0169700D01*
X0438253Y0169720D01*
X0438318Y0169744D01*
X0438381Y0169771D01*
X0438444Y0169802D01*
X0438504Y0169836D01*
X0438562Y0169874D01*
X0438619Y0169914D01*
X0438673Y0169957D01*
X0438724Y0170004D01*
X0438773Y0170053D01*
X0438820Y0170104D01*
X0438863Y0170158D01*
X0438903Y0170215D01*
X0438941Y0170273D01*
X0438975Y0170333D01*
X0439006Y0170396D01*
X0439033Y0170459D01*
X0439057Y0170524D01*
X0439077Y0170591D01*
X0439094Y0170658D01*
X0439107Y0170726D01*
X0439116Y0170795D01*
X0439122Y0170864D01*
X0439124Y0170933D01*
X0439123Y0171003D01*
X0439118Y0171072D01*
X0439110Y0171141D01*
X0439098Y0171210D01*
X0439082Y0171277D01*
X0439062Y0171344D01*
X0439038Y0171410D01*
X0439011Y0171474D01*
X0438981Y0171536D01*
X0438947Y0171597D01*
X0438910Y0171656D01*
X0438869Y0171713D01*
X0438826Y0171767D01*
X0438779Y0171819D01*
X0438730Y0171868D01*
X0438678Y0171915D01*
X0438624Y0171958D01*
X0438567Y0171999D01*
X0438508Y0172036D01*
X0438447Y0172070D01*
X0438385Y0172100D01*
X0438321Y0172127D01*
X0438255Y0172151D01*
X0438188Y0172171D01*
X0438121Y0172187D01*
X0438052Y0172199D01*
X0437983Y0172207D01*
X0437914Y0172212D01*
X0437844Y0172213D01*
X0436270Y0172213D01*
X0436198Y0172208D01*
X0436126Y0172199D01*
X0436055Y0172186D01*
X0435984Y0172169D01*
X0435915Y0172149D01*
X0435847Y0172124D01*
X0435780Y0172097D01*
X0435715Y0172065D01*
X0435651Y0172030D01*
X0435590Y0171992D01*
X0435531Y0171951D01*
X0435474Y0171906D01*
X0435419Y0171858D01*
X0435368Y0171808D01*
X0435319Y0171754D01*
X0435273Y0171699D01*
X0435230Y0171640D01*
X0435190Y0171580D01*
X0435154Y0171517D01*
X0435121Y0171453D01*
X0435091Y0171387D01*
X0435066Y0171319D01*
X0435043Y0171250D01*
X0435025Y0171180D01*
X0435011Y0171109D01*
X0435000Y0171038D01*
X0434993Y0170966D01*
X0434990Y0170893D01*
X0434991Y0170893D02*
X0434989Y0170826D01*
X0434991Y0170759D01*
X0434997Y0170692D01*
X0435007Y0170625D01*
X0435020Y0170559D01*
X0435037Y0170494D01*
X0435058Y0170430D01*
X0435083Y0170368D01*
X0435111Y0170306D01*
X0435143Y0170247D01*
X0435177Y0170189D01*
X0435215Y0170134D01*
X0435257Y0170081D01*
X0435301Y0170030D01*
X0435348Y0169982D01*
X0435397Y0169936D01*
X0435450Y0169894D01*
X0435504Y0169854D01*
X0435561Y0169818D01*
X0435619Y0169785D01*
X0435680Y0169755D01*
X0435742Y0169729D01*
X0435805Y0169707D01*
X0435870Y0169688D01*
X0435935Y0169672D01*
X0436002Y0169661D01*
X0436068Y0169653D01*
X0436136Y0169649D01*
X0436203Y0169649D01*
X0436270Y0169653D01*
X0436270Y0188787D02*
X0437844Y0188787D01*
X0437913Y0188789D01*
X0437982Y0188795D01*
X0438051Y0188804D01*
X0438119Y0188817D01*
X0438186Y0188834D01*
X0438253Y0188854D01*
X0438318Y0188878D01*
X0438381Y0188905D01*
X0438444Y0188936D01*
X0438504Y0188970D01*
X0438562Y0189008D01*
X0438619Y0189048D01*
X0438673Y0189091D01*
X0438724Y0189138D01*
X0438773Y0189187D01*
X0438820Y0189238D01*
X0438863Y0189292D01*
X0438903Y0189349D01*
X0438941Y0189407D01*
X0438975Y0189467D01*
X0439006Y0189530D01*
X0439033Y0189593D01*
X0439057Y0189658D01*
X0439077Y0189725D01*
X0439094Y0189792D01*
X0439107Y0189860D01*
X0439116Y0189929D01*
X0439122Y0189998D01*
X0439124Y0190067D01*
X0439123Y0190137D01*
X0439118Y0190206D01*
X0439110Y0190275D01*
X0439098Y0190344D01*
X0439082Y0190411D01*
X0439062Y0190478D01*
X0439038Y0190544D01*
X0439011Y0190608D01*
X0438981Y0190670D01*
X0438947Y0190731D01*
X0438910Y0190790D01*
X0438869Y0190847D01*
X0438826Y0190901D01*
X0438779Y0190953D01*
X0438730Y0191002D01*
X0438678Y0191049D01*
X0438624Y0191092D01*
X0438567Y0191133D01*
X0438508Y0191170D01*
X0438447Y0191204D01*
X0438385Y0191234D01*
X0438321Y0191261D01*
X0438255Y0191285D01*
X0438188Y0191305D01*
X0438121Y0191321D01*
X0438052Y0191333D01*
X0437983Y0191341D01*
X0437914Y0191346D01*
X0437844Y0191347D01*
X0437844Y0191346D02*
X0436270Y0191346D01*
X0436270Y0191347D02*
X0436198Y0191342D01*
X0436126Y0191333D01*
X0436055Y0191320D01*
X0435984Y0191303D01*
X0435915Y0191283D01*
X0435847Y0191258D01*
X0435780Y0191231D01*
X0435715Y0191199D01*
X0435651Y0191164D01*
X0435590Y0191126D01*
X0435531Y0191085D01*
X0435474Y0191040D01*
X0435419Y0190992D01*
X0435368Y0190942D01*
X0435319Y0190888D01*
X0435273Y0190833D01*
X0435230Y0190774D01*
X0435190Y0190714D01*
X0435154Y0190651D01*
X0435121Y0190587D01*
X0435091Y0190521D01*
X0435066Y0190453D01*
X0435043Y0190384D01*
X0435025Y0190314D01*
X0435011Y0190243D01*
X0435000Y0190172D01*
X0434993Y0190100D01*
X0434990Y0190027D01*
X0434991Y0190027D02*
X0434989Y0189960D01*
X0434991Y0189893D01*
X0434997Y0189826D01*
X0435007Y0189759D01*
X0435020Y0189693D01*
X0435037Y0189628D01*
X0435058Y0189564D01*
X0435083Y0189502D01*
X0435111Y0189440D01*
X0435143Y0189381D01*
X0435177Y0189323D01*
X0435215Y0189268D01*
X0435257Y0189215D01*
X0435301Y0189164D01*
X0435348Y0189116D01*
X0435397Y0189070D01*
X0435450Y0189028D01*
X0435504Y0188988D01*
X0435561Y0188952D01*
X0435619Y0188919D01*
X0435680Y0188889D01*
X0435742Y0188863D01*
X0435805Y0188841D01*
X0435870Y0188822D01*
X0435935Y0188806D01*
X0436002Y0188795D01*
X0436068Y0188787D01*
X0436136Y0188783D01*
X0436203Y0188783D01*
X0436270Y0188787D01*
X0426309Y0189870D02*
X0423947Y0189870D01*
X0423947Y0189871D02*
X0423876Y0189881D01*
X0423807Y0189895D01*
X0423738Y0189913D01*
X0423670Y0189934D01*
X0423603Y0189959D01*
X0423538Y0189988D01*
X0423474Y0190020D01*
X0423413Y0190055D01*
X0423353Y0190093D01*
X0423295Y0190135D01*
X0423240Y0190180D01*
X0423186Y0190227D01*
X0423136Y0190277D01*
X0423088Y0190330D01*
X0423043Y0190385D01*
X0423002Y0190443D01*
X0422963Y0190502D01*
X0422927Y0190564D01*
X0422895Y0190627D01*
X0422866Y0190693D01*
X0422841Y0190759D01*
X0422819Y0190827D01*
X0422801Y0190896D01*
X0422786Y0190965D01*
X0422776Y0191035D01*
X0422769Y0191106D01*
X0422765Y0191177D01*
X0422766Y0191248D01*
X0422766Y0191249D02*
X0422765Y0191320D01*
X0422769Y0191391D01*
X0422776Y0191462D01*
X0422786Y0191532D01*
X0422801Y0191601D01*
X0422819Y0191670D01*
X0422841Y0191738D01*
X0422866Y0191804D01*
X0422895Y0191870D01*
X0422927Y0191933D01*
X0422963Y0191995D01*
X0423002Y0192054D01*
X0423043Y0192112D01*
X0423088Y0192167D01*
X0423136Y0192220D01*
X0423186Y0192270D01*
X0423240Y0192317D01*
X0423295Y0192362D01*
X0423353Y0192404D01*
X0423413Y0192442D01*
X0423474Y0192477D01*
X0423538Y0192509D01*
X0423603Y0192538D01*
X0423670Y0192563D01*
X0423738Y0192584D01*
X0423807Y0192602D01*
X0423876Y0192616D01*
X0423947Y0192626D01*
X0426309Y0192626D01*
X0426380Y0192616D01*
X0426449Y0192602D01*
X0426518Y0192584D01*
X0426586Y0192563D01*
X0426653Y0192538D01*
X0426718Y0192509D01*
X0426782Y0192477D01*
X0426843Y0192442D01*
X0426903Y0192404D01*
X0426961Y0192362D01*
X0427016Y0192317D01*
X0427070Y0192270D01*
X0427120Y0192220D01*
X0427168Y0192167D01*
X0427213Y0192112D01*
X0427254Y0192054D01*
X0427293Y0191995D01*
X0427329Y0191933D01*
X0427361Y0191870D01*
X0427390Y0191804D01*
X0427415Y0191738D01*
X0427437Y0191670D01*
X0427455Y0191601D01*
X0427470Y0191532D01*
X0427480Y0191462D01*
X0427487Y0191391D01*
X0427491Y0191320D01*
X0427490Y0191249D01*
X0427490Y0191248D02*
X0427491Y0191177D01*
X0427487Y0191106D01*
X0427480Y0191035D01*
X0427470Y0190965D01*
X0427455Y0190896D01*
X0427437Y0190827D01*
X0427415Y0190759D01*
X0427390Y0190693D01*
X0427361Y0190627D01*
X0427329Y0190564D01*
X0427293Y0190502D01*
X0427254Y0190443D01*
X0427213Y0190385D01*
X0427168Y0190330D01*
X0427120Y0190277D01*
X0427070Y0190227D01*
X0427016Y0190180D01*
X0426961Y0190135D01*
X0426903Y0190093D01*
X0426843Y0190055D01*
X0426782Y0190020D01*
X0426718Y0189988D01*
X0426653Y0189959D01*
X0426586Y0189934D01*
X0426518Y0189913D01*
X0426449Y0189895D01*
X0426380Y0189881D01*
X0426309Y0189871D01*
X0426309Y0270374D02*
X0423947Y0270374D01*
X0423876Y0270384D01*
X0423807Y0270398D01*
X0423738Y0270416D01*
X0423670Y0270437D01*
X0423603Y0270462D01*
X0423538Y0270491D01*
X0423474Y0270523D01*
X0423413Y0270558D01*
X0423353Y0270596D01*
X0423295Y0270638D01*
X0423240Y0270683D01*
X0423186Y0270730D01*
X0423136Y0270780D01*
X0423088Y0270833D01*
X0423043Y0270888D01*
X0423002Y0270946D01*
X0422963Y0271005D01*
X0422927Y0271067D01*
X0422895Y0271130D01*
X0422866Y0271196D01*
X0422841Y0271262D01*
X0422819Y0271330D01*
X0422801Y0271399D01*
X0422786Y0271468D01*
X0422776Y0271538D01*
X0422769Y0271609D01*
X0422765Y0271680D01*
X0422766Y0271751D01*
X0422766Y0271752D02*
X0422765Y0271823D01*
X0422769Y0271894D01*
X0422776Y0271965D01*
X0422786Y0272035D01*
X0422801Y0272104D01*
X0422819Y0272173D01*
X0422841Y0272241D01*
X0422866Y0272307D01*
X0422895Y0272373D01*
X0422927Y0272436D01*
X0422963Y0272498D01*
X0423002Y0272557D01*
X0423043Y0272615D01*
X0423088Y0272670D01*
X0423136Y0272723D01*
X0423186Y0272773D01*
X0423240Y0272820D01*
X0423295Y0272865D01*
X0423353Y0272907D01*
X0423413Y0272945D01*
X0423474Y0272980D01*
X0423538Y0273012D01*
X0423603Y0273041D01*
X0423670Y0273066D01*
X0423738Y0273087D01*
X0423807Y0273105D01*
X0423876Y0273119D01*
X0423947Y0273129D01*
X0423947Y0273130D02*
X0426309Y0273130D01*
X0426309Y0273129D02*
X0426380Y0273119D01*
X0426449Y0273105D01*
X0426518Y0273087D01*
X0426586Y0273066D01*
X0426653Y0273041D01*
X0426718Y0273012D01*
X0426782Y0272980D01*
X0426843Y0272945D01*
X0426903Y0272907D01*
X0426961Y0272865D01*
X0427016Y0272820D01*
X0427070Y0272773D01*
X0427120Y0272723D01*
X0427168Y0272670D01*
X0427213Y0272615D01*
X0427254Y0272557D01*
X0427293Y0272498D01*
X0427329Y0272436D01*
X0427361Y0272373D01*
X0427390Y0272307D01*
X0427415Y0272241D01*
X0427437Y0272173D01*
X0427455Y0272104D01*
X0427470Y0272035D01*
X0427480Y0271965D01*
X0427487Y0271894D01*
X0427491Y0271823D01*
X0427490Y0271752D01*
X0427490Y0271751D02*
X0427491Y0271680D01*
X0427487Y0271609D01*
X0427480Y0271538D01*
X0427470Y0271468D01*
X0427455Y0271399D01*
X0427437Y0271330D01*
X0427415Y0271262D01*
X0427390Y0271196D01*
X0427361Y0271130D01*
X0427329Y0271067D01*
X0427293Y0271005D01*
X0427254Y0270946D01*
X0427213Y0270888D01*
X0427168Y0270833D01*
X0427120Y0270780D01*
X0427070Y0270730D01*
X0427016Y0270683D01*
X0426961Y0270638D01*
X0426903Y0270596D01*
X0426843Y0270558D01*
X0426782Y0270523D01*
X0426718Y0270491D01*
X0426653Y0270462D01*
X0426586Y0270437D01*
X0426518Y0270416D01*
X0426449Y0270398D01*
X0426380Y0270384D01*
X0426309Y0270374D01*
X0436270Y0271654D02*
X0437844Y0271654D01*
X0437844Y0271653D02*
X0437913Y0271655D01*
X0437982Y0271661D01*
X0438051Y0271670D01*
X0438119Y0271683D01*
X0438186Y0271700D01*
X0438253Y0271720D01*
X0438318Y0271744D01*
X0438381Y0271771D01*
X0438444Y0271802D01*
X0438504Y0271836D01*
X0438562Y0271874D01*
X0438619Y0271914D01*
X0438673Y0271957D01*
X0438724Y0272004D01*
X0438773Y0272053D01*
X0438820Y0272104D01*
X0438863Y0272158D01*
X0438903Y0272215D01*
X0438941Y0272273D01*
X0438975Y0272333D01*
X0439006Y0272396D01*
X0439033Y0272459D01*
X0439057Y0272524D01*
X0439077Y0272591D01*
X0439094Y0272658D01*
X0439107Y0272726D01*
X0439116Y0272795D01*
X0439122Y0272864D01*
X0439124Y0272933D01*
X0439123Y0273003D01*
X0439118Y0273072D01*
X0439110Y0273141D01*
X0439098Y0273210D01*
X0439082Y0273277D01*
X0439062Y0273344D01*
X0439038Y0273410D01*
X0439011Y0273474D01*
X0438981Y0273536D01*
X0438947Y0273597D01*
X0438910Y0273656D01*
X0438869Y0273713D01*
X0438826Y0273767D01*
X0438779Y0273819D01*
X0438730Y0273868D01*
X0438678Y0273915D01*
X0438624Y0273958D01*
X0438567Y0273999D01*
X0438508Y0274036D01*
X0438447Y0274070D01*
X0438385Y0274100D01*
X0438321Y0274127D01*
X0438255Y0274151D01*
X0438188Y0274171D01*
X0438121Y0274187D01*
X0438052Y0274199D01*
X0437983Y0274207D01*
X0437914Y0274212D01*
X0437844Y0274213D01*
X0436270Y0274213D01*
X0436198Y0274208D01*
X0436126Y0274199D01*
X0436055Y0274186D01*
X0435984Y0274169D01*
X0435915Y0274149D01*
X0435847Y0274124D01*
X0435780Y0274097D01*
X0435715Y0274065D01*
X0435651Y0274030D01*
X0435590Y0273992D01*
X0435531Y0273951D01*
X0435474Y0273906D01*
X0435419Y0273858D01*
X0435368Y0273808D01*
X0435319Y0273754D01*
X0435273Y0273699D01*
X0435230Y0273640D01*
X0435190Y0273580D01*
X0435154Y0273517D01*
X0435121Y0273453D01*
X0435091Y0273387D01*
X0435066Y0273319D01*
X0435043Y0273250D01*
X0435025Y0273180D01*
X0435011Y0273109D01*
X0435000Y0273038D01*
X0434993Y0272966D01*
X0434990Y0272893D01*
X0434991Y0272893D02*
X0434989Y0272826D01*
X0434991Y0272759D01*
X0434997Y0272692D01*
X0435007Y0272625D01*
X0435020Y0272559D01*
X0435037Y0272494D01*
X0435058Y0272430D01*
X0435083Y0272368D01*
X0435111Y0272306D01*
X0435143Y0272247D01*
X0435177Y0272189D01*
X0435215Y0272134D01*
X0435257Y0272081D01*
X0435301Y0272030D01*
X0435348Y0271982D01*
X0435397Y0271936D01*
X0435450Y0271894D01*
X0435504Y0271854D01*
X0435561Y0271818D01*
X0435619Y0271785D01*
X0435680Y0271755D01*
X0435742Y0271729D01*
X0435805Y0271707D01*
X0435870Y0271688D01*
X0435935Y0271672D01*
X0436002Y0271661D01*
X0436068Y0271653D01*
X0436136Y0271649D01*
X0436203Y0271649D01*
X0436270Y0271653D01*
X0436270Y0290787D02*
X0437844Y0290787D01*
X0437913Y0290789D01*
X0437982Y0290795D01*
X0438051Y0290804D01*
X0438119Y0290817D01*
X0438186Y0290834D01*
X0438253Y0290854D01*
X0438318Y0290878D01*
X0438381Y0290905D01*
X0438444Y0290936D01*
X0438504Y0290970D01*
X0438562Y0291008D01*
X0438619Y0291048D01*
X0438673Y0291091D01*
X0438724Y0291138D01*
X0438773Y0291187D01*
X0438820Y0291238D01*
X0438863Y0291292D01*
X0438903Y0291349D01*
X0438941Y0291407D01*
X0438975Y0291467D01*
X0439006Y0291530D01*
X0439033Y0291593D01*
X0439057Y0291658D01*
X0439077Y0291725D01*
X0439094Y0291792D01*
X0439107Y0291860D01*
X0439116Y0291929D01*
X0439122Y0291998D01*
X0439124Y0292067D01*
X0439123Y0292137D01*
X0439118Y0292206D01*
X0439110Y0292275D01*
X0439098Y0292344D01*
X0439082Y0292411D01*
X0439062Y0292478D01*
X0439038Y0292544D01*
X0439011Y0292608D01*
X0438981Y0292670D01*
X0438947Y0292731D01*
X0438910Y0292790D01*
X0438869Y0292847D01*
X0438826Y0292901D01*
X0438779Y0292953D01*
X0438730Y0293002D01*
X0438678Y0293049D01*
X0438624Y0293092D01*
X0438567Y0293133D01*
X0438508Y0293170D01*
X0438447Y0293204D01*
X0438385Y0293234D01*
X0438321Y0293261D01*
X0438255Y0293285D01*
X0438188Y0293305D01*
X0438121Y0293321D01*
X0438052Y0293333D01*
X0437983Y0293341D01*
X0437914Y0293346D01*
X0437844Y0293347D01*
X0437844Y0293346D02*
X0436270Y0293346D01*
X0436270Y0293347D02*
X0436198Y0293342D01*
X0436126Y0293333D01*
X0436055Y0293320D01*
X0435984Y0293303D01*
X0435915Y0293283D01*
X0435847Y0293258D01*
X0435780Y0293231D01*
X0435715Y0293199D01*
X0435651Y0293164D01*
X0435590Y0293126D01*
X0435531Y0293085D01*
X0435474Y0293040D01*
X0435419Y0292992D01*
X0435368Y0292942D01*
X0435319Y0292888D01*
X0435273Y0292833D01*
X0435230Y0292774D01*
X0435190Y0292714D01*
X0435154Y0292651D01*
X0435121Y0292587D01*
X0435091Y0292521D01*
X0435066Y0292453D01*
X0435043Y0292384D01*
X0435025Y0292314D01*
X0435011Y0292243D01*
X0435000Y0292172D01*
X0434993Y0292100D01*
X0434990Y0292027D01*
X0434991Y0292027D02*
X0434989Y0291960D01*
X0434991Y0291893D01*
X0434997Y0291826D01*
X0435007Y0291759D01*
X0435020Y0291693D01*
X0435037Y0291628D01*
X0435058Y0291564D01*
X0435083Y0291502D01*
X0435111Y0291440D01*
X0435143Y0291381D01*
X0435177Y0291323D01*
X0435215Y0291268D01*
X0435257Y0291215D01*
X0435301Y0291164D01*
X0435348Y0291116D01*
X0435397Y0291070D01*
X0435450Y0291028D01*
X0435504Y0290988D01*
X0435561Y0290952D01*
X0435619Y0290919D01*
X0435680Y0290889D01*
X0435742Y0290863D01*
X0435805Y0290841D01*
X0435870Y0290822D01*
X0435935Y0290806D01*
X0436002Y0290795D01*
X0436068Y0290787D01*
X0436136Y0290783D01*
X0436203Y0290783D01*
X0436270Y0290787D01*
X0426309Y0291870D02*
X0423947Y0291870D01*
X0423947Y0291871D02*
X0423876Y0291881D01*
X0423807Y0291895D01*
X0423738Y0291913D01*
X0423670Y0291934D01*
X0423603Y0291959D01*
X0423538Y0291988D01*
X0423474Y0292020D01*
X0423413Y0292055D01*
X0423353Y0292093D01*
X0423295Y0292135D01*
X0423240Y0292180D01*
X0423186Y0292227D01*
X0423136Y0292277D01*
X0423088Y0292330D01*
X0423043Y0292385D01*
X0423002Y0292443D01*
X0422963Y0292502D01*
X0422927Y0292564D01*
X0422895Y0292627D01*
X0422866Y0292693D01*
X0422841Y0292759D01*
X0422819Y0292827D01*
X0422801Y0292896D01*
X0422786Y0292965D01*
X0422776Y0293035D01*
X0422769Y0293106D01*
X0422765Y0293177D01*
X0422766Y0293248D01*
X0422766Y0293249D02*
X0422765Y0293320D01*
X0422769Y0293391D01*
X0422776Y0293462D01*
X0422786Y0293532D01*
X0422801Y0293601D01*
X0422819Y0293670D01*
X0422841Y0293738D01*
X0422866Y0293804D01*
X0422895Y0293870D01*
X0422927Y0293933D01*
X0422963Y0293995D01*
X0423002Y0294054D01*
X0423043Y0294112D01*
X0423088Y0294167D01*
X0423136Y0294220D01*
X0423186Y0294270D01*
X0423240Y0294317D01*
X0423295Y0294362D01*
X0423353Y0294404D01*
X0423413Y0294442D01*
X0423474Y0294477D01*
X0423538Y0294509D01*
X0423603Y0294538D01*
X0423670Y0294563D01*
X0423738Y0294584D01*
X0423807Y0294602D01*
X0423876Y0294616D01*
X0423947Y0294626D01*
X0426309Y0294626D01*
X0426380Y0294616D01*
X0426449Y0294602D01*
X0426518Y0294584D01*
X0426586Y0294563D01*
X0426653Y0294538D01*
X0426718Y0294509D01*
X0426782Y0294477D01*
X0426843Y0294442D01*
X0426903Y0294404D01*
X0426961Y0294362D01*
X0427016Y0294317D01*
X0427070Y0294270D01*
X0427120Y0294220D01*
X0427168Y0294167D01*
X0427213Y0294112D01*
X0427254Y0294054D01*
X0427293Y0293995D01*
X0427329Y0293933D01*
X0427361Y0293870D01*
X0427390Y0293804D01*
X0427415Y0293738D01*
X0427437Y0293670D01*
X0427455Y0293601D01*
X0427470Y0293532D01*
X0427480Y0293462D01*
X0427487Y0293391D01*
X0427491Y0293320D01*
X0427490Y0293249D01*
X0427490Y0293248D02*
X0427491Y0293177D01*
X0427487Y0293106D01*
X0427480Y0293035D01*
X0427470Y0292965D01*
X0427455Y0292896D01*
X0427437Y0292827D01*
X0427415Y0292759D01*
X0427390Y0292693D01*
X0427361Y0292627D01*
X0427329Y0292564D01*
X0427293Y0292502D01*
X0427254Y0292443D01*
X0427213Y0292385D01*
X0427168Y0292330D01*
X0427120Y0292277D01*
X0427070Y0292227D01*
X0427016Y0292180D01*
X0426961Y0292135D01*
X0426903Y0292093D01*
X0426843Y0292055D01*
X0426782Y0292020D01*
X0426718Y0291988D01*
X0426653Y0291959D01*
X0426586Y0291934D01*
X0426518Y0291913D01*
X0426449Y0291895D01*
X0426380Y0291881D01*
X0426309Y0291871D01*
X0426309Y0372374D02*
X0423947Y0372374D01*
X0423876Y0372384D01*
X0423807Y0372398D01*
X0423738Y0372416D01*
X0423670Y0372437D01*
X0423603Y0372462D01*
X0423538Y0372491D01*
X0423474Y0372523D01*
X0423413Y0372558D01*
X0423353Y0372596D01*
X0423295Y0372638D01*
X0423240Y0372683D01*
X0423186Y0372730D01*
X0423136Y0372780D01*
X0423088Y0372833D01*
X0423043Y0372888D01*
X0423002Y0372946D01*
X0422963Y0373005D01*
X0422927Y0373067D01*
X0422895Y0373130D01*
X0422866Y0373196D01*
X0422841Y0373262D01*
X0422819Y0373330D01*
X0422801Y0373399D01*
X0422786Y0373468D01*
X0422776Y0373538D01*
X0422769Y0373609D01*
X0422765Y0373680D01*
X0422766Y0373751D01*
X0422766Y0373752D02*
X0422765Y0373823D01*
X0422769Y0373894D01*
X0422776Y0373965D01*
X0422786Y0374035D01*
X0422801Y0374104D01*
X0422819Y0374173D01*
X0422841Y0374241D01*
X0422866Y0374307D01*
X0422895Y0374373D01*
X0422927Y0374436D01*
X0422963Y0374498D01*
X0423002Y0374557D01*
X0423043Y0374615D01*
X0423088Y0374670D01*
X0423136Y0374723D01*
X0423186Y0374773D01*
X0423240Y0374820D01*
X0423295Y0374865D01*
X0423353Y0374907D01*
X0423413Y0374945D01*
X0423474Y0374980D01*
X0423538Y0375012D01*
X0423603Y0375041D01*
X0423670Y0375066D01*
X0423738Y0375087D01*
X0423807Y0375105D01*
X0423876Y0375119D01*
X0423947Y0375129D01*
X0423947Y0375130D02*
X0426309Y0375130D01*
X0426309Y0375129D02*
X0426380Y0375119D01*
X0426449Y0375105D01*
X0426518Y0375087D01*
X0426586Y0375066D01*
X0426653Y0375041D01*
X0426718Y0375012D01*
X0426782Y0374980D01*
X0426843Y0374945D01*
X0426903Y0374907D01*
X0426961Y0374865D01*
X0427016Y0374820D01*
X0427070Y0374773D01*
X0427120Y0374723D01*
X0427168Y0374670D01*
X0427213Y0374615D01*
X0427254Y0374557D01*
X0427293Y0374498D01*
X0427329Y0374436D01*
X0427361Y0374373D01*
X0427390Y0374307D01*
X0427415Y0374241D01*
X0427437Y0374173D01*
X0427455Y0374104D01*
X0427470Y0374035D01*
X0427480Y0373965D01*
X0427487Y0373894D01*
X0427491Y0373823D01*
X0427490Y0373752D01*
X0427490Y0373751D02*
X0427491Y0373680D01*
X0427487Y0373609D01*
X0427480Y0373538D01*
X0427470Y0373468D01*
X0427455Y0373399D01*
X0427437Y0373330D01*
X0427415Y0373262D01*
X0427390Y0373196D01*
X0427361Y0373130D01*
X0427329Y0373067D01*
X0427293Y0373005D01*
X0427254Y0372946D01*
X0427213Y0372888D01*
X0427168Y0372833D01*
X0427120Y0372780D01*
X0427070Y0372730D01*
X0427016Y0372683D01*
X0426961Y0372638D01*
X0426903Y0372596D01*
X0426843Y0372558D01*
X0426782Y0372523D01*
X0426718Y0372491D01*
X0426653Y0372462D01*
X0426586Y0372437D01*
X0426518Y0372416D01*
X0426449Y0372398D01*
X0426380Y0372384D01*
X0426309Y0372374D01*
X0436270Y0373654D02*
X0437844Y0373654D01*
X0437844Y0373653D02*
X0437913Y0373655D01*
X0437982Y0373661D01*
X0438051Y0373670D01*
X0438119Y0373683D01*
X0438186Y0373700D01*
X0438253Y0373720D01*
X0438318Y0373744D01*
X0438381Y0373771D01*
X0438444Y0373802D01*
X0438504Y0373836D01*
X0438562Y0373874D01*
X0438619Y0373914D01*
X0438673Y0373957D01*
X0438724Y0374004D01*
X0438773Y0374053D01*
X0438820Y0374104D01*
X0438863Y0374158D01*
X0438903Y0374215D01*
X0438941Y0374273D01*
X0438975Y0374333D01*
X0439006Y0374396D01*
X0439033Y0374459D01*
X0439057Y0374524D01*
X0439077Y0374591D01*
X0439094Y0374658D01*
X0439107Y0374726D01*
X0439116Y0374795D01*
X0439122Y0374864D01*
X0439124Y0374933D01*
X0439123Y0375003D01*
X0439118Y0375072D01*
X0439110Y0375141D01*
X0439098Y0375210D01*
X0439082Y0375277D01*
X0439062Y0375344D01*
X0439038Y0375410D01*
X0439011Y0375474D01*
X0438981Y0375536D01*
X0438947Y0375597D01*
X0438910Y0375656D01*
X0438869Y0375713D01*
X0438826Y0375767D01*
X0438779Y0375819D01*
X0438730Y0375868D01*
X0438678Y0375915D01*
X0438624Y0375958D01*
X0438567Y0375999D01*
X0438508Y0376036D01*
X0438447Y0376070D01*
X0438385Y0376100D01*
X0438321Y0376127D01*
X0438255Y0376151D01*
X0438188Y0376171D01*
X0438121Y0376187D01*
X0438052Y0376199D01*
X0437983Y0376207D01*
X0437914Y0376212D01*
X0437844Y0376213D01*
X0436270Y0376213D01*
X0436198Y0376208D01*
X0436126Y0376199D01*
X0436055Y0376186D01*
X0435984Y0376169D01*
X0435915Y0376149D01*
X0435847Y0376124D01*
X0435780Y0376097D01*
X0435715Y0376065D01*
X0435651Y0376030D01*
X0435590Y0375992D01*
X0435531Y0375951D01*
X0435474Y0375906D01*
X0435419Y0375858D01*
X0435368Y0375808D01*
X0435319Y0375754D01*
X0435273Y0375699D01*
X0435230Y0375640D01*
X0435190Y0375580D01*
X0435154Y0375517D01*
X0435121Y0375453D01*
X0435091Y0375387D01*
X0435066Y0375319D01*
X0435043Y0375250D01*
X0435025Y0375180D01*
X0435011Y0375109D01*
X0435000Y0375038D01*
X0434993Y0374966D01*
X0434990Y0374893D01*
X0434991Y0374893D02*
X0434989Y0374826D01*
X0434991Y0374759D01*
X0434997Y0374692D01*
X0435007Y0374625D01*
X0435020Y0374559D01*
X0435037Y0374494D01*
X0435058Y0374430D01*
X0435083Y0374368D01*
X0435111Y0374306D01*
X0435143Y0374247D01*
X0435177Y0374189D01*
X0435215Y0374134D01*
X0435257Y0374081D01*
X0435301Y0374030D01*
X0435348Y0373982D01*
X0435397Y0373936D01*
X0435450Y0373894D01*
X0435504Y0373854D01*
X0435561Y0373818D01*
X0435619Y0373785D01*
X0435680Y0373755D01*
X0435742Y0373729D01*
X0435805Y0373707D01*
X0435870Y0373688D01*
X0435935Y0373672D01*
X0436002Y0373661D01*
X0436068Y0373653D01*
X0436136Y0373649D01*
X0436203Y0373649D01*
X0436270Y0373653D01*
X0436270Y0392787D02*
X0437844Y0392787D01*
X0437913Y0392789D01*
X0437982Y0392795D01*
X0438051Y0392804D01*
X0438119Y0392817D01*
X0438186Y0392834D01*
X0438253Y0392854D01*
X0438318Y0392878D01*
X0438381Y0392905D01*
X0438444Y0392936D01*
X0438504Y0392970D01*
X0438562Y0393008D01*
X0438619Y0393048D01*
X0438673Y0393091D01*
X0438724Y0393138D01*
X0438773Y0393187D01*
X0438820Y0393238D01*
X0438863Y0393292D01*
X0438903Y0393349D01*
X0438941Y0393407D01*
X0438975Y0393467D01*
X0439006Y0393530D01*
X0439033Y0393593D01*
X0439057Y0393658D01*
X0439077Y0393725D01*
X0439094Y0393792D01*
X0439107Y0393860D01*
X0439116Y0393929D01*
X0439122Y0393998D01*
X0439124Y0394067D01*
X0439123Y0394137D01*
X0439118Y0394206D01*
X0439110Y0394275D01*
X0439098Y0394344D01*
X0439082Y0394411D01*
X0439062Y0394478D01*
X0439038Y0394544D01*
X0439011Y0394608D01*
X0438981Y0394670D01*
X0438947Y0394731D01*
X0438910Y0394790D01*
X0438869Y0394847D01*
X0438826Y0394901D01*
X0438779Y0394953D01*
X0438730Y0395002D01*
X0438678Y0395049D01*
X0438624Y0395092D01*
X0438567Y0395133D01*
X0438508Y0395170D01*
X0438447Y0395204D01*
X0438385Y0395234D01*
X0438321Y0395261D01*
X0438255Y0395285D01*
X0438188Y0395305D01*
X0438121Y0395321D01*
X0438052Y0395333D01*
X0437983Y0395341D01*
X0437914Y0395346D01*
X0437844Y0395347D01*
X0437844Y0395346D02*
X0436270Y0395346D01*
X0436270Y0395347D02*
X0436198Y0395342D01*
X0436126Y0395333D01*
X0436055Y0395320D01*
X0435984Y0395303D01*
X0435915Y0395283D01*
X0435847Y0395258D01*
X0435780Y0395231D01*
X0435715Y0395199D01*
X0435651Y0395164D01*
X0435590Y0395126D01*
X0435531Y0395085D01*
X0435474Y0395040D01*
X0435419Y0394992D01*
X0435368Y0394942D01*
X0435319Y0394888D01*
X0435273Y0394833D01*
X0435230Y0394774D01*
X0435190Y0394714D01*
X0435154Y0394651D01*
X0435121Y0394587D01*
X0435091Y0394521D01*
X0435066Y0394453D01*
X0435043Y0394384D01*
X0435025Y0394314D01*
X0435011Y0394243D01*
X0435000Y0394172D01*
X0434993Y0394100D01*
X0434990Y0394027D01*
X0434991Y0394027D02*
X0434989Y0393960D01*
X0434991Y0393893D01*
X0434997Y0393826D01*
X0435007Y0393759D01*
X0435020Y0393693D01*
X0435037Y0393628D01*
X0435058Y0393564D01*
X0435083Y0393502D01*
X0435111Y0393440D01*
X0435143Y0393381D01*
X0435177Y0393323D01*
X0435215Y0393268D01*
X0435257Y0393215D01*
X0435301Y0393164D01*
X0435348Y0393116D01*
X0435397Y0393070D01*
X0435450Y0393028D01*
X0435504Y0392988D01*
X0435561Y0392952D01*
X0435619Y0392919D01*
X0435680Y0392889D01*
X0435742Y0392863D01*
X0435805Y0392841D01*
X0435870Y0392822D01*
X0435935Y0392806D01*
X0436002Y0392795D01*
X0436068Y0392787D01*
X0436136Y0392783D01*
X0436203Y0392783D01*
X0436270Y0392787D01*
X0426309Y0393870D02*
X0423947Y0393870D01*
X0423947Y0393871D02*
X0423876Y0393881D01*
X0423807Y0393895D01*
X0423738Y0393913D01*
X0423670Y0393934D01*
X0423603Y0393959D01*
X0423538Y0393988D01*
X0423474Y0394020D01*
X0423413Y0394055D01*
X0423353Y0394093D01*
X0423295Y0394135D01*
X0423240Y0394180D01*
X0423186Y0394227D01*
X0423136Y0394277D01*
X0423088Y0394330D01*
X0423043Y0394385D01*
X0423002Y0394443D01*
X0422963Y0394502D01*
X0422927Y0394564D01*
X0422895Y0394627D01*
X0422866Y0394693D01*
X0422841Y0394759D01*
X0422819Y0394827D01*
X0422801Y0394896D01*
X0422786Y0394965D01*
X0422776Y0395035D01*
X0422769Y0395106D01*
X0422765Y0395177D01*
X0422766Y0395248D01*
X0422766Y0395249D02*
X0422765Y0395320D01*
X0422769Y0395391D01*
X0422776Y0395462D01*
X0422786Y0395532D01*
X0422801Y0395601D01*
X0422819Y0395670D01*
X0422841Y0395738D01*
X0422866Y0395804D01*
X0422895Y0395870D01*
X0422927Y0395933D01*
X0422963Y0395995D01*
X0423002Y0396054D01*
X0423043Y0396112D01*
X0423088Y0396167D01*
X0423136Y0396220D01*
X0423186Y0396270D01*
X0423240Y0396317D01*
X0423295Y0396362D01*
X0423353Y0396404D01*
X0423413Y0396442D01*
X0423474Y0396477D01*
X0423538Y0396509D01*
X0423603Y0396538D01*
X0423670Y0396563D01*
X0423738Y0396584D01*
X0423807Y0396602D01*
X0423876Y0396616D01*
X0423947Y0396626D01*
X0426309Y0396626D01*
X0426380Y0396616D01*
X0426449Y0396602D01*
X0426518Y0396584D01*
X0426586Y0396563D01*
X0426653Y0396538D01*
X0426718Y0396509D01*
X0426782Y0396477D01*
X0426843Y0396442D01*
X0426903Y0396404D01*
X0426961Y0396362D01*
X0427016Y0396317D01*
X0427070Y0396270D01*
X0427120Y0396220D01*
X0427168Y0396167D01*
X0427213Y0396112D01*
X0427254Y0396054D01*
X0427293Y0395995D01*
X0427329Y0395933D01*
X0427361Y0395870D01*
X0427390Y0395804D01*
X0427415Y0395738D01*
X0427437Y0395670D01*
X0427455Y0395601D01*
X0427470Y0395532D01*
X0427480Y0395462D01*
X0427487Y0395391D01*
X0427491Y0395320D01*
X0427490Y0395249D01*
X0427490Y0395248D02*
X0427491Y0395177D01*
X0427487Y0395106D01*
X0427480Y0395035D01*
X0427470Y0394965D01*
X0427455Y0394896D01*
X0427437Y0394827D01*
X0427415Y0394759D01*
X0427390Y0394693D01*
X0427361Y0394627D01*
X0427329Y0394564D01*
X0427293Y0394502D01*
X0427254Y0394443D01*
X0427213Y0394385D01*
X0427168Y0394330D01*
X0427120Y0394277D01*
X0427070Y0394227D01*
X0427016Y0394180D01*
X0426961Y0394135D01*
X0426903Y0394093D01*
X0426843Y0394055D01*
X0426782Y0394020D01*
X0426718Y0393988D01*
X0426653Y0393959D01*
X0426586Y0393934D01*
X0426518Y0393913D01*
X0426449Y0393895D01*
X0426380Y0393881D01*
X0426309Y0393871D01*
X0249124Y0394067D02*
X0249123Y0394137D01*
X0249118Y0394206D01*
X0249110Y0394275D01*
X0249098Y0394344D01*
X0249082Y0394411D01*
X0249062Y0394478D01*
X0249038Y0394544D01*
X0249011Y0394608D01*
X0248981Y0394670D01*
X0248947Y0394731D01*
X0248910Y0394790D01*
X0248869Y0394847D01*
X0248826Y0394901D01*
X0248779Y0394953D01*
X0248730Y0395002D01*
X0248678Y0395049D01*
X0248624Y0395092D01*
X0248567Y0395133D01*
X0248508Y0395170D01*
X0248447Y0395204D01*
X0248385Y0395234D01*
X0248321Y0395261D01*
X0248255Y0395285D01*
X0248188Y0395305D01*
X0248121Y0395321D01*
X0248052Y0395333D01*
X0247983Y0395341D01*
X0247914Y0395346D01*
X0247844Y0395347D01*
X0247844Y0395346D02*
X0246270Y0395346D01*
X0246270Y0395347D02*
X0246198Y0395342D01*
X0246126Y0395333D01*
X0246055Y0395320D01*
X0245984Y0395303D01*
X0245915Y0395283D01*
X0245847Y0395258D01*
X0245780Y0395231D01*
X0245715Y0395199D01*
X0245651Y0395164D01*
X0245590Y0395126D01*
X0245531Y0395085D01*
X0245474Y0395040D01*
X0245419Y0394992D01*
X0245368Y0394942D01*
X0245319Y0394888D01*
X0245273Y0394833D01*
X0245230Y0394774D01*
X0245190Y0394714D01*
X0245154Y0394651D01*
X0245121Y0394587D01*
X0245091Y0394521D01*
X0245066Y0394453D01*
X0245043Y0394384D01*
X0245025Y0394314D01*
X0245011Y0394243D01*
X0245000Y0394172D01*
X0244993Y0394100D01*
X0244990Y0394027D01*
X0244991Y0394027D02*
X0244989Y0393960D01*
X0244991Y0393893D01*
X0244997Y0393826D01*
X0245007Y0393759D01*
X0245020Y0393693D01*
X0245037Y0393628D01*
X0245058Y0393564D01*
X0245083Y0393502D01*
X0245111Y0393440D01*
X0245143Y0393381D01*
X0245177Y0393323D01*
X0245215Y0393268D01*
X0245257Y0393215D01*
X0245301Y0393164D01*
X0245348Y0393116D01*
X0245397Y0393070D01*
X0245450Y0393028D01*
X0245504Y0392988D01*
X0245561Y0392952D01*
X0245619Y0392919D01*
X0245680Y0392889D01*
X0245742Y0392863D01*
X0245805Y0392841D01*
X0245870Y0392822D01*
X0245935Y0392806D01*
X0246002Y0392795D01*
X0246068Y0392787D01*
X0246136Y0392783D01*
X0246203Y0392783D01*
X0246270Y0392787D01*
X0247844Y0392787D01*
X0247913Y0392789D01*
X0247982Y0392795D01*
X0248051Y0392804D01*
X0248119Y0392817D01*
X0248186Y0392834D01*
X0248253Y0392854D01*
X0248318Y0392878D01*
X0248381Y0392905D01*
X0248444Y0392936D01*
X0248504Y0392970D01*
X0248562Y0393008D01*
X0248619Y0393048D01*
X0248673Y0393091D01*
X0248724Y0393138D01*
X0248773Y0393187D01*
X0248820Y0393238D01*
X0248863Y0393292D01*
X0248903Y0393349D01*
X0248941Y0393407D01*
X0248975Y0393467D01*
X0249006Y0393530D01*
X0249033Y0393593D01*
X0249057Y0393658D01*
X0249077Y0393725D01*
X0249094Y0393792D01*
X0249107Y0393860D01*
X0249116Y0393929D01*
X0249122Y0393998D01*
X0249124Y0394067D01*
X0236309Y0393870D02*
X0233947Y0393870D01*
X0233947Y0393871D02*
X0233876Y0393881D01*
X0233807Y0393895D01*
X0233738Y0393913D01*
X0233670Y0393934D01*
X0233603Y0393959D01*
X0233538Y0393988D01*
X0233474Y0394020D01*
X0233413Y0394055D01*
X0233353Y0394093D01*
X0233295Y0394135D01*
X0233240Y0394180D01*
X0233186Y0394227D01*
X0233136Y0394277D01*
X0233088Y0394330D01*
X0233043Y0394385D01*
X0233002Y0394443D01*
X0232963Y0394502D01*
X0232927Y0394564D01*
X0232895Y0394627D01*
X0232866Y0394693D01*
X0232841Y0394759D01*
X0232819Y0394827D01*
X0232801Y0394896D01*
X0232786Y0394965D01*
X0232776Y0395035D01*
X0232769Y0395106D01*
X0232765Y0395177D01*
X0232766Y0395248D01*
X0232766Y0395249D02*
X0232765Y0395320D01*
X0232769Y0395391D01*
X0232776Y0395462D01*
X0232786Y0395532D01*
X0232801Y0395601D01*
X0232819Y0395670D01*
X0232841Y0395738D01*
X0232866Y0395804D01*
X0232895Y0395870D01*
X0232927Y0395933D01*
X0232963Y0395995D01*
X0233002Y0396054D01*
X0233043Y0396112D01*
X0233088Y0396167D01*
X0233136Y0396220D01*
X0233186Y0396270D01*
X0233240Y0396317D01*
X0233295Y0396362D01*
X0233353Y0396404D01*
X0233413Y0396442D01*
X0233474Y0396477D01*
X0233538Y0396509D01*
X0233603Y0396538D01*
X0233670Y0396563D01*
X0233738Y0396584D01*
X0233807Y0396602D01*
X0233876Y0396616D01*
X0233947Y0396626D01*
X0236309Y0396626D01*
X0236380Y0396616D01*
X0236449Y0396602D01*
X0236518Y0396584D01*
X0236586Y0396563D01*
X0236653Y0396538D01*
X0236718Y0396509D01*
X0236782Y0396477D01*
X0236843Y0396442D01*
X0236903Y0396404D01*
X0236961Y0396362D01*
X0237016Y0396317D01*
X0237070Y0396270D01*
X0237120Y0396220D01*
X0237168Y0396167D01*
X0237213Y0396112D01*
X0237254Y0396054D01*
X0237293Y0395995D01*
X0237329Y0395933D01*
X0237361Y0395870D01*
X0237390Y0395804D01*
X0237415Y0395738D01*
X0237437Y0395670D01*
X0237455Y0395601D01*
X0237470Y0395532D01*
X0237480Y0395462D01*
X0237487Y0395391D01*
X0237491Y0395320D01*
X0237490Y0395249D01*
X0237490Y0395248D02*
X0237491Y0395177D01*
X0237487Y0395106D01*
X0237480Y0395035D01*
X0237470Y0394965D01*
X0237455Y0394896D01*
X0237437Y0394827D01*
X0237415Y0394759D01*
X0237390Y0394693D01*
X0237361Y0394627D01*
X0237329Y0394564D01*
X0237293Y0394502D01*
X0237254Y0394443D01*
X0237213Y0394385D01*
X0237168Y0394330D01*
X0237120Y0394277D01*
X0237070Y0394227D01*
X0237016Y0394180D01*
X0236961Y0394135D01*
X0236903Y0394093D01*
X0236843Y0394055D01*
X0236782Y0394020D01*
X0236718Y0393988D01*
X0236653Y0393959D01*
X0236586Y0393934D01*
X0236518Y0393913D01*
X0236449Y0393895D01*
X0236380Y0393881D01*
X0236309Y0393871D01*
X0236309Y0375130D02*
X0233947Y0375130D01*
X0233947Y0375129D02*
X0233876Y0375119D01*
X0233807Y0375105D01*
X0233738Y0375087D01*
X0233670Y0375066D01*
X0233603Y0375041D01*
X0233538Y0375012D01*
X0233474Y0374980D01*
X0233413Y0374945D01*
X0233353Y0374907D01*
X0233295Y0374865D01*
X0233240Y0374820D01*
X0233186Y0374773D01*
X0233136Y0374723D01*
X0233088Y0374670D01*
X0233043Y0374615D01*
X0233002Y0374557D01*
X0232963Y0374498D01*
X0232927Y0374436D01*
X0232895Y0374373D01*
X0232866Y0374307D01*
X0232841Y0374241D01*
X0232819Y0374173D01*
X0232801Y0374104D01*
X0232786Y0374035D01*
X0232776Y0373965D01*
X0232769Y0373894D01*
X0232765Y0373823D01*
X0232766Y0373752D01*
X0232766Y0373751D02*
X0232765Y0373680D01*
X0232769Y0373609D01*
X0232776Y0373538D01*
X0232786Y0373468D01*
X0232801Y0373399D01*
X0232819Y0373330D01*
X0232841Y0373262D01*
X0232866Y0373196D01*
X0232895Y0373130D01*
X0232927Y0373067D01*
X0232963Y0373005D01*
X0233002Y0372946D01*
X0233043Y0372888D01*
X0233088Y0372833D01*
X0233136Y0372780D01*
X0233186Y0372730D01*
X0233240Y0372683D01*
X0233295Y0372638D01*
X0233353Y0372596D01*
X0233413Y0372558D01*
X0233474Y0372523D01*
X0233538Y0372491D01*
X0233603Y0372462D01*
X0233670Y0372437D01*
X0233738Y0372416D01*
X0233807Y0372398D01*
X0233876Y0372384D01*
X0233947Y0372374D01*
X0236309Y0372374D01*
X0236380Y0372384D01*
X0236449Y0372398D01*
X0236518Y0372416D01*
X0236586Y0372437D01*
X0236653Y0372462D01*
X0236718Y0372491D01*
X0236782Y0372523D01*
X0236843Y0372558D01*
X0236903Y0372596D01*
X0236961Y0372638D01*
X0237016Y0372683D01*
X0237070Y0372730D01*
X0237120Y0372780D01*
X0237168Y0372833D01*
X0237213Y0372888D01*
X0237254Y0372946D01*
X0237293Y0373005D01*
X0237329Y0373067D01*
X0237361Y0373130D01*
X0237390Y0373196D01*
X0237415Y0373262D01*
X0237437Y0373330D01*
X0237455Y0373399D01*
X0237470Y0373468D01*
X0237480Y0373538D01*
X0237487Y0373609D01*
X0237491Y0373680D01*
X0237490Y0373751D01*
X0237490Y0373752D02*
X0237491Y0373823D01*
X0237487Y0373894D01*
X0237480Y0373965D01*
X0237470Y0374035D01*
X0237455Y0374104D01*
X0237437Y0374173D01*
X0237415Y0374241D01*
X0237390Y0374307D01*
X0237361Y0374373D01*
X0237329Y0374436D01*
X0237293Y0374498D01*
X0237254Y0374557D01*
X0237213Y0374615D01*
X0237168Y0374670D01*
X0237120Y0374723D01*
X0237070Y0374773D01*
X0237016Y0374820D01*
X0236961Y0374865D01*
X0236903Y0374907D01*
X0236843Y0374945D01*
X0236782Y0374980D01*
X0236718Y0375012D01*
X0236653Y0375041D01*
X0236586Y0375066D01*
X0236518Y0375087D01*
X0236449Y0375105D01*
X0236380Y0375119D01*
X0236309Y0375129D01*
X0244991Y0374893D02*
X0244989Y0374826D01*
X0244991Y0374759D01*
X0244997Y0374692D01*
X0245007Y0374625D01*
X0245020Y0374559D01*
X0245037Y0374494D01*
X0245058Y0374430D01*
X0245083Y0374368D01*
X0245111Y0374306D01*
X0245143Y0374247D01*
X0245177Y0374189D01*
X0245215Y0374134D01*
X0245257Y0374081D01*
X0245301Y0374030D01*
X0245348Y0373982D01*
X0245397Y0373936D01*
X0245450Y0373894D01*
X0245504Y0373854D01*
X0245561Y0373818D01*
X0245619Y0373785D01*
X0245680Y0373755D01*
X0245742Y0373729D01*
X0245805Y0373707D01*
X0245870Y0373688D01*
X0245935Y0373672D01*
X0246002Y0373661D01*
X0246068Y0373653D01*
X0246136Y0373649D01*
X0246203Y0373649D01*
X0246270Y0373653D01*
X0246270Y0373654D02*
X0247844Y0373654D01*
X0247844Y0373653D02*
X0247913Y0373655D01*
X0247982Y0373661D01*
X0248051Y0373670D01*
X0248119Y0373683D01*
X0248186Y0373700D01*
X0248253Y0373720D01*
X0248318Y0373744D01*
X0248381Y0373771D01*
X0248444Y0373802D01*
X0248504Y0373836D01*
X0248562Y0373874D01*
X0248619Y0373914D01*
X0248673Y0373957D01*
X0248724Y0374004D01*
X0248773Y0374053D01*
X0248820Y0374104D01*
X0248863Y0374158D01*
X0248903Y0374215D01*
X0248941Y0374273D01*
X0248975Y0374333D01*
X0249006Y0374396D01*
X0249033Y0374459D01*
X0249057Y0374524D01*
X0249077Y0374591D01*
X0249094Y0374658D01*
X0249107Y0374726D01*
X0249116Y0374795D01*
X0249122Y0374864D01*
X0249124Y0374933D01*
X0249123Y0375003D01*
X0249118Y0375072D01*
X0249110Y0375141D01*
X0249098Y0375210D01*
X0249082Y0375277D01*
X0249062Y0375344D01*
X0249038Y0375410D01*
X0249011Y0375474D01*
X0248981Y0375536D01*
X0248947Y0375597D01*
X0248910Y0375656D01*
X0248869Y0375713D01*
X0248826Y0375767D01*
X0248779Y0375819D01*
X0248730Y0375868D01*
X0248678Y0375915D01*
X0248624Y0375958D01*
X0248567Y0375999D01*
X0248508Y0376036D01*
X0248447Y0376070D01*
X0248385Y0376100D01*
X0248321Y0376127D01*
X0248255Y0376151D01*
X0248188Y0376171D01*
X0248121Y0376187D01*
X0248052Y0376199D01*
X0247983Y0376207D01*
X0247914Y0376212D01*
X0247844Y0376213D01*
X0246270Y0376213D01*
X0246198Y0376208D01*
X0246126Y0376199D01*
X0246055Y0376186D01*
X0245984Y0376169D01*
X0245915Y0376149D01*
X0245847Y0376124D01*
X0245780Y0376097D01*
X0245715Y0376065D01*
X0245651Y0376030D01*
X0245590Y0375992D01*
X0245531Y0375951D01*
X0245474Y0375906D01*
X0245419Y0375858D01*
X0245368Y0375808D01*
X0245319Y0375754D01*
X0245273Y0375699D01*
X0245230Y0375640D01*
X0245190Y0375580D01*
X0245154Y0375517D01*
X0245121Y0375453D01*
X0245091Y0375387D01*
X0245066Y0375319D01*
X0245043Y0375250D01*
X0245025Y0375180D01*
X0245011Y0375109D01*
X0245000Y0375038D01*
X0244993Y0374966D01*
X0244990Y0374893D01*
X0236309Y0294626D02*
X0233947Y0294626D01*
X0233876Y0294616D01*
X0233807Y0294602D01*
X0233738Y0294584D01*
X0233670Y0294563D01*
X0233603Y0294538D01*
X0233538Y0294509D01*
X0233474Y0294477D01*
X0233413Y0294442D01*
X0233353Y0294404D01*
X0233295Y0294362D01*
X0233240Y0294317D01*
X0233186Y0294270D01*
X0233136Y0294220D01*
X0233088Y0294167D01*
X0233043Y0294112D01*
X0233002Y0294054D01*
X0232963Y0293995D01*
X0232927Y0293933D01*
X0232895Y0293870D01*
X0232866Y0293804D01*
X0232841Y0293738D01*
X0232819Y0293670D01*
X0232801Y0293601D01*
X0232786Y0293532D01*
X0232776Y0293462D01*
X0232769Y0293391D01*
X0232765Y0293320D01*
X0232766Y0293249D01*
X0232766Y0293248D02*
X0232765Y0293177D01*
X0232769Y0293106D01*
X0232776Y0293035D01*
X0232786Y0292965D01*
X0232801Y0292896D01*
X0232819Y0292827D01*
X0232841Y0292759D01*
X0232866Y0292693D01*
X0232895Y0292627D01*
X0232927Y0292564D01*
X0232963Y0292502D01*
X0233002Y0292443D01*
X0233043Y0292385D01*
X0233088Y0292330D01*
X0233136Y0292277D01*
X0233186Y0292227D01*
X0233240Y0292180D01*
X0233295Y0292135D01*
X0233353Y0292093D01*
X0233413Y0292055D01*
X0233474Y0292020D01*
X0233538Y0291988D01*
X0233603Y0291959D01*
X0233670Y0291934D01*
X0233738Y0291913D01*
X0233807Y0291895D01*
X0233876Y0291881D01*
X0233947Y0291871D01*
X0233947Y0291870D02*
X0236309Y0291870D01*
X0236309Y0291871D02*
X0236380Y0291881D01*
X0236449Y0291895D01*
X0236518Y0291913D01*
X0236586Y0291934D01*
X0236653Y0291959D01*
X0236718Y0291988D01*
X0236782Y0292020D01*
X0236843Y0292055D01*
X0236903Y0292093D01*
X0236961Y0292135D01*
X0237016Y0292180D01*
X0237070Y0292227D01*
X0237120Y0292277D01*
X0237168Y0292330D01*
X0237213Y0292385D01*
X0237254Y0292443D01*
X0237293Y0292502D01*
X0237329Y0292564D01*
X0237361Y0292627D01*
X0237390Y0292693D01*
X0237415Y0292759D01*
X0237437Y0292827D01*
X0237455Y0292896D01*
X0237470Y0292965D01*
X0237480Y0293035D01*
X0237487Y0293106D01*
X0237491Y0293177D01*
X0237490Y0293248D01*
X0237490Y0293249D02*
X0237491Y0293320D01*
X0237487Y0293391D01*
X0237480Y0293462D01*
X0237470Y0293532D01*
X0237455Y0293601D01*
X0237437Y0293670D01*
X0237415Y0293738D01*
X0237390Y0293804D01*
X0237361Y0293870D01*
X0237329Y0293933D01*
X0237293Y0293995D01*
X0237254Y0294054D01*
X0237213Y0294112D01*
X0237168Y0294167D01*
X0237120Y0294220D01*
X0237070Y0294270D01*
X0237016Y0294317D01*
X0236961Y0294362D01*
X0236903Y0294404D01*
X0236843Y0294442D01*
X0236782Y0294477D01*
X0236718Y0294509D01*
X0236653Y0294538D01*
X0236586Y0294563D01*
X0236518Y0294584D01*
X0236449Y0294602D01*
X0236380Y0294616D01*
X0236309Y0294626D01*
X0246270Y0293346D02*
X0247844Y0293346D01*
X0247844Y0293347D02*
X0247914Y0293346D01*
X0247983Y0293341D01*
X0248052Y0293333D01*
X0248121Y0293321D01*
X0248188Y0293305D01*
X0248255Y0293285D01*
X0248321Y0293261D01*
X0248385Y0293234D01*
X0248447Y0293204D01*
X0248508Y0293170D01*
X0248567Y0293133D01*
X0248624Y0293092D01*
X0248678Y0293049D01*
X0248730Y0293002D01*
X0248779Y0292953D01*
X0248826Y0292901D01*
X0248869Y0292847D01*
X0248910Y0292790D01*
X0248947Y0292731D01*
X0248981Y0292670D01*
X0249011Y0292608D01*
X0249038Y0292544D01*
X0249062Y0292478D01*
X0249082Y0292411D01*
X0249098Y0292344D01*
X0249110Y0292275D01*
X0249118Y0292206D01*
X0249123Y0292137D01*
X0249124Y0292067D01*
X0249122Y0291998D01*
X0249116Y0291929D01*
X0249107Y0291860D01*
X0249094Y0291792D01*
X0249077Y0291725D01*
X0249057Y0291658D01*
X0249033Y0291593D01*
X0249006Y0291530D01*
X0248975Y0291467D01*
X0248941Y0291407D01*
X0248903Y0291349D01*
X0248863Y0291292D01*
X0248820Y0291238D01*
X0248773Y0291187D01*
X0248724Y0291138D01*
X0248673Y0291091D01*
X0248619Y0291048D01*
X0248562Y0291008D01*
X0248504Y0290970D01*
X0248444Y0290936D01*
X0248381Y0290905D01*
X0248318Y0290878D01*
X0248253Y0290854D01*
X0248186Y0290834D01*
X0248119Y0290817D01*
X0248051Y0290804D01*
X0247982Y0290795D01*
X0247913Y0290789D01*
X0247844Y0290787D01*
X0246270Y0290787D01*
X0246203Y0290783D01*
X0246136Y0290783D01*
X0246068Y0290787D01*
X0246002Y0290795D01*
X0245935Y0290806D01*
X0245870Y0290822D01*
X0245805Y0290841D01*
X0245742Y0290863D01*
X0245680Y0290889D01*
X0245619Y0290919D01*
X0245561Y0290952D01*
X0245504Y0290988D01*
X0245450Y0291028D01*
X0245397Y0291070D01*
X0245348Y0291116D01*
X0245301Y0291164D01*
X0245257Y0291215D01*
X0245215Y0291268D01*
X0245177Y0291323D01*
X0245143Y0291381D01*
X0245111Y0291440D01*
X0245083Y0291502D01*
X0245058Y0291564D01*
X0245037Y0291628D01*
X0245020Y0291693D01*
X0245007Y0291759D01*
X0244997Y0291826D01*
X0244991Y0291893D01*
X0244989Y0291960D01*
X0244991Y0292027D01*
X0244990Y0292027D02*
X0244993Y0292100D01*
X0245000Y0292172D01*
X0245011Y0292243D01*
X0245025Y0292314D01*
X0245043Y0292384D01*
X0245066Y0292453D01*
X0245091Y0292521D01*
X0245121Y0292587D01*
X0245154Y0292651D01*
X0245190Y0292714D01*
X0245230Y0292774D01*
X0245273Y0292833D01*
X0245319Y0292888D01*
X0245368Y0292942D01*
X0245419Y0292992D01*
X0245474Y0293040D01*
X0245531Y0293085D01*
X0245590Y0293126D01*
X0245651Y0293164D01*
X0245715Y0293199D01*
X0245780Y0293231D01*
X0245847Y0293258D01*
X0245915Y0293283D01*
X0245984Y0293303D01*
X0246055Y0293320D01*
X0246126Y0293333D01*
X0246198Y0293342D01*
X0246270Y0293347D01*
X0246270Y0274213D02*
X0247844Y0274213D01*
X0247914Y0274212D01*
X0247983Y0274207D01*
X0248052Y0274199D01*
X0248121Y0274187D01*
X0248188Y0274171D01*
X0248255Y0274151D01*
X0248321Y0274127D01*
X0248385Y0274100D01*
X0248447Y0274070D01*
X0248508Y0274036D01*
X0248567Y0273999D01*
X0248624Y0273958D01*
X0248678Y0273915D01*
X0248730Y0273868D01*
X0248779Y0273819D01*
X0248826Y0273767D01*
X0248869Y0273713D01*
X0248910Y0273656D01*
X0248947Y0273597D01*
X0248981Y0273536D01*
X0249011Y0273474D01*
X0249038Y0273410D01*
X0249062Y0273344D01*
X0249082Y0273277D01*
X0249098Y0273210D01*
X0249110Y0273141D01*
X0249118Y0273072D01*
X0249123Y0273003D01*
X0249124Y0272933D01*
X0249122Y0272864D01*
X0249116Y0272795D01*
X0249107Y0272726D01*
X0249094Y0272658D01*
X0249077Y0272591D01*
X0249057Y0272524D01*
X0249033Y0272459D01*
X0249006Y0272396D01*
X0248975Y0272333D01*
X0248941Y0272273D01*
X0248903Y0272215D01*
X0248863Y0272158D01*
X0248820Y0272104D01*
X0248773Y0272053D01*
X0248724Y0272004D01*
X0248673Y0271957D01*
X0248619Y0271914D01*
X0248562Y0271874D01*
X0248504Y0271836D01*
X0248444Y0271802D01*
X0248381Y0271771D01*
X0248318Y0271744D01*
X0248253Y0271720D01*
X0248186Y0271700D01*
X0248119Y0271683D01*
X0248051Y0271670D01*
X0247982Y0271661D01*
X0247913Y0271655D01*
X0247844Y0271653D01*
X0247844Y0271654D02*
X0246270Y0271654D01*
X0246270Y0271653D02*
X0246203Y0271649D01*
X0246136Y0271649D01*
X0246068Y0271653D01*
X0246002Y0271661D01*
X0245935Y0271672D01*
X0245870Y0271688D01*
X0245805Y0271707D01*
X0245742Y0271729D01*
X0245680Y0271755D01*
X0245619Y0271785D01*
X0245561Y0271818D01*
X0245504Y0271854D01*
X0245450Y0271894D01*
X0245397Y0271936D01*
X0245348Y0271982D01*
X0245301Y0272030D01*
X0245257Y0272081D01*
X0245215Y0272134D01*
X0245177Y0272189D01*
X0245143Y0272247D01*
X0245111Y0272306D01*
X0245083Y0272368D01*
X0245058Y0272430D01*
X0245037Y0272494D01*
X0245020Y0272559D01*
X0245007Y0272625D01*
X0244997Y0272692D01*
X0244991Y0272759D01*
X0244989Y0272826D01*
X0244991Y0272893D01*
X0244990Y0272893D02*
X0244993Y0272966D01*
X0245000Y0273038D01*
X0245011Y0273109D01*
X0245025Y0273180D01*
X0245043Y0273250D01*
X0245066Y0273319D01*
X0245091Y0273387D01*
X0245121Y0273453D01*
X0245154Y0273517D01*
X0245190Y0273580D01*
X0245230Y0273640D01*
X0245273Y0273699D01*
X0245319Y0273754D01*
X0245368Y0273808D01*
X0245419Y0273858D01*
X0245474Y0273906D01*
X0245531Y0273951D01*
X0245590Y0273992D01*
X0245651Y0274030D01*
X0245715Y0274065D01*
X0245780Y0274097D01*
X0245847Y0274124D01*
X0245915Y0274149D01*
X0245984Y0274169D01*
X0246055Y0274186D01*
X0246126Y0274199D01*
X0246198Y0274208D01*
X0246270Y0274213D01*
X0236309Y0273130D02*
X0233947Y0273130D01*
X0233947Y0273129D02*
X0233876Y0273119D01*
X0233807Y0273105D01*
X0233738Y0273087D01*
X0233670Y0273066D01*
X0233603Y0273041D01*
X0233538Y0273012D01*
X0233474Y0272980D01*
X0233413Y0272945D01*
X0233353Y0272907D01*
X0233295Y0272865D01*
X0233240Y0272820D01*
X0233186Y0272773D01*
X0233136Y0272723D01*
X0233088Y0272670D01*
X0233043Y0272615D01*
X0233002Y0272557D01*
X0232963Y0272498D01*
X0232927Y0272436D01*
X0232895Y0272373D01*
X0232866Y0272307D01*
X0232841Y0272241D01*
X0232819Y0272173D01*
X0232801Y0272104D01*
X0232786Y0272035D01*
X0232776Y0271965D01*
X0232769Y0271894D01*
X0232765Y0271823D01*
X0232766Y0271752D01*
X0232766Y0271751D02*
X0232765Y0271680D01*
X0232769Y0271609D01*
X0232776Y0271538D01*
X0232786Y0271468D01*
X0232801Y0271399D01*
X0232819Y0271330D01*
X0232841Y0271262D01*
X0232866Y0271196D01*
X0232895Y0271130D01*
X0232927Y0271067D01*
X0232963Y0271005D01*
X0233002Y0270946D01*
X0233043Y0270888D01*
X0233088Y0270833D01*
X0233136Y0270780D01*
X0233186Y0270730D01*
X0233240Y0270683D01*
X0233295Y0270638D01*
X0233353Y0270596D01*
X0233413Y0270558D01*
X0233474Y0270523D01*
X0233538Y0270491D01*
X0233603Y0270462D01*
X0233670Y0270437D01*
X0233738Y0270416D01*
X0233807Y0270398D01*
X0233876Y0270384D01*
X0233947Y0270374D01*
X0236309Y0270374D01*
X0236380Y0270384D01*
X0236449Y0270398D01*
X0236518Y0270416D01*
X0236586Y0270437D01*
X0236653Y0270462D01*
X0236718Y0270491D01*
X0236782Y0270523D01*
X0236843Y0270558D01*
X0236903Y0270596D01*
X0236961Y0270638D01*
X0237016Y0270683D01*
X0237070Y0270730D01*
X0237120Y0270780D01*
X0237168Y0270833D01*
X0237213Y0270888D01*
X0237254Y0270946D01*
X0237293Y0271005D01*
X0237329Y0271067D01*
X0237361Y0271130D01*
X0237390Y0271196D01*
X0237415Y0271262D01*
X0237437Y0271330D01*
X0237455Y0271399D01*
X0237470Y0271468D01*
X0237480Y0271538D01*
X0237487Y0271609D01*
X0237491Y0271680D01*
X0237490Y0271751D01*
X0237490Y0271752D02*
X0237491Y0271823D01*
X0237487Y0271894D01*
X0237480Y0271965D01*
X0237470Y0272035D01*
X0237455Y0272104D01*
X0237437Y0272173D01*
X0237415Y0272241D01*
X0237390Y0272307D01*
X0237361Y0272373D01*
X0237329Y0272436D01*
X0237293Y0272498D01*
X0237254Y0272557D01*
X0237213Y0272615D01*
X0237168Y0272670D01*
X0237120Y0272723D01*
X0237070Y0272773D01*
X0237016Y0272820D01*
X0236961Y0272865D01*
X0236903Y0272907D01*
X0236843Y0272945D01*
X0236782Y0272980D01*
X0236718Y0273012D01*
X0236653Y0273041D01*
X0236586Y0273066D01*
X0236518Y0273087D01*
X0236449Y0273105D01*
X0236380Y0273119D01*
X0236309Y0273129D01*
X0236309Y0192626D02*
X0233947Y0192626D01*
X0233876Y0192616D01*
X0233807Y0192602D01*
X0233738Y0192584D01*
X0233670Y0192563D01*
X0233603Y0192538D01*
X0233538Y0192509D01*
X0233474Y0192477D01*
X0233413Y0192442D01*
X0233353Y0192404D01*
X0233295Y0192362D01*
X0233240Y0192317D01*
X0233186Y0192270D01*
X0233136Y0192220D01*
X0233088Y0192167D01*
X0233043Y0192112D01*
X0233002Y0192054D01*
X0232963Y0191995D01*
X0232927Y0191933D01*
X0232895Y0191870D01*
X0232866Y0191804D01*
X0232841Y0191738D01*
X0232819Y0191670D01*
X0232801Y0191601D01*
X0232786Y0191532D01*
X0232776Y0191462D01*
X0232769Y0191391D01*
X0232765Y0191320D01*
X0232766Y0191249D01*
X0232766Y0191248D02*
X0232765Y0191177D01*
X0232769Y0191106D01*
X0232776Y0191035D01*
X0232786Y0190965D01*
X0232801Y0190896D01*
X0232819Y0190827D01*
X0232841Y0190759D01*
X0232866Y0190693D01*
X0232895Y0190627D01*
X0232927Y0190564D01*
X0232963Y0190502D01*
X0233002Y0190443D01*
X0233043Y0190385D01*
X0233088Y0190330D01*
X0233136Y0190277D01*
X0233186Y0190227D01*
X0233240Y0190180D01*
X0233295Y0190135D01*
X0233353Y0190093D01*
X0233413Y0190055D01*
X0233474Y0190020D01*
X0233538Y0189988D01*
X0233603Y0189959D01*
X0233670Y0189934D01*
X0233738Y0189913D01*
X0233807Y0189895D01*
X0233876Y0189881D01*
X0233947Y0189871D01*
X0233947Y0189870D02*
X0236309Y0189870D01*
X0236309Y0189871D02*
X0236380Y0189881D01*
X0236449Y0189895D01*
X0236518Y0189913D01*
X0236586Y0189934D01*
X0236653Y0189959D01*
X0236718Y0189988D01*
X0236782Y0190020D01*
X0236843Y0190055D01*
X0236903Y0190093D01*
X0236961Y0190135D01*
X0237016Y0190180D01*
X0237070Y0190227D01*
X0237120Y0190277D01*
X0237168Y0190330D01*
X0237213Y0190385D01*
X0237254Y0190443D01*
X0237293Y0190502D01*
X0237329Y0190564D01*
X0237361Y0190627D01*
X0237390Y0190693D01*
X0237415Y0190759D01*
X0237437Y0190827D01*
X0237455Y0190896D01*
X0237470Y0190965D01*
X0237480Y0191035D01*
X0237487Y0191106D01*
X0237491Y0191177D01*
X0237490Y0191248D01*
X0237490Y0191249D02*
X0237491Y0191320D01*
X0237487Y0191391D01*
X0237480Y0191462D01*
X0237470Y0191532D01*
X0237455Y0191601D01*
X0237437Y0191670D01*
X0237415Y0191738D01*
X0237390Y0191804D01*
X0237361Y0191870D01*
X0237329Y0191933D01*
X0237293Y0191995D01*
X0237254Y0192054D01*
X0237213Y0192112D01*
X0237168Y0192167D01*
X0237120Y0192220D01*
X0237070Y0192270D01*
X0237016Y0192317D01*
X0236961Y0192362D01*
X0236903Y0192404D01*
X0236843Y0192442D01*
X0236782Y0192477D01*
X0236718Y0192509D01*
X0236653Y0192538D01*
X0236586Y0192563D01*
X0236518Y0192584D01*
X0236449Y0192602D01*
X0236380Y0192616D01*
X0236309Y0192626D01*
X0246270Y0191346D02*
X0247844Y0191346D01*
X0247844Y0191347D02*
X0247914Y0191346D01*
X0247983Y0191341D01*
X0248052Y0191333D01*
X0248121Y0191321D01*
X0248188Y0191305D01*
X0248255Y0191285D01*
X0248321Y0191261D01*
X0248385Y0191234D01*
X0248447Y0191204D01*
X0248508Y0191170D01*
X0248567Y0191133D01*
X0248624Y0191092D01*
X0248678Y0191049D01*
X0248730Y0191002D01*
X0248779Y0190953D01*
X0248826Y0190901D01*
X0248869Y0190847D01*
X0248910Y0190790D01*
X0248947Y0190731D01*
X0248981Y0190670D01*
X0249011Y0190608D01*
X0249038Y0190544D01*
X0249062Y0190478D01*
X0249082Y0190411D01*
X0249098Y0190344D01*
X0249110Y0190275D01*
X0249118Y0190206D01*
X0249123Y0190137D01*
X0249124Y0190067D01*
X0249122Y0189998D01*
X0249116Y0189929D01*
X0249107Y0189860D01*
X0249094Y0189792D01*
X0249077Y0189725D01*
X0249057Y0189658D01*
X0249033Y0189593D01*
X0249006Y0189530D01*
X0248975Y0189467D01*
X0248941Y0189407D01*
X0248903Y0189349D01*
X0248863Y0189292D01*
X0248820Y0189238D01*
X0248773Y0189187D01*
X0248724Y0189138D01*
X0248673Y0189091D01*
X0248619Y0189048D01*
X0248562Y0189008D01*
X0248504Y0188970D01*
X0248444Y0188936D01*
X0248381Y0188905D01*
X0248318Y0188878D01*
X0248253Y0188854D01*
X0248186Y0188834D01*
X0248119Y0188817D01*
X0248051Y0188804D01*
X0247982Y0188795D01*
X0247913Y0188789D01*
X0247844Y0188787D01*
X0246270Y0188787D01*
X0246203Y0188783D01*
X0246136Y0188783D01*
X0246068Y0188787D01*
X0246002Y0188795D01*
X0245935Y0188806D01*
X0245870Y0188822D01*
X0245805Y0188841D01*
X0245742Y0188863D01*
X0245680Y0188889D01*
X0245619Y0188919D01*
X0245561Y0188952D01*
X0245504Y0188988D01*
X0245450Y0189028D01*
X0245397Y0189070D01*
X0245348Y0189116D01*
X0245301Y0189164D01*
X0245257Y0189215D01*
X0245215Y0189268D01*
X0245177Y0189323D01*
X0245143Y0189381D01*
X0245111Y0189440D01*
X0245083Y0189502D01*
X0245058Y0189564D01*
X0245037Y0189628D01*
X0245020Y0189693D01*
X0245007Y0189759D01*
X0244997Y0189826D01*
X0244991Y0189893D01*
X0244989Y0189960D01*
X0244991Y0190027D01*
X0244990Y0190027D02*
X0244993Y0190100D01*
X0245000Y0190172D01*
X0245011Y0190243D01*
X0245025Y0190314D01*
X0245043Y0190384D01*
X0245066Y0190453D01*
X0245091Y0190521D01*
X0245121Y0190587D01*
X0245154Y0190651D01*
X0245190Y0190714D01*
X0245230Y0190774D01*
X0245273Y0190833D01*
X0245319Y0190888D01*
X0245368Y0190942D01*
X0245419Y0190992D01*
X0245474Y0191040D01*
X0245531Y0191085D01*
X0245590Y0191126D01*
X0245651Y0191164D01*
X0245715Y0191199D01*
X0245780Y0191231D01*
X0245847Y0191258D01*
X0245915Y0191283D01*
X0245984Y0191303D01*
X0246055Y0191320D01*
X0246126Y0191333D01*
X0246198Y0191342D01*
X0246270Y0191347D01*
X0246270Y0172213D02*
X0247844Y0172213D01*
X0247914Y0172212D01*
X0247983Y0172207D01*
X0248052Y0172199D01*
X0248121Y0172187D01*
X0248188Y0172171D01*
X0248255Y0172151D01*
X0248321Y0172127D01*
X0248385Y0172100D01*
X0248447Y0172070D01*
X0248508Y0172036D01*
X0248567Y0171999D01*
X0248624Y0171958D01*
X0248678Y0171915D01*
X0248730Y0171868D01*
X0248779Y0171819D01*
X0248826Y0171767D01*
X0248869Y0171713D01*
X0248910Y0171656D01*
X0248947Y0171597D01*
X0248981Y0171536D01*
X0249011Y0171474D01*
X0249038Y0171410D01*
X0249062Y0171344D01*
X0249082Y0171277D01*
X0249098Y0171210D01*
X0249110Y0171141D01*
X0249118Y0171072D01*
X0249123Y0171003D01*
X0249124Y0170933D01*
X0249122Y0170864D01*
X0249116Y0170795D01*
X0249107Y0170726D01*
X0249094Y0170658D01*
X0249077Y0170591D01*
X0249057Y0170524D01*
X0249033Y0170459D01*
X0249006Y0170396D01*
X0248975Y0170333D01*
X0248941Y0170273D01*
X0248903Y0170215D01*
X0248863Y0170158D01*
X0248820Y0170104D01*
X0248773Y0170053D01*
X0248724Y0170004D01*
X0248673Y0169957D01*
X0248619Y0169914D01*
X0248562Y0169874D01*
X0248504Y0169836D01*
X0248444Y0169802D01*
X0248381Y0169771D01*
X0248318Y0169744D01*
X0248253Y0169720D01*
X0248186Y0169700D01*
X0248119Y0169683D01*
X0248051Y0169670D01*
X0247982Y0169661D01*
X0247913Y0169655D01*
X0247844Y0169653D01*
X0247844Y0169654D02*
X0246270Y0169654D01*
X0246270Y0169653D02*
X0246203Y0169649D01*
X0246136Y0169649D01*
X0246068Y0169653D01*
X0246002Y0169661D01*
X0245935Y0169672D01*
X0245870Y0169688D01*
X0245805Y0169707D01*
X0245742Y0169729D01*
X0245680Y0169755D01*
X0245619Y0169785D01*
X0245561Y0169818D01*
X0245504Y0169854D01*
X0245450Y0169894D01*
X0245397Y0169936D01*
X0245348Y0169982D01*
X0245301Y0170030D01*
X0245257Y0170081D01*
X0245215Y0170134D01*
X0245177Y0170189D01*
X0245143Y0170247D01*
X0245111Y0170306D01*
X0245083Y0170368D01*
X0245058Y0170430D01*
X0245037Y0170494D01*
X0245020Y0170559D01*
X0245007Y0170625D01*
X0244997Y0170692D01*
X0244991Y0170759D01*
X0244989Y0170826D01*
X0244991Y0170893D01*
X0244990Y0170893D02*
X0244993Y0170966D01*
X0245000Y0171038D01*
X0245011Y0171109D01*
X0245025Y0171180D01*
X0245043Y0171250D01*
X0245066Y0171319D01*
X0245091Y0171387D01*
X0245121Y0171453D01*
X0245154Y0171517D01*
X0245190Y0171580D01*
X0245230Y0171640D01*
X0245273Y0171699D01*
X0245319Y0171754D01*
X0245368Y0171808D01*
X0245419Y0171858D01*
X0245474Y0171906D01*
X0245531Y0171951D01*
X0245590Y0171992D01*
X0245651Y0172030D01*
X0245715Y0172065D01*
X0245780Y0172097D01*
X0245847Y0172124D01*
X0245915Y0172149D01*
X0245984Y0172169D01*
X0246055Y0172186D01*
X0246126Y0172199D01*
X0246198Y0172208D01*
X0246270Y0172213D01*
X0236309Y0171130D02*
X0233947Y0171130D01*
X0233947Y0171129D02*
X0233876Y0171119D01*
X0233807Y0171105D01*
X0233738Y0171087D01*
X0233670Y0171066D01*
X0233603Y0171041D01*
X0233538Y0171012D01*
X0233474Y0170980D01*
X0233413Y0170945D01*
X0233353Y0170907D01*
X0233295Y0170865D01*
X0233240Y0170820D01*
X0233186Y0170773D01*
X0233136Y0170723D01*
X0233088Y0170670D01*
X0233043Y0170615D01*
X0233002Y0170557D01*
X0232963Y0170498D01*
X0232927Y0170436D01*
X0232895Y0170373D01*
X0232866Y0170307D01*
X0232841Y0170241D01*
X0232819Y0170173D01*
X0232801Y0170104D01*
X0232786Y0170035D01*
X0232776Y0169965D01*
X0232769Y0169894D01*
X0232765Y0169823D01*
X0232766Y0169752D01*
X0232766Y0169751D02*
X0232765Y0169680D01*
X0232769Y0169609D01*
X0232776Y0169538D01*
X0232786Y0169468D01*
X0232801Y0169399D01*
X0232819Y0169330D01*
X0232841Y0169262D01*
X0232866Y0169196D01*
X0232895Y0169130D01*
X0232927Y0169067D01*
X0232963Y0169005D01*
X0233002Y0168946D01*
X0233043Y0168888D01*
X0233088Y0168833D01*
X0233136Y0168780D01*
X0233186Y0168730D01*
X0233240Y0168683D01*
X0233295Y0168638D01*
X0233353Y0168596D01*
X0233413Y0168558D01*
X0233474Y0168523D01*
X0233538Y0168491D01*
X0233603Y0168462D01*
X0233670Y0168437D01*
X0233738Y0168416D01*
X0233807Y0168398D01*
X0233876Y0168384D01*
X0233947Y0168374D01*
X0236309Y0168374D01*
X0236380Y0168384D01*
X0236449Y0168398D01*
X0236518Y0168416D01*
X0236586Y0168437D01*
X0236653Y0168462D01*
X0236718Y0168491D01*
X0236782Y0168523D01*
X0236843Y0168558D01*
X0236903Y0168596D01*
X0236961Y0168638D01*
X0237016Y0168683D01*
X0237070Y0168730D01*
X0237120Y0168780D01*
X0237168Y0168833D01*
X0237213Y0168888D01*
X0237254Y0168946D01*
X0237293Y0169005D01*
X0237329Y0169067D01*
X0237361Y0169130D01*
X0237390Y0169196D01*
X0237415Y0169262D01*
X0237437Y0169330D01*
X0237455Y0169399D01*
X0237470Y0169468D01*
X0237480Y0169538D01*
X0237487Y0169609D01*
X0237491Y0169680D01*
X0237490Y0169751D01*
X0237490Y0169752D02*
X0237491Y0169823D01*
X0237487Y0169894D01*
X0237480Y0169965D01*
X0237470Y0170035D01*
X0237455Y0170104D01*
X0237437Y0170173D01*
X0237415Y0170241D01*
X0237390Y0170307D01*
X0237361Y0170373D01*
X0237329Y0170436D01*
X0237293Y0170498D01*
X0237254Y0170557D01*
X0237213Y0170615D01*
X0237168Y0170670D01*
X0237120Y0170723D01*
X0237070Y0170773D01*
X0237016Y0170820D01*
X0236961Y0170865D01*
X0236903Y0170907D01*
X0236843Y0170945D01*
X0236782Y0170980D01*
X0236718Y0171012D01*
X0236653Y0171041D01*
X0236586Y0171066D01*
X0236518Y0171087D01*
X0236449Y0171105D01*
X0236380Y0171119D01*
X0236309Y0171129D01*
X0236309Y0090626D02*
X0233947Y0090626D01*
X0233876Y0090616D01*
X0233807Y0090602D01*
X0233738Y0090584D01*
X0233670Y0090563D01*
X0233603Y0090538D01*
X0233538Y0090509D01*
X0233474Y0090477D01*
X0233413Y0090442D01*
X0233353Y0090404D01*
X0233295Y0090362D01*
X0233240Y0090317D01*
X0233186Y0090270D01*
X0233136Y0090220D01*
X0233088Y0090167D01*
X0233043Y0090112D01*
X0233002Y0090054D01*
X0232963Y0089995D01*
X0232927Y0089933D01*
X0232895Y0089870D01*
X0232866Y0089804D01*
X0232841Y0089738D01*
X0232819Y0089670D01*
X0232801Y0089601D01*
X0232786Y0089532D01*
X0232776Y0089462D01*
X0232769Y0089391D01*
X0232765Y0089320D01*
X0232766Y0089249D01*
X0232766Y0089248D02*
X0232765Y0089177D01*
X0232769Y0089106D01*
X0232776Y0089035D01*
X0232786Y0088965D01*
X0232801Y0088896D01*
X0232819Y0088827D01*
X0232841Y0088759D01*
X0232866Y0088693D01*
X0232895Y0088627D01*
X0232927Y0088564D01*
X0232963Y0088502D01*
X0233002Y0088443D01*
X0233043Y0088385D01*
X0233088Y0088330D01*
X0233136Y0088277D01*
X0233186Y0088227D01*
X0233240Y0088180D01*
X0233295Y0088135D01*
X0233353Y0088093D01*
X0233413Y0088055D01*
X0233474Y0088020D01*
X0233538Y0087988D01*
X0233603Y0087959D01*
X0233670Y0087934D01*
X0233738Y0087913D01*
X0233807Y0087895D01*
X0233876Y0087881D01*
X0233947Y0087871D01*
X0233947Y0087870D02*
X0236309Y0087870D01*
X0236309Y0087871D02*
X0236380Y0087881D01*
X0236449Y0087895D01*
X0236518Y0087913D01*
X0236586Y0087934D01*
X0236653Y0087959D01*
X0236718Y0087988D01*
X0236782Y0088020D01*
X0236843Y0088055D01*
X0236903Y0088093D01*
X0236961Y0088135D01*
X0237016Y0088180D01*
X0237070Y0088227D01*
X0237120Y0088277D01*
X0237168Y0088330D01*
X0237213Y0088385D01*
X0237254Y0088443D01*
X0237293Y0088502D01*
X0237329Y0088564D01*
X0237361Y0088627D01*
X0237390Y0088693D01*
X0237415Y0088759D01*
X0237437Y0088827D01*
X0237455Y0088896D01*
X0237470Y0088965D01*
X0237480Y0089035D01*
X0237487Y0089106D01*
X0237491Y0089177D01*
X0237490Y0089248D01*
X0237490Y0089249D02*
X0237491Y0089320D01*
X0237487Y0089391D01*
X0237480Y0089462D01*
X0237470Y0089532D01*
X0237455Y0089601D01*
X0237437Y0089670D01*
X0237415Y0089738D01*
X0237390Y0089804D01*
X0237361Y0089870D01*
X0237329Y0089933D01*
X0237293Y0089995D01*
X0237254Y0090054D01*
X0237213Y0090112D01*
X0237168Y0090167D01*
X0237120Y0090220D01*
X0237070Y0090270D01*
X0237016Y0090317D01*
X0236961Y0090362D01*
X0236903Y0090404D01*
X0236843Y0090442D01*
X0236782Y0090477D01*
X0236718Y0090509D01*
X0236653Y0090538D01*
X0236586Y0090563D01*
X0236518Y0090584D01*
X0236449Y0090602D01*
X0236380Y0090616D01*
X0236309Y0090626D01*
X0246270Y0089346D02*
X0247844Y0089346D01*
X0247844Y0089347D02*
X0247914Y0089346D01*
X0247983Y0089341D01*
X0248052Y0089333D01*
X0248121Y0089321D01*
X0248188Y0089305D01*
X0248255Y0089285D01*
X0248321Y0089261D01*
X0248385Y0089234D01*
X0248447Y0089204D01*
X0248508Y0089170D01*
X0248567Y0089133D01*
X0248624Y0089092D01*
X0248678Y0089049D01*
X0248730Y0089002D01*
X0248779Y0088953D01*
X0248826Y0088901D01*
X0248869Y0088847D01*
X0248910Y0088790D01*
X0248947Y0088731D01*
X0248981Y0088670D01*
X0249011Y0088608D01*
X0249038Y0088544D01*
X0249062Y0088478D01*
X0249082Y0088411D01*
X0249098Y0088344D01*
X0249110Y0088275D01*
X0249118Y0088206D01*
X0249123Y0088137D01*
X0249124Y0088067D01*
X0249122Y0087998D01*
X0249116Y0087929D01*
X0249107Y0087860D01*
X0249094Y0087792D01*
X0249077Y0087725D01*
X0249057Y0087658D01*
X0249033Y0087593D01*
X0249006Y0087530D01*
X0248975Y0087467D01*
X0248941Y0087407D01*
X0248903Y0087349D01*
X0248863Y0087292D01*
X0248820Y0087238D01*
X0248773Y0087187D01*
X0248724Y0087138D01*
X0248673Y0087091D01*
X0248619Y0087048D01*
X0248562Y0087008D01*
X0248504Y0086970D01*
X0248444Y0086936D01*
X0248381Y0086905D01*
X0248318Y0086878D01*
X0248253Y0086854D01*
X0248186Y0086834D01*
X0248119Y0086817D01*
X0248051Y0086804D01*
X0247982Y0086795D01*
X0247913Y0086789D01*
X0247844Y0086787D01*
X0246270Y0086787D01*
X0246203Y0086783D01*
X0246136Y0086783D01*
X0246068Y0086787D01*
X0246002Y0086795D01*
X0245935Y0086806D01*
X0245870Y0086822D01*
X0245805Y0086841D01*
X0245742Y0086863D01*
X0245680Y0086889D01*
X0245619Y0086919D01*
X0245561Y0086952D01*
X0245504Y0086988D01*
X0245450Y0087028D01*
X0245397Y0087070D01*
X0245348Y0087116D01*
X0245301Y0087164D01*
X0245257Y0087215D01*
X0245215Y0087268D01*
X0245177Y0087323D01*
X0245143Y0087381D01*
X0245111Y0087440D01*
X0245083Y0087502D01*
X0245058Y0087564D01*
X0245037Y0087628D01*
X0245020Y0087693D01*
X0245007Y0087759D01*
X0244997Y0087826D01*
X0244991Y0087893D01*
X0244989Y0087960D01*
X0244991Y0088027D01*
X0244990Y0088027D02*
X0244993Y0088100D01*
X0245000Y0088172D01*
X0245011Y0088243D01*
X0245025Y0088314D01*
X0245043Y0088384D01*
X0245066Y0088453D01*
X0245091Y0088521D01*
X0245121Y0088587D01*
X0245154Y0088651D01*
X0245190Y0088714D01*
X0245230Y0088774D01*
X0245273Y0088833D01*
X0245319Y0088888D01*
X0245368Y0088942D01*
X0245419Y0088992D01*
X0245474Y0089040D01*
X0245531Y0089085D01*
X0245590Y0089126D01*
X0245651Y0089164D01*
X0245715Y0089199D01*
X0245780Y0089231D01*
X0245847Y0089258D01*
X0245915Y0089283D01*
X0245984Y0089303D01*
X0246055Y0089320D01*
X0246126Y0089333D01*
X0246198Y0089342D01*
X0246270Y0089347D01*
X0246270Y0070213D02*
X0247844Y0070213D01*
X0247914Y0070212D01*
X0247983Y0070207D01*
X0248052Y0070199D01*
X0248121Y0070187D01*
X0248188Y0070171D01*
X0248255Y0070151D01*
X0248321Y0070127D01*
X0248385Y0070100D01*
X0248447Y0070070D01*
X0248508Y0070036D01*
X0248567Y0069999D01*
X0248624Y0069958D01*
X0248678Y0069915D01*
X0248730Y0069868D01*
X0248779Y0069819D01*
X0248826Y0069767D01*
X0248869Y0069713D01*
X0248910Y0069656D01*
X0248947Y0069597D01*
X0248981Y0069536D01*
X0249011Y0069474D01*
X0249038Y0069410D01*
X0249062Y0069344D01*
X0249082Y0069277D01*
X0249098Y0069210D01*
X0249110Y0069141D01*
X0249118Y0069072D01*
X0249123Y0069003D01*
X0249124Y0068933D01*
X0249122Y0068864D01*
X0249116Y0068795D01*
X0249107Y0068726D01*
X0249094Y0068658D01*
X0249077Y0068591D01*
X0249057Y0068524D01*
X0249033Y0068459D01*
X0249006Y0068396D01*
X0248975Y0068333D01*
X0248941Y0068273D01*
X0248903Y0068215D01*
X0248863Y0068158D01*
X0248820Y0068104D01*
X0248773Y0068053D01*
X0248724Y0068004D01*
X0248673Y0067957D01*
X0248619Y0067914D01*
X0248562Y0067874D01*
X0248504Y0067836D01*
X0248444Y0067802D01*
X0248381Y0067771D01*
X0248318Y0067744D01*
X0248253Y0067720D01*
X0248186Y0067700D01*
X0248119Y0067683D01*
X0248051Y0067670D01*
X0247982Y0067661D01*
X0247913Y0067655D01*
X0247844Y0067653D01*
X0247844Y0067654D02*
X0246270Y0067654D01*
X0246270Y0067653D02*
X0246203Y0067649D01*
X0246136Y0067649D01*
X0246068Y0067653D01*
X0246002Y0067661D01*
X0245935Y0067672D01*
X0245870Y0067688D01*
X0245805Y0067707D01*
X0245742Y0067729D01*
X0245680Y0067755D01*
X0245619Y0067785D01*
X0245561Y0067818D01*
X0245504Y0067854D01*
X0245450Y0067894D01*
X0245397Y0067936D01*
X0245348Y0067982D01*
X0245301Y0068030D01*
X0245257Y0068081D01*
X0245215Y0068134D01*
X0245177Y0068189D01*
X0245143Y0068247D01*
X0245111Y0068306D01*
X0245083Y0068368D01*
X0245058Y0068430D01*
X0245037Y0068494D01*
X0245020Y0068559D01*
X0245007Y0068625D01*
X0244997Y0068692D01*
X0244991Y0068759D01*
X0244989Y0068826D01*
X0244991Y0068893D01*
X0244990Y0068893D02*
X0244993Y0068966D01*
X0245000Y0069038D01*
X0245011Y0069109D01*
X0245025Y0069180D01*
X0245043Y0069250D01*
X0245066Y0069319D01*
X0245091Y0069387D01*
X0245121Y0069453D01*
X0245154Y0069517D01*
X0245190Y0069580D01*
X0245230Y0069640D01*
X0245273Y0069699D01*
X0245319Y0069754D01*
X0245368Y0069808D01*
X0245419Y0069858D01*
X0245474Y0069906D01*
X0245531Y0069951D01*
X0245590Y0069992D01*
X0245651Y0070030D01*
X0245715Y0070065D01*
X0245780Y0070097D01*
X0245847Y0070124D01*
X0245915Y0070149D01*
X0245984Y0070169D01*
X0246055Y0070186D01*
X0246126Y0070199D01*
X0246198Y0070208D01*
X0246270Y0070213D01*
X0236309Y0069130D02*
X0233947Y0069130D01*
X0233947Y0069129D02*
X0233876Y0069119D01*
X0233807Y0069105D01*
X0233738Y0069087D01*
X0233670Y0069066D01*
X0233603Y0069041D01*
X0233538Y0069012D01*
X0233474Y0068980D01*
X0233413Y0068945D01*
X0233353Y0068907D01*
X0233295Y0068865D01*
X0233240Y0068820D01*
X0233186Y0068773D01*
X0233136Y0068723D01*
X0233088Y0068670D01*
X0233043Y0068615D01*
X0233002Y0068557D01*
X0232963Y0068498D01*
X0232927Y0068436D01*
X0232895Y0068373D01*
X0232866Y0068307D01*
X0232841Y0068241D01*
X0232819Y0068173D01*
X0232801Y0068104D01*
X0232786Y0068035D01*
X0232776Y0067965D01*
X0232769Y0067894D01*
X0232765Y0067823D01*
X0232766Y0067752D01*
X0232766Y0067751D02*
X0232765Y0067680D01*
X0232769Y0067609D01*
X0232776Y0067538D01*
X0232786Y0067468D01*
X0232801Y0067399D01*
X0232819Y0067330D01*
X0232841Y0067262D01*
X0232866Y0067196D01*
X0232895Y0067130D01*
X0232927Y0067067D01*
X0232963Y0067005D01*
X0233002Y0066946D01*
X0233043Y0066888D01*
X0233088Y0066833D01*
X0233136Y0066780D01*
X0233186Y0066730D01*
X0233240Y0066683D01*
X0233295Y0066638D01*
X0233353Y0066596D01*
X0233413Y0066558D01*
X0233474Y0066523D01*
X0233538Y0066491D01*
X0233603Y0066462D01*
X0233670Y0066437D01*
X0233738Y0066416D01*
X0233807Y0066398D01*
X0233876Y0066384D01*
X0233947Y0066374D01*
X0236309Y0066374D01*
X0236380Y0066384D01*
X0236449Y0066398D01*
X0236518Y0066416D01*
X0236586Y0066437D01*
X0236653Y0066462D01*
X0236718Y0066491D01*
X0236782Y0066523D01*
X0236843Y0066558D01*
X0236903Y0066596D01*
X0236961Y0066638D01*
X0237016Y0066683D01*
X0237070Y0066730D01*
X0237120Y0066780D01*
X0237168Y0066833D01*
X0237213Y0066888D01*
X0237254Y0066946D01*
X0237293Y0067005D01*
X0237329Y0067067D01*
X0237361Y0067130D01*
X0237390Y0067196D01*
X0237415Y0067262D01*
X0237437Y0067330D01*
X0237455Y0067399D01*
X0237470Y0067468D01*
X0237480Y0067538D01*
X0237487Y0067609D01*
X0237491Y0067680D01*
X0237490Y0067751D01*
X0237490Y0067752D02*
X0237491Y0067823D01*
X0237487Y0067894D01*
X0237480Y0067965D01*
X0237470Y0068035D01*
X0237455Y0068104D01*
X0237437Y0068173D01*
X0237415Y0068241D01*
X0237390Y0068307D01*
X0237361Y0068373D01*
X0237329Y0068436D01*
X0237293Y0068498D01*
X0237254Y0068557D01*
X0237213Y0068615D01*
X0237168Y0068670D01*
X0237120Y0068723D01*
X0237070Y0068773D01*
X0237016Y0068820D01*
X0236961Y0068865D01*
X0236903Y0068907D01*
X0236843Y0068945D01*
X0236782Y0068980D01*
X0236718Y0069012D01*
X0236653Y0069041D01*
X0236586Y0069066D01*
X0236518Y0069087D01*
X0236449Y0069105D01*
X0236380Y0069119D01*
X0236309Y0069129D01*
X0059124Y0068933D02*
X0059123Y0069003D01*
X0059118Y0069072D01*
X0059110Y0069141D01*
X0059098Y0069210D01*
X0059082Y0069277D01*
X0059062Y0069344D01*
X0059038Y0069410D01*
X0059011Y0069474D01*
X0058981Y0069536D01*
X0058947Y0069597D01*
X0058910Y0069656D01*
X0058869Y0069713D01*
X0058826Y0069767D01*
X0058779Y0069819D01*
X0058730Y0069868D01*
X0058678Y0069915D01*
X0058624Y0069958D01*
X0058567Y0069999D01*
X0058508Y0070036D01*
X0058447Y0070070D01*
X0058385Y0070100D01*
X0058321Y0070127D01*
X0058255Y0070151D01*
X0058188Y0070171D01*
X0058121Y0070187D01*
X0058052Y0070199D01*
X0057983Y0070207D01*
X0057914Y0070212D01*
X0057844Y0070213D01*
X0056270Y0070213D01*
X0056198Y0070208D01*
X0056126Y0070199D01*
X0056055Y0070186D01*
X0055984Y0070169D01*
X0055915Y0070149D01*
X0055847Y0070124D01*
X0055780Y0070097D01*
X0055715Y0070065D01*
X0055651Y0070030D01*
X0055590Y0069992D01*
X0055531Y0069951D01*
X0055474Y0069906D01*
X0055419Y0069858D01*
X0055368Y0069808D01*
X0055319Y0069754D01*
X0055273Y0069699D01*
X0055230Y0069640D01*
X0055190Y0069580D01*
X0055154Y0069517D01*
X0055121Y0069453D01*
X0055091Y0069387D01*
X0055066Y0069319D01*
X0055043Y0069250D01*
X0055025Y0069180D01*
X0055011Y0069109D01*
X0055000Y0069038D01*
X0054993Y0068966D01*
X0054990Y0068893D01*
X0054991Y0068893D02*
X0054989Y0068826D01*
X0054991Y0068759D01*
X0054997Y0068692D01*
X0055007Y0068625D01*
X0055020Y0068559D01*
X0055037Y0068494D01*
X0055058Y0068430D01*
X0055083Y0068368D01*
X0055111Y0068306D01*
X0055143Y0068247D01*
X0055177Y0068189D01*
X0055215Y0068134D01*
X0055257Y0068081D01*
X0055301Y0068030D01*
X0055348Y0067982D01*
X0055397Y0067936D01*
X0055450Y0067894D01*
X0055504Y0067854D01*
X0055561Y0067818D01*
X0055619Y0067785D01*
X0055680Y0067755D01*
X0055742Y0067729D01*
X0055805Y0067707D01*
X0055870Y0067688D01*
X0055935Y0067672D01*
X0056002Y0067661D01*
X0056068Y0067653D01*
X0056136Y0067649D01*
X0056203Y0067649D01*
X0056270Y0067653D01*
X0056270Y0067654D02*
X0057844Y0067654D01*
X0057844Y0067653D02*
X0057913Y0067655D01*
X0057982Y0067661D01*
X0058051Y0067670D01*
X0058119Y0067683D01*
X0058186Y0067700D01*
X0058253Y0067720D01*
X0058318Y0067744D01*
X0058381Y0067771D01*
X0058444Y0067802D01*
X0058504Y0067836D01*
X0058562Y0067874D01*
X0058619Y0067914D01*
X0058673Y0067957D01*
X0058724Y0068004D01*
X0058773Y0068053D01*
X0058820Y0068104D01*
X0058863Y0068158D01*
X0058903Y0068215D01*
X0058941Y0068273D01*
X0058975Y0068333D01*
X0059006Y0068396D01*
X0059033Y0068459D01*
X0059057Y0068524D01*
X0059077Y0068591D01*
X0059094Y0068658D01*
X0059107Y0068726D01*
X0059116Y0068795D01*
X0059122Y0068864D01*
X0059124Y0068933D01*
X0046309Y0069130D02*
X0043947Y0069130D01*
X0043947Y0069129D02*
X0043876Y0069119D01*
X0043807Y0069105D01*
X0043738Y0069087D01*
X0043670Y0069066D01*
X0043603Y0069041D01*
X0043538Y0069012D01*
X0043474Y0068980D01*
X0043413Y0068945D01*
X0043353Y0068907D01*
X0043295Y0068865D01*
X0043240Y0068820D01*
X0043186Y0068773D01*
X0043136Y0068723D01*
X0043088Y0068670D01*
X0043043Y0068615D01*
X0043002Y0068557D01*
X0042963Y0068498D01*
X0042927Y0068436D01*
X0042895Y0068373D01*
X0042866Y0068307D01*
X0042841Y0068241D01*
X0042819Y0068173D01*
X0042801Y0068104D01*
X0042786Y0068035D01*
X0042776Y0067965D01*
X0042769Y0067894D01*
X0042765Y0067823D01*
X0042766Y0067752D01*
X0042766Y0067751D02*
X0042765Y0067680D01*
X0042769Y0067609D01*
X0042776Y0067538D01*
X0042786Y0067468D01*
X0042801Y0067399D01*
X0042819Y0067330D01*
X0042841Y0067262D01*
X0042866Y0067196D01*
X0042895Y0067130D01*
X0042927Y0067067D01*
X0042963Y0067005D01*
X0043002Y0066946D01*
X0043043Y0066888D01*
X0043088Y0066833D01*
X0043136Y0066780D01*
X0043186Y0066730D01*
X0043240Y0066683D01*
X0043295Y0066638D01*
X0043353Y0066596D01*
X0043413Y0066558D01*
X0043474Y0066523D01*
X0043538Y0066491D01*
X0043603Y0066462D01*
X0043670Y0066437D01*
X0043738Y0066416D01*
X0043807Y0066398D01*
X0043876Y0066384D01*
X0043947Y0066374D01*
X0046309Y0066374D01*
X0046380Y0066384D01*
X0046449Y0066398D01*
X0046518Y0066416D01*
X0046586Y0066437D01*
X0046653Y0066462D01*
X0046718Y0066491D01*
X0046782Y0066523D01*
X0046843Y0066558D01*
X0046903Y0066596D01*
X0046961Y0066638D01*
X0047016Y0066683D01*
X0047070Y0066730D01*
X0047120Y0066780D01*
X0047168Y0066833D01*
X0047213Y0066888D01*
X0047254Y0066946D01*
X0047293Y0067005D01*
X0047329Y0067067D01*
X0047361Y0067130D01*
X0047390Y0067196D01*
X0047415Y0067262D01*
X0047437Y0067330D01*
X0047455Y0067399D01*
X0047470Y0067468D01*
X0047480Y0067538D01*
X0047487Y0067609D01*
X0047491Y0067680D01*
X0047490Y0067751D01*
X0047490Y0067752D02*
X0047491Y0067823D01*
X0047487Y0067894D01*
X0047480Y0067965D01*
X0047470Y0068035D01*
X0047455Y0068104D01*
X0047437Y0068173D01*
X0047415Y0068241D01*
X0047390Y0068307D01*
X0047361Y0068373D01*
X0047329Y0068436D01*
X0047293Y0068498D01*
X0047254Y0068557D01*
X0047213Y0068615D01*
X0047168Y0068670D01*
X0047120Y0068723D01*
X0047070Y0068773D01*
X0047016Y0068820D01*
X0046961Y0068865D01*
X0046903Y0068907D01*
X0046843Y0068945D01*
X0046782Y0068980D01*
X0046718Y0069012D01*
X0046653Y0069041D01*
X0046586Y0069066D01*
X0046518Y0069087D01*
X0046449Y0069105D01*
X0046380Y0069119D01*
X0046309Y0069129D01*
X0046309Y0087870D02*
X0043947Y0087870D01*
X0043947Y0087871D02*
X0043876Y0087881D01*
X0043807Y0087895D01*
X0043738Y0087913D01*
X0043670Y0087934D01*
X0043603Y0087959D01*
X0043538Y0087988D01*
X0043474Y0088020D01*
X0043413Y0088055D01*
X0043353Y0088093D01*
X0043295Y0088135D01*
X0043240Y0088180D01*
X0043186Y0088227D01*
X0043136Y0088277D01*
X0043088Y0088330D01*
X0043043Y0088385D01*
X0043002Y0088443D01*
X0042963Y0088502D01*
X0042927Y0088564D01*
X0042895Y0088627D01*
X0042866Y0088693D01*
X0042841Y0088759D01*
X0042819Y0088827D01*
X0042801Y0088896D01*
X0042786Y0088965D01*
X0042776Y0089035D01*
X0042769Y0089106D01*
X0042765Y0089177D01*
X0042766Y0089248D01*
X0042766Y0089249D02*
X0042765Y0089320D01*
X0042769Y0089391D01*
X0042776Y0089462D01*
X0042786Y0089532D01*
X0042801Y0089601D01*
X0042819Y0089670D01*
X0042841Y0089738D01*
X0042866Y0089804D01*
X0042895Y0089870D01*
X0042927Y0089933D01*
X0042963Y0089995D01*
X0043002Y0090054D01*
X0043043Y0090112D01*
X0043088Y0090167D01*
X0043136Y0090220D01*
X0043186Y0090270D01*
X0043240Y0090317D01*
X0043295Y0090362D01*
X0043353Y0090404D01*
X0043413Y0090442D01*
X0043474Y0090477D01*
X0043538Y0090509D01*
X0043603Y0090538D01*
X0043670Y0090563D01*
X0043738Y0090584D01*
X0043807Y0090602D01*
X0043876Y0090616D01*
X0043947Y0090626D01*
X0046309Y0090626D01*
X0046380Y0090616D01*
X0046449Y0090602D01*
X0046518Y0090584D01*
X0046586Y0090563D01*
X0046653Y0090538D01*
X0046718Y0090509D01*
X0046782Y0090477D01*
X0046843Y0090442D01*
X0046903Y0090404D01*
X0046961Y0090362D01*
X0047016Y0090317D01*
X0047070Y0090270D01*
X0047120Y0090220D01*
X0047168Y0090167D01*
X0047213Y0090112D01*
X0047254Y0090054D01*
X0047293Y0089995D01*
X0047329Y0089933D01*
X0047361Y0089870D01*
X0047390Y0089804D01*
X0047415Y0089738D01*
X0047437Y0089670D01*
X0047455Y0089601D01*
X0047470Y0089532D01*
X0047480Y0089462D01*
X0047487Y0089391D01*
X0047491Y0089320D01*
X0047490Y0089249D01*
X0047490Y0089248D02*
X0047491Y0089177D01*
X0047487Y0089106D01*
X0047480Y0089035D01*
X0047470Y0088965D01*
X0047455Y0088896D01*
X0047437Y0088827D01*
X0047415Y0088759D01*
X0047390Y0088693D01*
X0047361Y0088627D01*
X0047329Y0088564D01*
X0047293Y0088502D01*
X0047254Y0088443D01*
X0047213Y0088385D01*
X0047168Y0088330D01*
X0047120Y0088277D01*
X0047070Y0088227D01*
X0047016Y0088180D01*
X0046961Y0088135D01*
X0046903Y0088093D01*
X0046843Y0088055D01*
X0046782Y0088020D01*
X0046718Y0087988D01*
X0046653Y0087959D01*
X0046586Y0087934D01*
X0046518Y0087913D01*
X0046449Y0087895D01*
X0046380Y0087881D01*
X0046309Y0087871D01*
X0054991Y0088027D02*
X0054989Y0087960D01*
X0054991Y0087893D01*
X0054997Y0087826D01*
X0055007Y0087759D01*
X0055020Y0087693D01*
X0055037Y0087628D01*
X0055058Y0087564D01*
X0055083Y0087502D01*
X0055111Y0087440D01*
X0055143Y0087381D01*
X0055177Y0087323D01*
X0055215Y0087268D01*
X0055257Y0087215D01*
X0055301Y0087164D01*
X0055348Y0087116D01*
X0055397Y0087070D01*
X0055450Y0087028D01*
X0055504Y0086988D01*
X0055561Y0086952D01*
X0055619Y0086919D01*
X0055680Y0086889D01*
X0055742Y0086863D01*
X0055805Y0086841D01*
X0055870Y0086822D01*
X0055935Y0086806D01*
X0056002Y0086795D01*
X0056068Y0086787D01*
X0056136Y0086783D01*
X0056203Y0086783D01*
X0056270Y0086787D01*
X0057844Y0086787D01*
X0057913Y0086789D01*
X0057982Y0086795D01*
X0058051Y0086804D01*
X0058119Y0086817D01*
X0058186Y0086834D01*
X0058253Y0086854D01*
X0058318Y0086878D01*
X0058381Y0086905D01*
X0058444Y0086936D01*
X0058504Y0086970D01*
X0058562Y0087008D01*
X0058619Y0087048D01*
X0058673Y0087091D01*
X0058724Y0087138D01*
X0058773Y0087187D01*
X0058820Y0087238D01*
X0058863Y0087292D01*
X0058903Y0087349D01*
X0058941Y0087407D01*
X0058975Y0087467D01*
X0059006Y0087530D01*
X0059033Y0087593D01*
X0059057Y0087658D01*
X0059077Y0087725D01*
X0059094Y0087792D01*
X0059107Y0087860D01*
X0059116Y0087929D01*
X0059122Y0087998D01*
X0059124Y0088067D01*
X0059123Y0088137D01*
X0059118Y0088206D01*
X0059110Y0088275D01*
X0059098Y0088344D01*
X0059082Y0088411D01*
X0059062Y0088478D01*
X0059038Y0088544D01*
X0059011Y0088608D01*
X0058981Y0088670D01*
X0058947Y0088731D01*
X0058910Y0088790D01*
X0058869Y0088847D01*
X0058826Y0088901D01*
X0058779Y0088953D01*
X0058730Y0089002D01*
X0058678Y0089049D01*
X0058624Y0089092D01*
X0058567Y0089133D01*
X0058508Y0089170D01*
X0058447Y0089204D01*
X0058385Y0089234D01*
X0058321Y0089261D01*
X0058255Y0089285D01*
X0058188Y0089305D01*
X0058121Y0089321D01*
X0058052Y0089333D01*
X0057983Y0089341D01*
X0057914Y0089346D01*
X0057844Y0089347D01*
X0057844Y0089346D02*
X0056270Y0089346D01*
X0056270Y0089347D02*
X0056198Y0089342D01*
X0056126Y0089333D01*
X0056055Y0089320D01*
X0055984Y0089303D01*
X0055915Y0089283D01*
X0055847Y0089258D01*
X0055780Y0089231D01*
X0055715Y0089199D01*
X0055651Y0089164D01*
X0055590Y0089126D01*
X0055531Y0089085D01*
X0055474Y0089040D01*
X0055419Y0088992D01*
X0055368Y0088942D01*
X0055319Y0088888D01*
X0055273Y0088833D01*
X0055230Y0088774D01*
X0055190Y0088714D01*
X0055154Y0088651D01*
X0055121Y0088587D01*
X0055091Y0088521D01*
X0055066Y0088453D01*
X0055043Y0088384D01*
X0055025Y0088314D01*
X0055011Y0088243D01*
X0055000Y0088172D01*
X0054993Y0088100D01*
X0054990Y0088027D01*
X0046309Y0168374D02*
X0043947Y0168374D01*
X0043876Y0168384D01*
X0043807Y0168398D01*
X0043738Y0168416D01*
X0043670Y0168437D01*
X0043603Y0168462D01*
X0043538Y0168491D01*
X0043474Y0168523D01*
X0043413Y0168558D01*
X0043353Y0168596D01*
X0043295Y0168638D01*
X0043240Y0168683D01*
X0043186Y0168730D01*
X0043136Y0168780D01*
X0043088Y0168833D01*
X0043043Y0168888D01*
X0043002Y0168946D01*
X0042963Y0169005D01*
X0042927Y0169067D01*
X0042895Y0169130D01*
X0042866Y0169196D01*
X0042841Y0169262D01*
X0042819Y0169330D01*
X0042801Y0169399D01*
X0042786Y0169468D01*
X0042776Y0169538D01*
X0042769Y0169609D01*
X0042765Y0169680D01*
X0042766Y0169751D01*
X0042766Y0169752D02*
X0042765Y0169823D01*
X0042769Y0169894D01*
X0042776Y0169965D01*
X0042786Y0170035D01*
X0042801Y0170104D01*
X0042819Y0170173D01*
X0042841Y0170241D01*
X0042866Y0170307D01*
X0042895Y0170373D01*
X0042927Y0170436D01*
X0042963Y0170498D01*
X0043002Y0170557D01*
X0043043Y0170615D01*
X0043088Y0170670D01*
X0043136Y0170723D01*
X0043186Y0170773D01*
X0043240Y0170820D01*
X0043295Y0170865D01*
X0043353Y0170907D01*
X0043413Y0170945D01*
X0043474Y0170980D01*
X0043538Y0171012D01*
X0043603Y0171041D01*
X0043670Y0171066D01*
X0043738Y0171087D01*
X0043807Y0171105D01*
X0043876Y0171119D01*
X0043947Y0171129D01*
X0043947Y0171130D02*
X0046309Y0171130D01*
X0046309Y0171129D02*
X0046380Y0171119D01*
X0046449Y0171105D01*
X0046518Y0171087D01*
X0046586Y0171066D01*
X0046653Y0171041D01*
X0046718Y0171012D01*
X0046782Y0170980D01*
X0046843Y0170945D01*
X0046903Y0170907D01*
X0046961Y0170865D01*
X0047016Y0170820D01*
X0047070Y0170773D01*
X0047120Y0170723D01*
X0047168Y0170670D01*
X0047213Y0170615D01*
X0047254Y0170557D01*
X0047293Y0170498D01*
X0047329Y0170436D01*
X0047361Y0170373D01*
X0047390Y0170307D01*
X0047415Y0170241D01*
X0047437Y0170173D01*
X0047455Y0170104D01*
X0047470Y0170035D01*
X0047480Y0169965D01*
X0047487Y0169894D01*
X0047491Y0169823D01*
X0047490Y0169752D01*
X0047490Y0169751D02*
X0047491Y0169680D01*
X0047487Y0169609D01*
X0047480Y0169538D01*
X0047470Y0169468D01*
X0047455Y0169399D01*
X0047437Y0169330D01*
X0047415Y0169262D01*
X0047390Y0169196D01*
X0047361Y0169130D01*
X0047329Y0169067D01*
X0047293Y0169005D01*
X0047254Y0168946D01*
X0047213Y0168888D01*
X0047168Y0168833D01*
X0047120Y0168780D01*
X0047070Y0168730D01*
X0047016Y0168683D01*
X0046961Y0168638D01*
X0046903Y0168596D01*
X0046843Y0168558D01*
X0046782Y0168523D01*
X0046718Y0168491D01*
X0046653Y0168462D01*
X0046586Y0168437D01*
X0046518Y0168416D01*
X0046449Y0168398D01*
X0046380Y0168384D01*
X0046309Y0168374D01*
X0056270Y0169654D02*
X0057844Y0169654D01*
X0057844Y0169653D02*
X0057913Y0169655D01*
X0057982Y0169661D01*
X0058051Y0169670D01*
X0058119Y0169683D01*
X0058186Y0169700D01*
X0058253Y0169720D01*
X0058318Y0169744D01*
X0058381Y0169771D01*
X0058444Y0169802D01*
X0058504Y0169836D01*
X0058562Y0169874D01*
X0058619Y0169914D01*
X0058673Y0169957D01*
X0058724Y0170004D01*
X0058773Y0170053D01*
X0058820Y0170104D01*
X0058863Y0170158D01*
X0058903Y0170215D01*
X0058941Y0170273D01*
X0058975Y0170333D01*
X0059006Y0170396D01*
X0059033Y0170459D01*
X0059057Y0170524D01*
X0059077Y0170591D01*
X0059094Y0170658D01*
X0059107Y0170726D01*
X0059116Y0170795D01*
X0059122Y0170864D01*
X0059124Y0170933D01*
X0059123Y0171003D01*
X0059118Y0171072D01*
X0059110Y0171141D01*
X0059098Y0171210D01*
X0059082Y0171277D01*
X0059062Y0171344D01*
X0059038Y0171410D01*
X0059011Y0171474D01*
X0058981Y0171536D01*
X0058947Y0171597D01*
X0058910Y0171656D01*
X0058869Y0171713D01*
X0058826Y0171767D01*
X0058779Y0171819D01*
X0058730Y0171868D01*
X0058678Y0171915D01*
X0058624Y0171958D01*
X0058567Y0171999D01*
X0058508Y0172036D01*
X0058447Y0172070D01*
X0058385Y0172100D01*
X0058321Y0172127D01*
X0058255Y0172151D01*
X0058188Y0172171D01*
X0058121Y0172187D01*
X0058052Y0172199D01*
X0057983Y0172207D01*
X0057914Y0172212D01*
X0057844Y0172213D01*
X0056270Y0172213D01*
X0056198Y0172208D01*
X0056126Y0172199D01*
X0056055Y0172186D01*
X0055984Y0172169D01*
X0055915Y0172149D01*
X0055847Y0172124D01*
X0055780Y0172097D01*
X0055715Y0172065D01*
X0055651Y0172030D01*
X0055590Y0171992D01*
X0055531Y0171951D01*
X0055474Y0171906D01*
X0055419Y0171858D01*
X0055368Y0171808D01*
X0055319Y0171754D01*
X0055273Y0171699D01*
X0055230Y0171640D01*
X0055190Y0171580D01*
X0055154Y0171517D01*
X0055121Y0171453D01*
X0055091Y0171387D01*
X0055066Y0171319D01*
X0055043Y0171250D01*
X0055025Y0171180D01*
X0055011Y0171109D01*
X0055000Y0171038D01*
X0054993Y0170966D01*
X0054990Y0170893D01*
X0054991Y0170893D02*
X0054989Y0170826D01*
X0054991Y0170759D01*
X0054997Y0170692D01*
X0055007Y0170625D01*
X0055020Y0170559D01*
X0055037Y0170494D01*
X0055058Y0170430D01*
X0055083Y0170368D01*
X0055111Y0170306D01*
X0055143Y0170247D01*
X0055177Y0170189D01*
X0055215Y0170134D01*
X0055257Y0170081D01*
X0055301Y0170030D01*
X0055348Y0169982D01*
X0055397Y0169936D01*
X0055450Y0169894D01*
X0055504Y0169854D01*
X0055561Y0169818D01*
X0055619Y0169785D01*
X0055680Y0169755D01*
X0055742Y0169729D01*
X0055805Y0169707D01*
X0055870Y0169688D01*
X0055935Y0169672D01*
X0056002Y0169661D01*
X0056068Y0169653D01*
X0056136Y0169649D01*
X0056203Y0169649D01*
X0056270Y0169653D01*
X0056270Y0188787D02*
X0057844Y0188787D01*
X0057913Y0188789D01*
X0057982Y0188795D01*
X0058051Y0188804D01*
X0058119Y0188817D01*
X0058186Y0188834D01*
X0058253Y0188854D01*
X0058318Y0188878D01*
X0058381Y0188905D01*
X0058444Y0188936D01*
X0058504Y0188970D01*
X0058562Y0189008D01*
X0058619Y0189048D01*
X0058673Y0189091D01*
X0058724Y0189138D01*
X0058773Y0189187D01*
X0058820Y0189238D01*
X0058863Y0189292D01*
X0058903Y0189349D01*
X0058941Y0189407D01*
X0058975Y0189467D01*
X0059006Y0189530D01*
X0059033Y0189593D01*
X0059057Y0189658D01*
X0059077Y0189725D01*
X0059094Y0189792D01*
X0059107Y0189860D01*
X0059116Y0189929D01*
X0059122Y0189998D01*
X0059124Y0190067D01*
X0059123Y0190137D01*
X0059118Y0190206D01*
X0059110Y0190275D01*
X0059098Y0190344D01*
X0059082Y0190411D01*
X0059062Y0190478D01*
X0059038Y0190544D01*
X0059011Y0190608D01*
X0058981Y0190670D01*
X0058947Y0190731D01*
X0058910Y0190790D01*
X0058869Y0190847D01*
X0058826Y0190901D01*
X0058779Y0190953D01*
X0058730Y0191002D01*
X0058678Y0191049D01*
X0058624Y0191092D01*
X0058567Y0191133D01*
X0058508Y0191170D01*
X0058447Y0191204D01*
X0058385Y0191234D01*
X0058321Y0191261D01*
X0058255Y0191285D01*
X0058188Y0191305D01*
X0058121Y0191321D01*
X0058052Y0191333D01*
X0057983Y0191341D01*
X0057914Y0191346D01*
X0057844Y0191347D01*
X0057844Y0191346D02*
X0056270Y0191346D01*
X0056270Y0191347D02*
X0056198Y0191342D01*
X0056126Y0191333D01*
X0056055Y0191320D01*
X0055984Y0191303D01*
X0055915Y0191283D01*
X0055847Y0191258D01*
X0055780Y0191231D01*
X0055715Y0191199D01*
X0055651Y0191164D01*
X0055590Y0191126D01*
X0055531Y0191085D01*
X0055474Y0191040D01*
X0055419Y0190992D01*
X0055368Y0190942D01*
X0055319Y0190888D01*
X0055273Y0190833D01*
X0055230Y0190774D01*
X0055190Y0190714D01*
X0055154Y0190651D01*
X0055121Y0190587D01*
X0055091Y0190521D01*
X0055066Y0190453D01*
X0055043Y0190384D01*
X0055025Y0190314D01*
X0055011Y0190243D01*
X0055000Y0190172D01*
X0054993Y0190100D01*
X0054990Y0190027D01*
X0054991Y0190027D02*
X0054989Y0189960D01*
X0054991Y0189893D01*
X0054997Y0189826D01*
X0055007Y0189759D01*
X0055020Y0189693D01*
X0055037Y0189628D01*
X0055058Y0189564D01*
X0055083Y0189502D01*
X0055111Y0189440D01*
X0055143Y0189381D01*
X0055177Y0189323D01*
X0055215Y0189268D01*
X0055257Y0189215D01*
X0055301Y0189164D01*
X0055348Y0189116D01*
X0055397Y0189070D01*
X0055450Y0189028D01*
X0055504Y0188988D01*
X0055561Y0188952D01*
X0055619Y0188919D01*
X0055680Y0188889D01*
X0055742Y0188863D01*
X0055805Y0188841D01*
X0055870Y0188822D01*
X0055935Y0188806D01*
X0056002Y0188795D01*
X0056068Y0188787D01*
X0056136Y0188783D01*
X0056203Y0188783D01*
X0056270Y0188787D01*
X0046309Y0189870D02*
X0043947Y0189870D01*
X0043947Y0189871D02*
X0043876Y0189881D01*
X0043807Y0189895D01*
X0043738Y0189913D01*
X0043670Y0189934D01*
X0043603Y0189959D01*
X0043538Y0189988D01*
X0043474Y0190020D01*
X0043413Y0190055D01*
X0043353Y0190093D01*
X0043295Y0190135D01*
X0043240Y0190180D01*
X0043186Y0190227D01*
X0043136Y0190277D01*
X0043088Y0190330D01*
X0043043Y0190385D01*
X0043002Y0190443D01*
X0042963Y0190502D01*
X0042927Y0190564D01*
X0042895Y0190627D01*
X0042866Y0190693D01*
X0042841Y0190759D01*
X0042819Y0190827D01*
X0042801Y0190896D01*
X0042786Y0190965D01*
X0042776Y0191035D01*
X0042769Y0191106D01*
X0042765Y0191177D01*
X0042766Y0191248D01*
X0042766Y0191249D02*
X0042765Y0191320D01*
X0042769Y0191391D01*
X0042776Y0191462D01*
X0042786Y0191532D01*
X0042801Y0191601D01*
X0042819Y0191670D01*
X0042841Y0191738D01*
X0042866Y0191804D01*
X0042895Y0191870D01*
X0042927Y0191933D01*
X0042963Y0191995D01*
X0043002Y0192054D01*
X0043043Y0192112D01*
X0043088Y0192167D01*
X0043136Y0192220D01*
X0043186Y0192270D01*
X0043240Y0192317D01*
X0043295Y0192362D01*
X0043353Y0192404D01*
X0043413Y0192442D01*
X0043474Y0192477D01*
X0043538Y0192509D01*
X0043603Y0192538D01*
X0043670Y0192563D01*
X0043738Y0192584D01*
X0043807Y0192602D01*
X0043876Y0192616D01*
X0043947Y0192626D01*
X0046309Y0192626D01*
X0046380Y0192616D01*
X0046449Y0192602D01*
X0046518Y0192584D01*
X0046586Y0192563D01*
X0046653Y0192538D01*
X0046718Y0192509D01*
X0046782Y0192477D01*
X0046843Y0192442D01*
X0046903Y0192404D01*
X0046961Y0192362D01*
X0047016Y0192317D01*
X0047070Y0192270D01*
X0047120Y0192220D01*
X0047168Y0192167D01*
X0047213Y0192112D01*
X0047254Y0192054D01*
X0047293Y0191995D01*
X0047329Y0191933D01*
X0047361Y0191870D01*
X0047390Y0191804D01*
X0047415Y0191738D01*
X0047437Y0191670D01*
X0047455Y0191601D01*
X0047470Y0191532D01*
X0047480Y0191462D01*
X0047487Y0191391D01*
X0047491Y0191320D01*
X0047490Y0191249D01*
X0047490Y0191248D02*
X0047491Y0191177D01*
X0047487Y0191106D01*
X0047480Y0191035D01*
X0047470Y0190965D01*
X0047455Y0190896D01*
X0047437Y0190827D01*
X0047415Y0190759D01*
X0047390Y0190693D01*
X0047361Y0190627D01*
X0047329Y0190564D01*
X0047293Y0190502D01*
X0047254Y0190443D01*
X0047213Y0190385D01*
X0047168Y0190330D01*
X0047120Y0190277D01*
X0047070Y0190227D01*
X0047016Y0190180D01*
X0046961Y0190135D01*
X0046903Y0190093D01*
X0046843Y0190055D01*
X0046782Y0190020D01*
X0046718Y0189988D01*
X0046653Y0189959D01*
X0046586Y0189934D01*
X0046518Y0189913D01*
X0046449Y0189895D01*
X0046380Y0189881D01*
X0046309Y0189871D01*
X0046309Y0270374D02*
X0043947Y0270374D01*
X0043876Y0270384D01*
X0043807Y0270398D01*
X0043738Y0270416D01*
X0043670Y0270437D01*
X0043603Y0270462D01*
X0043538Y0270491D01*
X0043474Y0270523D01*
X0043413Y0270558D01*
X0043353Y0270596D01*
X0043295Y0270638D01*
X0043240Y0270683D01*
X0043186Y0270730D01*
X0043136Y0270780D01*
X0043088Y0270833D01*
X0043043Y0270888D01*
X0043002Y0270946D01*
X0042963Y0271005D01*
X0042927Y0271067D01*
X0042895Y0271130D01*
X0042866Y0271196D01*
X0042841Y0271262D01*
X0042819Y0271330D01*
X0042801Y0271399D01*
X0042786Y0271468D01*
X0042776Y0271538D01*
X0042769Y0271609D01*
X0042765Y0271680D01*
X0042766Y0271751D01*
X0042766Y0271752D02*
X0042765Y0271823D01*
X0042769Y0271894D01*
X0042776Y0271965D01*
X0042786Y0272035D01*
X0042801Y0272104D01*
X0042819Y0272173D01*
X0042841Y0272241D01*
X0042866Y0272307D01*
X0042895Y0272373D01*
X0042927Y0272436D01*
X0042963Y0272498D01*
X0043002Y0272557D01*
X0043043Y0272615D01*
X0043088Y0272670D01*
X0043136Y0272723D01*
X0043186Y0272773D01*
X0043240Y0272820D01*
X0043295Y0272865D01*
X0043353Y0272907D01*
X0043413Y0272945D01*
X0043474Y0272980D01*
X0043538Y0273012D01*
X0043603Y0273041D01*
X0043670Y0273066D01*
X0043738Y0273087D01*
X0043807Y0273105D01*
X0043876Y0273119D01*
X0043947Y0273129D01*
X0043947Y0273130D02*
X0046309Y0273130D01*
X0046309Y0273129D02*
X0046380Y0273119D01*
X0046449Y0273105D01*
X0046518Y0273087D01*
X0046586Y0273066D01*
X0046653Y0273041D01*
X0046718Y0273012D01*
X0046782Y0272980D01*
X0046843Y0272945D01*
X0046903Y0272907D01*
X0046961Y0272865D01*
X0047016Y0272820D01*
X0047070Y0272773D01*
X0047120Y0272723D01*
X0047168Y0272670D01*
X0047213Y0272615D01*
X0047254Y0272557D01*
X0047293Y0272498D01*
X0047329Y0272436D01*
X0047361Y0272373D01*
X0047390Y0272307D01*
X0047415Y0272241D01*
X0047437Y0272173D01*
X0047455Y0272104D01*
X0047470Y0272035D01*
X0047480Y0271965D01*
X0047487Y0271894D01*
X0047491Y0271823D01*
X0047490Y0271752D01*
X0047490Y0271751D02*
X0047491Y0271680D01*
X0047487Y0271609D01*
X0047480Y0271538D01*
X0047470Y0271468D01*
X0047455Y0271399D01*
X0047437Y0271330D01*
X0047415Y0271262D01*
X0047390Y0271196D01*
X0047361Y0271130D01*
X0047329Y0271067D01*
X0047293Y0271005D01*
X0047254Y0270946D01*
X0047213Y0270888D01*
X0047168Y0270833D01*
X0047120Y0270780D01*
X0047070Y0270730D01*
X0047016Y0270683D01*
X0046961Y0270638D01*
X0046903Y0270596D01*
X0046843Y0270558D01*
X0046782Y0270523D01*
X0046718Y0270491D01*
X0046653Y0270462D01*
X0046586Y0270437D01*
X0046518Y0270416D01*
X0046449Y0270398D01*
X0046380Y0270384D01*
X0046309Y0270374D01*
X0056270Y0271654D02*
X0057844Y0271654D01*
X0057844Y0271653D02*
X0057913Y0271655D01*
X0057982Y0271661D01*
X0058051Y0271670D01*
X0058119Y0271683D01*
X0058186Y0271700D01*
X0058253Y0271720D01*
X0058318Y0271744D01*
X0058381Y0271771D01*
X0058444Y0271802D01*
X0058504Y0271836D01*
X0058562Y0271874D01*
X0058619Y0271914D01*
X0058673Y0271957D01*
X0058724Y0272004D01*
X0058773Y0272053D01*
X0058820Y0272104D01*
X0058863Y0272158D01*
X0058903Y0272215D01*
X0058941Y0272273D01*
X0058975Y0272333D01*
X0059006Y0272396D01*
X0059033Y0272459D01*
X0059057Y0272524D01*
X0059077Y0272591D01*
X0059094Y0272658D01*
X0059107Y0272726D01*
X0059116Y0272795D01*
X0059122Y0272864D01*
X0059124Y0272933D01*
X0059123Y0273003D01*
X0059118Y0273072D01*
X0059110Y0273141D01*
X0059098Y0273210D01*
X0059082Y0273277D01*
X0059062Y0273344D01*
X0059038Y0273410D01*
X0059011Y0273474D01*
X0058981Y0273536D01*
X0058947Y0273597D01*
X0058910Y0273656D01*
X0058869Y0273713D01*
X0058826Y0273767D01*
X0058779Y0273819D01*
X0058730Y0273868D01*
X0058678Y0273915D01*
X0058624Y0273958D01*
X0058567Y0273999D01*
X0058508Y0274036D01*
X0058447Y0274070D01*
X0058385Y0274100D01*
X0058321Y0274127D01*
X0058255Y0274151D01*
X0058188Y0274171D01*
X0058121Y0274187D01*
X0058052Y0274199D01*
X0057983Y0274207D01*
X0057914Y0274212D01*
X0057844Y0274213D01*
X0056270Y0274213D01*
X0056198Y0274208D01*
X0056126Y0274199D01*
X0056055Y0274186D01*
X0055984Y0274169D01*
X0055915Y0274149D01*
X0055847Y0274124D01*
X0055780Y0274097D01*
X0055715Y0274065D01*
X0055651Y0274030D01*
X0055590Y0273992D01*
X0055531Y0273951D01*
X0055474Y0273906D01*
X0055419Y0273858D01*
X0055368Y0273808D01*
X0055319Y0273754D01*
X0055273Y0273699D01*
X0055230Y0273640D01*
X0055190Y0273580D01*
X0055154Y0273517D01*
X0055121Y0273453D01*
X0055091Y0273387D01*
X0055066Y0273319D01*
X0055043Y0273250D01*
X0055025Y0273180D01*
X0055011Y0273109D01*
X0055000Y0273038D01*
X0054993Y0272966D01*
X0054990Y0272893D01*
X0054991Y0272893D02*
X0054989Y0272826D01*
X0054991Y0272759D01*
X0054997Y0272692D01*
X0055007Y0272625D01*
X0055020Y0272559D01*
X0055037Y0272494D01*
X0055058Y0272430D01*
X0055083Y0272368D01*
X0055111Y0272306D01*
X0055143Y0272247D01*
X0055177Y0272189D01*
X0055215Y0272134D01*
X0055257Y0272081D01*
X0055301Y0272030D01*
X0055348Y0271982D01*
X0055397Y0271936D01*
X0055450Y0271894D01*
X0055504Y0271854D01*
X0055561Y0271818D01*
X0055619Y0271785D01*
X0055680Y0271755D01*
X0055742Y0271729D01*
X0055805Y0271707D01*
X0055870Y0271688D01*
X0055935Y0271672D01*
X0056002Y0271661D01*
X0056068Y0271653D01*
X0056136Y0271649D01*
X0056203Y0271649D01*
X0056270Y0271653D01*
X0056270Y0290787D02*
X0057844Y0290787D01*
X0057913Y0290789D01*
X0057982Y0290795D01*
X0058051Y0290804D01*
X0058119Y0290817D01*
X0058186Y0290834D01*
X0058253Y0290854D01*
X0058318Y0290878D01*
X0058381Y0290905D01*
X0058444Y0290936D01*
X0058504Y0290970D01*
X0058562Y0291008D01*
X0058619Y0291048D01*
X0058673Y0291091D01*
X0058724Y0291138D01*
X0058773Y0291187D01*
X0058820Y0291238D01*
X0058863Y0291292D01*
X0058903Y0291349D01*
X0058941Y0291407D01*
X0058975Y0291467D01*
X0059006Y0291530D01*
X0059033Y0291593D01*
X0059057Y0291658D01*
X0059077Y0291725D01*
X0059094Y0291792D01*
X0059107Y0291860D01*
X0059116Y0291929D01*
X0059122Y0291998D01*
X0059124Y0292067D01*
X0059123Y0292137D01*
X0059118Y0292206D01*
X0059110Y0292275D01*
X0059098Y0292344D01*
X0059082Y0292411D01*
X0059062Y0292478D01*
X0059038Y0292544D01*
X0059011Y0292608D01*
X0058981Y0292670D01*
X0058947Y0292731D01*
X0058910Y0292790D01*
X0058869Y0292847D01*
X0058826Y0292901D01*
X0058779Y0292953D01*
X0058730Y0293002D01*
X0058678Y0293049D01*
X0058624Y0293092D01*
X0058567Y0293133D01*
X0058508Y0293170D01*
X0058447Y0293204D01*
X0058385Y0293234D01*
X0058321Y0293261D01*
X0058255Y0293285D01*
X0058188Y0293305D01*
X0058121Y0293321D01*
X0058052Y0293333D01*
X0057983Y0293341D01*
X0057914Y0293346D01*
X0057844Y0293347D01*
X0057844Y0293346D02*
X0056270Y0293346D01*
X0056270Y0293347D02*
X0056198Y0293342D01*
X0056126Y0293333D01*
X0056055Y0293320D01*
X0055984Y0293303D01*
X0055915Y0293283D01*
X0055847Y0293258D01*
X0055780Y0293231D01*
X0055715Y0293199D01*
X0055651Y0293164D01*
X0055590Y0293126D01*
X0055531Y0293085D01*
X0055474Y0293040D01*
X0055419Y0292992D01*
X0055368Y0292942D01*
X0055319Y0292888D01*
X0055273Y0292833D01*
X0055230Y0292774D01*
X0055190Y0292714D01*
X0055154Y0292651D01*
X0055121Y0292587D01*
X0055091Y0292521D01*
X0055066Y0292453D01*
X0055043Y0292384D01*
X0055025Y0292314D01*
X0055011Y0292243D01*
X0055000Y0292172D01*
X0054993Y0292100D01*
X0054990Y0292027D01*
X0054991Y0292027D02*
X0054989Y0291960D01*
X0054991Y0291893D01*
X0054997Y0291826D01*
X0055007Y0291759D01*
X0055020Y0291693D01*
X0055037Y0291628D01*
X0055058Y0291564D01*
X0055083Y0291502D01*
X0055111Y0291440D01*
X0055143Y0291381D01*
X0055177Y0291323D01*
X0055215Y0291268D01*
X0055257Y0291215D01*
X0055301Y0291164D01*
X0055348Y0291116D01*
X0055397Y0291070D01*
X0055450Y0291028D01*
X0055504Y0290988D01*
X0055561Y0290952D01*
X0055619Y0290919D01*
X0055680Y0290889D01*
X0055742Y0290863D01*
X0055805Y0290841D01*
X0055870Y0290822D01*
X0055935Y0290806D01*
X0056002Y0290795D01*
X0056068Y0290787D01*
X0056136Y0290783D01*
X0056203Y0290783D01*
X0056270Y0290787D01*
X0046309Y0291870D02*
X0043947Y0291870D01*
X0043947Y0291871D02*
X0043876Y0291881D01*
X0043807Y0291895D01*
X0043738Y0291913D01*
X0043670Y0291934D01*
X0043603Y0291959D01*
X0043538Y0291988D01*
X0043474Y0292020D01*
X0043413Y0292055D01*
X0043353Y0292093D01*
X0043295Y0292135D01*
X0043240Y0292180D01*
X0043186Y0292227D01*
X0043136Y0292277D01*
X0043088Y0292330D01*
X0043043Y0292385D01*
X0043002Y0292443D01*
X0042963Y0292502D01*
X0042927Y0292564D01*
X0042895Y0292627D01*
X0042866Y0292693D01*
X0042841Y0292759D01*
X0042819Y0292827D01*
X0042801Y0292896D01*
X0042786Y0292965D01*
X0042776Y0293035D01*
X0042769Y0293106D01*
X0042765Y0293177D01*
X0042766Y0293248D01*
X0042766Y0293249D02*
X0042765Y0293320D01*
X0042769Y0293391D01*
X0042776Y0293462D01*
X0042786Y0293532D01*
X0042801Y0293601D01*
X0042819Y0293670D01*
X0042841Y0293738D01*
X0042866Y0293804D01*
X0042895Y0293870D01*
X0042927Y0293933D01*
X0042963Y0293995D01*
X0043002Y0294054D01*
X0043043Y0294112D01*
X0043088Y0294167D01*
X0043136Y0294220D01*
X0043186Y0294270D01*
X0043240Y0294317D01*
X0043295Y0294362D01*
X0043353Y0294404D01*
X0043413Y0294442D01*
X0043474Y0294477D01*
X0043538Y0294509D01*
X0043603Y0294538D01*
X0043670Y0294563D01*
X0043738Y0294584D01*
X0043807Y0294602D01*
X0043876Y0294616D01*
X0043947Y0294626D01*
X0046309Y0294626D01*
X0046380Y0294616D01*
X0046449Y0294602D01*
X0046518Y0294584D01*
X0046586Y0294563D01*
X0046653Y0294538D01*
X0046718Y0294509D01*
X0046782Y0294477D01*
X0046843Y0294442D01*
X0046903Y0294404D01*
X0046961Y0294362D01*
X0047016Y0294317D01*
X0047070Y0294270D01*
X0047120Y0294220D01*
X0047168Y0294167D01*
X0047213Y0294112D01*
X0047254Y0294054D01*
X0047293Y0293995D01*
X0047329Y0293933D01*
X0047361Y0293870D01*
X0047390Y0293804D01*
X0047415Y0293738D01*
X0047437Y0293670D01*
X0047455Y0293601D01*
X0047470Y0293532D01*
X0047480Y0293462D01*
X0047487Y0293391D01*
X0047491Y0293320D01*
X0047490Y0293249D01*
X0047490Y0293248D02*
X0047491Y0293177D01*
X0047487Y0293106D01*
X0047480Y0293035D01*
X0047470Y0292965D01*
X0047455Y0292896D01*
X0047437Y0292827D01*
X0047415Y0292759D01*
X0047390Y0292693D01*
X0047361Y0292627D01*
X0047329Y0292564D01*
X0047293Y0292502D01*
X0047254Y0292443D01*
X0047213Y0292385D01*
X0047168Y0292330D01*
X0047120Y0292277D01*
X0047070Y0292227D01*
X0047016Y0292180D01*
X0046961Y0292135D01*
X0046903Y0292093D01*
X0046843Y0292055D01*
X0046782Y0292020D01*
X0046718Y0291988D01*
X0046653Y0291959D01*
X0046586Y0291934D01*
X0046518Y0291913D01*
X0046449Y0291895D01*
X0046380Y0291881D01*
X0046309Y0291871D01*
X0046309Y0372374D02*
X0043947Y0372374D01*
X0043876Y0372384D01*
X0043807Y0372398D01*
X0043738Y0372416D01*
X0043670Y0372437D01*
X0043603Y0372462D01*
X0043538Y0372491D01*
X0043474Y0372523D01*
X0043413Y0372558D01*
X0043353Y0372596D01*
X0043295Y0372638D01*
X0043240Y0372683D01*
X0043186Y0372730D01*
X0043136Y0372780D01*
X0043088Y0372833D01*
X0043043Y0372888D01*
X0043002Y0372946D01*
X0042963Y0373005D01*
X0042927Y0373067D01*
X0042895Y0373130D01*
X0042866Y0373196D01*
X0042841Y0373262D01*
X0042819Y0373330D01*
X0042801Y0373399D01*
X0042786Y0373468D01*
X0042776Y0373538D01*
X0042769Y0373609D01*
X0042765Y0373680D01*
X0042766Y0373751D01*
X0042766Y0373752D02*
X0042765Y0373823D01*
X0042769Y0373894D01*
X0042776Y0373965D01*
X0042786Y0374035D01*
X0042801Y0374104D01*
X0042819Y0374173D01*
X0042841Y0374241D01*
X0042866Y0374307D01*
X0042895Y0374373D01*
X0042927Y0374436D01*
X0042963Y0374498D01*
X0043002Y0374557D01*
X0043043Y0374615D01*
X0043088Y0374670D01*
X0043136Y0374723D01*
X0043186Y0374773D01*
X0043240Y0374820D01*
X0043295Y0374865D01*
X0043353Y0374907D01*
X0043413Y0374945D01*
X0043474Y0374980D01*
X0043538Y0375012D01*
X0043603Y0375041D01*
X0043670Y0375066D01*
X0043738Y0375087D01*
X0043807Y0375105D01*
X0043876Y0375119D01*
X0043947Y0375129D01*
X0043947Y0375130D02*
X0046309Y0375130D01*
X0046309Y0375129D02*
X0046380Y0375119D01*
X0046449Y0375105D01*
X0046518Y0375087D01*
X0046586Y0375066D01*
X0046653Y0375041D01*
X0046718Y0375012D01*
X0046782Y0374980D01*
X0046843Y0374945D01*
X0046903Y0374907D01*
X0046961Y0374865D01*
X0047016Y0374820D01*
X0047070Y0374773D01*
X0047120Y0374723D01*
X0047168Y0374670D01*
X0047213Y0374615D01*
X0047254Y0374557D01*
X0047293Y0374498D01*
X0047329Y0374436D01*
X0047361Y0374373D01*
X0047390Y0374307D01*
X0047415Y0374241D01*
X0047437Y0374173D01*
X0047455Y0374104D01*
X0047470Y0374035D01*
X0047480Y0373965D01*
X0047487Y0373894D01*
X0047491Y0373823D01*
X0047490Y0373752D01*
X0047490Y0373751D02*
X0047491Y0373680D01*
X0047487Y0373609D01*
X0047480Y0373538D01*
X0047470Y0373468D01*
X0047455Y0373399D01*
X0047437Y0373330D01*
X0047415Y0373262D01*
X0047390Y0373196D01*
X0047361Y0373130D01*
X0047329Y0373067D01*
X0047293Y0373005D01*
X0047254Y0372946D01*
X0047213Y0372888D01*
X0047168Y0372833D01*
X0047120Y0372780D01*
X0047070Y0372730D01*
X0047016Y0372683D01*
X0046961Y0372638D01*
X0046903Y0372596D01*
X0046843Y0372558D01*
X0046782Y0372523D01*
X0046718Y0372491D01*
X0046653Y0372462D01*
X0046586Y0372437D01*
X0046518Y0372416D01*
X0046449Y0372398D01*
X0046380Y0372384D01*
X0046309Y0372374D01*
X0056270Y0373654D02*
X0057844Y0373654D01*
X0057844Y0373653D02*
X0057913Y0373655D01*
X0057982Y0373661D01*
X0058051Y0373670D01*
X0058119Y0373683D01*
X0058186Y0373700D01*
X0058253Y0373720D01*
X0058318Y0373744D01*
X0058381Y0373771D01*
X0058444Y0373802D01*
X0058504Y0373836D01*
X0058562Y0373874D01*
X0058619Y0373914D01*
X0058673Y0373957D01*
X0058724Y0374004D01*
X0058773Y0374053D01*
X0058820Y0374104D01*
X0058863Y0374158D01*
X0058903Y0374215D01*
X0058941Y0374273D01*
X0058975Y0374333D01*
X0059006Y0374396D01*
X0059033Y0374459D01*
X0059057Y0374524D01*
X0059077Y0374591D01*
X0059094Y0374658D01*
X0059107Y0374726D01*
X0059116Y0374795D01*
X0059122Y0374864D01*
X0059124Y0374933D01*
X0059123Y0375003D01*
X0059118Y0375072D01*
X0059110Y0375141D01*
X0059098Y0375210D01*
X0059082Y0375277D01*
X0059062Y0375344D01*
X0059038Y0375410D01*
X0059011Y0375474D01*
X0058981Y0375536D01*
X0058947Y0375597D01*
X0058910Y0375656D01*
X0058869Y0375713D01*
X0058826Y0375767D01*
X0058779Y0375819D01*
X0058730Y0375868D01*
X0058678Y0375915D01*
X0058624Y0375958D01*
X0058567Y0375999D01*
X0058508Y0376036D01*
X0058447Y0376070D01*
X0058385Y0376100D01*
X0058321Y0376127D01*
X0058255Y0376151D01*
X0058188Y0376171D01*
X0058121Y0376187D01*
X0058052Y0376199D01*
X0057983Y0376207D01*
X0057914Y0376212D01*
X0057844Y0376213D01*
X0056270Y0376213D01*
X0056198Y0376208D01*
X0056126Y0376199D01*
X0056055Y0376186D01*
X0055984Y0376169D01*
X0055915Y0376149D01*
X0055847Y0376124D01*
X0055780Y0376097D01*
X0055715Y0376065D01*
X0055651Y0376030D01*
X0055590Y0375992D01*
X0055531Y0375951D01*
X0055474Y0375906D01*
X0055419Y0375858D01*
X0055368Y0375808D01*
X0055319Y0375754D01*
X0055273Y0375699D01*
X0055230Y0375640D01*
X0055190Y0375580D01*
X0055154Y0375517D01*
X0055121Y0375453D01*
X0055091Y0375387D01*
X0055066Y0375319D01*
X0055043Y0375250D01*
X0055025Y0375180D01*
X0055011Y0375109D01*
X0055000Y0375038D01*
X0054993Y0374966D01*
X0054990Y0374893D01*
X0054991Y0374893D02*
X0054989Y0374826D01*
X0054991Y0374759D01*
X0054997Y0374692D01*
X0055007Y0374625D01*
X0055020Y0374559D01*
X0055037Y0374494D01*
X0055058Y0374430D01*
X0055083Y0374368D01*
X0055111Y0374306D01*
X0055143Y0374247D01*
X0055177Y0374189D01*
X0055215Y0374134D01*
X0055257Y0374081D01*
X0055301Y0374030D01*
X0055348Y0373982D01*
X0055397Y0373936D01*
X0055450Y0373894D01*
X0055504Y0373854D01*
X0055561Y0373818D01*
X0055619Y0373785D01*
X0055680Y0373755D01*
X0055742Y0373729D01*
X0055805Y0373707D01*
X0055870Y0373688D01*
X0055935Y0373672D01*
X0056002Y0373661D01*
X0056068Y0373653D01*
X0056136Y0373649D01*
X0056203Y0373649D01*
X0056270Y0373653D01*
X0056270Y0392787D02*
X0057844Y0392787D01*
X0057913Y0392789D01*
X0057982Y0392795D01*
X0058051Y0392804D01*
X0058119Y0392817D01*
X0058186Y0392834D01*
X0058253Y0392854D01*
X0058318Y0392878D01*
X0058381Y0392905D01*
X0058444Y0392936D01*
X0058504Y0392970D01*
X0058562Y0393008D01*
X0058619Y0393048D01*
X0058673Y0393091D01*
X0058724Y0393138D01*
X0058773Y0393187D01*
X0058820Y0393238D01*
X0058863Y0393292D01*
X0058903Y0393349D01*
X0058941Y0393407D01*
X0058975Y0393467D01*
X0059006Y0393530D01*
X0059033Y0393593D01*
X0059057Y0393658D01*
X0059077Y0393725D01*
X0059094Y0393792D01*
X0059107Y0393860D01*
X0059116Y0393929D01*
X0059122Y0393998D01*
X0059124Y0394067D01*
X0059123Y0394137D01*
X0059118Y0394206D01*
X0059110Y0394275D01*
X0059098Y0394344D01*
X0059082Y0394411D01*
X0059062Y0394478D01*
X0059038Y0394544D01*
X0059011Y0394608D01*
X0058981Y0394670D01*
X0058947Y0394731D01*
X0058910Y0394790D01*
X0058869Y0394847D01*
X0058826Y0394901D01*
X0058779Y0394953D01*
X0058730Y0395002D01*
X0058678Y0395049D01*
X0058624Y0395092D01*
X0058567Y0395133D01*
X0058508Y0395170D01*
X0058447Y0395204D01*
X0058385Y0395234D01*
X0058321Y0395261D01*
X0058255Y0395285D01*
X0058188Y0395305D01*
X0058121Y0395321D01*
X0058052Y0395333D01*
X0057983Y0395341D01*
X0057914Y0395346D01*
X0057844Y0395347D01*
X0057844Y0395346D02*
X0056270Y0395346D01*
X0056270Y0395347D02*
X0056198Y0395342D01*
X0056126Y0395333D01*
X0056055Y0395320D01*
X0055984Y0395303D01*
X0055915Y0395283D01*
X0055847Y0395258D01*
X0055780Y0395231D01*
X0055715Y0395199D01*
X0055651Y0395164D01*
X0055590Y0395126D01*
X0055531Y0395085D01*
X0055474Y0395040D01*
X0055419Y0394992D01*
X0055368Y0394942D01*
X0055319Y0394888D01*
X0055273Y0394833D01*
X0055230Y0394774D01*
X0055190Y0394714D01*
X0055154Y0394651D01*
X0055121Y0394587D01*
X0055091Y0394521D01*
X0055066Y0394453D01*
X0055043Y0394384D01*
X0055025Y0394314D01*
X0055011Y0394243D01*
X0055000Y0394172D01*
X0054993Y0394100D01*
X0054990Y0394027D01*
X0054991Y0394027D02*
X0054989Y0393960D01*
X0054991Y0393893D01*
X0054997Y0393826D01*
X0055007Y0393759D01*
X0055020Y0393693D01*
X0055037Y0393628D01*
X0055058Y0393564D01*
X0055083Y0393502D01*
X0055111Y0393440D01*
X0055143Y0393381D01*
X0055177Y0393323D01*
X0055215Y0393268D01*
X0055257Y0393215D01*
X0055301Y0393164D01*
X0055348Y0393116D01*
X0055397Y0393070D01*
X0055450Y0393028D01*
X0055504Y0392988D01*
X0055561Y0392952D01*
X0055619Y0392919D01*
X0055680Y0392889D01*
X0055742Y0392863D01*
X0055805Y0392841D01*
X0055870Y0392822D01*
X0055935Y0392806D01*
X0056002Y0392795D01*
X0056068Y0392787D01*
X0056136Y0392783D01*
X0056203Y0392783D01*
X0056270Y0392787D01*
X0046309Y0393870D02*
X0043947Y0393870D01*
X0043947Y0393871D02*
X0043876Y0393881D01*
X0043807Y0393895D01*
X0043738Y0393913D01*
X0043670Y0393934D01*
X0043603Y0393959D01*
X0043538Y0393988D01*
X0043474Y0394020D01*
X0043413Y0394055D01*
X0043353Y0394093D01*
X0043295Y0394135D01*
X0043240Y0394180D01*
X0043186Y0394227D01*
X0043136Y0394277D01*
X0043088Y0394330D01*
X0043043Y0394385D01*
X0043002Y0394443D01*
X0042963Y0394502D01*
X0042927Y0394564D01*
X0042895Y0394627D01*
X0042866Y0394693D01*
X0042841Y0394759D01*
X0042819Y0394827D01*
X0042801Y0394896D01*
X0042786Y0394965D01*
X0042776Y0395035D01*
X0042769Y0395106D01*
X0042765Y0395177D01*
X0042766Y0395248D01*
X0042766Y0395249D02*
X0042765Y0395320D01*
X0042769Y0395391D01*
X0042776Y0395462D01*
X0042786Y0395532D01*
X0042801Y0395601D01*
X0042819Y0395670D01*
X0042841Y0395738D01*
X0042866Y0395804D01*
X0042895Y0395870D01*
X0042927Y0395933D01*
X0042963Y0395995D01*
X0043002Y0396054D01*
X0043043Y0396112D01*
X0043088Y0396167D01*
X0043136Y0396220D01*
X0043186Y0396270D01*
X0043240Y0396317D01*
X0043295Y0396362D01*
X0043353Y0396404D01*
X0043413Y0396442D01*
X0043474Y0396477D01*
X0043538Y0396509D01*
X0043603Y0396538D01*
X0043670Y0396563D01*
X0043738Y0396584D01*
X0043807Y0396602D01*
X0043876Y0396616D01*
X0043947Y0396626D01*
X0046309Y0396626D01*
X0046380Y0396616D01*
X0046449Y0396602D01*
X0046518Y0396584D01*
X0046586Y0396563D01*
X0046653Y0396538D01*
X0046718Y0396509D01*
X0046782Y0396477D01*
X0046843Y0396442D01*
X0046903Y0396404D01*
X0046961Y0396362D01*
X0047016Y0396317D01*
X0047070Y0396270D01*
X0047120Y0396220D01*
X0047168Y0396167D01*
X0047213Y0396112D01*
X0047254Y0396054D01*
X0047293Y0395995D01*
X0047329Y0395933D01*
X0047361Y0395870D01*
X0047390Y0395804D01*
X0047415Y0395738D01*
X0047437Y0395670D01*
X0047455Y0395601D01*
X0047470Y0395532D01*
X0047480Y0395462D01*
X0047487Y0395391D01*
X0047491Y0395320D01*
X0047490Y0395249D01*
X0047490Y0395248D02*
X0047491Y0395177D01*
X0047487Y0395106D01*
X0047480Y0395035D01*
X0047470Y0394965D01*
X0047455Y0394896D01*
X0047437Y0394827D01*
X0047415Y0394759D01*
X0047390Y0394693D01*
X0047361Y0394627D01*
X0047329Y0394564D01*
X0047293Y0394502D01*
X0047254Y0394443D01*
X0047213Y0394385D01*
X0047168Y0394330D01*
X0047120Y0394277D01*
X0047070Y0394227D01*
X0047016Y0394180D01*
X0046961Y0394135D01*
X0046903Y0394093D01*
X0046843Y0394055D01*
X0046782Y0394020D01*
X0046718Y0393988D01*
X0046653Y0393959D01*
X0046586Y0393934D01*
X0046518Y0393913D01*
X0046449Y0393895D01*
X0046380Y0393881D01*
X0046309Y0393871D01*
M02*
