G75*
%MOIN*%
%OFA0B0*%
%FSLAX25Y25*%
%IPPOS*%
%LPD*%
%AMOC8*
5,1,8,0,0,1.08239X$1,22.5*
%
%ADD10R,0.03937X0.04331*%
%ADD11R,0.02598X0.01181*%
%ADD12R,0.04331X0.03937*%
%ADD13R,0.05906X0.03543*%
%ADD14R,0.03543X0.05906*%
%ADD15R,0.16703X0.16799*%
%ADD16R,0.07874X0.05748*%
%ADD17R,0.05610X0.09843*%
%ADD18C,0.00400*%
%ADD19C,0.00197*%
%ADD20R,0.04724X0.02165*%
%ADD21R,0.07874X0.04724*%
%ADD22R,0.05315X0.02362*%
%ADD23R,0.03937X0.03543*%
%ADD24C,0.01181*%
%ADD25R,0.03346X0.08661*%
%ADD26R,0.03937X0.04134*%
%ADD27R,0.02362X0.04724*%
D10*
X0120333Y0063654D03*
X0120333Y0070346D03*
X0133333Y0070346D03*
X0133333Y0063654D03*
X0170333Y0090154D03*
X0176333Y0090154D03*
X0176333Y0096846D03*
X0170333Y0096846D03*
X0163333Y0117654D03*
X0156833Y0117654D03*
X0150833Y0117654D03*
X0144833Y0117654D03*
X0138833Y0117654D03*
X0138833Y0124346D03*
X0144833Y0124346D03*
X0150833Y0124346D03*
X0156833Y0124346D03*
X0163333Y0124346D03*
X0183333Y0124346D03*
X0183333Y0117654D03*
X0185333Y0069846D03*
X0185333Y0063154D03*
X0172833Y0063154D03*
X0172833Y0069846D03*
D11*
X0169211Y0118441D03*
X0169211Y0121000D03*
X0169211Y0123559D03*
X0176455Y0123559D03*
X0176455Y0121000D03*
X0176455Y0118441D03*
D12*
X0128180Y0077000D03*
X0121487Y0077000D03*
X0118780Y0083000D03*
X0112087Y0083000D03*
X0111987Y0089000D03*
X0118680Y0089000D03*
X0118680Y0108000D03*
X0111987Y0108000D03*
D13*
X0120400Y0140315D03*
X0120400Y0145315D03*
X0120400Y0150315D03*
X0120400Y0155315D03*
X0120400Y0160315D03*
X0120400Y0165315D03*
X0120400Y0170315D03*
X0120400Y0175315D03*
X0120400Y0180315D03*
X0120400Y0185315D03*
X0120400Y0190315D03*
X0120400Y0195315D03*
X0120400Y0200315D03*
X0120400Y0205315D03*
X0185266Y0205315D03*
X0185266Y0200315D03*
X0185266Y0195315D03*
X0185266Y0190315D03*
X0185266Y0185315D03*
X0185266Y0180315D03*
X0185266Y0175315D03*
X0185266Y0170315D03*
X0185266Y0165315D03*
X0185266Y0160315D03*
X0185266Y0155315D03*
X0185266Y0150315D03*
X0185266Y0145315D03*
X0185266Y0140315D03*
D14*
X0175333Y0134449D03*
X0170333Y0134449D03*
X0165333Y0134449D03*
X0160333Y0134449D03*
X0155333Y0134449D03*
X0150333Y0134449D03*
X0145333Y0134449D03*
X0140333Y0134449D03*
X0135333Y0134449D03*
X0130333Y0134449D03*
D15*
X0152833Y0175002D03*
D16*
X0141416Y0076583D03*
X0164251Y0076583D03*
D17*
X0156623Y0064969D03*
X0149044Y0064969D03*
D18*
X0144976Y0065166D02*
X0139576Y0065166D01*
X0139576Y0065564D02*
X0144976Y0065564D01*
X0144976Y0065963D02*
X0139576Y0065963D01*
X0139576Y0066361D02*
X0144976Y0066361D01*
X0144976Y0066760D02*
X0139576Y0066760D01*
X0139576Y0067158D02*
X0144976Y0067158D01*
X0144976Y0067557D02*
X0139576Y0067557D01*
X0139576Y0067955D02*
X0144976Y0067955D01*
X0144976Y0068354D02*
X0139576Y0068354D01*
X0139576Y0068752D02*
X0144976Y0068752D01*
X0144976Y0069151D02*
X0139576Y0069151D01*
X0139576Y0069549D02*
X0144976Y0069549D01*
X0144976Y0069948D02*
X0137576Y0069948D01*
X0137576Y0069840D02*
X0137576Y0072940D01*
X0144976Y0072940D01*
X0144976Y0062940D01*
X0144944Y0062651D01*
X0144848Y0062376D01*
X0144693Y0062130D01*
X0144487Y0061924D01*
X0144241Y0061769D01*
X0143966Y0061673D01*
X0143676Y0061640D01*
X0140776Y0061640D01*
X0140509Y0061670D01*
X0140256Y0061759D01*
X0140028Y0061902D01*
X0139838Y0062092D01*
X0139695Y0062320D01*
X0139607Y0062573D01*
X0139576Y0062840D01*
X0139576Y0069740D01*
X0139569Y0069778D01*
X0139547Y0069811D01*
X0139515Y0069833D01*
X0139476Y0069840D01*
X0137576Y0069840D01*
X0137576Y0070346D02*
X0144976Y0070346D01*
X0144976Y0070745D02*
X0137576Y0070745D01*
X0137576Y0071143D02*
X0144976Y0071143D01*
X0144976Y0071542D02*
X0137576Y0071542D01*
X0137576Y0071940D02*
X0144976Y0071940D01*
X0144976Y0072339D02*
X0137576Y0072339D01*
X0137576Y0072737D02*
X0144976Y0072737D01*
X0144976Y0064767D02*
X0139576Y0064767D01*
X0139576Y0064369D02*
X0144976Y0064369D01*
X0144976Y0063970D02*
X0139576Y0063970D01*
X0139576Y0063572D02*
X0144976Y0063572D01*
X0144976Y0063173D02*
X0139576Y0063173D01*
X0139584Y0062775D02*
X0144958Y0062775D01*
X0144848Y0062376D02*
X0139675Y0062376D01*
X0139953Y0061978D02*
X0144541Y0061978D01*
X0160640Y0062940D02*
X0160672Y0062651D01*
X0160768Y0062376D01*
X0165941Y0062376D01*
X0165921Y0062320D02*
X0166010Y0062573D01*
X0166040Y0062840D01*
X0166040Y0069740D01*
X0166047Y0069778D01*
X0166069Y0069811D01*
X0166101Y0069833D01*
X0166140Y0069840D01*
X0168040Y0069840D01*
X0168040Y0072940D01*
X0160640Y0072940D01*
X0160640Y0062940D01*
X0160658Y0062775D02*
X0166032Y0062775D01*
X0166040Y0063173D02*
X0160640Y0063173D01*
X0160640Y0063572D02*
X0166040Y0063572D01*
X0166040Y0063970D02*
X0160640Y0063970D01*
X0160640Y0064369D02*
X0166040Y0064369D01*
X0166040Y0064767D02*
X0160640Y0064767D01*
X0160640Y0065166D02*
X0166040Y0065166D01*
X0166040Y0065564D02*
X0160640Y0065564D01*
X0160640Y0065963D02*
X0166040Y0065963D01*
X0166040Y0066361D02*
X0160640Y0066361D01*
X0160640Y0066760D02*
X0166040Y0066760D01*
X0166040Y0067158D02*
X0160640Y0067158D01*
X0160640Y0067557D02*
X0166040Y0067557D01*
X0166040Y0067955D02*
X0160640Y0067955D01*
X0160640Y0068354D02*
X0166040Y0068354D01*
X0166040Y0068752D02*
X0160640Y0068752D01*
X0160640Y0069151D02*
X0166040Y0069151D01*
X0166040Y0069549D02*
X0160640Y0069549D01*
X0160640Y0069948D02*
X0168040Y0069948D01*
X0168040Y0070346D02*
X0160640Y0070346D01*
X0160640Y0070745D02*
X0168040Y0070745D01*
X0168040Y0071143D02*
X0160640Y0071143D01*
X0160640Y0071542D02*
X0168040Y0071542D01*
X0168040Y0071940D02*
X0160640Y0071940D01*
X0160640Y0072339D02*
X0168040Y0072339D01*
X0168040Y0072737D02*
X0160640Y0072737D01*
X0160768Y0062376D02*
X0160923Y0062130D01*
X0161129Y0061924D01*
X0161376Y0061769D01*
X0161650Y0061673D01*
X0161940Y0061640D01*
X0164840Y0061640D01*
X0165107Y0061670D01*
X0165360Y0061759D01*
X0165588Y0061902D01*
X0165778Y0062092D01*
X0165921Y0062320D01*
X0165664Y0061978D02*
X0161075Y0061978D01*
D19*
X0158444Y0072327D02*
X0157459Y0072327D01*
X0157459Y0078725D01*
X0158444Y0078725D01*
X0158444Y0072327D01*
X0158444Y0072410D02*
X0157459Y0072410D01*
X0157459Y0072606D02*
X0158444Y0072606D01*
X0158444Y0072801D02*
X0157459Y0072801D01*
X0157459Y0072996D02*
X0158444Y0072996D01*
X0158444Y0073192D02*
X0157459Y0073192D01*
X0157459Y0073387D02*
X0158444Y0073387D01*
X0158444Y0073583D02*
X0157459Y0073583D01*
X0157459Y0073778D02*
X0158444Y0073778D01*
X0158444Y0073973D02*
X0157459Y0073973D01*
X0157459Y0074169D02*
X0158444Y0074169D01*
X0158444Y0074364D02*
X0157459Y0074364D01*
X0157459Y0074559D02*
X0158444Y0074559D01*
X0158444Y0074755D02*
X0157459Y0074755D01*
X0157459Y0074950D02*
X0158444Y0074950D01*
X0158444Y0075145D02*
X0157459Y0075145D01*
X0157459Y0075341D02*
X0158444Y0075341D01*
X0158444Y0075536D02*
X0157459Y0075536D01*
X0157459Y0075732D02*
X0158444Y0075732D01*
X0158444Y0075927D02*
X0157459Y0075927D01*
X0157459Y0076122D02*
X0158444Y0076122D01*
X0158444Y0076318D02*
X0157459Y0076318D01*
X0157459Y0076513D02*
X0158444Y0076513D01*
X0158444Y0076708D02*
X0157459Y0076708D01*
X0157459Y0076904D02*
X0158444Y0076904D01*
X0158444Y0077099D02*
X0157459Y0077099D01*
X0157459Y0077294D02*
X0158444Y0077294D01*
X0158444Y0077490D02*
X0157459Y0077490D01*
X0157459Y0077685D02*
X0158444Y0077685D01*
X0158444Y0077881D02*
X0157459Y0077881D01*
X0157459Y0078076D02*
X0158444Y0078076D01*
X0158444Y0078271D02*
X0157459Y0078271D01*
X0157459Y0078467D02*
X0158444Y0078467D01*
X0158444Y0078662D02*
X0157459Y0078662D01*
X0155885Y0078662D02*
X0154900Y0078662D01*
X0154900Y0078725D02*
X0154900Y0072327D01*
X0155885Y0072327D01*
X0155885Y0078725D01*
X0154900Y0078725D01*
X0154900Y0078467D02*
X0155885Y0078467D01*
X0155885Y0078271D02*
X0154900Y0078271D01*
X0154900Y0078076D02*
X0155885Y0078076D01*
X0155885Y0077881D02*
X0154900Y0077881D01*
X0154900Y0077685D02*
X0155885Y0077685D01*
X0155885Y0077490D02*
X0154900Y0077490D01*
X0154900Y0077294D02*
X0155885Y0077294D01*
X0155885Y0077099D02*
X0154900Y0077099D01*
X0154900Y0076904D02*
X0155885Y0076904D01*
X0155885Y0076708D02*
X0154900Y0076708D01*
X0154900Y0076513D02*
X0155885Y0076513D01*
X0155885Y0076318D02*
X0154900Y0076318D01*
X0154900Y0076122D02*
X0155885Y0076122D01*
X0155885Y0075927D02*
X0154900Y0075927D01*
X0154900Y0075732D02*
X0155885Y0075732D01*
X0155885Y0075536D02*
X0154900Y0075536D01*
X0154900Y0075341D02*
X0155885Y0075341D01*
X0155885Y0075145D02*
X0154900Y0075145D01*
X0154900Y0074950D02*
X0155885Y0074950D01*
X0155885Y0074755D02*
X0154900Y0074755D01*
X0154900Y0074559D02*
X0155885Y0074559D01*
X0155885Y0074364D02*
X0154900Y0074364D01*
X0154900Y0074169D02*
X0155885Y0074169D01*
X0155885Y0073973D02*
X0154900Y0073973D01*
X0154900Y0073778D02*
X0155885Y0073778D01*
X0155885Y0073583D02*
X0154900Y0073583D01*
X0154900Y0073387D02*
X0155885Y0073387D01*
X0155885Y0073192D02*
X0154900Y0073192D01*
X0154900Y0072996D02*
X0155885Y0072996D01*
X0155885Y0072801D02*
X0154900Y0072801D01*
X0154900Y0072606D02*
X0155885Y0072606D01*
X0155885Y0072410D02*
X0154900Y0072410D01*
X0153325Y0072410D02*
X0152341Y0072410D01*
X0152341Y0072327D02*
X0152341Y0078725D01*
X0153325Y0078725D01*
X0153325Y0072327D01*
X0152341Y0072327D01*
X0152341Y0072606D02*
X0153325Y0072606D01*
X0153325Y0072801D02*
X0152341Y0072801D01*
X0152341Y0072996D02*
X0153325Y0072996D01*
X0153325Y0073192D02*
X0152341Y0073192D01*
X0152341Y0073387D02*
X0153325Y0073387D01*
X0153325Y0073583D02*
X0152341Y0073583D01*
X0152341Y0073778D02*
X0153325Y0073778D01*
X0153325Y0073973D02*
X0152341Y0073973D01*
X0152341Y0074169D02*
X0153325Y0074169D01*
X0153325Y0074364D02*
X0152341Y0074364D01*
X0152341Y0074559D02*
X0153325Y0074559D01*
X0153325Y0074755D02*
X0152341Y0074755D01*
X0152341Y0074950D02*
X0153325Y0074950D01*
X0153325Y0075145D02*
X0152341Y0075145D01*
X0152341Y0075341D02*
X0153325Y0075341D01*
X0153325Y0075536D02*
X0152341Y0075536D01*
X0152341Y0075732D02*
X0153325Y0075732D01*
X0153325Y0075927D02*
X0152341Y0075927D01*
X0152341Y0076122D02*
X0153325Y0076122D01*
X0153325Y0076318D02*
X0152341Y0076318D01*
X0152341Y0076513D02*
X0153325Y0076513D01*
X0153325Y0076708D02*
X0152341Y0076708D01*
X0152341Y0076904D02*
X0153325Y0076904D01*
X0153325Y0077099D02*
X0152341Y0077099D01*
X0152341Y0077294D02*
X0153325Y0077294D01*
X0153325Y0077490D02*
X0152341Y0077490D01*
X0152341Y0077685D02*
X0153325Y0077685D01*
X0153325Y0077881D02*
X0152341Y0077881D01*
X0152341Y0078076D02*
X0153325Y0078076D01*
X0153325Y0078271D02*
X0152341Y0078271D01*
X0152341Y0078467D02*
X0153325Y0078467D01*
X0153325Y0078662D02*
X0152341Y0078662D01*
X0150766Y0078662D02*
X0149782Y0078662D01*
X0149782Y0078725D02*
X0149782Y0072327D01*
X0150766Y0072327D01*
X0150766Y0078725D01*
X0149782Y0078725D01*
X0149782Y0078467D02*
X0150766Y0078467D01*
X0150766Y0078271D02*
X0149782Y0078271D01*
X0149782Y0078076D02*
X0150766Y0078076D01*
X0150766Y0077881D02*
X0149782Y0077881D01*
X0149782Y0077685D02*
X0150766Y0077685D01*
X0150766Y0077490D02*
X0149782Y0077490D01*
X0149782Y0077294D02*
X0150766Y0077294D01*
X0150766Y0077099D02*
X0149782Y0077099D01*
X0149782Y0076904D02*
X0150766Y0076904D01*
X0150766Y0076708D02*
X0149782Y0076708D01*
X0149782Y0076513D02*
X0150766Y0076513D01*
X0150766Y0076318D02*
X0149782Y0076318D01*
X0149782Y0076122D02*
X0150766Y0076122D01*
X0150766Y0075927D02*
X0149782Y0075927D01*
X0149782Y0075732D02*
X0150766Y0075732D01*
X0150766Y0075536D02*
X0149782Y0075536D01*
X0149782Y0075341D02*
X0150766Y0075341D01*
X0150766Y0075145D02*
X0149782Y0075145D01*
X0149782Y0074950D02*
X0150766Y0074950D01*
X0150766Y0074755D02*
X0149782Y0074755D01*
X0149782Y0074559D02*
X0150766Y0074559D01*
X0150766Y0074364D02*
X0149782Y0074364D01*
X0149782Y0074169D02*
X0150766Y0074169D01*
X0150766Y0073973D02*
X0149782Y0073973D01*
X0149782Y0073778D02*
X0150766Y0073778D01*
X0150766Y0073583D02*
X0149782Y0073583D01*
X0149782Y0073387D02*
X0150766Y0073387D01*
X0150766Y0073192D02*
X0149782Y0073192D01*
X0149782Y0072996D02*
X0150766Y0072996D01*
X0150766Y0072801D02*
X0149782Y0072801D01*
X0149782Y0072606D02*
X0150766Y0072606D01*
X0150766Y0072410D02*
X0149782Y0072410D01*
X0148207Y0072410D02*
X0147223Y0072410D01*
X0147223Y0072327D02*
X0147223Y0078725D01*
X0148207Y0078725D01*
X0148207Y0072327D01*
X0147223Y0072327D01*
X0147223Y0072606D02*
X0148207Y0072606D01*
X0148207Y0072801D02*
X0147223Y0072801D01*
X0147223Y0072996D02*
X0148207Y0072996D01*
X0148207Y0073192D02*
X0147223Y0073192D01*
X0147223Y0073387D02*
X0148207Y0073387D01*
X0148207Y0073583D02*
X0147223Y0073583D01*
X0147223Y0073778D02*
X0148207Y0073778D01*
X0148207Y0073973D02*
X0147223Y0073973D01*
X0147223Y0074169D02*
X0148207Y0074169D01*
X0148207Y0074364D02*
X0147223Y0074364D01*
X0147223Y0074559D02*
X0148207Y0074559D01*
X0148207Y0074755D02*
X0147223Y0074755D01*
X0147223Y0074950D02*
X0148207Y0074950D01*
X0148207Y0075145D02*
X0147223Y0075145D01*
X0147223Y0075341D02*
X0148207Y0075341D01*
X0148207Y0075536D02*
X0147223Y0075536D01*
X0147223Y0075732D02*
X0148207Y0075732D01*
X0148207Y0075927D02*
X0147223Y0075927D01*
X0147223Y0076122D02*
X0148207Y0076122D01*
X0148207Y0076318D02*
X0147223Y0076318D01*
X0147223Y0076513D02*
X0148207Y0076513D01*
X0148207Y0076708D02*
X0147223Y0076708D01*
X0147223Y0076904D02*
X0148207Y0076904D01*
X0148207Y0077099D02*
X0147223Y0077099D01*
X0147223Y0077294D02*
X0148207Y0077294D01*
X0148207Y0077490D02*
X0147223Y0077490D01*
X0147223Y0077685D02*
X0148207Y0077685D01*
X0148207Y0077881D02*
X0147223Y0077881D01*
X0147223Y0078076D02*
X0148207Y0078076D01*
X0148207Y0078271D02*
X0147223Y0078271D01*
X0147223Y0078467D02*
X0148207Y0078467D01*
X0148207Y0078662D02*
X0147223Y0078662D01*
D20*
X0120452Y0094760D03*
X0120452Y0102240D03*
X0110215Y0102240D03*
X0110215Y0098500D03*
X0110215Y0094760D03*
D21*
X0197302Y0084976D03*
X0197302Y0107024D03*
D22*
X0182833Y0101906D03*
X0182833Y0097969D03*
X0182833Y0094031D03*
X0182833Y0090094D03*
D23*
X0107184Y0058929D03*
X0113483Y0058929D03*
X0113483Y0075071D03*
X0107184Y0075071D03*
X0192684Y0075571D03*
X0198983Y0075571D03*
X0198983Y0059429D03*
X0192684Y0059429D03*
D24*
X0180711Y0061669D02*
X0177955Y0061669D01*
X0177955Y0064425D01*
X0180711Y0064425D01*
X0180711Y0061669D01*
X0180711Y0062791D02*
X0177955Y0062791D01*
X0177955Y0063913D02*
X0180711Y0063913D01*
X0180711Y0068575D02*
X0177955Y0068575D01*
X0177955Y0071331D01*
X0180711Y0071331D01*
X0180711Y0068575D01*
X0180711Y0069697D02*
X0177955Y0069697D01*
X0177955Y0070819D02*
X0180711Y0070819D01*
X0128211Y0069075D02*
X0125455Y0069075D01*
X0125455Y0071831D01*
X0128211Y0071831D01*
X0128211Y0069075D01*
X0128211Y0070197D02*
X0125455Y0070197D01*
X0125455Y0071319D02*
X0128211Y0071319D01*
X0128211Y0062169D02*
X0125455Y0062169D01*
X0125455Y0064925D01*
X0128211Y0064925D01*
X0128211Y0062169D01*
X0128211Y0063291D02*
X0125455Y0063291D01*
X0125455Y0064413D02*
X0128211Y0064413D01*
D25*
X0123220Y0122300D03*
X0134047Y0122300D03*
D26*
X0128633Y0116296D03*
X0128633Y0128304D03*
D27*
X0127333Y0107024D03*
X0132333Y0107024D03*
X0137333Y0107024D03*
X0142333Y0107024D03*
X0147333Y0107024D03*
X0152333Y0107024D03*
X0157333Y0107024D03*
X0162333Y0107024D03*
X0162333Y0084976D03*
X0157333Y0084976D03*
X0152333Y0084976D03*
X0147333Y0084976D03*
X0142333Y0084976D03*
X0137333Y0084976D03*
X0132333Y0084976D03*
X0127333Y0084976D03*
M02*
