G75*
%MOIN*%
%OFA0B0*%
%FSLAX25Y25*%
%IPPOS*%
%LPD*%
%AMOC8*
5,1,8,0,0,1.08239X$1,22.5*
%
%ADD10C,0.02000*%
%ADD11C,0.00800*%
%ADD12C,0.01000*%
%ADD13C,0.01000*%
%ADD14C,0.01575*%
%ADD15C,0.00500*%
%ADD16R,0.00118X0.00118*%
%ADD17R,0.00236X0.00118*%
%ADD18R,0.02598X0.00118*%
%ADD19R,0.00591X0.00157*%
%ADD20R,0.00709X0.00157*%
%ADD21R,0.02953X0.00157*%
%ADD22R,0.00709X0.00118*%
%ADD23R,0.00827X0.00118*%
%ADD24R,0.03071X0.00118*%
%ADD25R,0.00945X0.00118*%
%ADD26R,0.02953X0.00118*%
%ADD27R,0.01063X0.00157*%
%ADD28R,0.00827X0.00157*%
%ADD29R,0.02835X0.00157*%
%ADD30R,0.01181X0.00118*%
%ADD31R,0.01299X0.00118*%
%ADD32R,0.01417X0.00118*%
%ADD33R,0.01535X0.00157*%
%ADD34R,0.01417X0.00157*%
%ADD35R,0.01654X0.00118*%
%ADD36R,0.01535X0.00118*%
%ADD37R,0.01772X0.00118*%
%ADD38R,0.00945X0.00157*%
%ADD39R,0.02362X0.00118*%
%ADD40R,0.02480X0.00157*%
%ADD41R,0.02717X0.00118*%
%ADD42R,0.02835X0.00118*%
%ADD43R,0.01181X0.00157*%
%ADD44R,0.01063X0.00118*%
%ADD45R,0.00591X0.00118*%
%ADD46R,0.00472X0.00118*%
%ADD47R,0.00118X0.00827*%
%ADD48R,0.00118X0.00945*%
%ADD49R,0.00157X0.01417*%
%ADD50R,0.00157X0.00591*%
%ADD51R,0.00157X0.00709*%
%ADD52R,0.00157X0.01654*%
%ADD53R,0.00118X0.01890*%
%ADD54R,0.00118X0.00709*%
%ADD55R,0.00118X0.02008*%
%ADD56R,0.00118X0.02126*%
%ADD57R,0.00118X0.02244*%
%ADD58R,0.00118X0.02362*%
%ADD59R,0.00118X0.01063*%
%ADD60R,0.00157X0.02362*%
%ADD61R,0.00157X0.01063*%
%ADD62R,0.00157X0.00827*%
%ADD63R,0.00157X0.02480*%
%ADD64R,0.00118X0.01181*%
%ADD65R,0.00118X0.02480*%
%ADD66R,0.00118X0.00472*%
%ADD67R,0.00118X0.01299*%
%ADD68R,0.00118X0.01417*%
%ADD69R,0.00157X0.00945*%
%ADD70R,0.00118X0.01535*%
%ADD71R,0.00118X0.01654*%
%ADD72R,0.00118X0.01772*%
%ADD73R,0.00157X0.01535*%
%ADD74R,0.00118X0.02598*%
%ADD75R,0.00157X0.02598*%
%ADD76R,0.00157X0.01181*%
%ADD77R,0.00157X0.01772*%
%ADD78R,0.00157X0.01890*%
%ADD79R,0.00118X0.00591*%
%ADD80R,0.00118X0.00236*%
%ADD81R,0.00157X0.01299*%
%ADD82R,0.00157X0.02008*%
%ADD83R,0.00157X0.00472*%
%ADD84R,0.00157X0.02244*%
%ADD85R,0.00118X0.00354*%
%ADD86R,0.00157X0.02953*%
%ADD87R,0.00118X0.03071*%
%ADD88R,0.00118X0.02953*%
%ADD89R,0.00157X0.02835*%
%ADD90R,0.00157X0.02126*%
%ADD91R,0.00157X0.01575*%
%ADD92R,0.00118X0.01969*%
%ADD93R,0.00157X0.01811*%
%ADD94R,0.00157X0.02677*%
%ADD95R,0.00157X0.02087*%
%ADD96R,0.00118X0.01142*%
%ADD97R,0.00118X0.00984*%
%ADD98R,0.00157X0.00984*%
%ADD99R,0.00157X0.01260*%
%ADD100R,0.00118X0.01693*%
%ADD101R,0.00157X0.01969*%
%ADD102R,0.00118X0.01260*%
%ADD103R,0.00157X0.02402*%
%ADD104R,0.00118X0.01575*%
%ADD105R,0.00157X0.01693*%
%ADD106R,0.00157X0.00157*%
%ADD107R,0.00157X0.00866*%
%ADD108R,0.00118X0.00276*%
%ADD109R,0.00118X0.02795*%
%ADD110R,0.00118X0.02402*%
%ADD111R,0.00157X0.02795*%
%ADD112R,0.00118X0.01811*%
%ADD113R,0.00157X0.02638*%
%ADD114R,0.00157X0.01378*%
%ADD115R,0.00118X0.00551*%
%ADD116R,0.00118X0.01929*%
%ADD117R,0.00118X0.02205*%
%ADD118R,0.00157X0.01102*%
%ADD119R,0.00118X0.01102*%
%ADD120R,0.00118X0.01220*%
%ADD121R,0.00118X0.01496*%
%ADD122R,0.00157X0.02756*%
%ADD123R,0.00118X0.02874*%
%ADD124R,0.00157X0.02874*%
%ADD125R,0.00118X0.02717*%
%ADD126R,0.00118X0.03425*%
%ADD127R,0.00118X0.03031*%
%ADD128R,0.00118X0.00394*%
%ADD129R,0.00157X0.03425*%
%ADD130R,0.00118X0.03583*%
%ADD131R,0.00157X0.03583*%
%ADD132R,0.00157X0.03307*%
%ADD133R,0.00157X0.01220*%
%ADD134R,0.00157X0.02323*%
%ADD135R,0.00118X0.02087*%
%ADD136R,0.00157X0.02205*%
%ADD137R,0.00118X0.00669*%
%ADD138R,0.00118X0.00433*%
%ADD139R,0.00157X0.01929*%
%ADD140R,0.00157X0.00669*%
%ADD141R,0.00118X0.02638*%
%ADD142R,0.00118X0.02756*%
%ADD143R,0.00118X0.02047*%
%ADD144R,0.00118X0.01378*%
%ADD145R,0.00118X0.02323*%
%ADD146R,0.00157X0.00551*%
%ADD147R,0.00157X0.01496*%
%ADD148R,0.00157X0.00433*%
%ADD149R,0.00118X0.00157*%
%ADD150R,0.00157X0.02047*%
%ADD151R,0.00157X0.00276*%
%ADD152R,0.00118X0.02835*%
%ADD153R,0.01772X0.00157*%
%ADD154R,0.01299X0.00157*%
%ADD155R,0.02008X0.00118*%
%ADD156R,0.02126X0.00118*%
%ADD157R,0.02244X0.00118*%
%ADD158R,0.02244X0.00157*%
%ADD159R,0.01890X0.00157*%
%ADD160R,0.02362X0.00157*%
%ADD161R,0.02126X0.00157*%
%ADD162R,0.00354X0.00118*%
%ADD163R,0.00669X0.00118*%
%ADD164R,0.02087X0.00157*%
%ADD165R,0.02205X0.00118*%
%ADD166R,0.02323X0.00157*%
%ADD167R,0.02480X0.00118*%
%ADD168R,0.01102X0.00157*%
%ADD169R,0.00984X0.00118*%
%ADD170R,0.00984X0.00157*%
%ADD171R,0.01102X0.00118*%
%ADD172R,0.02323X0.00118*%
%ADD173R,0.02087X0.00118*%
%ADD174R,0.01220X0.00118*%
%ADD175R,0.00433X0.00157*%
%ADD176R,0.01260X0.00118*%
%ADD177R,0.00276X0.00118*%
%ADD178R,0.00433X0.00118*%
%ADD179R,0.00551X0.00157*%
%ADD180R,0.02638X0.00118*%
%ADD181R,0.02638X0.00157*%
%ADD182R,0.02756X0.00157*%
%ADD183R,0.02756X0.00118*%
%ADD184R,0.01378X0.00157*%
%ADD185R,0.01378X0.00118*%
%ADD186R,0.01654X0.00157*%
%ADD187R,0.03858X0.00157*%
%ADD188R,0.02874X0.00157*%
%ADD189R,0.03858X0.00118*%
%ADD190R,0.01811X0.00157*%
%ADD191R,0.02598X0.00157*%
%ADD192R,0.00551X0.00118*%
%ADD193R,0.00157X0.00118*%
%ADD194R,0.01929X0.00118*%
%ADD195R,0.01811X0.00118*%
%ADD196R,0.01929X0.00157*%
%ADD197R,0.00669X0.00157*%
%ADD198R,0.00276X0.00157*%
%ADD199R,0.02047X0.00118*%
%ADD200R,0.02913X0.00157*%
%ADD201R,0.02205X0.00157*%
%ADD202R,0.02913X0.00118*%
%ADD203R,0.00394X0.00157*%
%ADD204R,0.01260X0.00157*%
%ADD205R,0.00394X0.00118*%
%ADD206R,0.02047X0.00157*%
%ADD207R,0.03465X0.00118*%
%ADD208R,0.03150X0.00157*%
%ADD209R,0.01496X0.00118*%
%ADD210R,0.03150X0.00118*%
%ADD211R,0.01496X0.00157*%
%ADD212R,0.03307X0.00157*%
%ADD213R,0.03031X0.00118*%
%ADD214R,0.01220X0.00157*%
%ADD215R,0.03031X0.00157*%
%ADD216R,0.00079X0.07008*%
%ADD217R,0.00079X0.07480*%
%ADD218R,0.00079X0.07795*%
%ADD219R,0.00079X0.08110*%
%ADD220R,0.00079X0.08268*%
%ADD221R,0.00079X0.08425*%
%ADD222R,0.00079X0.08583*%
%ADD223R,0.00079X0.08740*%
%ADD224R,0.00079X0.01496*%
%ADD225R,0.00079X0.00866*%
%ADD226R,0.00079X0.00945*%
%ADD227R,0.00079X0.00315*%
%ADD228R,0.00079X0.02441*%
%ADD229R,0.00079X0.00157*%
%ADD230R,0.00079X0.01575*%
%ADD231R,0.00079X0.01654*%
%ADD232R,0.00079X0.02520*%
%ADD233R,0.00079X0.00236*%
%ADD234R,0.00079X0.01260*%
%ADD235R,0.00079X0.01732*%
%ADD236R,0.00079X0.02598*%
%ADD237R,0.00079X0.00551*%
%ADD238R,0.00079X0.00472*%
%ADD239R,0.00079X0.00709*%
%ADD240R,0.00079X0.00394*%
%ADD241R,0.00079X0.01811*%
%ADD242R,0.00079X0.01417*%
%ADD243R,0.00079X0.01890*%
%ADD244R,0.00079X0.00630*%
%ADD245R,0.00079X0.01969*%
%ADD246R,0.00079X0.00787*%
D10*
X0176833Y0115750D03*
D11*
X0104822Y0072268D02*
X0104822Y0061732D01*
X0109822Y0058732D02*
X0110845Y0058732D01*
X0115845Y0061732D02*
X0115845Y0072268D01*
X0110845Y0075268D02*
X0109822Y0075268D01*
X0125633Y0088337D02*
X0164427Y0088337D01*
X0164427Y0088338D02*
X0164497Y0088350D01*
X0164567Y0088367D01*
X0164635Y0088387D01*
X0164702Y0088411D01*
X0164768Y0088438D01*
X0164833Y0088469D01*
X0164895Y0088503D01*
X0164956Y0088541D01*
X0165014Y0088582D01*
X0165071Y0088626D01*
X0165124Y0088673D01*
X0165175Y0088723D01*
X0165224Y0088775D01*
X0165269Y0088830D01*
X0165312Y0088888D01*
X0165351Y0088947D01*
X0165387Y0089009D01*
X0165419Y0089073D01*
X0165448Y0089138D01*
X0165474Y0089204D01*
X0165495Y0089272D01*
X0165514Y0089342D01*
X0165528Y0089411D01*
X0165538Y0089482D01*
X0165545Y0089553D01*
X0165548Y0089624D01*
X0165547Y0089696D01*
X0165542Y0089767D01*
X0165533Y0089838D01*
X0165533Y0089837D02*
X0165533Y0102163D01*
X0165534Y0102163D02*
X0165532Y0102239D01*
X0165526Y0102314D01*
X0165517Y0102390D01*
X0165503Y0102465D01*
X0165486Y0102539D01*
X0165465Y0102612D01*
X0165441Y0102684D01*
X0165413Y0102754D01*
X0165381Y0102823D01*
X0165346Y0102891D01*
X0165307Y0102956D01*
X0165265Y0103020D01*
X0165220Y0103081D01*
X0165172Y0103140D01*
X0165121Y0103196D01*
X0165067Y0103250D01*
X0165011Y0103301D01*
X0164952Y0103349D01*
X0164891Y0103394D01*
X0164827Y0103436D01*
X0164762Y0103475D01*
X0164694Y0103510D01*
X0164625Y0103542D01*
X0164555Y0103570D01*
X0164483Y0103594D01*
X0164410Y0103615D01*
X0164336Y0103632D01*
X0164261Y0103646D01*
X0164185Y0103655D01*
X0164110Y0103661D01*
X0164034Y0103663D01*
X0164033Y0103663D02*
X0125633Y0103663D01*
X0125634Y0103663D02*
X0125553Y0103651D01*
X0125473Y0103636D01*
X0125394Y0103617D01*
X0125316Y0103595D01*
X0125239Y0103568D01*
X0125163Y0103539D01*
X0125089Y0103505D01*
X0125017Y0103468D01*
X0124946Y0103428D01*
X0124878Y0103384D01*
X0124811Y0103337D01*
X0124747Y0103287D01*
X0124686Y0103234D01*
X0124627Y0103178D01*
X0124570Y0103119D01*
X0124517Y0103058D01*
X0124466Y0102994D01*
X0124419Y0102928D01*
X0124375Y0102860D01*
X0124334Y0102790D01*
X0124296Y0102718D01*
X0124262Y0102644D01*
X0124232Y0102568D01*
X0124205Y0102492D01*
X0124182Y0102414D01*
X0124162Y0102335D01*
X0124147Y0102255D01*
X0124135Y0102174D01*
X0124127Y0102094D01*
X0124123Y0102012D01*
X0124122Y0101931D01*
X0124126Y0101850D01*
X0124133Y0101769D01*
X0124133Y0101719D02*
X0124133Y0098400D01*
X0124333Y0098400D02*
X0124431Y0098398D01*
X0124529Y0098392D01*
X0124627Y0098383D01*
X0124724Y0098369D01*
X0124821Y0098352D01*
X0124917Y0098331D01*
X0125012Y0098306D01*
X0125106Y0098278D01*
X0125198Y0098245D01*
X0125290Y0098210D01*
X0125380Y0098170D01*
X0125468Y0098128D01*
X0125555Y0098081D01*
X0125639Y0098032D01*
X0125722Y0097979D01*
X0125802Y0097923D01*
X0125881Y0097863D01*
X0125957Y0097801D01*
X0126030Y0097736D01*
X0126101Y0097668D01*
X0126169Y0097597D01*
X0126234Y0097524D01*
X0126296Y0097448D01*
X0126356Y0097369D01*
X0126412Y0097289D01*
X0126465Y0097206D01*
X0126514Y0097122D01*
X0126561Y0097035D01*
X0126603Y0096947D01*
X0126643Y0096857D01*
X0126678Y0096765D01*
X0126711Y0096673D01*
X0126739Y0096579D01*
X0126764Y0096484D01*
X0126785Y0096388D01*
X0126802Y0096291D01*
X0126816Y0096194D01*
X0126825Y0096096D01*
X0126831Y0095998D01*
X0126833Y0095900D01*
X0126831Y0095802D01*
X0126825Y0095704D01*
X0126816Y0095606D01*
X0126802Y0095509D01*
X0126785Y0095412D01*
X0126764Y0095316D01*
X0126739Y0095221D01*
X0126711Y0095127D01*
X0126678Y0095035D01*
X0126643Y0094943D01*
X0126603Y0094853D01*
X0126561Y0094765D01*
X0126514Y0094678D01*
X0126465Y0094594D01*
X0126412Y0094511D01*
X0126356Y0094431D01*
X0126296Y0094352D01*
X0126234Y0094276D01*
X0126169Y0094203D01*
X0126101Y0094132D01*
X0126030Y0094064D01*
X0125957Y0093999D01*
X0125881Y0093937D01*
X0125802Y0093877D01*
X0125722Y0093821D01*
X0125639Y0093768D01*
X0125555Y0093719D01*
X0125468Y0093672D01*
X0125380Y0093630D01*
X0125290Y0093590D01*
X0125198Y0093555D01*
X0125106Y0093522D01*
X0125012Y0093494D01*
X0124917Y0093469D01*
X0124821Y0093448D01*
X0124724Y0093431D01*
X0124627Y0093417D01*
X0124529Y0093408D01*
X0124431Y0093402D01*
X0124333Y0093400D01*
X0124133Y0093400D02*
X0124133Y0089444D01*
X0124134Y0089444D02*
X0124146Y0089374D01*
X0124163Y0089304D01*
X0124183Y0089236D01*
X0124206Y0089168D01*
X0124234Y0089102D01*
X0124265Y0089038D01*
X0124299Y0088976D01*
X0124337Y0088915D01*
X0124377Y0088856D01*
X0124421Y0088800D01*
X0124468Y0088747D01*
X0124518Y0088695D01*
X0124571Y0088647D01*
X0124626Y0088602D01*
X0124683Y0088559D01*
X0124743Y0088520D01*
X0124805Y0088484D01*
X0124868Y0088452D01*
X0124933Y0088423D01*
X0125000Y0088397D01*
X0125068Y0088375D01*
X0125137Y0088357D01*
X0125207Y0088343D01*
X0125278Y0088333D01*
X0125349Y0088326D01*
X0125420Y0088323D01*
X0125491Y0088324D01*
X0125563Y0088329D01*
X0125633Y0088338D01*
X0117024Y0093500D02*
X0113643Y0093500D01*
X0118124Y0097443D02*
X0118124Y0099557D01*
X0117024Y0103500D02*
X0113643Y0103500D01*
X0116900Y0133949D02*
X0116900Y0137992D01*
X0116900Y0133949D02*
X0127833Y0133949D01*
X0169883Y0125400D02*
X0169883Y0124850D01*
X0169883Y0125400D02*
X0175783Y0125400D01*
X0175783Y0124850D01*
X0175783Y0117150D02*
X0175283Y0116600D01*
X0169883Y0116600D01*
X0169883Y0117150D01*
X0177833Y0133949D02*
X0188766Y0133949D01*
X0188766Y0137992D01*
X0195322Y0075768D02*
X0196345Y0075768D01*
X0201345Y0072768D02*
X0201345Y0062232D01*
X0196345Y0059232D02*
X0195322Y0059232D01*
X0190322Y0062232D02*
X0190322Y0072768D01*
X0188766Y0207720D02*
X0188766Y0235343D01*
X0116900Y0235343D01*
X0116900Y0207720D01*
D12*
X0111333Y0104800D03*
D13*
X0184211Y0104858D02*
X0184211Y0107811D01*
X0190707Y0107811D01*
X0200944Y0101906D02*
X0200944Y0090094D01*
X0190707Y0084189D02*
X0184211Y0084189D01*
X0184211Y0087142D01*
D14*
X0181095Y0086157D02*
X0181097Y0086204D01*
X0181103Y0086250D01*
X0181112Y0086296D01*
X0181126Y0086340D01*
X0181143Y0086384D01*
X0181164Y0086425D01*
X0181188Y0086465D01*
X0181215Y0086503D01*
X0181246Y0086538D01*
X0181279Y0086571D01*
X0181315Y0086601D01*
X0181354Y0086627D01*
X0181394Y0086651D01*
X0181436Y0086670D01*
X0181480Y0086687D01*
X0181525Y0086699D01*
X0181571Y0086708D01*
X0181617Y0086713D01*
X0181664Y0086714D01*
X0181710Y0086711D01*
X0181756Y0086704D01*
X0181802Y0086693D01*
X0181846Y0086679D01*
X0181889Y0086661D01*
X0181930Y0086639D01*
X0181970Y0086614D01*
X0182007Y0086586D01*
X0182042Y0086555D01*
X0182074Y0086521D01*
X0182103Y0086484D01*
X0182128Y0086446D01*
X0182151Y0086405D01*
X0182170Y0086362D01*
X0182185Y0086318D01*
X0182197Y0086273D01*
X0182205Y0086227D01*
X0182209Y0086180D01*
X0182209Y0086134D01*
X0182205Y0086087D01*
X0182197Y0086041D01*
X0182185Y0085996D01*
X0182170Y0085952D01*
X0182151Y0085909D01*
X0182128Y0085868D01*
X0182103Y0085830D01*
X0182074Y0085793D01*
X0182042Y0085759D01*
X0182007Y0085728D01*
X0181970Y0085700D01*
X0181931Y0085675D01*
X0181889Y0085653D01*
X0181846Y0085635D01*
X0181802Y0085621D01*
X0181756Y0085610D01*
X0181710Y0085603D01*
X0181664Y0085600D01*
X0181617Y0085601D01*
X0181571Y0085606D01*
X0181525Y0085615D01*
X0181480Y0085627D01*
X0181436Y0085644D01*
X0181394Y0085663D01*
X0181354Y0085687D01*
X0181315Y0085713D01*
X0181279Y0085743D01*
X0181246Y0085776D01*
X0181215Y0085811D01*
X0181188Y0085849D01*
X0181164Y0085889D01*
X0181143Y0085930D01*
X0181126Y0085974D01*
X0181112Y0086018D01*
X0181103Y0086064D01*
X0181097Y0086110D01*
X0181095Y0086157D01*
D15*
X0181208Y0072750D02*
X0177458Y0072750D01*
X0192664Y0067500D02*
X0192666Y0067612D01*
X0192672Y0067725D01*
X0192682Y0067837D01*
X0192696Y0067948D01*
X0192714Y0068060D01*
X0192736Y0068170D01*
X0192761Y0068279D01*
X0192791Y0068388D01*
X0192824Y0068495D01*
X0192862Y0068601D01*
X0192903Y0068706D01*
X0192947Y0068809D01*
X0192995Y0068911D01*
X0193047Y0069011D01*
X0193103Y0069109D01*
X0193162Y0069205D01*
X0193224Y0069298D01*
X0193289Y0069390D01*
X0193358Y0069479D01*
X0193430Y0069566D01*
X0193505Y0069650D01*
X0193582Y0069731D01*
X0193663Y0069809D01*
X0193746Y0069885D01*
X0193832Y0069957D01*
X0193921Y0070027D01*
X0194011Y0070093D01*
X0194105Y0070156D01*
X0194200Y0070216D01*
X0194297Y0070272D01*
X0194397Y0070325D01*
X0194498Y0070374D01*
X0194601Y0070420D01*
X0194705Y0070462D01*
X0194811Y0070500D01*
X0194918Y0070534D01*
X0195026Y0070565D01*
X0195136Y0070591D01*
X0195246Y0070614D01*
X0195357Y0070633D01*
X0195468Y0070648D01*
X0195580Y0070659D01*
X0195692Y0070666D01*
X0195805Y0070669D01*
X0195917Y0070668D01*
X0196030Y0070663D01*
X0196142Y0070654D01*
X0196254Y0070641D01*
X0196365Y0070624D01*
X0196475Y0070603D01*
X0196585Y0070578D01*
X0196694Y0070550D01*
X0196802Y0070517D01*
X0196908Y0070481D01*
X0197013Y0070441D01*
X0197117Y0070397D01*
X0197219Y0070350D01*
X0197319Y0070299D01*
X0197417Y0070244D01*
X0197514Y0070186D01*
X0197608Y0070125D01*
X0197700Y0070060D01*
X0197790Y0069993D01*
X0197877Y0069922D01*
X0197962Y0069847D01*
X0198044Y0069770D01*
X0198123Y0069691D01*
X0198199Y0069608D01*
X0198273Y0069523D01*
X0198343Y0069435D01*
X0198410Y0069344D01*
X0198474Y0069252D01*
X0198534Y0069157D01*
X0198591Y0069060D01*
X0198645Y0068961D01*
X0198695Y0068860D01*
X0198742Y0068758D01*
X0198784Y0068654D01*
X0198824Y0068549D01*
X0198859Y0068442D01*
X0198890Y0068334D01*
X0198918Y0068225D01*
X0198942Y0068115D01*
X0198962Y0068004D01*
X0198978Y0067893D01*
X0198990Y0067781D01*
X0198998Y0067669D01*
X0199002Y0067556D01*
X0199002Y0067444D01*
X0198998Y0067331D01*
X0198990Y0067219D01*
X0198978Y0067107D01*
X0198962Y0066996D01*
X0198942Y0066885D01*
X0198918Y0066775D01*
X0198890Y0066666D01*
X0198859Y0066558D01*
X0198824Y0066451D01*
X0198784Y0066346D01*
X0198742Y0066242D01*
X0198695Y0066140D01*
X0198645Y0066039D01*
X0198591Y0065940D01*
X0198534Y0065843D01*
X0198474Y0065748D01*
X0198410Y0065656D01*
X0198343Y0065565D01*
X0198273Y0065477D01*
X0198199Y0065392D01*
X0198123Y0065309D01*
X0198044Y0065230D01*
X0197962Y0065153D01*
X0197877Y0065078D01*
X0197790Y0065007D01*
X0197700Y0064940D01*
X0197608Y0064875D01*
X0197514Y0064814D01*
X0197418Y0064756D01*
X0197319Y0064701D01*
X0197219Y0064650D01*
X0197117Y0064603D01*
X0197013Y0064559D01*
X0196908Y0064519D01*
X0196802Y0064483D01*
X0196694Y0064450D01*
X0196585Y0064422D01*
X0196475Y0064397D01*
X0196365Y0064376D01*
X0196254Y0064359D01*
X0196142Y0064346D01*
X0196030Y0064337D01*
X0195917Y0064332D01*
X0195805Y0064331D01*
X0195692Y0064334D01*
X0195580Y0064341D01*
X0195468Y0064352D01*
X0195357Y0064367D01*
X0195246Y0064386D01*
X0195136Y0064409D01*
X0195026Y0064435D01*
X0194918Y0064466D01*
X0194811Y0064500D01*
X0194705Y0064538D01*
X0194601Y0064580D01*
X0194498Y0064626D01*
X0194397Y0064675D01*
X0194297Y0064728D01*
X0194200Y0064784D01*
X0194105Y0064844D01*
X0194011Y0064907D01*
X0193921Y0064973D01*
X0193832Y0065043D01*
X0193746Y0065115D01*
X0193663Y0065191D01*
X0193582Y0065269D01*
X0193505Y0065350D01*
X0193430Y0065434D01*
X0193358Y0065521D01*
X0193289Y0065610D01*
X0193224Y0065702D01*
X0193162Y0065795D01*
X0193103Y0065891D01*
X0193047Y0065989D01*
X0192995Y0066089D01*
X0192947Y0066191D01*
X0192903Y0066294D01*
X0192862Y0066399D01*
X0192824Y0066505D01*
X0192791Y0066612D01*
X0192761Y0066721D01*
X0192736Y0066830D01*
X0192714Y0066940D01*
X0192696Y0067052D01*
X0192682Y0067163D01*
X0192672Y0067275D01*
X0192666Y0067388D01*
X0192664Y0067500D01*
X0128708Y0073250D02*
X0124958Y0073250D01*
X0107164Y0067000D02*
X0107166Y0067112D01*
X0107172Y0067225D01*
X0107182Y0067337D01*
X0107196Y0067448D01*
X0107214Y0067560D01*
X0107236Y0067670D01*
X0107261Y0067779D01*
X0107291Y0067888D01*
X0107324Y0067995D01*
X0107362Y0068101D01*
X0107403Y0068206D01*
X0107447Y0068309D01*
X0107495Y0068411D01*
X0107547Y0068511D01*
X0107603Y0068609D01*
X0107662Y0068705D01*
X0107724Y0068798D01*
X0107789Y0068890D01*
X0107858Y0068979D01*
X0107930Y0069066D01*
X0108005Y0069150D01*
X0108082Y0069231D01*
X0108163Y0069309D01*
X0108246Y0069385D01*
X0108332Y0069457D01*
X0108421Y0069527D01*
X0108511Y0069593D01*
X0108605Y0069656D01*
X0108700Y0069716D01*
X0108797Y0069772D01*
X0108897Y0069825D01*
X0108998Y0069874D01*
X0109101Y0069920D01*
X0109205Y0069962D01*
X0109311Y0070000D01*
X0109418Y0070034D01*
X0109526Y0070065D01*
X0109636Y0070091D01*
X0109746Y0070114D01*
X0109857Y0070133D01*
X0109968Y0070148D01*
X0110080Y0070159D01*
X0110192Y0070166D01*
X0110305Y0070169D01*
X0110417Y0070168D01*
X0110530Y0070163D01*
X0110642Y0070154D01*
X0110754Y0070141D01*
X0110865Y0070124D01*
X0110975Y0070103D01*
X0111085Y0070078D01*
X0111194Y0070050D01*
X0111302Y0070017D01*
X0111408Y0069981D01*
X0111513Y0069941D01*
X0111617Y0069897D01*
X0111719Y0069850D01*
X0111819Y0069799D01*
X0111917Y0069744D01*
X0112014Y0069686D01*
X0112108Y0069625D01*
X0112200Y0069560D01*
X0112290Y0069493D01*
X0112377Y0069422D01*
X0112462Y0069347D01*
X0112544Y0069270D01*
X0112623Y0069191D01*
X0112699Y0069108D01*
X0112773Y0069023D01*
X0112843Y0068935D01*
X0112910Y0068844D01*
X0112974Y0068752D01*
X0113034Y0068657D01*
X0113091Y0068560D01*
X0113145Y0068461D01*
X0113195Y0068360D01*
X0113242Y0068258D01*
X0113284Y0068154D01*
X0113324Y0068049D01*
X0113359Y0067942D01*
X0113390Y0067834D01*
X0113418Y0067725D01*
X0113442Y0067615D01*
X0113462Y0067504D01*
X0113478Y0067393D01*
X0113490Y0067281D01*
X0113498Y0067169D01*
X0113502Y0067056D01*
X0113502Y0066944D01*
X0113498Y0066831D01*
X0113490Y0066719D01*
X0113478Y0066607D01*
X0113462Y0066496D01*
X0113442Y0066385D01*
X0113418Y0066275D01*
X0113390Y0066166D01*
X0113359Y0066058D01*
X0113324Y0065951D01*
X0113284Y0065846D01*
X0113242Y0065742D01*
X0113195Y0065640D01*
X0113145Y0065539D01*
X0113091Y0065440D01*
X0113034Y0065343D01*
X0112974Y0065248D01*
X0112910Y0065156D01*
X0112843Y0065065D01*
X0112773Y0064977D01*
X0112699Y0064892D01*
X0112623Y0064809D01*
X0112544Y0064730D01*
X0112462Y0064653D01*
X0112377Y0064578D01*
X0112290Y0064507D01*
X0112200Y0064440D01*
X0112108Y0064375D01*
X0112014Y0064314D01*
X0111918Y0064256D01*
X0111819Y0064201D01*
X0111719Y0064150D01*
X0111617Y0064103D01*
X0111513Y0064059D01*
X0111408Y0064019D01*
X0111302Y0063983D01*
X0111194Y0063950D01*
X0111085Y0063922D01*
X0110975Y0063897D01*
X0110865Y0063876D01*
X0110754Y0063859D01*
X0110642Y0063846D01*
X0110530Y0063837D01*
X0110417Y0063832D01*
X0110305Y0063831D01*
X0110192Y0063834D01*
X0110080Y0063841D01*
X0109968Y0063852D01*
X0109857Y0063867D01*
X0109746Y0063886D01*
X0109636Y0063909D01*
X0109526Y0063935D01*
X0109418Y0063966D01*
X0109311Y0064000D01*
X0109205Y0064038D01*
X0109101Y0064080D01*
X0108998Y0064126D01*
X0108897Y0064175D01*
X0108797Y0064228D01*
X0108700Y0064284D01*
X0108605Y0064344D01*
X0108511Y0064407D01*
X0108421Y0064473D01*
X0108332Y0064543D01*
X0108246Y0064615D01*
X0108163Y0064691D01*
X0108082Y0064769D01*
X0108005Y0064850D01*
X0107930Y0064934D01*
X0107858Y0065021D01*
X0107789Y0065110D01*
X0107724Y0065202D01*
X0107662Y0065295D01*
X0107603Y0065391D01*
X0107547Y0065489D01*
X0107495Y0065589D01*
X0107447Y0065691D01*
X0107403Y0065794D01*
X0107362Y0065899D01*
X0107324Y0066005D01*
X0107291Y0066112D01*
X0107261Y0066221D01*
X0107236Y0066330D01*
X0107214Y0066440D01*
X0107196Y0066552D01*
X0107182Y0066663D01*
X0107172Y0066775D01*
X0107166Y0066888D01*
X0107164Y0067000D01*
X0120759Y0116394D02*
X0120759Y0117182D01*
X0125877Y0117182D01*
X0125877Y0116394D01*
X0120759Y0116394D01*
X0120759Y0116788D02*
X0125877Y0116788D01*
X0131389Y0116788D02*
X0136507Y0116788D01*
X0136507Y0116394D02*
X0136507Y0117182D01*
X0136507Y0127418D01*
X0131389Y0127418D01*
X0125877Y0127418D02*
X0120759Y0127418D01*
X0120759Y0117182D01*
X0131389Y0117182D02*
X0131389Y0116394D01*
X0136507Y0116394D01*
X0136507Y0117182D02*
X0131389Y0117182D01*
D16*
X0115888Y0130303D03*
X0112660Y0132075D03*
X0115888Y0137154D03*
X0115888Y0139752D03*
X0115888Y0147091D03*
X0115888Y0148154D03*
X0115888Y0150752D03*
X0115888Y0153687D03*
X0112660Y0185695D03*
X0115888Y0205041D03*
X0115888Y0207049D03*
X0114944Y0208230D03*
X0192194Y0208230D03*
X0193138Y0207049D03*
X0193138Y0205041D03*
X0193138Y0123437D03*
X0193138Y0112492D03*
X0152448Y0113541D03*
X0151621Y0111888D03*
X0109614Y0123555D03*
X0105481Y0123555D03*
X0110638Y0077077D03*
D17*
X0107666Y0123555D03*
D18*
X0105422Y0121390D03*
X0111681Y0123555D03*
X0135223Y0109959D03*
X0139357Y0110234D03*
X0139357Y0110510D03*
X0165262Y0112990D03*
X0168294Y0111612D03*
X0168294Y0110785D03*
X0113178Y0080305D03*
X0130814Y0060240D03*
X0130814Y0058587D03*
X0130814Y0058311D03*
D19*
X0105481Y0123417D03*
D20*
X0107666Y0123417D03*
X0107666Y0122000D03*
X0107666Y0121528D03*
X0107666Y0121055D03*
X0107666Y0120583D03*
X0106603Y0120583D03*
X0104240Y0120583D03*
X0109673Y0123417D03*
X0111681Y0120583D03*
X0113178Y0077333D03*
X0108926Y0077333D03*
X0107272Y0077333D03*
X0173530Y0109821D03*
X0176562Y0112301D03*
X0178572Y0060154D03*
D21*
X0113237Y0080167D03*
X0105481Y0121055D03*
X0111740Y0123417D03*
D22*
X0111681Y0120720D03*
X0107666Y0120720D03*
X0107666Y0120839D03*
X0107666Y0120917D03*
X0107666Y0121193D03*
X0107666Y0121272D03*
X0107666Y0121390D03*
X0107666Y0121665D03*
X0107666Y0121783D03*
X0107666Y0121862D03*
X0105422Y0123280D03*
X0131365Y0112439D03*
X0148176Y0112439D03*
X0148176Y0109959D03*
X0157270Y0113541D03*
X0159199Y0109959D03*
X0161404Y0109959D03*
X0169121Y0109959D03*
X0169121Y0112439D03*
X0175184Y0112439D03*
X0183727Y0112439D03*
X0180225Y0056709D03*
X0131916Y0057209D03*
X0129987Y0057209D03*
X0113178Y0077470D03*
X0111170Y0079557D03*
D23*
X0110638Y0080305D03*
X0109930Y0079478D03*
X0109930Y0079360D03*
X0108985Y0079085D03*
X0108985Y0078967D03*
X0108867Y0078888D03*
X0108867Y0079360D03*
X0108749Y0077943D03*
X0108867Y0077667D03*
X0108985Y0077470D03*
X0109930Y0077943D03*
X0111347Y0077943D03*
X0111347Y0078022D03*
X0111347Y0078140D03*
X0113237Y0078140D03*
X0113237Y0078022D03*
X0113237Y0077943D03*
X0113237Y0077667D03*
X0113237Y0077589D03*
X0113237Y0078415D03*
X0113237Y0078533D03*
X0113237Y0078612D03*
X0113237Y0078888D03*
X0113237Y0078967D03*
X0113237Y0079085D03*
X0113237Y0079360D03*
X0113237Y0079478D03*
X0113237Y0079557D03*
X0107331Y0079478D03*
X0107331Y0079360D03*
X0107331Y0079085D03*
X0107331Y0078967D03*
X0107331Y0078888D03*
X0107331Y0077943D03*
X0107331Y0077667D03*
X0107331Y0077589D03*
X0107331Y0077470D03*
X0122054Y0059689D03*
X0122054Y0059413D03*
X0122054Y0059138D03*
X0122054Y0058035D03*
X0122054Y0057760D03*
X0122054Y0057484D03*
X0123983Y0059413D03*
X0125912Y0057484D03*
X0127841Y0057484D03*
X0126896Y0060516D03*
X0128825Y0060516D03*
X0178512Y0060016D03*
X0178512Y0058638D03*
X0178512Y0058362D03*
X0178512Y0058087D03*
X0178512Y0057811D03*
X0178512Y0057535D03*
X0178512Y0057260D03*
X0178512Y0056984D03*
X0178512Y0056709D03*
X0192615Y0081413D03*
X0177329Y0110234D03*
X0171266Y0109959D03*
X0170715Y0113266D03*
X0157881Y0110785D03*
X0155833Y0111337D03*
X0147408Y0111337D03*
X0147408Y0111061D03*
X0135164Y0113541D03*
X0134180Y0112163D03*
X0134180Y0111888D03*
X0132133Y0113541D03*
X0130046Y0112163D03*
X0131148Y0111061D03*
X0128117Y0110785D03*
X0128117Y0110510D03*
X0128117Y0110234D03*
X0128117Y0111888D03*
X0128117Y0112163D03*
X0128117Y0112439D03*
X0126621Y0112715D03*
X0122054Y0112439D03*
X0122054Y0111061D03*
X0111740Y0120839D03*
X0111740Y0120917D03*
X0111740Y0121193D03*
X0111740Y0121272D03*
X0111740Y0121390D03*
X0111740Y0121665D03*
X0111740Y0121783D03*
X0111740Y0121862D03*
X0111740Y0122138D03*
X0111740Y0122217D03*
X0111740Y0122335D03*
X0111740Y0122610D03*
X0111740Y0122728D03*
X0111740Y0122807D03*
X0109614Y0122807D03*
X0109614Y0122728D03*
X0109614Y0122610D03*
X0109614Y0122335D03*
X0109614Y0122217D03*
X0109614Y0122138D03*
X0109614Y0123083D03*
X0109614Y0123201D03*
X0109614Y0123280D03*
X0107725Y0123280D03*
X0107725Y0123201D03*
X0105953Y0122138D03*
X0106071Y0121862D03*
X0106544Y0120917D03*
X0106544Y0120839D03*
X0106662Y0120720D03*
X0104772Y0121783D03*
X0104418Y0120917D03*
X0104299Y0120839D03*
X0104299Y0120720D03*
X0105481Y0123201D03*
D24*
X0111681Y0123201D03*
X0111681Y0123280D03*
X0113178Y0080030D03*
X0113178Y0079951D03*
D25*
X0109989Y0079557D03*
X0108808Y0079478D03*
X0108926Y0077589D03*
X0123924Y0059689D03*
X0123924Y0059138D03*
X0125026Y0059965D03*
X0125026Y0060240D03*
X0125302Y0059413D03*
X0125302Y0059138D03*
X0128609Y0059689D03*
X0129987Y0059689D03*
X0129987Y0059413D03*
X0129987Y0059138D03*
X0129987Y0058035D03*
X0129987Y0057760D03*
X0129987Y0057484D03*
X0131916Y0057484D03*
X0131916Y0059413D03*
X0131916Y0059689D03*
X0180225Y0057260D03*
X0180225Y0056984D03*
X0190745Y0080587D03*
X0190745Y0080862D03*
X0190745Y0081138D03*
X0190745Y0081413D03*
X0192674Y0081138D03*
X0192674Y0080862D03*
X0192674Y0080587D03*
X0182625Y0109407D03*
X0182900Y0110234D03*
X0183451Y0111337D03*
X0183727Y0111888D03*
X0183727Y0112163D03*
X0179042Y0111337D03*
X0179042Y0111061D03*
X0177940Y0111888D03*
X0176562Y0112163D03*
X0175184Y0112163D03*
X0175184Y0111888D03*
X0170774Y0111337D03*
X0170774Y0111061D03*
X0170774Y0110785D03*
X0169121Y0111061D03*
X0169121Y0111337D03*
X0167467Y0111337D03*
X0167467Y0111061D03*
X0165262Y0113541D03*
X0163885Y0112163D03*
X0163885Y0111888D03*
X0163885Y0111612D03*
X0163885Y0111337D03*
X0161404Y0111061D03*
X0161404Y0110785D03*
X0161404Y0110510D03*
X0161404Y0110234D03*
X0161404Y0112163D03*
X0161404Y0112439D03*
X0161404Y0112715D03*
X0161404Y0112990D03*
X0161404Y0113266D03*
X0159199Y0113266D03*
X0159199Y0112990D03*
X0159199Y0112715D03*
X0159199Y0112439D03*
X0159199Y0112163D03*
X0159199Y0111061D03*
X0159199Y0110785D03*
X0159199Y0110510D03*
X0159199Y0110234D03*
X0155892Y0112163D03*
X0143215Y0111337D03*
X0143215Y0111061D03*
X0138530Y0111061D03*
X0138530Y0110785D03*
X0138530Y0111337D03*
X0138530Y0111612D03*
X0138530Y0111888D03*
X0138530Y0112163D03*
X0138530Y0112439D03*
X0138530Y0112715D03*
X0138530Y0112990D03*
X0138530Y0113266D03*
X0136050Y0112163D03*
X0133018Y0112439D03*
X0133018Y0111061D03*
X0129987Y0111888D03*
X0129987Y0112439D03*
X0126955Y0111061D03*
X0125302Y0112715D03*
X0109555Y0120720D03*
X0109555Y0120839D03*
X0107784Y0123083D03*
X0106130Y0121783D03*
X0104949Y0122138D03*
X0104831Y0121862D03*
X0105422Y0123083D03*
X0170774Y0112990D03*
X0170774Y0112715D03*
D26*
X0111740Y0123083D03*
X0113237Y0079833D03*
D27*
X0107843Y0122945D03*
X0105481Y0122945D03*
D28*
X0104890Y0122000D03*
X0109614Y0122000D03*
X0109614Y0122472D03*
X0109614Y0122945D03*
X0111740Y0122472D03*
X0111740Y0122000D03*
X0111740Y0121528D03*
X0111740Y0121055D03*
X0109614Y0120583D03*
X0122054Y0112577D03*
X0122054Y0112301D03*
X0122054Y0111199D03*
X0122054Y0110923D03*
X0125243Y0112577D03*
X0128117Y0112577D03*
X0128117Y0112301D03*
X0128117Y0112026D03*
X0128117Y0110648D03*
X0128117Y0110372D03*
X0128117Y0110096D03*
X0130046Y0112301D03*
X0134180Y0112026D03*
X0138589Y0113404D03*
X0146463Y0110096D03*
X0159259Y0113404D03*
X0161463Y0113404D03*
X0167408Y0111199D03*
X0175125Y0112301D03*
X0177999Y0112301D03*
X0177329Y0110096D03*
X0181857Y0112301D03*
X0183786Y0112301D03*
X0182408Y0108994D03*
X0190804Y0081551D03*
X0192615Y0080449D03*
X0178512Y0058500D03*
X0178512Y0058224D03*
X0178512Y0057949D03*
X0178512Y0057673D03*
X0178512Y0057398D03*
X0178512Y0057122D03*
X0178512Y0056846D03*
X0131975Y0057346D03*
X0127841Y0057346D03*
X0125912Y0057346D03*
X0123983Y0059551D03*
X0124967Y0060654D03*
X0122054Y0059827D03*
X0122054Y0059551D03*
X0122054Y0059276D03*
X0122054Y0057898D03*
X0122054Y0057622D03*
X0122054Y0057346D03*
X0128825Y0060654D03*
X0113237Y0077805D03*
X0113237Y0078278D03*
X0113237Y0078750D03*
X0113237Y0079222D03*
X0111347Y0078278D03*
X0108867Y0077805D03*
X0108985Y0079222D03*
X0107331Y0079222D03*
X0107331Y0077805D03*
D29*
X0113178Y0079695D03*
X0111681Y0122945D03*
D30*
X0107902Y0122807D03*
X0107902Y0122728D03*
X0105422Y0122807D03*
X0107745Y0080305D03*
X0110107Y0079085D03*
X0111170Y0078415D03*
D31*
X0109378Y0121193D03*
X0109378Y0121272D03*
X0107961Y0122610D03*
X0105481Y0122728D03*
D32*
X0105422Y0122610D03*
X0109319Y0121390D03*
D33*
X0109260Y0121528D03*
X0105481Y0122472D03*
X0132054Y0113404D03*
X0135085Y0113404D03*
X0134810Y0110923D03*
X0110638Y0077333D03*
X0126818Y0059551D03*
X0178158Y0058776D03*
X0191709Y0082654D03*
D34*
X0108020Y0122472D03*
D35*
X0108138Y0122138D03*
X0109201Y0121783D03*
X0109201Y0121665D03*
X0105422Y0122335D03*
X0135026Y0111061D03*
X0152113Y0112715D03*
X0154160Y0111337D03*
X0165892Y0111612D03*
X0165892Y0111888D03*
X0110698Y0080030D03*
X0110816Y0078612D03*
X0126877Y0059413D03*
X0125932Y0058587D03*
X0127861Y0058587D03*
X0178099Y0058913D03*
D36*
X0178158Y0059465D03*
X0135361Y0111337D03*
X0132605Y0112163D03*
X0108079Y0122217D03*
X0108079Y0122335D03*
X0110402Y0078967D03*
X0110993Y0078533D03*
D37*
X0110520Y0078888D03*
X0110638Y0079951D03*
X0110638Y0077470D03*
X0126818Y0059138D03*
X0191709Y0082516D03*
X0170912Y0112439D03*
X0135085Y0113266D03*
X0109142Y0121862D03*
X0105481Y0122217D03*
D38*
X0106012Y0122000D03*
X0108610Y0122000D03*
X0125302Y0112301D03*
X0126955Y0110923D03*
X0129987Y0112026D03*
X0131365Y0112577D03*
X0133018Y0111199D03*
X0133018Y0110923D03*
X0136050Y0112301D03*
X0138530Y0112301D03*
X0138530Y0112026D03*
X0138530Y0111750D03*
X0138530Y0111474D03*
X0138530Y0111199D03*
X0138530Y0110923D03*
X0138530Y0112577D03*
X0138530Y0112852D03*
X0138530Y0113128D03*
X0143215Y0111474D03*
X0143215Y0111199D03*
X0146247Y0110648D03*
X0147349Y0111199D03*
X0155892Y0111199D03*
X0155892Y0112301D03*
X0159199Y0112301D03*
X0159199Y0112577D03*
X0159199Y0112852D03*
X0159199Y0113128D03*
X0159199Y0111199D03*
X0159199Y0110923D03*
X0159199Y0110648D03*
X0159199Y0110372D03*
X0159199Y0110096D03*
X0161404Y0110096D03*
X0161404Y0110372D03*
X0161404Y0110648D03*
X0161404Y0110923D03*
X0161404Y0111199D03*
X0161404Y0112301D03*
X0161404Y0112577D03*
X0161404Y0112852D03*
X0161404Y0113128D03*
X0163885Y0112026D03*
X0163885Y0111750D03*
X0163885Y0111474D03*
X0167467Y0111474D03*
X0167467Y0110923D03*
X0169121Y0110923D03*
X0169121Y0111199D03*
X0169121Y0111474D03*
X0170774Y0111474D03*
X0170774Y0111199D03*
X0170774Y0110923D03*
X0170774Y0112577D03*
X0170774Y0112852D03*
X0170774Y0113128D03*
X0175184Y0112026D03*
X0176562Y0112026D03*
X0177940Y0112026D03*
X0177940Y0111750D03*
X0179042Y0111199D03*
X0182073Y0111750D03*
X0183451Y0111474D03*
X0183727Y0112026D03*
X0182900Y0110096D03*
X0182625Y0109545D03*
X0190745Y0081276D03*
X0190745Y0081000D03*
X0190745Y0080724D03*
X0190745Y0080449D03*
X0192674Y0080724D03*
X0192674Y0081000D03*
X0192674Y0081276D03*
X0180776Y0058500D03*
X0180225Y0057398D03*
X0180225Y0057122D03*
X0180225Y0056846D03*
X0131916Y0057622D03*
X0131916Y0059276D03*
X0131916Y0059551D03*
X0129987Y0059551D03*
X0129987Y0059276D03*
X0129987Y0059827D03*
X0128885Y0060378D03*
X0128609Y0059827D03*
X0128609Y0059551D03*
X0129987Y0057898D03*
X0129987Y0057622D03*
X0129987Y0057346D03*
X0125302Y0059276D03*
X0125026Y0060102D03*
X0123924Y0059276D03*
X0109989Y0079222D03*
D39*
X0108099Y0079557D03*
X0108099Y0078612D03*
X0122822Y0060516D03*
X0180144Y0110234D03*
X0145144Y0113266D03*
X0128885Y0113266D03*
X0122822Y0111612D03*
X0105422Y0121665D03*
D40*
X0105481Y0121528D03*
X0128944Y0113128D03*
X0132133Y0112852D03*
X0132133Y0110372D03*
X0142329Y0110648D03*
X0142329Y0111750D03*
X0145203Y0111199D03*
X0145203Y0113128D03*
X0157211Y0113128D03*
X0165322Y0113128D03*
X0168353Y0111750D03*
X0168353Y0110648D03*
X0180085Y0110372D03*
X0180085Y0112026D03*
X0180560Y0060154D03*
X0130755Y0060378D03*
X0122881Y0060378D03*
D41*
X0105481Y0121272D03*
D42*
X0105422Y0121193D03*
D43*
X0109437Y0121055D03*
D44*
X0109496Y0120917D03*
X0110638Y0077195D03*
D45*
X0109930Y0078022D03*
X0107331Y0077195D03*
X0113237Y0077195D03*
X0111740Y0120445D03*
X0109614Y0120445D03*
X0107607Y0120445D03*
X0104299Y0120445D03*
D46*
X0106603Y0120445D03*
X0111170Y0079478D03*
X0108926Y0077195D03*
D47*
X0113054Y0130303D03*
X0113172Y0130303D03*
X0113251Y0130303D03*
X0113526Y0130303D03*
X0113605Y0130303D03*
X0113723Y0130303D03*
X0113999Y0130303D03*
X0114117Y0130303D03*
X0114196Y0130303D03*
X0114471Y0130303D03*
X0114550Y0130303D03*
X0114668Y0130303D03*
X0114944Y0130303D03*
X0115062Y0130303D03*
X0115140Y0130303D03*
X0115416Y0130303D03*
X0115534Y0130303D03*
X0115613Y0130303D03*
X0115888Y0132075D03*
X0115062Y0132783D03*
X0114944Y0132783D03*
X0114668Y0133846D03*
X0114550Y0133846D03*
X0114471Y0133846D03*
X0114196Y0133846D03*
X0114117Y0133846D03*
X0113999Y0133846D03*
X0113723Y0133965D03*
X0113526Y0132783D03*
X0113526Y0131366D03*
X0113605Y0131366D03*
X0113723Y0131366D03*
X0113999Y0136091D03*
X0114117Y0136091D03*
X0114196Y0136091D03*
X0114471Y0136091D03*
X0114550Y0136091D03*
X0114668Y0136091D03*
X0114196Y0137154D03*
X0114117Y0137154D03*
X0113999Y0137154D03*
X0113723Y0137154D03*
X0113605Y0137154D03*
X0113526Y0137154D03*
X0113251Y0137154D03*
X0113172Y0137154D03*
X0113054Y0137154D03*
X0113723Y0138453D03*
X0113723Y0139752D03*
X0113605Y0139752D03*
X0113526Y0139752D03*
X0113251Y0139752D03*
X0113172Y0139752D03*
X0113054Y0139752D03*
X0113999Y0139752D03*
X0114117Y0139752D03*
X0114196Y0139752D03*
X0115613Y0139752D03*
X0114668Y0141303D03*
X0114550Y0141303D03*
X0114471Y0141185D03*
X0114196Y0141185D03*
X0113999Y0141303D03*
X0113723Y0143429D03*
X0113999Y0143547D03*
X0114117Y0143547D03*
X0114196Y0143547D03*
X0114471Y0143547D03*
X0114550Y0143547D03*
X0114668Y0143547D03*
X0113723Y0144492D03*
X0113605Y0144492D03*
X0113526Y0144610D03*
X0114944Y0146028D03*
X0115140Y0145909D03*
X0115888Y0145319D03*
X0115613Y0147091D03*
X0115534Y0147091D03*
X0115416Y0147091D03*
X0115140Y0147091D03*
X0115062Y0147091D03*
X0114944Y0147091D03*
X0114668Y0147091D03*
X0114550Y0147091D03*
X0114471Y0147091D03*
X0114196Y0147091D03*
X0114117Y0147091D03*
X0113999Y0147091D03*
X0113723Y0147091D03*
X0113605Y0147091D03*
X0113526Y0147091D03*
X0113251Y0147091D03*
X0113172Y0147091D03*
X0113054Y0147091D03*
X0113054Y0148154D03*
X0113172Y0148154D03*
X0113251Y0148154D03*
X0113526Y0148154D03*
X0113605Y0148154D03*
X0113723Y0148154D03*
X0113999Y0148154D03*
X0114117Y0148154D03*
X0114196Y0148154D03*
X0113723Y0149453D03*
X0113723Y0150752D03*
X0113605Y0150752D03*
X0113526Y0150752D03*
X0113251Y0150752D03*
X0113172Y0150752D03*
X0113054Y0150752D03*
X0113999Y0150752D03*
X0114117Y0150752D03*
X0114196Y0150752D03*
X0115613Y0150752D03*
X0115613Y0148154D03*
X0115613Y0153687D03*
X0115534Y0153687D03*
X0115416Y0153687D03*
X0115140Y0153687D03*
X0115062Y0153687D03*
X0114944Y0153687D03*
X0113723Y0153687D03*
X0113605Y0153687D03*
X0113526Y0153687D03*
X0113251Y0153687D03*
X0113172Y0153687D03*
X0113054Y0153687D03*
X0113723Y0156522D03*
X0113999Y0156640D03*
X0114117Y0156640D03*
X0114196Y0156640D03*
X0114471Y0156640D03*
X0114550Y0156640D03*
X0113723Y0157585D03*
X0113605Y0157585D03*
X0113526Y0157703D03*
X0114944Y0159120D03*
X0115140Y0159002D03*
X0115888Y0158411D03*
X0113093Y0164315D03*
X0112542Y0164315D03*
X0116125Y0166953D03*
X0115180Y0175012D03*
X0113920Y0175012D03*
X0114471Y0178240D03*
X0114747Y0178240D03*
X0114668Y0183096D03*
X0114550Y0183096D03*
X0114471Y0183096D03*
X0114196Y0183096D03*
X0114117Y0183096D03*
X0113999Y0183096D03*
X0113723Y0183096D03*
X0113605Y0183096D03*
X0113526Y0183096D03*
X0113251Y0183096D03*
X0113172Y0183096D03*
X0114944Y0183096D03*
X0115062Y0183096D03*
X0115140Y0183096D03*
X0113723Y0184986D03*
X0113605Y0184986D03*
X0113526Y0184986D03*
X0113526Y0186404D03*
X0113054Y0187348D03*
X0113251Y0187467D03*
X0113526Y0187585D03*
X0114471Y0187467D03*
X0114550Y0187348D03*
X0114668Y0187348D03*
X0114944Y0187467D03*
X0114944Y0186404D03*
X0115062Y0186404D03*
X0115888Y0185695D03*
X0115062Y0189002D03*
X0114944Y0189002D03*
X0114668Y0189002D03*
X0114550Y0189002D03*
X0114471Y0189002D03*
X0113526Y0189002D03*
X0113251Y0189002D03*
X0113172Y0189002D03*
X0113054Y0189002D03*
X0113605Y0192311D03*
X0113723Y0192311D03*
X0113526Y0192429D03*
X0114944Y0192429D03*
X0115062Y0192429D03*
X0115888Y0193138D03*
X0115062Y0193846D03*
X0115416Y0194909D03*
X0115534Y0194909D03*
X0115140Y0195028D03*
X0114944Y0195146D03*
X0114668Y0195264D03*
X0114550Y0195264D03*
X0114471Y0195382D03*
X0114196Y0195500D03*
X0114117Y0195500D03*
X0113999Y0195618D03*
X0113999Y0196563D03*
X0114117Y0196563D03*
X0114196Y0196681D03*
X0114471Y0196799D03*
X0114550Y0196799D03*
X0114668Y0196917D03*
X0114944Y0197035D03*
X0115062Y0197035D03*
X0115140Y0197154D03*
X0115416Y0197272D03*
X0115534Y0197272D03*
X0115613Y0197272D03*
X0115062Y0198335D03*
X0114944Y0198335D03*
X0115888Y0199043D03*
X0115062Y0199752D03*
X0113723Y0199870D03*
X0113605Y0199870D03*
X0113526Y0198335D03*
X0113605Y0198217D03*
X0113723Y0198217D03*
X0113054Y0196091D03*
X0113605Y0193965D03*
X0113723Y0193965D03*
X0113999Y0202089D03*
X0114550Y0202089D03*
X0114668Y0202089D03*
X0114668Y0203978D03*
X0114550Y0203978D03*
X0114471Y0203978D03*
X0114196Y0203978D03*
X0114117Y0203978D03*
X0113999Y0203978D03*
X0113723Y0203978D03*
X0113605Y0203978D03*
X0114196Y0205041D03*
X0114471Y0205041D03*
X0114550Y0205041D03*
X0114668Y0205041D03*
X0114944Y0205041D03*
X0115062Y0205041D03*
X0115140Y0205041D03*
X0115416Y0205041D03*
X0115534Y0205041D03*
X0115062Y0203978D03*
X0114944Y0203978D03*
X0115613Y0207049D03*
X0114196Y0207049D03*
X0114117Y0207049D03*
X0113999Y0207049D03*
X0113723Y0207049D03*
X0113605Y0207049D03*
X0113526Y0207049D03*
X0113251Y0207049D03*
X0113172Y0207049D03*
X0113054Y0207049D03*
X0113605Y0208112D03*
X0113723Y0208112D03*
X0113723Y0210002D03*
X0113999Y0210120D03*
X0114117Y0210120D03*
X0114196Y0210120D03*
X0114471Y0210120D03*
X0114550Y0210120D03*
X0114668Y0210120D03*
X0115888Y0208939D03*
X0190304Y0207049D03*
X0190422Y0207049D03*
X0190501Y0207049D03*
X0190776Y0207049D03*
X0190855Y0207049D03*
X0190973Y0207049D03*
X0191249Y0207049D03*
X0191367Y0207049D03*
X0191446Y0207049D03*
X0190973Y0208112D03*
X0190855Y0208112D03*
X0190973Y0210002D03*
X0191249Y0210120D03*
X0191367Y0210120D03*
X0191446Y0210120D03*
X0191721Y0210120D03*
X0191800Y0210120D03*
X0191918Y0210120D03*
X0193138Y0208939D03*
X0192863Y0207049D03*
X0192784Y0205041D03*
X0192666Y0205041D03*
X0192390Y0205041D03*
X0192312Y0205041D03*
X0192194Y0205041D03*
X0191918Y0205041D03*
X0191800Y0205041D03*
X0191721Y0205041D03*
X0191446Y0205041D03*
X0191446Y0203978D03*
X0191367Y0203978D03*
X0191249Y0203978D03*
X0190973Y0203978D03*
X0190855Y0203978D03*
X0191721Y0203978D03*
X0191800Y0203978D03*
X0191918Y0203978D03*
X0192194Y0203978D03*
X0192312Y0203978D03*
X0191918Y0202089D03*
X0191800Y0202089D03*
X0191249Y0202089D03*
X0190068Y0198177D03*
X0193375Y0177703D03*
X0192272Y0175341D03*
X0191721Y0167071D03*
X0191446Y0167071D03*
X0191170Y0167071D03*
X0190894Y0167071D03*
X0190619Y0167071D03*
X0190343Y0167071D03*
X0190068Y0167071D03*
X0189792Y0167071D03*
X0192272Y0165850D03*
X0193375Y0165024D03*
X0193099Y0167071D03*
X0193375Y0154866D03*
X0192272Y0146372D03*
X0191170Y0146372D03*
X0190894Y0144994D03*
X0192194Y0128870D03*
X0192390Y0128752D03*
X0193138Y0128161D03*
X0191800Y0126390D03*
X0191721Y0126390D03*
X0191446Y0126390D03*
X0191367Y0126390D03*
X0191249Y0126390D03*
X0190973Y0126272D03*
X0190973Y0127335D03*
X0190855Y0127335D03*
X0190776Y0127453D03*
X0190776Y0123437D03*
X0190855Y0123437D03*
X0190973Y0123437D03*
X0191249Y0123437D03*
X0191367Y0123437D03*
X0191446Y0123437D03*
X0191721Y0123437D03*
X0191800Y0123437D03*
X0191918Y0123437D03*
X0192194Y0123437D03*
X0192312Y0123437D03*
X0192390Y0123437D03*
X0192666Y0123437D03*
X0192784Y0123437D03*
X0192863Y0123437D03*
X0192312Y0118752D03*
X0193138Y0118161D03*
X0192312Y0116272D03*
X0192194Y0116272D03*
X0191918Y0116272D03*
X0191800Y0116272D03*
X0191721Y0116272D03*
X0191446Y0116272D03*
X0191367Y0116272D03*
X0191249Y0116272D03*
X0190973Y0116272D03*
X0190855Y0116272D03*
X0190855Y0117335D03*
X0190973Y0117335D03*
X0191249Y0114382D03*
X0191367Y0114382D03*
X0191446Y0114382D03*
X0191721Y0114382D03*
X0191800Y0114382D03*
X0191918Y0114382D03*
X0191446Y0113083D03*
X0191721Y0112965D03*
X0192784Y0112492D03*
X0191367Y0111783D03*
X0190422Y0111311D03*
X0190304Y0111311D03*
X0190422Y0113555D03*
X0190501Y0113555D03*
X0190304Y0113673D03*
X0115613Y0137154D03*
D48*
X0115534Y0137213D03*
X0114944Y0135913D03*
X0113723Y0136031D03*
X0113605Y0135913D03*
X0113605Y0134024D03*
X0114944Y0134024D03*
X0115140Y0132724D03*
X0115534Y0139693D03*
X0114944Y0141362D03*
X0113723Y0141362D03*
X0113605Y0141480D03*
X0113605Y0143370D03*
X0114944Y0143370D03*
X0115062Y0143252D03*
X0113526Y0145969D03*
X0115534Y0148213D03*
X0115534Y0150693D03*
X0115534Y0152093D03*
X0113054Y0152093D03*
X0114944Y0156463D03*
X0114668Y0156581D03*
X0113526Y0159061D03*
X0113369Y0164256D03*
X0114747Y0167839D03*
X0115022Y0167839D03*
X0115140Y0186344D03*
X0115062Y0187526D03*
X0113172Y0187407D03*
X0113999Y0192488D03*
X0113526Y0193906D03*
X0115062Y0195087D03*
X0113999Y0198394D03*
X0113526Y0199811D03*
X0113723Y0202148D03*
X0113605Y0202266D03*
X0114944Y0202266D03*
X0115888Y0203565D03*
X0114196Y0206045D03*
X0113054Y0205100D03*
X0113526Y0208171D03*
X0113605Y0209943D03*
X0114944Y0209943D03*
X0115534Y0206990D03*
X0190304Y0205100D03*
X0191446Y0206045D03*
X0192784Y0206990D03*
X0190776Y0208171D03*
X0190855Y0209943D03*
X0192194Y0209943D03*
X0193138Y0203565D03*
X0192194Y0202266D03*
X0190973Y0202148D03*
X0190855Y0202266D03*
X0190068Y0195756D03*
X0193099Y0195756D03*
X0193099Y0193276D03*
X0192272Y0178589D03*
X0191997Y0178589D03*
X0190894Y0175557D03*
X0190894Y0173628D03*
X0189792Y0165634D03*
X0191170Y0164256D03*
X0192272Y0164256D03*
X0191721Y0157012D03*
X0191446Y0157012D03*
X0191170Y0157012D03*
X0190894Y0157012D03*
X0190619Y0157012D03*
X0190343Y0157012D03*
X0190068Y0157012D03*
X0192272Y0155634D03*
X0193099Y0157012D03*
X0190894Y0153980D03*
X0192272Y0136813D03*
X0192548Y0136813D03*
X0190776Y0128811D03*
X0191918Y0126331D03*
X0192194Y0126213D03*
X0192390Y0118693D03*
X0190776Y0118811D03*
X0190776Y0117394D03*
X0190973Y0114559D03*
X0192194Y0114559D03*
X0191367Y0113142D03*
X0191721Y0111961D03*
X0191446Y0111843D03*
X0190501Y0111370D03*
X0192666Y0112433D03*
D49*
X0193001Y0118102D03*
X0193001Y0128102D03*
X0115751Y0134969D03*
X0115751Y0145260D03*
X0114333Y0153392D03*
X0115751Y0158352D03*
X0114806Y0206754D03*
X0114333Y0208526D03*
X0115751Y0208998D03*
X0191583Y0208526D03*
X0193001Y0208998D03*
X0192056Y0206754D03*
D50*
X0193001Y0207049D03*
X0115751Y0207049D03*
X0113861Y0199870D03*
X0115751Y0197272D03*
X0115751Y0194909D03*
X0113861Y0193965D03*
X0115751Y0153687D03*
X0115751Y0152152D03*
X0115751Y0150752D03*
X0115751Y0139752D03*
X0193001Y0123437D03*
X0193001Y0112492D03*
D51*
X0190166Y0113614D03*
X0190166Y0111252D03*
X0193237Y0167012D03*
X0191032Y0175557D03*
X0193237Y0195756D03*
X0193001Y0205100D03*
X0190166Y0205100D03*
X0115751Y0205100D03*
X0112916Y0205100D03*
X0112916Y0189061D03*
X0112916Y0187407D03*
X0112916Y0183156D03*
X0113349Y0175071D03*
X0112916Y0152093D03*
X0115751Y0148213D03*
X0115751Y0147031D03*
X0115751Y0137213D03*
X0115751Y0130244D03*
D52*
X0112916Y0134969D03*
X0112916Y0142425D03*
X0112916Y0155400D03*
X0113507Y0167209D03*
X0113625Y0177394D03*
X0113861Y0196031D03*
X0115751Y0203447D03*
X0190808Y0184350D03*
X0190757Y0177959D03*
X0191308Y0174100D03*
X0192410Y0167484D03*
X0192410Y0157366D03*
X0190166Y0125150D03*
X0193001Y0203447D03*
D53*
X0192863Y0208998D03*
X0115613Y0208998D03*
X0113054Y0199102D03*
X0113054Y0193197D03*
X0115534Y0158352D03*
X0115534Y0145260D03*
X0113054Y0134969D03*
X0190304Y0118102D03*
X0192666Y0118102D03*
X0192784Y0118102D03*
X0192784Y0128102D03*
D54*
X0192390Y0127630D03*
X0192312Y0128811D03*
X0190776Y0124559D03*
X0190855Y0118811D03*
X0192194Y0118811D03*
X0192390Y0117630D03*
X0192863Y0112433D03*
X0189792Y0157012D03*
X0191721Y0178589D03*
X0191721Y0202030D03*
X0191446Y0202030D03*
X0191367Y0202030D03*
X0192863Y0205100D03*
X0115613Y0205100D03*
X0114471Y0202030D03*
X0114196Y0202030D03*
X0114117Y0202030D03*
X0114944Y0199693D03*
X0115613Y0194850D03*
X0114944Y0193787D03*
X0115140Y0185163D03*
X0113054Y0183156D03*
X0114471Y0167839D03*
X0115062Y0159061D03*
X0115140Y0157880D03*
X0113526Y0154809D03*
X0115613Y0152093D03*
X0115062Y0145969D03*
X0115140Y0144787D03*
X0115888Y0142425D03*
X0114117Y0141244D03*
X0115888Y0134969D03*
X0115140Y0131543D03*
D55*
X0115416Y0132075D03*
X0113172Y0132075D03*
X0113054Y0142366D03*
X0115534Y0142366D03*
X0115416Y0145319D03*
X0113172Y0145319D03*
X0113054Y0155459D03*
X0113172Y0158411D03*
X0115416Y0158411D03*
X0115416Y0185695D03*
X0113172Y0185695D03*
X0115613Y0188411D03*
X0115416Y0193138D03*
X0113172Y0193138D03*
X0113172Y0199043D03*
X0115416Y0199043D03*
X0115613Y0203388D03*
X0113054Y0208939D03*
X0190304Y0208939D03*
X0192863Y0203388D03*
X0192666Y0128161D03*
X0190422Y0128161D03*
X0190304Y0125209D03*
X0190422Y0118161D03*
X0192863Y0115681D03*
D56*
X0192784Y0115622D03*
X0190304Y0115622D03*
X0190501Y0118102D03*
X0190028Y0122669D03*
X0192784Y0125150D03*
X0115534Y0134969D03*
X0113172Y0134969D03*
X0113251Y0132134D03*
X0115534Y0155400D03*
X0114471Y0174520D03*
X0115731Y0177315D03*
X0113251Y0185754D03*
X0113999Y0188352D03*
X0115534Y0188352D03*
X0113054Y0203329D03*
X0115534Y0208998D03*
X0190304Y0203329D03*
X0192784Y0208998D03*
D57*
X0190422Y0208939D03*
X0190422Y0203270D03*
X0192784Y0203270D03*
X0115534Y0203270D03*
X0113172Y0203270D03*
X0113251Y0199043D03*
X0115140Y0199043D03*
X0115140Y0193138D03*
X0113251Y0193138D03*
X0113605Y0188293D03*
X0113723Y0188293D03*
X0114117Y0188293D03*
X0115416Y0188293D03*
X0114196Y0174461D03*
X0112936Y0174461D03*
X0115455Y0174303D03*
X0115731Y0174303D03*
X0113251Y0158411D03*
X0113172Y0155459D03*
X0115416Y0155459D03*
X0113251Y0145319D03*
X0113172Y0142366D03*
X0115416Y0142366D03*
X0190501Y0128161D03*
X0190422Y0125209D03*
X0192666Y0125209D03*
X0190501Y0122728D03*
X0190422Y0122728D03*
X0190304Y0122728D03*
X0190422Y0115563D03*
X0192666Y0115563D03*
X0113172Y0208939D03*
D58*
X0113251Y0208998D03*
X0115140Y0209116D03*
X0115416Y0208998D03*
X0115416Y0203211D03*
X0113251Y0203211D03*
X0114196Y0188234D03*
X0115140Y0188234D03*
X0115455Y0177315D03*
X0113369Y0167012D03*
X0113251Y0155518D03*
X0113251Y0134969D03*
X0115416Y0134969D03*
X0190501Y0125268D03*
X0190501Y0115504D03*
X0191249Y0112433D03*
X0190619Y0177762D03*
X0192599Y0188012D03*
X0192666Y0203211D03*
X0190501Y0203211D03*
X0190501Y0208998D03*
X0192390Y0209116D03*
X0192666Y0208998D03*
D59*
X0192312Y0209884D03*
X0190776Y0209766D03*
X0192666Y0206931D03*
X0190422Y0205159D03*
X0115416Y0206931D03*
X0113172Y0205159D03*
X0113526Y0209766D03*
X0115062Y0209884D03*
X0113251Y0196091D03*
X0113172Y0196091D03*
X0112778Y0185695D03*
X0114668Y0158884D03*
X0112778Y0158411D03*
X0113605Y0156404D03*
X0113723Y0152624D03*
X0113605Y0152506D03*
X0113526Y0152388D03*
X0113251Y0152270D03*
X0113172Y0152152D03*
X0114944Y0152624D03*
X0115062Y0152506D03*
X0115140Y0152388D03*
X0115416Y0152152D03*
X0115416Y0150634D03*
X0113999Y0149453D03*
X0115416Y0148272D03*
X0114668Y0145791D03*
X0112778Y0145319D03*
X0113526Y0143193D03*
X0115062Y0141539D03*
X0115416Y0139634D03*
X0113999Y0138453D03*
X0115416Y0137272D03*
X0115062Y0135854D03*
X0115062Y0134083D03*
X0112778Y0132075D03*
X0190028Y0128161D03*
X0191918Y0128634D03*
X0190855Y0126154D03*
X0191918Y0118634D03*
X0193138Y0115917D03*
X0190855Y0114618D03*
D60*
X0192528Y0115504D03*
X0192528Y0125268D03*
X0190757Y0135986D03*
X0190481Y0145762D03*
X0191308Y0145762D03*
X0192686Y0165083D03*
X0192528Y0209116D03*
X0115278Y0209116D03*
X0114333Y0188234D03*
X0113349Y0177315D03*
X0115593Y0177315D03*
X0113073Y0174520D03*
X0115278Y0155518D03*
D61*
X0115278Y0152270D03*
X0115278Y0206931D03*
X0192528Y0206931D03*
X0192528Y0112492D03*
D62*
X0191583Y0111902D03*
X0191583Y0114382D03*
X0192056Y0114500D03*
X0192056Y0116272D03*
X0191583Y0116272D03*
X0191111Y0116272D03*
X0192056Y0118752D03*
X0192056Y0123437D03*
X0192528Y0123437D03*
X0191583Y0123437D03*
X0191111Y0123437D03*
X0191111Y0126272D03*
X0191583Y0126390D03*
X0192056Y0126272D03*
X0192056Y0128752D03*
X0193237Y0135376D03*
X0192410Y0146372D03*
X0193237Y0156953D03*
X0189930Y0156953D03*
X0192135Y0165850D03*
X0192410Y0165850D03*
X0191583Y0167071D03*
X0191308Y0167071D03*
X0191032Y0167071D03*
X0190757Y0167071D03*
X0190481Y0167071D03*
X0190205Y0167071D03*
X0189930Y0167071D03*
X0189430Y0183110D03*
X0189430Y0185591D03*
X0189430Y0186693D03*
X0192737Y0183110D03*
X0193237Y0193217D03*
X0189930Y0193217D03*
X0189930Y0195815D03*
X0189930Y0198177D03*
X0191583Y0201970D03*
X0191111Y0202089D03*
X0191111Y0203978D03*
X0191583Y0203978D03*
X0192056Y0203978D03*
X0192056Y0205041D03*
X0192528Y0205041D03*
X0191583Y0205041D03*
X0191583Y0206104D03*
X0191583Y0207049D03*
X0191111Y0207049D03*
X0190638Y0207049D03*
X0190166Y0207049D03*
X0191111Y0208112D03*
X0191583Y0210120D03*
X0115278Y0205041D03*
X0114806Y0205041D03*
X0114333Y0205041D03*
X0114333Y0203978D03*
X0113861Y0203978D03*
X0114806Y0203978D03*
X0114333Y0201970D03*
X0113861Y0202089D03*
X0114333Y0206104D03*
X0114333Y0207049D03*
X0113861Y0207049D03*
X0113388Y0207049D03*
X0112916Y0207049D03*
X0113861Y0208112D03*
X0114333Y0210120D03*
X0114806Y0198335D03*
X0115278Y0197154D03*
X0114806Y0196917D03*
X0114333Y0196681D03*
X0114333Y0195382D03*
X0112916Y0196091D03*
X0114806Y0192429D03*
X0114806Y0189002D03*
X0113388Y0189002D03*
X0113388Y0187467D03*
X0114806Y0187348D03*
X0113861Y0184986D03*
X0113861Y0183096D03*
X0114333Y0183096D03*
X0114806Y0183096D03*
X0113388Y0183096D03*
X0114609Y0178240D03*
X0116144Y0177256D03*
X0115042Y0175012D03*
X0112680Y0164315D03*
X0114806Y0159002D03*
X0114333Y0156640D03*
X0113861Y0156522D03*
X0114806Y0156522D03*
X0115278Y0153687D03*
X0113388Y0153687D03*
X0112916Y0153687D03*
X0112916Y0150752D03*
X0113388Y0150752D03*
X0113861Y0150752D03*
X0114333Y0150752D03*
X0113861Y0149453D03*
X0113861Y0148154D03*
X0114333Y0148154D03*
X0113388Y0148154D03*
X0112916Y0148154D03*
X0112916Y0147091D03*
X0113388Y0147091D03*
X0113861Y0147091D03*
X0114333Y0147091D03*
X0114806Y0147091D03*
X0115278Y0147091D03*
X0114806Y0145909D03*
X0114333Y0143547D03*
X0114806Y0143429D03*
X0114333Y0141185D03*
X0113861Y0141303D03*
X0113861Y0139752D03*
X0114333Y0139752D03*
X0113388Y0139752D03*
X0112916Y0139752D03*
X0113861Y0138453D03*
X0113861Y0137154D03*
X0114333Y0137154D03*
X0113388Y0137154D03*
X0112916Y0137154D03*
X0113861Y0136091D03*
X0114333Y0136091D03*
X0114333Y0133846D03*
X0113861Y0133846D03*
X0113861Y0131366D03*
X0113861Y0130303D03*
X0114333Y0130303D03*
X0114806Y0130303D03*
X0115278Y0130303D03*
X0113388Y0130303D03*
X0112916Y0130303D03*
D63*
X0115278Y0142366D03*
X0113388Y0155577D03*
X0115436Y0166953D03*
X0115278Y0203152D03*
X0113388Y0203152D03*
X0190638Y0203152D03*
X0192528Y0203152D03*
X0192461Y0187953D03*
X0190532Y0187953D03*
X0192686Y0177703D03*
X0191859Y0165024D03*
X0191308Y0154866D03*
X0190481Y0154866D03*
X0190638Y0125327D03*
X0190638Y0115445D03*
X0191111Y0112492D03*
D64*
X0192390Y0112433D03*
X0192312Y0114677D03*
X0190028Y0118102D03*
X0190028Y0125150D03*
X0190776Y0125976D03*
X0192312Y0126094D03*
X0191249Y0127630D03*
X0115140Y0137331D03*
X0113526Y0135795D03*
X0112778Y0134969D03*
X0113526Y0134142D03*
X0114668Y0132606D03*
X0113999Y0131543D03*
X0115140Y0139575D03*
X0113526Y0141598D03*
X0113999Y0144787D03*
X0115140Y0148331D03*
X0115140Y0150575D03*
X0112778Y0155400D03*
X0113526Y0156226D03*
X0115062Y0156344D03*
X0113999Y0157880D03*
X0113999Y0185163D03*
X0114668Y0186226D03*
X0115888Y0188589D03*
X0112778Y0193197D03*
X0112778Y0199102D03*
X0115062Y0202384D03*
X0113251Y0205219D03*
X0115140Y0206872D03*
X0113999Y0208289D03*
X0190501Y0205219D03*
X0192390Y0206872D03*
X0191249Y0208289D03*
X0192312Y0202384D03*
D65*
X0192390Y0203152D03*
X0190894Y0194437D03*
X0190394Y0184370D03*
X0189792Y0177545D03*
X0192548Y0177703D03*
X0190343Y0154866D03*
X0192390Y0125327D03*
X0192390Y0115445D03*
X0190776Y0115445D03*
X0115140Y0155577D03*
X0115298Y0163921D03*
X0115298Y0166953D03*
X0112542Y0166795D03*
X0113251Y0142366D03*
X0115140Y0203152D03*
D66*
X0115062Y0208289D03*
X0112778Y0196031D03*
X0112778Y0187407D03*
X0115062Y0185163D03*
X0112778Y0152093D03*
X0112660Y0134969D03*
X0115062Y0131543D03*
X0190028Y0113614D03*
X0192312Y0208289D03*
D67*
X0191800Y0208467D03*
X0191721Y0208467D03*
X0192312Y0206813D03*
X0190776Y0205278D03*
X0190028Y0208939D03*
X0115062Y0206813D03*
X0114550Y0208467D03*
X0114471Y0208467D03*
X0112778Y0208939D03*
X0113526Y0205278D03*
X0114471Y0198807D03*
X0114550Y0198689D03*
X0114196Y0198689D03*
X0113526Y0196091D03*
X0114471Y0192902D03*
X0114550Y0192783D03*
X0114196Y0192783D03*
X0115062Y0150516D03*
X0114117Y0149453D03*
X0115062Y0148390D03*
X0112778Y0142366D03*
X0115062Y0139516D03*
X0114117Y0138453D03*
X0115062Y0137390D03*
X0191249Y0117571D03*
X0192312Y0112492D03*
D68*
X0192194Y0112433D03*
X0114944Y0137449D03*
X0114196Y0138512D03*
X0114944Y0139457D03*
X0114944Y0148449D03*
X0114196Y0149512D03*
X0114944Y0150457D03*
X0114668Y0192724D03*
X0114117Y0192724D03*
X0113605Y0196031D03*
X0114117Y0198630D03*
X0114668Y0198630D03*
X0113605Y0205337D03*
X0114944Y0206754D03*
X0114196Y0208407D03*
X0114117Y0208407D03*
X0190855Y0205337D03*
X0192194Y0206754D03*
X0191446Y0208407D03*
X0191367Y0208407D03*
D69*
X0191111Y0210061D03*
X0192056Y0210061D03*
X0192056Y0202148D03*
X0189981Y0186909D03*
X0191859Y0178589D03*
X0192135Y0178589D03*
X0190757Y0175557D03*
X0190757Y0173628D03*
X0192135Y0164256D03*
X0192410Y0164256D03*
X0191583Y0157012D03*
X0191308Y0157012D03*
X0191032Y0157012D03*
X0190757Y0157012D03*
X0190481Y0157012D03*
X0190205Y0157012D03*
X0192135Y0155634D03*
X0192410Y0155634D03*
X0190757Y0153980D03*
X0192135Y0136813D03*
X0192410Y0136813D03*
X0191111Y0127394D03*
X0191111Y0117394D03*
X0191111Y0114441D03*
X0191583Y0113024D03*
X0114806Y0132724D03*
X0114806Y0133906D03*
X0114806Y0136031D03*
X0114806Y0141362D03*
X0113861Y0143488D03*
X0113861Y0144551D03*
X0113388Y0152329D03*
X0113861Y0157644D03*
X0114885Y0163429D03*
X0113507Y0164256D03*
X0113231Y0164256D03*
X0114609Y0167839D03*
X0114885Y0167839D03*
X0114806Y0186344D03*
X0113861Y0192370D03*
X0115278Y0194969D03*
X0114806Y0195205D03*
X0113861Y0198276D03*
X0114806Y0202148D03*
X0114806Y0210061D03*
X0113861Y0210061D03*
D70*
X0114668Y0206695D03*
X0113723Y0205396D03*
X0112778Y0203506D03*
X0115613Y0199043D03*
X0113723Y0196091D03*
X0115613Y0193138D03*
X0114550Y0185931D03*
X0114117Y0185341D03*
X0113487Y0177610D03*
X0116007Y0177335D03*
X0114550Y0158648D03*
X0114117Y0158057D03*
X0114196Y0153333D03*
X0114471Y0153333D03*
X0114668Y0150398D03*
X0114668Y0148508D03*
X0114550Y0145555D03*
X0114117Y0144965D03*
X0114668Y0139398D03*
X0114668Y0137508D03*
X0114550Y0132311D03*
X0114117Y0131720D03*
X0190028Y0115799D03*
X0191367Y0117807D03*
X0191367Y0127807D03*
X0191800Y0128398D03*
X0193375Y0145624D03*
X0192548Y0167425D03*
X0191721Y0174317D03*
X0191721Y0194516D03*
X0191446Y0194516D03*
X0190028Y0203506D03*
X0190973Y0205396D03*
X0191918Y0206695D03*
D71*
X0191800Y0206636D03*
X0191249Y0205455D03*
X0190894Y0177841D03*
X0191997Y0174100D03*
X0191997Y0167484D03*
X0190068Y0165437D03*
X0191997Y0157366D03*
X0191997Y0146116D03*
X0192863Y0128102D03*
X0191800Y0118339D03*
X0192863Y0118102D03*
X0191918Y0112433D03*
X0115613Y0132016D03*
X0114196Y0131898D03*
X0115613Y0134969D03*
X0114550Y0137567D03*
X0114550Y0139339D03*
X0115613Y0145260D03*
X0114550Y0148567D03*
X0114550Y0150339D03*
X0114550Y0153274D03*
X0114117Y0153274D03*
X0115613Y0158352D03*
X0113644Y0167091D03*
X0114196Y0185518D03*
X0115613Y0185636D03*
X0113999Y0205455D03*
X0114550Y0206636D03*
D72*
X0114471Y0206577D03*
X0114117Y0205514D03*
X0115534Y0199043D03*
X0115534Y0193138D03*
X0114471Y0185813D03*
X0115534Y0185695D03*
X0113054Y0185695D03*
X0115849Y0166874D03*
X0114471Y0158411D03*
X0114196Y0158175D03*
X0113054Y0158411D03*
X0115613Y0155459D03*
X0114668Y0153215D03*
X0113999Y0153215D03*
X0114471Y0145319D03*
X0114196Y0145083D03*
X0113054Y0145319D03*
X0115613Y0142366D03*
X0114471Y0132193D03*
X0115534Y0132075D03*
X0113054Y0132075D03*
X0190304Y0128161D03*
X0191446Y0127925D03*
X0191721Y0128161D03*
X0192863Y0125209D03*
X0191721Y0118161D03*
X0191446Y0117925D03*
X0191800Y0112492D03*
X0193099Y0154945D03*
X0192272Y0157425D03*
X0190619Y0164945D03*
X0193099Y0174593D03*
X0193099Y0177624D03*
X0191367Y0205514D03*
X0191721Y0206577D03*
D73*
X0191111Y0205396D03*
X0191032Y0177624D03*
X0191583Y0174317D03*
X0193237Y0174593D03*
X0191859Y0167425D03*
X0189930Y0165496D03*
X0190166Y0128161D03*
X0190166Y0118161D03*
X0192056Y0112492D03*
X0114806Y0137508D03*
X0114333Y0138453D03*
X0114806Y0139398D03*
X0112916Y0145319D03*
X0114806Y0148508D03*
X0114333Y0149453D03*
X0114806Y0150398D03*
X0112916Y0158411D03*
X0113782Y0166874D03*
X0114058Y0176902D03*
X0112916Y0185695D03*
X0112916Y0193138D03*
X0112916Y0199043D03*
X0113861Y0205396D03*
X0112916Y0132075D03*
D74*
X0115140Y0134969D03*
X0115573Y0163980D03*
X0115849Y0163980D03*
X0115888Y0183156D03*
X0113526Y0203093D03*
X0190776Y0203093D03*
X0190973Y0112433D03*
D75*
X0115278Y0134969D03*
X0113388Y0134969D03*
X0113388Y0142425D03*
X0115436Y0163980D03*
X0115711Y0163980D03*
X0115987Y0163980D03*
X0113388Y0208998D03*
X0190638Y0208998D03*
D76*
X0190638Y0205219D03*
X0115278Y0150575D03*
X0115278Y0148331D03*
X0115278Y0139575D03*
X0115278Y0137331D03*
X0113388Y0196031D03*
X0113388Y0205219D03*
D77*
X0112916Y0208939D03*
X0115751Y0188530D03*
X0114333Y0158293D03*
X0114333Y0145201D03*
X0189930Y0145900D03*
X0189930Y0154945D03*
X0192135Y0157425D03*
X0189930Y0174593D03*
X0191308Y0194516D03*
X0191859Y0194516D03*
X0190166Y0208939D03*
X0191583Y0128043D03*
X0191583Y0118043D03*
X0193001Y0115799D03*
D78*
X0190166Y0115740D03*
X0115278Y0132134D03*
X0114333Y0132016D03*
X0113861Y0153156D03*
X0114806Y0153156D03*
X0114333Y0185636D03*
X0115278Y0185754D03*
X0112916Y0203447D03*
X0190166Y0203447D03*
D79*
X0190028Y0205041D03*
X0190028Y0207049D03*
X0115888Y0155459D03*
X0115062Y0154750D03*
X0112778Y0153687D03*
X0112778Y0150752D03*
X0113605Y0149453D03*
X0112778Y0148154D03*
X0112778Y0147091D03*
X0113605Y0146028D03*
X0112778Y0139752D03*
X0113605Y0138453D03*
X0112778Y0137154D03*
X0113605Y0132783D03*
X0112778Y0130303D03*
X0113605Y0159120D03*
X0112778Y0183096D03*
X0113605Y0186404D03*
X0112778Y0189002D03*
X0112778Y0205041D03*
X0112778Y0207049D03*
X0190855Y0128870D03*
X0193138Y0125209D03*
X0192312Y0124500D03*
X0190028Y0111311D03*
D80*
X0189910Y0118102D03*
X0189910Y0125150D03*
X0189910Y0128102D03*
X0115888Y0152093D03*
X0112660Y0155400D03*
X0112660Y0158352D03*
X0112660Y0145260D03*
X0115888Y0194969D03*
X0115888Y0197213D03*
X0112660Y0208998D03*
X0189910Y0208998D03*
D81*
X0115751Y0199043D03*
X0114333Y0198807D03*
X0115751Y0193138D03*
X0114333Y0192902D03*
X0115751Y0185695D03*
X0115751Y0155459D03*
X0115751Y0142366D03*
X0115751Y0132075D03*
X0193001Y0125209D03*
D82*
X0192528Y0128161D03*
X0190638Y0122846D03*
X0192528Y0118161D03*
X0115278Y0145319D03*
X0115278Y0158411D03*
X0115278Y0193138D03*
X0115278Y0199043D03*
D83*
X0114806Y0199693D03*
X0114806Y0193787D03*
D84*
X0113388Y0193138D03*
X0115278Y0188293D03*
X0113388Y0185695D03*
X0114333Y0174461D03*
X0115593Y0174303D03*
X0113388Y0158411D03*
X0113388Y0145319D03*
X0113388Y0132075D03*
X0190166Y0122728D03*
X0190638Y0118161D03*
X0190638Y0128161D03*
X0113388Y0199043D03*
D85*
X0112660Y0199043D03*
X0112660Y0193138D03*
X0113723Y0186404D03*
X0113723Y0159120D03*
X0115062Y0157821D03*
X0114944Y0154750D03*
X0113605Y0154750D03*
X0113723Y0146028D03*
X0115062Y0144728D03*
X0112660Y0142366D03*
X0113723Y0132783D03*
X0190973Y0128870D03*
X0192312Y0127571D03*
X0192194Y0124500D03*
X0190855Y0124500D03*
X0190973Y0118870D03*
X0192312Y0117571D03*
D86*
X0190638Y0112492D03*
X0112798Y0177177D03*
X0115751Y0183096D03*
D87*
X0115613Y0183156D03*
X0115534Y0183156D03*
D88*
X0115416Y0183096D03*
X0112936Y0177177D03*
D89*
X0115278Y0183156D03*
D90*
X0113861Y0188352D03*
X0112798Y0174520D03*
X0115869Y0174244D03*
D91*
X0116144Y0174244D03*
D92*
X0116007Y0174323D03*
D93*
X0115869Y0177315D03*
X0190205Y0165358D03*
X0192135Y0167563D03*
X0191359Y0184429D03*
D94*
X0115318Y0177315D03*
D95*
X0115318Y0174382D03*
X0115711Y0166874D03*
X0191583Y0154945D03*
X0192961Y0154945D03*
X0192961Y0174593D03*
X0192961Y0177624D03*
D96*
X0115180Y0178083D03*
X0114471Y0176547D03*
D97*
X0114747Y0176350D03*
X0115180Y0176469D03*
X0113920Y0173673D03*
X0113487Y0173673D03*
X0114747Y0166047D03*
X0115022Y0166047D03*
X0113644Y0164118D03*
X0112818Y0164394D03*
X0190619Y0173766D03*
X0192272Y0173766D03*
X0193375Y0174593D03*
X0192272Y0176797D03*
X0191997Y0176797D03*
X0192599Y0185669D03*
X0191772Y0186772D03*
X0191497Y0186772D03*
X0191497Y0188701D03*
X0191772Y0188701D03*
X0191221Y0188701D03*
X0190119Y0188701D03*
X0189843Y0188701D03*
X0189568Y0188701D03*
X0189568Y0186772D03*
X0189568Y0185669D03*
X0190343Y0198098D03*
X0190619Y0198098D03*
X0190894Y0198098D03*
X0191170Y0198098D03*
X0191446Y0198098D03*
X0191721Y0198098D03*
X0191997Y0198098D03*
X0192272Y0198098D03*
X0192548Y0198098D03*
X0192548Y0165772D03*
X0190894Y0155772D03*
X0190619Y0154118D03*
X0191170Y0154118D03*
X0192272Y0154118D03*
X0191170Y0145073D03*
X0190619Y0145073D03*
X0191721Y0136951D03*
X0191997Y0136951D03*
X0192823Y0136675D03*
X0193099Y0136675D03*
X0193099Y0135297D03*
X0192823Y0135297D03*
X0192548Y0135297D03*
X0192272Y0135297D03*
X0191997Y0135297D03*
X0191721Y0135297D03*
X0190619Y0135297D03*
X0190343Y0135297D03*
X0190068Y0135297D03*
D98*
X0190205Y0135297D03*
X0189930Y0135297D03*
X0190481Y0135297D03*
X0191859Y0135297D03*
X0192135Y0135297D03*
X0192410Y0135297D03*
X0192686Y0135297D03*
X0192961Y0135297D03*
X0192961Y0136675D03*
X0192686Y0136675D03*
X0191859Y0136951D03*
X0191032Y0145073D03*
X0190757Y0145073D03*
X0191032Y0154118D03*
X0192410Y0154118D03*
X0191032Y0155772D03*
X0190757Y0155772D03*
X0191032Y0164394D03*
X0192135Y0173766D03*
X0192410Y0173766D03*
X0192410Y0175419D03*
X0192135Y0176797D03*
X0191859Y0176797D03*
X0192410Y0178451D03*
X0191635Y0186772D03*
X0191359Y0186772D03*
X0189705Y0186772D03*
X0189705Y0188701D03*
X0189430Y0188701D03*
X0189981Y0188701D03*
X0191359Y0188701D03*
X0191635Y0188701D03*
X0191910Y0188701D03*
X0191859Y0198098D03*
X0192135Y0198098D03*
X0192410Y0198098D03*
X0191583Y0198098D03*
X0191308Y0198098D03*
X0191032Y0198098D03*
X0190757Y0198098D03*
X0190481Y0198098D03*
X0190205Y0198098D03*
X0115042Y0178161D03*
X0114885Y0178161D03*
X0115042Y0176469D03*
X0114885Y0176350D03*
X0114609Y0176469D03*
X0113782Y0173673D03*
X0113349Y0173673D03*
X0115160Y0167701D03*
X0114885Y0166047D03*
X0114609Y0166047D03*
X0112955Y0164394D03*
X0115160Y0163291D03*
D99*
X0114885Y0174953D03*
X0114333Y0176606D03*
X0189981Y0183327D03*
X0190257Y0183602D03*
X0191910Y0183602D03*
X0192186Y0183327D03*
X0192961Y0193276D03*
X0192686Y0195480D03*
X0190757Y0195205D03*
X0190481Y0195480D03*
X0190481Y0193551D03*
X0190205Y0193276D03*
X0192135Y0146313D03*
D100*
X0114747Y0174736D03*
D101*
X0114609Y0174598D03*
D102*
X0114196Y0176764D03*
X0189843Y0183327D03*
X0190119Y0185256D03*
X0189843Y0185531D03*
X0192048Y0185256D03*
X0192323Y0185531D03*
X0192548Y0193551D03*
X0192272Y0193827D03*
X0192272Y0195205D03*
X0192823Y0167287D03*
D103*
X0114058Y0174382D03*
D104*
X0113920Y0177039D03*
D105*
X0113782Y0177256D03*
D106*
X0113782Y0174953D03*
X0191032Y0146313D03*
D107*
X0113625Y0173614D03*
D108*
X0113487Y0175169D03*
X0191721Y0167898D03*
X0193375Y0156953D03*
X0193375Y0136754D03*
X0193375Y0135376D03*
D109*
X0113211Y0177256D03*
X0112660Y0177256D03*
D110*
X0113211Y0174382D03*
D111*
X0113073Y0177256D03*
D112*
X0112660Y0174520D03*
X0192272Y0167563D03*
X0193099Y0165083D03*
D113*
X0190481Y0174593D03*
X0190257Y0187874D03*
X0190808Y0187874D03*
X0191583Y0136124D03*
X0112522Y0177177D03*
D114*
X0112522Y0174461D03*
X0114058Y0166520D03*
X0115987Y0166953D03*
X0191083Y0184370D03*
X0193237Y0177703D03*
X0191308Y0177270D03*
X0192686Y0167346D03*
X0193237Y0165024D03*
X0192686Y0157228D03*
X0193237Y0154866D03*
D115*
X0192875Y0183130D03*
X0189292Y0183130D03*
X0189292Y0185610D03*
X0189792Y0193197D03*
X0112385Y0174441D03*
D116*
X0116125Y0164039D03*
X0190343Y0165299D03*
X0191721Y0154866D03*
X0190670Y0184370D03*
X0191170Y0194437D03*
D117*
X0192823Y0177683D03*
X0190068Y0174652D03*
X0192823Y0165004D03*
X0192823Y0154886D03*
X0191446Y0145841D03*
X0192823Y0145683D03*
X0115573Y0166933D03*
D118*
X0115160Y0166106D03*
X0114333Y0166264D03*
X0113782Y0164059D03*
X0114058Y0163902D03*
X0114333Y0163783D03*
X0114609Y0163626D03*
X0190757Y0164610D03*
X0192961Y0167209D03*
X0191032Y0173707D03*
X0191583Y0177014D03*
X0192410Y0176856D03*
X0192461Y0183130D03*
X0192461Y0185610D03*
X0191910Y0186831D03*
X0189705Y0185610D03*
X0192410Y0195283D03*
X0192961Y0195677D03*
X0190205Y0195677D03*
X0192961Y0157091D03*
X0192135Y0154177D03*
D119*
X0192548Y0154177D03*
X0192548Y0155555D03*
X0191170Y0155713D03*
X0190619Y0155713D03*
X0191997Y0164335D03*
X0192548Y0164335D03*
X0191997Y0165713D03*
X0190894Y0164453D03*
X0191170Y0173825D03*
X0190619Y0175478D03*
X0191721Y0176856D03*
X0192599Y0183130D03*
X0191772Y0185059D03*
X0191221Y0186831D03*
X0190119Y0186988D03*
X0189843Y0186831D03*
X0189568Y0183130D03*
X0190068Y0193197D03*
X0190619Y0193630D03*
X0192823Y0193354D03*
X0115022Y0163350D03*
X0114747Y0163508D03*
X0114471Y0163626D03*
X0114196Y0163902D03*
X0113920Y0164059D03*
X0114471Y0166106D03*
D120*
X0114196Y0166323D03*
X0190119Y0183465D03*
X0191772Y0183740D03*
X0192048Y0183465D03*
X0192323Y0183189D03*
X0192875Y0188150D03*
X0190343Y0193413D03*
X0190619Y0195343D03*
X0190343Y0195618D03*
X0192548Y0195343D03*
X0192823Y0195618D03*
X0191446Y0177073D03*
X0192823Y0157150D03*
D121*
X0192548Y0157287D03*
X0191446Y0174179D03*
X0191170Y0177486D03*
X0191221Y0184429D03*
X0113920Y0166736D03*
D122*
X0113231Y0166815D03*
X0112680Y0166815D03*
X0189930Y0177565D03*
X0190481Y0177565D03*
X0191083Y0187815D03*
X0192186Y0187815D03*
X0191308Y0136183D03*
X0191032Y0136183D03*
D123*
X0190343Y0177624D03*
X0190068Y0177624D03*
X0113093Y0166874D03*
X0112818Y0166874D03*
D124*
X0112955Y0166874D03*
X0190205Y0177624D03*
D125*
X0115140Y0142366D03*
X0190855Y0112492D03*
D126*
X0114471Y0138453D03*
X0114471Y0149453D03*
X0192823Y0198098D03*
D127*
X0193375Y0198177D03*
D128*
X0193375Y0195756D03*
X0193375Y0193276D03*
X0189792Y0195756D03*
D129*
X0193237Y0198098D03*
D130*
X0193099Y0198177D03*
D131*
X0192961Y0198177D03*
D132*
X0192686Y0198157D03*
D133*
X0191583Y0194516D03*
X0190757Y0193689D03*
X0192410Y0193689D03*
X0192686Y0193413D03*
X0192186Y0185394D03*
X0191910Y0185118D03*
X0190257Y0185118D03*
X0189981Y0185394D03*
X0189705Y0183189D03*
D134*
X0190205Y0174593D03*
X0192686Y0174593D03*
X0192686Y0154945D03*
X0190205Y0154945D03*
X0192135Y0194516D03*
D135*
X0191997Y0194516D03*
X0190068Y0154945D03*
X0190068Y0145900D03*
X0191721Y0145900D03*
X0193099Y0145624D03*
D136*
X0192961Y0145683D03*
X0192686Y0145683D03*
X0191583Y0145841D03*
X0190205Y0145841D03*
X0191859Y0154886D03*
X0191583Y0164886D03*
X0191635Y0184350D03*
X0190532Y0184350D03*
X0191032Y0194457D03*
D137*
X0189792Y0198098D03*
X0189292Y0188701D03*
X0189292Y0186772D03*
X0190619Y0146451D03*
X0189792Y0135297D03*
D138*
X0192875Y0185669D03*
D139*
X0192737Y0188071D03*
X0190481Y0165142D03*
X0191308Y0164748D03*
X0191859Y0145978D03*
X0193237Y0145703D03*
D140*
X0193237Y0136675D03*
X0192737Y0185669D03*
D141*
X0192323Y0187874D03*
X0190670Y0187874D03*
X0190394Y0187874D03*
X0190343Y0174593D03*
X0192548Y0174593D03*
X0190894Y0136124D03*
D142*
X0191170Y0136183D03*
X0191446Y0136183D03*
X0190946Y0187815D03*
X0192048Y0187815D03*
D143*
X0191497Y0184429D03*
X0191446Y0164807D03*
X0192548Y0145762D03*
D144*
X0189792Y0145821D03*
X0189792Y0154866D03*
X0189792Y0174671D03*
X0190946Y0184370D03*
D145*
X0192823Y0174593D03*
X0191721Y0164945D03*
X0191446Y0154945D03*
X0191997Y0154945D03*
X0190343Y0145900D03*
D146*
X0189654Y0145841D03*
X0192135Y0175360D03*
D147*
X0191859Y0174179D03*
X0191859Y0157287D03*
D148*
X0189654Y0154945D03*
X0189654Y0174593D03*
D149*
X0193375Y0167012D03*
X0191170Y0165083D03*
X0191721Y0157839D03*
X0142251Y0109821D03*
D150*
X0192961Y0165083D03*
D151*
X0190757Y0146530D03*
D152*
X0190776Y0112433D03*
D153*
X0173392Y0112301D03*
X0154101Y0110648D03*
X0125991Y0110096D03*
X0125715Y0112026D03*
X0107804Y0080167D03*
X0191709Y0079346D03*
D154*
X0110638Y0080167D03*
D155*
X0110638Y0079833D03*
X0110638Y0077589D03*
X0107922Y0080030D03*
D156*
X0107981Y0079951D03*
X0107981Y0078415D03*
X0110579Y0077667D03*
D157*
X0108040Y0078022D03*
X0108040Y0078140D03*
X0108040Y0078533D03*
X0108040Y0079833D03*
D158*
X0108040Y0079695D03*
X0110638Y0077805D03*
D159*
X0110698Y0078750D03*
X0110579Y0079695D03*
D160*
X0108099Y0078750D03*
X0122822Y0058449D03*
X0148451Y0110372D03*
X0148451Y0112026D03*
X0128885Y0111199D03*
X0122822Y0111750D03*
D161*
X0107981Y0078278D03*
D162*
X0109930Y0078140D03*
D163*
X0144455Y0109959D03*
X0146385Y0109959D03*
X0149140Y0109959D03*
X0149140Y0112439D03*
X0152448Y0109959D03*
X0168156Y0109959D03*
X0168156Y0112439D03*
X0179731Y0112439D03*
X0180833Y0112439D03*
X0180833Y0109959D03*
X0179731Y0109959D03*
X0191709Y0082791D03*
D164*
X0191709Y0082378D03*
X0191709Y0079622D03*
X0170912Y0111750D03*
X0170912Y0112026D03*
X0170912Y0112301D03*
X0148589Y0112301D03*
X0148589Y0110096D03*
X0135085Y0113128D03*
X0128747Y0113404D03*
X0130676Y0060654D03*
X0122684Y0060654D03*
D165*
X0132113Y0110234D03*
X0132113Y0112990D03*
X0123018Y0113541D03*
X0122743Y0111888D03*
X0122743Y0111337D03*
X0148530Y0112163D03*
X0148530Y0110234D03*
X0168491Y0110234D03*
X0168491Y0112163D03*
X0173333Y0110510D03*
X0173451Y0110234D03*
X0191650Y0082240D03*
D166*
X0191709Y0082102D03*
X0191709Y0079898D03*
X0173392Y0110372D03*
X0173392Y0112026D03*
X0168432Y0112026D03*
X0168432Y0110372D03*
X0139219Y0110648D03*
X0135085Y0112852D03*
X0125991Y0112852D03*
X0125991Y0110372D03*
D167*
X0128944Y0111337D03*
X0132133Y0110510D03*
X0132133Y0112715D03*
X0139416Y0109959D03*
X0142329Y0110510D03*
X0142329Y0111888D03*
X0148392Y0111888D03*
X0148392Y0110510D03*
X0165322Y0110234D03*
X0168353Y0110510D03*
X0168353Y0111888D03*
X0173314Y0111061D03*
X0191631Y0081965D03*
X0180560Y0059465D03*
X0122881Y0058587D03*
X0122881Y0110785D03*
D168*
X0126877Y0111199D03*
X0129908Y0112577D03*
X0132940Y0112577D03*
X0134318Y0112577D03*
X0143136Y0110923D03*
X0146325Y0112577D03*
X0149081Y0111474D03*
X0149081Y0110923D03*
X0152388Y0113128D03*
X0179121Y0111474D03*
X0179121Y0110923D03*
X0180774Y0110923D03*
X0180774Y0111474D03*
X0182979Y0110372D03*
X0190942Y0081827D03*
X0192477Y0081827D03*
X0181249Y0059327D03*
X0181131Y0059051D03*
X0180973Y0058776D03*
X0180579Y0058224D03*
X0180422Y0057949D03*
X0178375Y0059878D03*
X0131837Y0059827D03*
X0127861Y0057898D03*
X0127861Y0057622D03*
X0125932Y0057622D03*
X0125932Y0057898D03*
X0126877Y0060102D03*
X0123845Y0059827D03*
D169*
X0124888Y0060516D03*
X0125164Y0059689D03*
X0128471Y0059413D03*
X0128471Y0059138D03*
X0128747Y0059965D03*
X0128747Y0060240D03*
X0131778Y0058035D03*
X0180363Y0057811D03*
X0181190Y0059189D03*
X0190883Y0080311D03*
X0190883Y0081689D03*
X0192536Y0081689D03*
X0192536Y0080311D03*
X0182487Y0109132D03*
X0182762Y0109959D03*
X0183589Y0111612D03*
X0178077Y0112163D03*
X0177802Y0111612D03*
X0175873Y0110234D03*
X0175322Y0111612D03*
X0174219Y0111612D03*
X0172566Y0110785D03*
X0166227Y0111061D03*
X0155755Y0111612D03*
X0155755Y0111888D03*
X0152448Y0111888D03*
X0152448Y0111612D03*
X0152448Y0111337D03*
X0152448Y0111061D03*
X0152448Y0110785D03*
X0152448Y0110510D03*
X0152448Y0110234D03*
X0149140Y0111061D03*
X0149140Y0111337D03*
X0146385Y0112163D03*
X0146385Y0112439D03*
X0144455Y0112439D03*
X0144455Y0112163D03*
X0144455Y0111888D03*
X0144455Y0110785D03*
X0144455Y0110510D03*
X0144455Y0110234D03*
X0146385Y0110234D03*
X0141424Y0111061D03*
X0141424Y0111337D03*
X0135912Y0112439D03*
X0134259Y0112439D03*
X0126818Y0110785D03*
X0125164Y0112439D03*
X0125991Y0113541D03*
X0152448Y0113266D03*
D170*
X0152448Y0111750D03*
X0152448Y0111474D03*
X0152448Y0111199D03*
X0152448Y0110923D03*
X0152448Y0110648D03*
X0152448Y0110372D03*
X0152448Y0110096D03*
X0149140Y0111199D03*
X0147487Y0111474D03*
X0147487Y0110923D03*
X0146385Y0110372D03*
X0146385Y0112026D03*
X0146385Y0112301D03*
X0144455Y0112301D03*
X0144455Y0112026D03*
X0144455Y0112577D03*
X0144455Y0110648D03*
X0144455Y0110372D03*
X0144455Y0110096D03*
X0141424Y0110923D03*
X0141424Y0111199D03*
X0141424Y0111474D03*
X0135912Y0112026D03*
X0135912Y0112577D03*
X0134259Y0112301D03*
X0132881Y0112301D03*
X0131227Y0110923D03*
X0155755Y0111474D03*
X0155755Y0111750D03*
X0155755Y0112026D03*
X0164022Y0112301D03*
X0164022Y0111199D03*
X0166227Y0111199D03*
X0166227Y0110923D03*
X0172566Y0111474D03*
X0174219Y0111474D03*
X0175322Y0111750D03*
X0175873Y0110372D03*
X0177251Y0110372D03*
X0180833Y0111199D03*
X0181936Y0112026D03*
X0182211Y0111474D03*
X0183589Y0111750D03*
X0182762Y0109821D03*
X0182487Y0109270D03*
X0192536Y0081551D03*
X0192536Y0080173D03*
X0190883Y0080173D03*
X0180363Y0057673D03*
X0131778Y0057898D03*
X0128471Y0059276D03*
X0128747Y0060102D03*
X0126818Y0060378D03*
X0125164Y0059827D03*
X0125164Y0059551D03*
X0124888Y0060378D03*
D171*
X0126877Y0060240D03*
X0125932Y0057760D03*
X0127861Y0057760D03*
X0131837Y0057760D03*
X0131837Y0059138D03*
X0180304Y0057535D03*
X0180579Y0058087D03*
X0180698Y0058362D03*
X0180855Y0058638D03*
X0180973Y0058913D03*
X0190942Y0080035D03*
X0192477Y0080035D03*
X0182703Y0109683D03*
X0182270Y0111337D03*
X0182152Y0111612D03*
X0181995Y0111888D03*
X0180774Y0111337D03*
X0180774Y0111061D03*
X0177310Y0110510D03*
X0175814Y0110510D03*
X0176640Y0111888D03*
X0172625Y0111612D03*
X0170696Y0111612D03*
X0166168Y0110785D03*
X0164081Y0111061D03*
X0164081Y0112439D03*
X0155971Y0112439D03*
X0155971Y0111061D03*
X0146325Y0110510D03*
X0146168Y0110785D03*
X0146325Y0111888D03*
X0143018Y0111612D03*
X0143018Y0110785D03*
X0142310Y0109959D03*
X0141483Y0110785D03*
X0141483Y0111612D03*
X0135853Y0111888D03*
X0132940Y0110785D03*
X0131286Y0110785D03*
X0125223Y0110785D03*
D172*
X0125991Y0112990D03*
X0135085Y0112990D03*
X0135085Y0110785D03*
X0157133Y0110234D03*
X0173392Y0111888D03*
X0191709Y0079760D03*
X0130676Y0060516D03*
D173*
X0122684Y0058311D03*
X0125991Y0110234D03*
X0126266Y0111612D03*
X0125991Y0111888D03*
X0128747Y0111061D03*
X0157133Y0113266D03*
X0170912Y0112163D03*
X0170912Y0111888D03*
X0173392Y0112163D03*
X0191709Y0079484D03*
D174*
X0191709Y0079209D03*
X0175873Y0110785D03*
X0145007Y0113541D03*
X0142251Y0112439D03*
X0135636Y0111612D03*
X0132881Y0111337D03*
X0125991Y0109959D03*
X0125440Y0112163D03*
X0126818Y0059965D03*
D175*
X0157959Y0110923D03*
X0191709Y0079071D03*
D176*
X0178296Y0059740D03*
X0130538Y0060791D03*
X0122546Y0060791D03*
X0152310Y0112990D03*
X0128609Y0113541D03*
X0176562Y0111612D03*
X0182900Y0110510D03*
D177*
X0171542Y0111612D03*
X0158038Y0112439D03*
X0125085Y0060791D03*
X0177686Y0058638D03*
D178*
X0128747Y0060791D03*
X0175873Y0109959D03*
X0125164Y0111061D03*
D179*
X0132113Y0109821D03*
X0166010Y0112577D03*
X0174160Y0110648D03*
X0126877Y0060654D03*
D180*
X0122959Y0060240D03*
X0122959Y0058862D03*
X0125991Y0110510D03*
X0129022Y0111612D03*
X0129022Y0112990D03*
X0135085Y0112715D03*
X0145282Y0112990D03*
X0145282Y0111337D03*
X0145282Y0111061D03*
X0148314Y0110785D03*
X0148314Y0111612D03*
X0157133Y0112990D03*
X0173392Y0111337D03*
X0180007Y0111612D03*
X0180007Y0111888D03*
X0180007Y0110785D03*
X0180007Y0110510D03*
D181*
X0180007Y0110648D03*
X0180007Y0111750D03*
X0173392Y0111750D03*
X0157133Y0110372D03*
X0148314Y0110648D03*
X0148314Y0111750D03*
X0145282Y0111474D03*
X0145282Y0110923D03*
X0129022Y0111474D03*
X0129022Y0112852D03*
X0125991Y0110648D03*
X0122959Y0060102D03*
X0122959Y0058724D03*
D182*
X0123018Y0059000D03*
X0130892Y0058724D03*
X0130892Y0060102D03*
X0180579Y0059878D03*
X0135144Y0110096D03*
X0135144Y0110648D03*
X0132113Y0110648D03*
X0129081Y0111750D03*
X0123018Y0110648D03*
X0123018Y0110096D03*
X0123018Y0112852D03*
X0123018Y0113404D03*
X0145341Y0112852D03*
X0145341Y0111750D03*
X0157073Y0110648D03*
X0157073Y0112852D03*
X0165184Y0112852D03*
D183*
X0165066Y0112715D03*
X0157073Y0110510D03*
X0145341Y0111612D03*
X0145341Y0112715D03*
X0135144Y0110510D03*
X0129081Y0112715D03*
X0123018Y0112715D03*
X0123018Y0113266D03*
X0123018Y0110510D03*
X0123018Y0109959D03*
X0123018Y0059965D03*
X0130892Y0059965D03*
X0130892Y0058862D03*
X0180579Y0059740D03*
X0180579Y0060016D03*
D184*
X0178237Y0059602D03*
X0127841Y0058173D03*
X0126896Y0059827D03*
X0125912Y0058173D03*
X0171109Y0110372D03*
X0170991Y0110648D03*
X0165873Y0112026D03*
X0152251Y0112852D03*
X0132408Y0111750D03*
D185*
X0132133Y0109959D03*
X0126621Y0111337D03*
X0156227Y0110785D03*
X0157211Y0109959D03*
X0164377Y0110785D03*
X0165322Y0109959D03*
X0166030Y0111337D03*
X0171109Y0110234D03*
X0173471Y0112439D03*
X0177329Y0110785D03*
X0126896Y0059689D03*
X0127841Y0058311D03*
X0127841Y0058035D03*
X0125912Y0058035D03*
X0125912Y0058311D03*
D186*
X0125932Y0058449D03*
X0126877Y0059276D03*
X0127861Y0058724D03*
X0127861Y0058449D03*
X0178099Y0059327D03*
X0142310Y0110096D03*
X0142310Y0112301D03*
X0135144Y0111199D03*
X0132546Y0111474D03*
X0132546Y0112026D03*
X0126050Y0113404D03*
X0152113Y0112026D03*
X0157192Y0113404D03*
X0165892Y0111750D03*
X0165892Y0111474D03*
D187*
X0126877Y0059000D03*
D188*
X0130951Y0059000D03*
D189*
X0126877Y0058862D03*
D190*
X0125853Y0058724D03*
X0122546Y0058173D03*
X0178020Y0059051D03*
X0182900Y0110923D03*
X0165262Y0113404D03*
X0152034Y0112577D03*
X0152034Y0112301D03*
X0128609Y0110923D03*
X0126404Y0111474D03*
D191*
X0139357Y0110372D03*
X0139357Y0110096D03*
X0165262Y0110372D03*
X0173255Y0111199D03*
X0180501Y0059602D03*
X0130814Y0058449D03*
X0130814Y0058173D03*
D192*
X0127861Y0057209D03*
X0125932Y0057209D03*
X0122073Y0057209D03*
X0128136Y0109959D03*
X0177310Y0109959D03*
X0178018Y0112439D03*
X0181877Y0112439D03*
D193*
X0166089Y0112439D03*
X0161404Y0113541D03*
X0159199Y0113541D03*
X0138530Y0113541D03*
X0178572Y0060291D03*
D194*
X0180560Y0060291D03*
X0142329Y0110234D03*
X0142329Y0112163D03*
X0132133Y0113266D03*
X0126070Y0113266D03*
X0122605Y0112163D03*
X0154180Y0111061D03*
X0154180Y0110785D03*
D195*
X0152034Y0112163D03*
X0152034Y0112439D03*
X0182900Y0111061D03*
X0178020Y0059189D03*
D196*
X0173471Y0110096D03*
X0165322Y0110096D03*
X0157211Y0110096D03*
X0154180Y0110923D03*
X0154180Y0111199D03*
X0145085Y0113404D03*
X0132133Y0110096D03*
X0182841Y0111199D03*
D197*
X0175873Y0110096D03*
X0157959Y0112577D03*
X0152448Y0113404D03*
X0131227Y0111199D03*
X0125164Y0110923D03*
D198*
X0126070Y0109821D03*
X0142329Y0112577D03*
X0157211Y0109821D03*
X0165322Y0109821D03*
X0170715Y0113404D03*
X0173471Y0112577D03*
D199*
X0165262Y0113266D03*
D200*
X0176562Y0110923D03*
X0135223Y0110372D03*
X0123097Y0110372D03*
X0123097Y0113128D03*
D201*
X0122743Y0112026D03*
X0122743Y0111474D03*
X0126050Y0113128D03*
X0132113Y0113128D03*
X0142310Y0112026D03*
X0142310Y0110372D03*
X0173176Y0110923D03*
D202*
X0165262Y0110510D03*
X0156995Y0112715D03*
X0135223Y0110234D03*
X0123097Y0110234D03*
X0123097Y0112990D03*
D203*
X0126680Y0112577D03*
X0131365Y0112301D03*
D204*
X0135774Y0111750D03*
X0156168Y0112577D03*
X0164160Y0112577D03*
X0164160Y0110923D03*
X0172703Y0110648D03*
X0176562Y0111750D03*
D205*
X0176562Y0112439D03*
D206*
X0180144Y0112301D03*
X0180144Y0110096D03*
X0168570Y0110096D03*
X0168570Y0112301D03*
X0126129Y0111750D03*
D207*
X0180696Y0112163D03*
D208*
X0176562Y0111199D03*
X0160302Y0111474D03*
X0160302Y0111750D03*
X0160302Y0112026D03*
D209*
X0171050Y0110510D03*
X0173530Y0109959D03*
X0182900Y0110785D03*
X0132467Y0111612D03*
X0132467Y0111888D03*
D210*
X0160302Y0111888D03*
X0160302Y0111612D03*
X0160302Y0111337D03*
X0176562Y0111337D03*
D211*
X0182900Y0110648D03*
X0135499Y0111474D03*
D212*
X0176640Y0111474D03*
D213*
X0176621Y0111061D03*
D214*
X0177251Y0110648D03*
X0175873Y0110648D03*
X0171188Y0110096D03*
X0156030Y0110923D03*
D215*
X0165203Y0110648D03*
D216*
X0117908Y0123843D03*
X0114759Y0123843D03*
D217*
X0114837Y0123843D03*
X0117829Y0123843D03*
D218*
X0117751Y0123843D03*
X0114916Y0123843D03*
D219*
X0114995Y0123843D03*
X0117672Y0123843D03*
D220*
X0117593Y0123843D03*
X0115073Y0123843D03*
D221*
X0115152Y0123843D03*
X0117514Y0123843D03*
D222*
X0117436Y0123843D03*
X0115231Y0123843D03*
D223*
X0115310Y0123843D03*
D224*
X0115388Y0120142D03*
X0115467Y0120142D03*
X0117042Y0127622D03*
X0117121Y0127622D03*
D225*
X0116648Y0123134D03*
X0116570Y0123134D03*
X0116491Y0123134D03*
X0116412Y0123134D03*
X0116333Y0123134D03*
X0116255Y0123134D03*
X0116176Y0123134D03*
X0116097Y0123134D03*
X0116018Y0123134D03*
X0115940Y0123134D03*
X0115861Y0123134D03*
X0115782Y0123134D03*
X0115703Y0123134D03*
X0115625Y0123134D03*
X0115546Y0123134D03*
X0115467Y0123134D03*
X0115467Y0121795D03*
X0115388Y0121795D03*
X0115546Y0121795D03*
X0115625Y0121795D03*
X0115703Y0121795D03*
X0115782Y0121795D03*
X0115861Y0121795D03*
X0115940Y0121795D03*
X0116018Y0121795D03*
X0116097Y0121795D03*
X0116176Y0121795D03*
X0116255Y0121795D03*
X0116333Y0121795D03*
X0116412Y0121795D03*
X0116491Y0121795D03*
X0116570Y0121795D03*
D226*
X0116727Y0123094D03*
X0116806Y0123094D03*
X0115388Y0123173D03*
D227*
X0116885Y0123409D03*
X0117357Y0123488D03*
X0117042Y0122701D03*
X0115388Y0125299D03*
D228*
X0115388Y0127071D03*
X0115467Y0127071D03*
X0115546Y0127150D03*
X0115625Y0127150D03*
D229*
X0115625Y0125299D03*
X0115703Y0125299D03*
X0115546Y0125299D03*
X0115467Y0125299D03*
X0116963Y0123488D03*
X0117042Y0123488D03*
X0117121Y0123488D03*
X0117199Y0123488D03*
D230*
X0115625Y0120102D03*
X0115546Y0120102D03*
D231*
X0115703Y0120063D03*
X0115782Y0120063D03*
X0115861Y0120063D03*
D232*
X0115861Y0127189D03*
X0115782Y0127189D03*
X0115703Y0127189D03*
X0116806Y0127189D03*
X0116885Y0127189D03*
X0116963Y0127189D03*
D233*
X0115782Y0125260D03*
X0117278Y0123528D03*
D234*
X0117199Y0124748D03*
X0117121Y0124748D03*
X0117042Y0124748D03*
X0116963Y0124748D03*
X0116885Y0124748D03*
X0116806Y0124748D03*
X0116727Y0124748D03*
X0116648Y0124748D03*
X0116097Y0124748D03*
X0116018Y0124748D03*
X0115940Y0124748D03*
X0115861Y0124748D03*
D235*
X0117042Y0120181D03*
X0116885Y0120102D03*
X0116806Y0120102D03*
X0116727Y0120024D03*
X0116648Y0120024D03*
X0116570Y0120024D03*
X0116491Y0120024D03*
X0116412Y0120024D03*
X0116333Y0120024D03*
X0116255Y0120024D03*
X0116176Y0120024D03*
X0116097Y0120024D03*
X0116018Y0120024D03*
X0115940Y0120024D03*
D236*
X0115940Y0127228D03*
X0116018Y0127228D03*
X0116097Y0127228D03*
X0116176Y0127228D03*
X0116255Y0127228D03*
X0116333Y0127228D03*
X0116412Y0127228D03*
X0116491Y0127228D03*
X0116570Y0127228D03*
X0116648Y0127228D03*
X0116727Y0127228D03*
D237*
X0116570Y0125102D03*
X0116176Y0125102D03*
X0116806Y0121795D03*
D238*
X0117199Y0122622D03*
X0116491Y0125142D03*
X0116412Y0125142D03*
X0116333Y0125142D03*
X0116255Y0125142D03*
D239*
X0116648Y0121795D03*
X0116727Y0121795D03*
D240*
X0116885Y0121795D03*
X0117121Y0122661D03*
X0116963Y0122740D03*
X0116885Y0122819D03*
D241*
X0117199Y0120299D03*
X0117121Y0120220D03*
X0116963Y0120142D03*
D242*
X0117278Y0124748D03*
X0117357Y0124748D03*
X0117357Y0127504D03*
X0117278Y0127583D03*
X0117199Y0127583D03*
D243*
X0117278Y0120339D03*
D244*
X0117278Y0122622D03*
D245*
X0117357Y0120457D03*
D246*
X0117357Y0122543D03*
M02*
