G75*
%MOIN*%
%OFA0B0*%
%FSLAX25Y25*%
%IPPOS*%
%LPD*%
%AMOC8*
5,1,8,0,0,1.08239X$1,22.5*
%
%ADD10C,0.00800*%
%ADD11C,0.00000*%
%ADD12C,0.00079*%
D10*
X0102833Y0056000D02*
X0102833Y0236000D01*
X0202833Y0236000D01*
X0202755Y0056000D01*
X0102833Y0056000D01*
D11*
X0105833Y0126000D02*
X0105835Y0126089D01*
X0105841Y0126178D01*
X0105851Y0126267D01*
X0105865Y0126355D01*
X0105882Y0126442D01*
X0105904Y0126528D01*
X0105930Y0126614D01*
X0105959Y0126698D01*
X0105992Y0126781D01*
X0106028Y0126862D01*
X0106069Y0126942D01*
X0106112Y0127019D01*
X0106159Y0127095D01*
X0106210Y0127168D01*
X0106263Y0127239D01*
X0106320Y0127308D01*
X0106380Y0127374D01*
X0106443Y0127438D01*
X0106508Y0127498D01*
X0106576Y0127556D01*
X0106647Y0127610D01*
X0106720Y0127661D01*
X0106795Y0127709D01*
X0106872Y0127754D01*
X0106951Y0127795D01*
X0107032Y0127832D01*
X0107114Y0127866D01*
X0107198Y0127897D01*
X0107283Y0127923D01*
X0107369Y0127946D01*
X0107456Y0127964D01*
X0107544Y0127979D01*
X0107633Y0127990D01*
X0107722Y0127997D01*
X0107811Y0128000D01*
X0107900Y0127999D01*
X0107989Y0127994D01*
X0108077Y0127985D01*
X0108166Y0127972D01*
X0108253Y0127955D01*
X0108340Y0127935D01*
X0108426Y0127910D01*
X0108510Y0127882D01*
X0108593Y0127850D01*
X0108675Y0127814D01*
X0108755Y0127775D01*
X0108833Y0127732D01*
X0108909Y0127686D01*
X0108983Y0127636D01*
X0109055Y0127583D01*
X0109124Y0127527D01*
X0109191Y0127468D01*
X0109255Y0127406D01*
X0109316Y0127342D01*
X0109375Y0127274D01*
X0109430Y0127204D01*
X0109482Y0127132D01*
X0109531Y0127057D01*
X0109576Y0126981D01*
X0109618Y0126902D01*
X0109656Y0126822D01*
X0109691Y0126740D01*
X0109722Y0126656D01*
X0109750Y0126571D01*
X0109773Y0126485D01*
X0109793Y0126398D01*
X0109809Y0126311D01*
X0109821Y0126222D01*
X0109829Y0126134D01*
X0109833Y0126045D01*
X0109833Y0125955D01*
X0109829Y0125866D01*
X0109821Y0125778D01*
X0109809Y0125689D01*
X0109793Y0125602D01*
X0109773Y0125515D01*
X0109750Y0125429D01*
X0109722Y0125344D01*
X0109691Y0125260D01*
X0109656Y0125178D01*
X0109618Y0125098D01*
X0109576Y0125019D01*
X0109531Y0124943D01*
X0109482Y0124868D01*
X0109430Y0124796D01*
X0109375Y0124726D01*
X0109316Y0124658D01*
X0109255Y0124594D01*
X0109191Y0124532D01*
X0109124Y0124473D01*
X0109055Y0124417D01*
X0108983Y0124364D01*
X0108909Y0124314D01*
X0108833Y0124268D01*
X0108755Y0124225D01*
X0108675Y0124186D01*
X0108593Y0124150D01*
X0108510Y0124118D01*
X0108426Y0124090D01*
X0108340Y0124065D01*
X0108253Y0124045D01*
X0108166Y0124028D01*
X0108077Y0124015D01*
X0107989Y0124006D01*
X0107900Y0124001D01*
X0107811Y0124000D01*
X0107722Y0124003D01*
X0107633Y0124010D01*
X0107544Y0124021D01*
X0107456Y0124036D01*
X0107369Y0124054D01*
X0107283Y0124077D01*
X0107198Y0124103D01*
X0107114Y0124134D01*
X0107032Y0124168D01*
X0106951Y0124205D01*
X0106872Y0124246D01*
X0106795Y0124291D01*
X0106720Y0124339D01*
X0106647Y0124390D01*
X0106576Y0124444D01*
X0106508Y0124502D01*
X0106443Y0124562D01*
X0106380Y0124626D01*
X0106320Y0124692D01*
X0106263Y0124761D01*
X0106210Y0124832D01*
X0106159Y0124905D01*
X0106112Y0124981D01*
X0106069Y0125058D01*
X0106028Y0125138D01*
X0105992Y0125219D01*
X0105959Y0125302D01*
X0105930Y0125386D01*
X0105904Y0125472D01*
X0105882Y0125558D01*
X0105865Y0125645D01*
X0105851Y0125733D01*
X0105841Y0125822D01*
X0105835Y0125911D01*
X0105833Y0126000D01*
D12*
X0141987Y0077094D02*
X0141987Y0075520D01*
X0141986Y0075520D02*
X0141991Y0075448D01*
X0142000Y0075376D01*
X0142013Y0075305D01*
X0142030Y0075234D01*
X0142050Y0075165D01*
X0142075Y0075097D01*
X0142102Y0075030D01*
X0142134Y0074965D01*
X0142169Y0074901D01*
X0142207Y0074840D01*
X0142248Y0074781D01*
X0142293Y0074724D01*
X0142341Y0074669D01*
X0142391Y0074618D01*
X0142445Y0074569D01*
X0142500Y0074523D01*
X0142559Y0074480D01*
X0142619Y0074440D01*
X0142682Y0074404D01*
X0142746Y0074371D01*
X0142812Y0074341D01*
X0142880Y0074316D01*
X0142949Y0074293D01*
X0143019Y0074275D01*
X0143090Y0074261D01*
X0143161Y0074250D01*
X0143233Y0074243D01*
X0143306Y0074240D01*
X0143306Y0074241D02*
X0143373Y0074239D01*
X0143440Y0074241D01*
X0143507Y0074247D01*
X0143574Y0074257D01*
X0143640Y0074270D01*
X0143705Y0074287D01*
X0143769Y0074308D01*
X0143831Y0074333D01*
X0143893Y0074361D01*
X0143952Y0074393D01*
X0144010Y0074427D01*
X0144065Y0074465D01*
X0144118Y0074507D01*
X0144169Y0074551D01*
X0144217Y0074598D01*
X0144263Y0074647D01*
X0144305Y0074700D01*
X0144345Y0074754D01*
X0144381Y0074811D01*
X0144414Y0074869D01*
X0144444Y0074930D01*
X0144470Y0074992D01*
X0144492Y0075055D01*
X0144511Y0075120D01*
X0144527Y0075185D01*
X0144538Y0075252D01*
X0144546Y0075318D01*
X0144550Y0075386D01*
X0144550Y0075453D01*
X0144546Y0075520D01*
X0144546Y0077094D01*
X0144544Y0077163D01*
X0144538Y0077232D01*
X0144529Y0077301D01*
X0144516Y0077369D01*
X0144499Y0077436D01*
X0144479Y0077503D01*
X0144455Y0077568D01*
X0144428Y0077631D01*
X0144397Y0077694D01*
X0144363Y0077754D01*
X0144325Y0077812D01*
X0144285Y0077869D01*
X0144242Y0077923D01*
X0144195Y0077974D01*
X0144146Y0078023D01*
X0144095Y0078070D01*
X0144041Y0078113D01*
X0143984Y0078153D01*
X0143926Y0078191D01*
X0143866Y0078225D01*
X0143803Y0078256D01*
X0143740Y0078283D01*
X0143675Y0078307D01*
X0143608Y0078327D01*
X0143541Y0078344D01*
X0143473Y0078357D01*
X0143404Y0078366D01*
X0143335Y0078372D01*
X0143266Y0078374D01*
X0143196Y0078373D01*
X0143127Y0078368D01*
X0143058Y0078360D01*
X0142989Y0078348D01*
X0142922Y0078332D01*
X0142855Y0078312D01*
X0142789Y0078288D01*
X0142725Y0078261D01*
X0142663Y0078231D01*
X0142602Y0078197D01*
X0142543Y0078160D01*
X0142486Y0078119D01*
X0142432Y0078076D01*
X0142380Y0078029D01*
X0142331Y0077980D01*
X0142284Y0077928D01*
X0142241Y0077874D01*
X0142200Y0077817D01*
X0142163Y0077758D01*
X0142129Y0077697D01*
X0142099Y0077635D01*
X0142072Y0077571D01*
X0142048Y0077505D01*
X0142028Y0077438D01*
X0142012Y0077371D01*
X0142000Y0077302D01*
X0141992Y0077233D01*
X0141987Y0077164D01*
X0141986Y0077094D01*
X0140707Y0065559D02*
X0140707Y0063197D01*
X0140708Y0063197D02*
X0140718Y0063126D01*
X0140732Y0063057D01*
X0140750Y0062988D01*
X0140771Y0062920D01*
X0140796Y0062853D01*
X0140825Y0062788D01*
X0140857Y0062724D01*
X0140892Y0062663D01*
X0140930Y0062603D01*
X0140972Y0062545D01*
X0141017Y0062490D01*
X0141064Y0062436D01*
X0141114Y0062386D01*
X0141167Y0062338D01*
X0141222Y0062293D01*
X0141280Y0062252D01*
X0141339Y0062213D01*
X0141401Y0062177D01*
X0141464Y0062145D01*
X0141530Y0062116D01*
X0141596Y0062091D01*
X0141664Y0062069D01*
X0141733Y0062051D01*
X0141802Y0062036D01*
X0141872Y0062026D01*
X0141943Y0062019D01*
X0142014Y0062015D01*
X0142085Y0062016D01*
X0142086Y0062016D02*
X0142157Y0062015D01*
X0142228Y0062019D01*
X0142299Y0062026D01*
X0142369Y0062036D01*
X0142438Y0062051D01*
X0142507Y0062069D01*
X0142575Y0062091D01*
X0142641Y0062116D01*
X0142707Y0062145D01*
X0142770Y0062177D01*
X0142832Y0062213D01*
X0142891Y0062252D01*
X0142949Y0062293D01*
X0143004Y0062338D01*
X0143057Y0062386D01*
X0143107Y0062436D01*
X0143154Y0062490D01*
X0143199Y0062545D01*
X0143241Y0062603D01*
X0143279Y0062663D01*
X0143314Y0062724D01*
X0143346Y0062788D01*
X0143375Y0062853D01*
X0143400Y0062920D01*
X0143421Y0062988D01*
X0143439Y0063057D01*
X0143453Y0063126D01*
X0143463Y0063197D01*
X0143463Y0065559D01*
X0143453Y0065630D01*
X0143439Y0065699D01*
X0143421Y0065768D01*
X0143400Y0065836D01*
X0143375Y0065903D01*
X0143346Y0065968D01*
X0143314Y0066032D01*
X0143279Y0066093D01*
X0143241Y0066153D01*
X0143199Y0066211D01*
X0143154Y0066266D01*
X0143107Y0066320D01*
X0143057Y0066370D01*
X0143004Y0066418D01*
X0142949Y0066463D01*
X0142891Y0066504D01*
X0142832Y0066543D01*
X0142770Y0066579D01*
X0142707Y0066611D01*
X0142641Y0066640D01*
X0142575Y0066665D01*
X0142507Y0066687D01*
X0142438Y0066705D01*
X0142369Y0066720D01*
X0142299Y0066730D01*
X0142228Y0066737D01*
X0142157Y0066741D01*
X0142086Y0066740D01*
X0142085Y0066740D02*
X0142014Y0066741D01*
X0141943Y0066737D01*
X0141872Y0066730D01*
X0141802Y0066720D01*
X0141733Y0066705D01*
X0141664Y0066687D01*
X0141596Y0066665D01*
X0141530Y0066640D01*
X0141464Y0066611D01*
X0141401Y0066579D01*
X0141339Y0066543D01*
X0141280Y0066504D01*
X0141222Y0066463D01*
X0141167Y0066418D01*
X0141114Y0066370D01*
X0141064Y0066320D01*
X0141017Y0066266D01*
X0140972Y0066211D01*
X0140930Y0066153D01*
X0140892Y0066093D01*
X0140857Y0066032D01*
X0140825Y0065968D01*
X0140796Y0065903D01*
X0140771Y0065836D01*
X0140750Y0065768D01*
X0140732Y0065699D01*
X0140718Y0065630D01*
X0140708Y0065559D01*
X0162203Y0065559D02*
X0162203Y0063197D01*
X0162204Y0063197D02*
X0162214Y0063126D01*
X0162228Y0063057D01*
X0162246Y0062988D01*
X0162267Y0062920D01*
X0162292Y0062853D01*
X0162321Y0062788D01*
X0162353Y0062724D01*
X0162388Y0062663D01*
X0162426Y0062603D01*
X0162468Y0062545D01*
X0162513Y0062490D01*
X0162560Y0062436D01*
X0162610Y0062386D01*
X0162663Y0062338D01*
X0162718Y0062293D01*
X0162776Y0062252D01*
X0162835Y0062213D01*
X0162897Y0062177D01*
X0162960Y0062145D01*
X0163026Y0062116D01*
X0163092Y0062091D01*
X0163160Y0062069D01*
X0163229Y0062051D01*
X0163298Y0062036D01*
X0163368Y0062026D01*
X0163439Y0062019D01*
X0163510Y0062015D01*
X0163581Y0062016D01*
X0163582Y0062016D02*
X0163653Y0062015D01*
X0163724Y0062019D01*
X0163795Y0062026D01*
X0163865Y0062036D01*
X0163934Y0062051D01*
X0164003Y0062069D01*
X0164071Y0062091D01*
X0164137Y0062116D01*
X0164203Y0062145D01*
X0164266Y0062177D01*
X0164328Y0062213D01*
X0164387Y0062252D01*
X0164445Y0062293D01*
X0164500Y0062338D01*
X0164553Y0062386D01*
X0164603Y0062436D01*
X0164650Y0062490D01*
X0164695Y0062545D01*
X0164737Y0062603D01*
X0164775Y0062663D01*
X0164810Y0062724D01*
X0164842Y0062788D01*
X0164871Y0062853D01*
X0164896Y0062920D01*
X0164917Y0062988D01*
X0164935Y0063057D01*
X0164949Y0063126D01*
X0164959Y0063197D01*
X0164959Y0065559D01*
X0164949Y0065630D01*
X0164935Y0065699D01*
X0164917Y0065768D01*
X0164896Y0065836D01*
X0164871Y0065903D01*
X0164842Y0065968D01*
X0164810Y0066032D01*
X0164775Y0066093D01*
X0164737Y0066153D01*
X0164695Y0066211D01*
X0164650Y0066266D01*
X0164603Y0066320D01*
X0164553Y0066370D01*
X0164500Y0066418D01*
X0164445Y0066463D01*
X0164387Y0066504D01*
X0164328Y0066543D01*
X0164266Y0066579D01*
X0164203Y0066611D01*
X0164137Y0066640D01*
X0164071Y0066665D01*
X0164003Y0066687D01*
X0163934Y0066705D01*
X0163865Y0066720D01*
X0163795Y0066730D01*
X0163724Y0066737D01*
X0163653Y0066741D01*
X0163582Y0066740D01*
X0163581Y0066740D02*
X0163510Y0066741D01*
X0163439Y0066737D01*
X0163368Y0066730D01*
X0163298Y0066720D01*
X0163229Y0066705D01*
X0163160Y0066687D01*
X0163092Y0066665D01*
X0163026Y0066640D01*
X0162960Y0066611D01*
X0162897Y0066579D01*
X0162835Y0066543D01*
X0162776Y0066504D01*
X0162718Y0066463D01*
X0162663Y0066418D01*
X0162610Y0066370D01*
X0162560Y0066320D01*
X0162513Y0066266D01*
X0162468Y0066211D01*
X0162426Y0066153D01*
X0162388Y0066093D01*
X0162353Y0066032D01*
X0162321Y0065968D01*
X0162292Y0065903D01*
X0162267Y0065836D01*
X0162246Y0065768D01*
X0162228Y0065699D01*
X0162214Y0065630D01*
X0162204Y0065559D01*
X0162440Y0074241D02*
X0162507Y0074239D01*
X0162574Y0074241D01*
X0162641Y0074247D01*
X0162708Y0074257D01*
X0162774Y0074270D01*
X0162839Y0074287D01*
X0162903Y0074308D01*
X0162965Y0074333D01*
X0163027Y0074361D01*
X0163086Y0074393D01*
X0163144Y0074427D01*
X0163199Y0074465D01*
X0163252Y0074507D01*
X0163303Y0074551D01*
X0163351Y0074598D01*
X0163397Y0074647D01*
X0163439Y0074700D01*
X0163479Y0074754D01*
X0163515Y0074811D01*
X0163548Y0074869D01*
X0163578Y0074930D01*
X0163604Y0074992D01*
X0163626Y0075055D01*
X0163645Y0075120D01*
X0163661Y0075185D01*
X0163672Y0075252D01*
X0163680Y0075318D01*
X0163684Y0075386D01*
X0163684Y0075453D01*
X0163680Y0075520D01*
X0163680Y0077094D01*
X0163678Y0077163D01*
X0163672Y0077232D01*
X0163663Y0077301D01*
X0163650Y0077369D01*
X0163633Y0077436D01*
X0163613Y0077503D01*
X0163589Y0077568D01*
X0163562Y0077631D01*
X0163531Y0077694D01*
X0163497Y0077754D01*
X0163459Y0077812D01*
X0163419Y0077869D01*
X0163376Y0077923D01*
X0163329Y0077974D01*
X0163280Y0078023D01*
X0163229Y0078070D01*
X0163175Y0078113D01*
X0163118Y0078153D01*
X0163060Y0078191D01*
X0163000Y0078225D01*
X0162937Y0078256D01*
X0162874Y0078283D01*
X0162809Y0078307D01*
X0162742Y0078327D01*
X0162675Y0078344D01*
X0162607Y0078357D01*
X0162538Y0078366D01*
X0162469Y0078372D01*
X0162400Y0078374D01*
X0162330Y0078373D01*
X0162261Y0078368D01*
X0162192Y0078360D01*
X0162123Y0078348D01*
X0162056Y0078332D01*
X0161989Y0078312D01*
X0161923Y0078288D01*
X0161859Y0078261D01*
X0161797Y0078231D01*
X0161736Y0078197D01*
X0161677Y0078160D01*
X0161620Y0078119D01*
X0161566Y0078076D01*
X0161514Y0078029D01*
X0161465Y0077980D01*
X0161418Y0077928D01*
X0161375Y0077874D01*
X0161334Y0077817D01*
X0161297Y0077758D01*
X0161263Y0077697D01*
X0161233Y0077635D01*
X0161206Y0077571D01*
X0161182Y0077505D01*
X0161162Y0077438D01*
X0161146Y0077371D01*
X0161134Y0077302D01*
X0161126Y0077233D01*
X0161121Y0077164D01*
X0161120Y0077094D01*
X0161121Y0077094D02*
X0161121Y0075520D01*
X0161120Y0075520D02*
X0161125Y0075448D01*
X0161134Y0075376D01*
X0161147Y0075305D01*
X0161164Y0075234D01*
X0161184Y0075165D01*
X0161209Y0075097D01*
X0161236Y0075030D01*
X0161268Y0074965D01*
X0161303Y0074901D01*
X0161341Y0074840D01*
X0161382Y0074781D01*
X0161427Y0074724D01*
X0161475Y0074669D01*
X0161525Y0074618D01*
X0161579Y0074569D01*
X0161634Y0074523D01*
X0161693Y0074480D01*
X0161753Y0074440D01*
X0161816Y0074404D01*
X0161880Y0074371D01*
X0161946Y0074341D01*
X0162014Y0074316D01*
X0162083Y0074293D01*
X0162153Y0074275D01*
X0162224Y0074261D01*
X0162295Y0074250D01*
X0162367Y0074243D01*
X0162440Y0074240D01*
M02*
