G75*
%MOIN*%
%OFA0B0*%
%FSLAX25Y25*%
%IPPOS*%
%LPD*%
%AMOC8*
5,1,8,0,0,1.08239X$1,22.5*
%
%ADD10C,0.00500*%
%ADD11C,0.02828*%
%ADD12R,0.00118X0.00827*%
%ADD13R,0.00118X0.00118*%
%ADD14R,0.00118X0.00945*%
%ADD15R,0.00157X0.01417*%
%ADD16R,0.00157X0.00591*%
%ADD17R,0.00157X0.00709*%
%ADD18R,0.00157X0.01654*%
%ADD19R,0.00118X0.01890*%
%ADD20R,0.00118X0.00709*%
%ADD21R,0.00118X0.02008*%
%ADD22R,0.00118X0.02126*%
%ADD23R,0.00118X0.02244*%
%ADD24R,0.00118X0.02362*%
%ADD25R,0.00118X0.01063*%
%ADD26R,0.00157X0.02362*%
%ADD27R,0.00157X0.01063*%
%ADD28R,0.00157X0.00827*%
%ADD29R,0.00157X0.02480*%
%ADD30R,0.00118X0.01181*%
%ADD31R,0.00118X0.02480*%
%ADD32R,0.00118X0.00472*%
%ADD33R,0.00118X0.01299*%
%ADD34R,0.00118X0.01417*%
%ADD35R,0.00157X0.00945*%
%ADD36R,0.00118X0.01535*%
%ADD37R,0.00118X0.01654*%
%ADD38R,0.00118X0.01772*%
%ADD39R,0.00157X0.01535*%
%ADD40R,0.00118X0.02598*%
%ADD41R,0.00157X0.02598*%
%ADD42R,0.00157X0.01181*%
%ADD43R,0.00157X0.01772*%
%ADD44R,0.00157X0.01890*%
%ADD45R,0.00118X0.00591*%
%ADD46R,0.00118X0.00236*%
%ADD47R,0.00118X0.03031*%
%ADD48R,0.00118X0.00394*%
%ADD49R,0.00157X0.03425*%
%ADD50R,0.00118X0.03583*%
%ADD51R,0.00157X0.03583*%
%ADD52R,0.00157X0.01102*%
%ADD53R,0.00157X0.01260*%
%ADD54R,0.00118X0.03425*%
%ADD55R,0.00118X0.01220*%
%ADD56R,0.00118X0.01102*%
%ADD57R,0.00157X0.03307*%
%ADD58R,0.00157X0.01220*%
%ADD59R,0.00118X0.00984*%
%ADD60R,0.00118X0.01260*%
%ADD61R,0.00157X0.00984*%
%ADD62R,0.00157X0.02323*%
%ADD63R,0.00118X0.02087*%
%ADD64R,0.00118X0.01929*%
%ADD65R,0.00157X0.02205*%
%ADD66R,0.00118X0.00669*%
%ADD67R,0.00118X0.00551*%
%ADD68R,0.00118X0.00433*%
%ADD69R,0.00157X0.01929*%
%ADD70R,0.00157X0.00669*%
%ADD71R,0.00118X0.02638*%
%ADD72R,0.00157X0.02756*%
%ADD73R,0.00118X0.02756*%
%ADD74R,0.00118X0.02047*%
%ADD75R,0.00157X0.01811*%
%ADD76R,0.00118X0.01496*%
%ADD77R,0.00157X0.01378*%
%ADD78R,0.00118X0.01378*%
%ADD79R,0.00157X0.02638*%
%ADD80R,0.00157X0.02087*%
%ADD81R,0.00118X0.02205*%
%ADD82R,0.00118X0.02323*%
%ADD83R,0.00157X0.00551*%
%ADD84R,0.00157X0.01496*%
%ADD85R,0.00118X0.02874*%
%ADD86R,0.00157X0.02874*%
%ADD87R,0.00157X0.00433*%
%ADD88R,0.00118X0.00157*%
%ADD89R,0.00118X0.01811*%
%ADD90R,0.00157X0.02047*%
%ADD91R,0.00118X0.00276*%
%ADD92R,0.00157X0.00157*%
%ADD93R,0.00157X0.00276*%
%ADD94R,0.00157X0.01299*%
%ADD95R,0.00157X0.02008*%
%ADD96R,0.00118X0.00354*%
%ADD97R,0.00157X0.02244*%
%ADD98R,0.00118X0.02717*%
%ADD99R,0.00118X0.02835*%
%ADD100R,0.00157X0.02953*%
%ADD101R,0.00236X0.00118*%
%ADD102R,0.02598X0.00118*%
%ADD103R,0.00591X0.00157*%
%ADD104R,0.00709X0.00157*%
%ADD105R,0.02953X0.00157*%
%ADD106R,0.00709X0.00118*%
%ADD107R,0.00827X0.00118*%
%ADD108R,0.03071X0.00118*%
%ADD109R,0.00945X0.00118*%
%ADD110R,0.02953X0.00118*%
%ADD111R,0.01063X0.00157*%
%ADD112R,0.00827X0.00157*%
%ADD113R,0.02835X0.00157*%
%ADD114R,0.01181X0.00118*%
%ADD115R,0.01299X0.00118*%
%ADD116R,0.01417X0.00118*%
%ADD117R,0.01535X0.00157*%
%ADD118R,0.01417X0.00157*%
%ADD119R,0.01654X0.00118*%
%ADD120R,0.01535X0.00118*%
%ADD121R,0.01772X0.00118*%
%ADD122R,0.00945X0.00157*%
%ADD123R,0.02362X0.00118*%
%ADD124R,0.02480X0.00157*%
%ADD125R,0.02717X0.00118*%
%ADD126R,0.02835X0.00118*%
%ADD127R,0.01181X0.00157*%
%ADD128R,0.01063X0.00118*%
%ADD129R,0.00591X0.00118*%
%ADD130R,0.00472X0.00118*%
%ADD131R,0.00157X0.00472*%
%ADD132R,0.00118X0.03071*%
%ADD133R,0.00118X0.02953*%
%ADD134R,0.00157X0.02835*%
%ADD135R,0.00157X0.02126*%
%ADD136R,0.00157X0.01575*%
%ADD137R,0.00118X0.01969*%
%ADD138R,0.00157X0.02677*%
%ADD139R,0.00118X0.01142*%
%ADD140R,0.00118X0.01693*%
%ADD141R,0.00157X0.01969*%
%ADD142R,0.00157X0.02402*%
%ADD143R,0.00118X0.01575*%
%ADD144R,0.00157X0.01693*%
%ADD145R,0.00157X0.00866*%
%ADD146R,0.00118X0.02795*%
%ADD147R,0.00118X0.02402*%
%ADD148R,0.00157X0.02795*%
%ADD149R,0.02835X0.00197*%
%ADD150R,0.01220X0.00197*%
%ADD151R,0.01575X0.00197*%
%ADD152R,0.01024X0.00197*%
%ADD153R,0.01102X0.00197*%
%ADD154R,0.00157X0.00197*%
%ADD155R,0.01614X0.00197*%
%ADD156R,0.00866X0.00197*%
%ADD157R,0.00197X0.00197*%
%ADD158R,0.01260X0.00197*%
%ADD159R,0.03543X0.00157*%
%ADD160R,0.02126X0.00157*%
%ADD161R,0.02638X0.00157*%
%ADD162R,0.01929X0.00157*%
%ADD163R,0.00866X0.00157*%
%ADD164R,0.02323X0.00157*%
%ADD165R,0.00354X0.00157*%
%ADD166R,0.03543X0.00197*%
%ADD167R,0.02441X0.00197*%
%ADD168R,0.02992X0.00197*%
%ADD169R,0.02480X0.00197*%
%ADD170R,0.02323X0.00197*%
%ADD171R,0.02638X0.00197*%
%ADD172R,0.02677X0.00197*%
%ADD173R,0.01063X0.00197*%
%ADD174R,0.03701X0.00157*%
%ADD175R,0.03189X0.00157*%
%ADD176R,0.01260X0.00157*%
%ADD177R,0.03150X0.00157*%
%ADD178R,0.03701X0.00197*%
%ADD179R,0.03031X0.00197*%
%ADD180R,0.03386X0.00197*%
%ADD181R,0.03346X0.00197*%
%ADD182R,0.03031X0.00157*%
%ADD183R,0.03386X0.00157*%
%ADD184R,0.03228X0.00157*%
%ADD185R,0.01772X0.00157*%
%ADD186R,0.03504X0.00157*%
%ADD187R,0.03228X0.00197*%
%ADD188R,0.02126X0.00197*%
%ADD189R,0.03583X0.00197*%
%ADD190R,0.00551X0.00157*%
%ADD191R,0.01220X0.00157*%
%ADD192R,0.01378X0.00157*%
%ADD193R,0.02283X0.00157*%
%ADD194R,0.01575X0.00157*%
%ADD195R,0.00906X0.00157*%
%ADD196R,0.00906X0.00197*%
%ADD197R,0.02283X0.00197*%
%ADD198R,0.01378X0.00197*%
%ADD199R,0.00354X0.00197*%
%ADD200R,0.01417X0.00197*%
%ADD201R,0.01772X0.00197*%
%ADD202R,0.00512X0.00197*%
%ADD203R,0.00709X0.00197*%
%ADD204R,0.00748X0.00197*%
%ADD205R,0.02677X0.00157*%
%ADD206R,0.01102X0.00157*%
%ADD207R,0.01969X0.00197*%
%ADD208R,0.04449X0.00197*%
%ADD209R,0.02992X0.00157*%
%ADD210R,0.04094X0.00157*%
%ADD211R,0.01929X0.00197*%
%ADD212R,0.03189X0.00197*%
%ADD213R,0.04094X0.00197*%
%ADD214R,0.01732X0.00157*%
%ADD215R,0.03346X0.00157*%
%ADD216R,0.01457X0.00197*%
%ADD217R,0.01969X0.00157*%
%ADD218R,0.04213X0.00157*%
%ADD219R,0.01732X0.00197*%
%ADD220R,0.04055X0.00197*%
%ADD221R,0.04055X0.00157*%
%ADD222R,0.03898X0.00197*%
%ADD223R,0.00512X0.00157*%
%ADD224R,0.03898X0.00157*%
%ADD225R,0.03504X0.00197*%
%ADD226R,0.02441X0.00157*%
%ADD227R,0.01614X0.00157*%
%ADD228R,0.01024X0.00157*%
%ADD229R,0.00551X0.00197*%
%ADD230R,0.00315X0.00157*%
%ADD231C,0.00300*%
%ADD232R,0.00079X0.15906*%
%ADD233R,0.00079X0.16772*%
%ADD234R,0.00079X0.17244*%
%ADD235R,0.00079X0.17717*%
%ADD236R,0.00079X0.18031*%
%ADD237R,0.00079X0.18346*%
%ADD238R,0.00079X0.18661*%
%ADD239R,0.00079X0.18898*%
%ADD240R,0.00079X0.19134*%
%ADD241R,0.00079X0.19370*%
%ADD242R,0.00079X0.19528*%
%ADD243R,0.00079X0.19764*%
%ADD244R,0.00079X0.19921*%
%ADD245R,0.00079X0.20079*%
%ADD246R,0.00079X0.20236*%
%ADD247R,0.00079X0.20394*%
%ADD248R,0.00079X0.20551*%
%ADD249R,0.00079X0.20630*%
%ADD250R,0.00079X0.20709*%
%ADD251R,0.00079X0.20866*%
%ADD252R,0.00079X0.02362*%
%ADD253R,0.00079X0.00787*%
%ADD254R,0.00079X0.00197*%
%ADD255R,0.00079X0.01654*%
%ADD256R,0.00079X0.00157*%
%ADD257R,0.00079X0.00315*%
%ADD258R,0.00079X0.01890*%
%ADD259R,0.00079X0.02205*%
%ADD260R,0.00079X0.00630*%
%ADD261R,0.00079X0.00276*%
%ADD262R,0.00079X0.00236*%
%ADD263R,0.00079X0.01575*%
%ADD264R,0.00079X0.02283*%
%ADD265R,0.00079X0.02047*%
%ADD266R,0.00079X0.00472*%
%ADD267R,0.00079X0.01496*%
%ADD268R,0.00079X0.01417*%
%ADD269R,0.00079X0.01969*%
%ADD270R,0.00079X0.01260*%
%ADD271R,0.00079X0.00354*%
%ADD272R,0.00079X0.01102*%
%ADD273R,0.00079X0.02441*%
%ADD274R,0.00039X0.01890*%
%ADD275R,0.00039X0.00157*%
%ADD276R,0.00039X0.00354*%
%ADD277R,0.00039X0.01496*%
%ADD278R,0.00039X0.01417*%
%ADD279R,0.00039X0.00315*%
%ADD280R,0.00039X0.01024*%
%ADD281R,0.00039X0.02441*%
%ADD282R,0.00079X0.01811*%
%ADD283R,0.00079X0.00079*%
%ADD284R,0.00079X0.00433*%
%ADD285R,0.00079X0.01339*%
%ADD286R,0.00079X0.00945*%
%ADD287R,0.00079X0.02520*%
%ADD288R,0.00079X0.00394*%
%ADD289R,0.00079X0.00866*%
%ADD290R,0.00079X0.01732*%
%ADD291R,0.00079X0.02598*%
%ADD292R,0.00079X0.00512*%
%ADD293R,0.00079X0.01181*%
%ADD294R,0.00079X0.00709*%
%ADD295R,0.00079X0.02677*%
%ADD296R,0.00079X0.00591*%
%ADD297R,0.00079X0.00551*%
%ADD298R,0.00079X0.01024*%
%ADD299R,0.00079X0.02717*%
%ADD300R,0.00079X0.03110*%
%ADD301R,0.00079X0.00669*%
%ADD302R,0.00079X0.03307*%
%ADD303R,0.00079X0.03386*%
%ADD304R,0.00079X0.03543*%
%ADD305R,0.00079X0.01457*%
%ADD306R,0.00079X0.00748*%
%ADD307R,0.00079X0.03622*%
%ADD308R,0.00079X0.01614*%
%ADD309R,0.00079X0.00827*%
%ADD310R,0.00079X0.03701*%
%ADD311R,0.00079X0.01693*%
%ADD312R,0.00079X0.03780*%
%ADD313R,0.00079X0.01772*%
%ADD314R,0.00079X0.00906*%
%ADD315R,0.00079X0.00984*%
%ADD316R,0.00079X0.01063*%
%ADD317R,0.00079X0.01142*%
%ADD318R,0.00079X0.01220*%
%ADD319R,0.00079X0.03465*%
%ADD320R,0.00079X0.01299*%
%ADD321R,0.00079X0.01378*%
%ADD322R,0.00079X0.03189*%
%ADD323R,0.00039X0.01732*%
%ADD324R,0.00039X0.01535*%
%ADD325R,0.00039X0.01220*%
%ADD326R,0.00039X0.01457*%
%ADD327R,0.00039X0.00787*%
%ADD328R,0.00039X0.02520*%
%ADD329R,0.00079X0.01535*%
%ADD330R,0.00079X0.12677*%
%ADD331R,0.00079X0.03976*%
%ADD332R,0.00079X0.15394*%
%ADD333R,0.00079X0.03898*%
%ADD334R,0.00079X0.15315*%
%ADD335R,0.00079X0.15236*%
%ADD336R,0.00079X0.03819*%
%ADD337R,0.00079X0.15157*%
%ADD338R,0.00079X0.03740*%
%ADD339R,0.00079X0.15079*%
%ADD340R,0.00079X0.03661*%
%ADD341R,0.00079X0.15000*%
%ADD342R,0.00079X0.03583*%
%ADD343R,0.00079X0.03504*%
%ADD344R,0.00079X0.14843*%
%ADD345R,0.00079X0.03346*%
%ADD346R,0.00079X0.14764*%
%ADD347R,0.00079X0.03268*%
%ADD348R,0.00079X0.14685*%
%ADD349R,0.00079X0.14528*%
%ADD350R,0.00079X0.03031*%
%ADD351R,0.00079X0.14449*%
%ADD352R,0.00079X0.02953*%
%ADD353R,0.00079X0.14291*%
%ADD354R,0.00079X0.02795*%
%ADD355R,0.00079X0.14213*%
%ADD356R,0.00079X0.02638*%
%ADD357R,0.00079X0.14055*%
%ADD358R,0.00079X0.02402*%
%ADD359R,0.00079X0.13819*%
%ADD360R,0.00079X0.02244*%
%ADD361R,0.00079X0.13583*%
%ADD362R,0.00079X0.01929*%
%ADD363R,0.00079X0.13268*%
%ADD364R,0.00079X0.12874*%
D10*
X0121337Y0144504D02*
X0184329Y0144504D01*
X0166612Y0199622D02*
X0166614Y0199710D01*
X0166620Y0199798D01*
X0166630Y0199886D01*
X0166644Y0199974D01*
X0166661Y0200060D01*
X0166683Y0200146D01*
X0166708Y0200230D01*
X0166738Y0200314D01*
X0166770Y0200396D01*
X0166807Y0200476D01*
X0166847Y0200555D01*
X0166891Y0200632D01*
X0166938Y0200707D01*
X0166988Y0200779D01*
X0167042Y0200850D01*
X0167098Y0200917D01*
X0167158Y0200983D01*
X0167220Y0201045D01*
X0167286Y0201105D01*
X0167353Y0201161D01*
X0167424Y0201215D01*
X0167496Y0201265D01*
X0167571Y0201312D01*
X0167648Y0201356D01*
X0167727Y0201396D01*
X0167807Y0201433D01*
X0167889Y0201465D01*
X0167973Y0201495D01*
X0168057Y0201520D01*
X0168143Y0201542D01*
X0168229Y0201559D01*
X0168317Y0201573D01*
X0168405Y0201583D01*
X0168493Y0201589D01*
X0168581Y0201591D01*
X0168669Y0201589D01*
X0168757Y0201583D01*
X0168845Y0201573D01*
X0168933Y0201559D01*
X0169019Y0201542D01*
X0169105Y0201520D01*
X0169189Y0201495D01*
X0169273Y0201465D01*
X0169355Y0201433D01*
X0169435Y0201396D01*
X0169514Y0201356D01*
X0169591Y0201312D01*
X0169666Y0201265D01*
X0169738Y0201215D01*
X0169809Y0201161D01*
X0169876Y0201105D01*
X0169942Y0201045D01*
X0170004Y0200983D01*
X0170064Y0200917D01*
X0170120Y0200850D01*
X0170174Y0200779D01*
X0170224Y0200707D01*
X0170271Y0200632D01*
X0170315Y0200555D01*
X0170355Y0200476D01*
X0170392Y0200396D01*
X0170424Y0200314D01*
X0170454Y0200230D01*
X0170479Y0200146D01*
X0170501Y0200060D01*
X0170518Y0199974D01*
X0170532Y0199886D01*
X0170542Y0199798D01*
X0170548Y0199710D01*
X0170550Y0199622D01*
X0170548Y0199534D01*
X0170542Y0199446D01*
X0170532Y0199358D01*
X0170518Y0199270D01*
X0170501Y0199184D01*
X0170479Y0199098D01*
X0170454Y0199014D01*
X0170424Y0198930D01*
X0170392Y0198848D01*
X0170355Y0198768D01*
X0170315Y0198689D01*
X0170271Y0198612D01*
X0170224Y0198537D01*
X0170174Y0198465D01*
X0170120Y0198394D01*
X0170064Y0198327D01*
X0170004Y0198261D01*
X0169942Y0198199D01*
X0169876Y0198139D01*
X0169809Y0198083D01*
X0169738Y0198029D01*
X0169666Y0197979D01*
X0169591Y0197932D01*
X0169514Y0197888D01*
X0169435Y0197848D01*
X0169355Y0197811D01*
X0169273Y0197779D01*
X0169189Y0197749D01*
X0169105Y0197724D01*
X0169019Y0197702D01*
X0168933Y0197685D01*
X0168845Y0197671D01*
X0168757Y0197661D01*
X0168669Y0197655D01*
X0168581Y0197653D01*
X0168493Y0197655D01*
X0168405Y0197661D01*
X0168317Y0197671D01*
X0168229Y0197685D01*
X0168143Y0197702D01*
X0168057Y0197724D01*
X0167973Y0197749D01*
X0167889Y0197779D01*
X0167807Y0197811D01*
X0167727Y0197848D01*
X0167648Y0197888D01*
X0167571Y0197932D01*
X0167496Y0197979D01*
X0167424Y0198029D01*
X0167353Y0198083D01*
X0167286Y0198139D01*
X0167220Y0198199D01*
X0167158Y0198261D01*
X0167098Y0198327D01*
X0167042Y0198394D01*
X0166988Y0198465D01*
X0166938Y0198537D01*
X0166891Y0198612D01*
X0166847Y0198689D01*
X0166807Y0198768D01*
X0166770Y0198848D01*
X0166738Y0198930D01*
X0166708Y0199014D01*
X0166683Y0199098D01*
X0166661Y0199184D01*
X0166644Y0199270D01*
X0166630Y0199358D01*
X0166620Y0199446D01*
X0166614Y0199534D01*
X0166612Y0199622D01*
X0184329Y0207496D02*
X0121337Y0207496D01*
D11*
X0186833Y0208500D03*
D12*
X0190028Y0208939D03*
X0191249Y0210120D03*
X0191367Y0210120D03*
X0191446Y0210120D03*
X0191721Y0210120D03*
X0191800Y0210120D03*
X0191918Y0210120D03*
X0192194Y0210002D03*
X0192194Y0208112D03*
X0192312Y0208112D03*
X0192312Y0207049D03*
X0192390Y0207049D03*
X0192194Y0207049D03*
X0191918Y0207049D03*
X0191800Y0207049D03*
X0191721Y0207049D03*
X0192666Y0207049D03*
X0192745Y0207049D03*
X0192863Y0207049D03*
X0191721Y0205041D03*
X0191446Y0205041D03*
X0191367Y0205041D03*
X0191249Y0205041D03*
X0190973Y0205041D03*
X0190855Y0205041D03*
X0190776Y0205041D03*
X0190501Y0205041D03*
X0190383Y0205041D03*
X0190855Y0203978D03*
X0190973Y0203978D03*
X0191249Y0203978D03*
X0191367Y0203978D03*
X0191446Y0203978D03*
X0191721Y0203978D03*
X0191800Y0203978D03*
X0191918Y0203978D03*
X0192194Y0203978D03*
X0192312Y0203978D03*
X0191918Y0202089D03*
X0191367Y0202089D03*
X0191249Y0202089D03*
X0190304Y0207049D03*
X0193099Y0198177D03*
X0189292Y0177703D03*
X0190394Y0175341D03*
X0190946Y0167571D03*
X0191221Y0167571D03*
X0191497Y0167571D03*
X0191772Y0167571D03*
X0192048Y0167571D03*
X0192323Y0167571D03*
X0192599Y0167571D03*
X0192875Y0167571D03*
X0190394Y0166350D03*
X0189292Y0165524D03*
X0189568Y0167571D03*
X0189292Y0155366D03*
X0190394Y0146872D03*
X0191497Y0146872D03*
X0191772Y0145494D03*
X0190473Y0129370D03*
X0190276Y0129252D03*
X0189528Y0128661D03*
X0190867Y0126890D03*
X0190946Y0126890D03*
X0191221Y0126890D03*
X0191300Y0126890D03*
X0191418Y0126890D03*
X0191694Y0126772D03*
X0191694Y0127835D03*
X0191812Y0127835D03*
X0191890Y0127953D03*
X0191890Y0123937D03*
X0191812Y0123937D03*
X0191694Y0123937D03*
X0191418Y0123937D03*
X0191300Y0123937D03*
X0191221Y0123937D03*
X0190946Y0123937D03*
X0190867Y0123937D03*
X0190749Y0123937D03*
X0190473Y0123937D03*
X0190355Y0123937D03*
X0190276Y0123937D03*
X0190001Y0123937D03*
X0189883Y0123937D03*
X0189804Y0123937D03*
X0190355Y0119752D03*
X0189528Y0119161D03*
X0190355Y0117272D03*
X0190473Y0117272D03*
X0190749Y0117272D03*
X0190867Y0117272D03*
X0190946Y0117272D03*
X0191221Y0117272D03*
X0191300Y0117272D03*
X0191418Y0117272D03*
X0191694Y0117272D03*
X0191812Y0117272D03*
X0191812Y0118335D03*
X0191694Y0118335D03*
X0191418Y0115382D03*
X0191300Y0115382D03*
X0191221Y0115382D03*
X0190946Y0115382D03*
X0190867Y0115382D03*
X0190749Y0115382D03*
X0191221Y0114083D03*
X0190946Y0113965D03*
X0189883Y0113492D03*
X0191300Y0112783D03*
X0192245Y0112311D03*
X0192363Y0112311D03*
X0192245Y0114555D03*
X0192166Y0114555D03*
X0192363Y0114673D03*
X0115613Y0130303D03*
X0115495Y0130303D03*
X0115416Y0130303D03*
X0115140Y0130303D03*
X0115062Y0130303D03*
X0114944Y0130303D03*
X0114668Y0130303D03*
X0114550Y0130303D03*
X0114471Y0130303D03*
X0114196Y0130303D03*
X0114117Y0130303D03*
X0113999Y0130303D03*
X0113723Y0130303D03*
X0113605Y0130303D03*
X0113526Y0130303D03*
X0113251Y0130303D03*
X0113133Y0130303D03*
X0113054Y0130303D03*
X0112778Y0132075D03*
X0113605Y0132783D03*
X0113723Y0132783D03*
X0113999Y0133846D03*
X0114117Y0133846D03*
X0114196Y0133846D03*
X0114471Y0133846D03*
X0114550Y0133846D03*
X0114668Y0133846D03*
X0114944Y0133965D03*
X0115140Y0132783D03*
X0115140Y0131366D03*
X0115062Y0131366D03*
X0114944Y0131366D03*
X0114668Y0136091D03*
X0114550Y0136091D03*
X0114471Y0136091D03*
X0114196Y0136091D03*
X0114117Y0136091D03*
X0113999Y0136091D03*
X0114471Y0137154D03*
X0114550Y0137154D03*
X0114668Y0137154D03*
X0114944Y0137154D03*
X0115062Y0137154D03*
X0115140Y0137154D03*
X0115416Y0137154D03*
X0115495Y0137154D03*
X0115613Y0137154D03*
X0114944Y0138453D03*
X0114944Y0139752D03*
X0115062Y0139752D03*
X0115140Y0139752D03*
X0115416Y0139752D03*
X0115495Y0139752D03*
X0115613Y0139752D03*
X0114668Y0139752D03*
X0114550Y0139752D03*
X0114471Y0139752D03*
X0113054Y0139752D03*
X0113999Y0141303D03*
X0114117Y0141303D03*
X0114196Y0141185D03*
X0114471Y0141185D03*
X0114668Y0141303D03*
X0114944Y0143429D03*
X0114668Y0143547D03*
X0114550Y0143547D03*
X0114471Y0143547D03*
X0114196Y0143547D03*
X0114117Y0143547D03*
X0113999Y0143547D03*
X0114944Y0144492D03*
X0115062Y0144492D03*
X0115140Y0144610D03*
X0113723Y0146028D03*
X0113526Y0145909D03*
X0112778Y0145319D03*
X0113054Y0147091D03*
X0113133Y0147091D03*
X0113251Y0147091D03*
X0113526Y0147091D03*
X0113605Y0147091D03*
X0113723Y0147091D03*
X0113999Y0147091D03*
X0114117Y0147091D03*
X0114196Y0147091D03*
X0114471Y0147091D03*
X0114550Y0147091D03*
X0114668Y0147091D03*
X0114944Y0147091D03*
X0115062Y0147091D03*
X0115140Y0147091D03*
X0115416Y0147091D03*
X0115495Y0147091D03*
X0115613Y0147091D03*
X0115613Y0148154D03*
X0115495Y0148154D03*
X0115416Y0148154D03*
X0115140Y0148154D03*
X0115062Y0148154D03*
X0114944Y0148154D03*
X0114668Y0148154D03*
X0114550Y0148154D03*
X0114471Y0148154D03*
X0114944Y0149453D03*
X0114944Y0150752D03*
X0115062Y0150752D03*
X0115140Y0150752D03*
X0115416Y0150752D03*
X0115495Y0150752D03*
X0115613Y0150752D03*
X0114668Y0150752D03*
X0114550Y0150752D03*
X0114471Y0150752D03*
X0113054Y0150752D03*
X0113054Y0148154D03*
X0113054Y0153687D03*
X0113133Y0153687D03*
X0113251Y0153687D03*
X0113526Y0153687D03*
X0113605Y0153687D03*
X0113723Y0153687D03*
X0114944Y0153687D03*
X0115062Y0153687D03*
X0115140Y0153687D03*
X0115416Y0153687D03*
X0115495Y0153687D03*
X0115613Y0153687D03*
X0114944Y0156522D03*
X0114668Y0156640D03*
X0114550Y0156640D03*
X0114471Y0156640D03*
X0114196Y0156640D03*
X0114117Y0156640D03*
X0114944Y0157585D03*
X0115062Y0157585D03*
X0115140Y0157703D03*
X0113723Y0159120D03*
X0113526Y0159002D03*
X0112778Y0158411D03*
X0115573Y0164315D03*
X0116125Y0164315D03*
X0112542Y0166953D03*
X0113487Y0175012D03*
X0114747Y0175012D03*
X0114196Y0178240D03*
X0113920Y0178240D03*
X0113999Y0183096D03*
X0114117Y0183096D03*
X0114196Y0183096D03*
X0114471Y0183096D03*
X0114550Y0183096D03*
X0114668Y0183096D03*
X0114944Y0183096D03*
X0115062Y0183096D03*
X0115140Y0183096D03*
X0115416Y0183096D03*
X0115495Y0183096D03*
X0113723Y0183096D03*
X0113605Y0183096D03*
X0113526Y0183096D03*
X0114944Y0184986D03*
X0115062Y0184986D03*
X0115140Y0184986D03*
X0115140Y0186404D03*
X0115613Y0187348D03*
X0115416Y0187467D03*
X0115140Y0187585D03*
X0114196Y0187467D03*
X0114117Y0187348D03*
X0113999Y0187348D03*
X0113723Y0187467D03*
X0113723Y0186404D03*
X0113605Y0186404D03*
X0112778Y0185695D03*
X0113605Y0189002D03*
X0113723Y0189002D03*
X0113999Y0189002D03*
X0114117Y0189002D03*
X0114196Y0189002D03*
X0115140Y0189002D03*
X0115416Y0189002D03*
X0115495Y0189002D03*
X0115613Y0189002D03*
X0115062Y0192311D03*
X0114944Y0192311D03*
X0115140Y0192429D03*
X0113723Y0192429D03*
X0113605Y0192429D03*
X0112778Y0193138D03*
X0113605Y0193846D03*
X0113251Y0194909D03*
X0113133Y0194909D03*
X0113526Y0195028D03*
X0113723Y0195146D03*
X0113999Y0195264D03*
X0114117Y0195264D03*
X0114196Y0195382D03*
X0114471Y0195500D03*
X0114550Y0195500D03*
X0114668Y0195618D03*
X0114668Y0196563D03*
X0114550Y0196563D03*
X0114471Y0196681D03*
X0114196Y0196799D03*
X0114117Y0196799D03*
X0113999Y0196917D03*
X0113723Y0197035D03*
X0113605Y0197035D03*
X0113526Y0197154D03*
X0113251Y0197272D03*
X0113133Y0197272D03*
X0113054Y0197272D03*
X0113605Y0198335D03*
X0113723Y0198335D03*
X0112778Y0199043D03*
X0113605Y0199752D03*
X0114944Y0199870D03*
X0115062Y0199870D03*
X0115140Y0198335D03*
X0115062Y0198217D03*
X0114944Y0198217D03*
X0115613Y0196091D03*
X0115062Y0193965D03*
X0114944Y0193965D03*
X0114668Y0202089D03*
X0114117Y0202089D03*
X0113999Y0202089D03*
X0113999Y0203978D03*
X0114117Y0203978D03*
X0114196Y0203978D03*
X0114471Y0203978D03*
X0114550Y0203978D03*
X0114668Y0203978D03*
X0114944Y0203978D03*
X0115062Y0203978D03*
X0114471Y0205041D03*
X0114196Y0205041D03*
X0114117Y0205041D03*
X0113999Y0205041D03*
X0113723Y0205041D03*
X0113605Y0205041D03*
X0113526Y0205041D03*
X0113251Y0205041D03*
X0113133Y0205041D03*
X0113605Y0203978D03*
X0113723Y0203978D03*
X0113054Y0207049D03*
X0114471Y0207049D03*
X0114550Y0207049D03*
X0114668Y0207049D03*
X0114944Y0207049D03*
X0115062Y0207049D03*
X0115140Y0207049D03*
X0115416Y0207049D03*
X0115495Y0207049D03*
X0115613Y0207049D03*
X0115062Y0208112D03*
X0114944Y0208112D03*
X0114944Y0210002D03*
X0114668Y0210120D03*
X0114550Y0210120D03*
X0114471Y0210120D03*
X0114196Y0210120D03*
X0114117Y0210120D03*
X0113999Y0210120D03*
X0112778Y0208939D03*
X0113054Y0137154D03*
D13*
X0112778Y0137154D03*
X0112778Y0139752D03*
X0116007Y0132075D03*
X0112778Y0130303D03*
X0111686Y0123555D03*
X0107552Y0123555D03*
X0112778Y0147091D03*
X0112778Y0148154D03*
X0112778Y0150752D03*
X0112778Y0153687D03*
X0116007Y0185695D03*
X0112778Y0205041D03*
X0112778Y0207049D03*
X0113723Y0208230D03*
X0190028Y0207049D03*
X0190973Y0208230D03*
X0190028Y0205041D03*
X0189528Y0123937D03*
X0189528Y0113492D03*
D14*
X0190001Y0113433D03*
X0190946Y0112961D03*
X0191221Y0112843D03*
X0192166Y0112370D03*
X0191300Y0114142D03*
X0191694Y0115559D03*
X0190473Y0115559D03*
X0191890Y0118394D03*
X0191890Y0119811D03*
X0190276Y0119693D03*
X0190473Y0126713D03*
X0190749Y0126831D03*
X0191890Y0129311D03*
X0190394Y0136813D03*
X0190119Y0136813D03*
X0191772Y0154480D03*
X0190394Y0156134D03*
X0190946Y0157512D03*
X0191221Y0157512D03*
X0191497Y0157512D03*
X0191772Y0157512D03*
X0192048Y0157512D03*
X0192323Y0157512D03*
X0192599Y0157512D03*
X0189568Y0157512D03*
X0190394Y0164756D03*
X0191497Y0164756D03*
X0192875Y0166134D03*
X0191772Y0173628D03*
X0191772Y0175557D03*
X0190670Y0178589D03*
X0190394Y0178589D03*
X0190068Y0193276D03*
X0190068Y0195756D03*
X0193099Y0195756D03*
X0192194Y0202148D03*
X0192312Y0202266D03*
X0190973Y0202266D03*
X0190028Y0203565D03*
X0191721Y0206045D03*
X0192863Y0205100D03*
X0192390Y0208171D03*
X0192312Y0209943D03*
X0190973Y0209943D03*
X0190383Y0206990D03*
X0115613Y0205100D03*
X0114471Y0206045D03*
X0113133Y0206990D03*
X0115140Y0208171D03*
X0115062Y0209943D03*
X0113723Y0209943D03*
X0112778Y0203565D03*
X0113723Y0202266D03*
X0114944Y0202148D03*
X0115062Y0202266D03*
X0115140Y0199811D03*
X0114668Y0198394D03*
X0113605Y0195087D03*
X0115140Y0193906D03*
X0114668Y0192488D03*
X0113605Y0187526D03*
X0113526Y0186344D03*
X0115495Y0187407D03*
X0113920Y0167839D03*
X0113644Y0167839D03*
X0115298Y0164256D03*
X0115140Y0159061D03*
X0113999Y0156581D03*
X0113723Y0156463D03*
X0113133Y0152093D03*
X0113133Y0150693D03*
X0113133Y0148213D03*
X0115140Y0145969D03*
X0115062Y0143370D03*
X0113723Y0143370D03*
X0113605Y0143252D03*
X0113723Y0141362D03*
X0114944Y0141362D03*
X0115062Y0141480D03*
X0113133Y0139693D03*
X0113133Y0137213D03*
X0113723Y0135913D03*
X0114944Y0136031D03*
X0115062Y0135913D03*
X0115062Y0134024D03*
X0113723Y0134024D03*
X0113526Y0132724D03*
X0115613Y0152093D03*
D15*
X0114333Y0153392D03*
X0112916Y0158352D03*
X0112916Y0145260D03*
X0112916Y0134969D03*
X0189666Y0128602D03*
X0189666Y0119102D03*
X0191111Y0206754D03*
X0191583Y0208526D03*
X0190166Y0208998D03*
X0114333Y0208526D03*
X0112916Y0208998D03*
X0113861Y0206754D03*
D16*
X0112916Y0207049D03*
X0114806Y0199870D03*
X0112916Y0197272D03*
X0112916Y0194909D03*
X0114806Y0193965D03*
X0112916Y0153687D03*
X0112916Y0152152D03*
X0112916Y0150752D03*
X0112916Y0139752D03*
X0189666Y0123937D03*
X0189666Y0113492D03*
X0190166Y0207049D03*
D17*
X0190166Y0205100D03*
X0193001Y0205100D03*
X0189930Y0195756D03*
X0191635Y0175557D03*
X0189430Y0167512D03*
X0192501Y0114614D03*
X0192501Y0112252D03*
X0115751Y0152093D03*
X0112916Y0148213D03*
X0112916Y0147031D03*
X0112916Y0137213D03*
X0112916Y0130244D03*
X0115318Y0175071D03*
X0115751Y0183156D03*
X0115751Y0187407D03*
X0115751Y0189061D03*
X0115751Y0205100D03*
X0112916Y0205100D03*
D18*
X0112916Y0203447D03*
X0114806Y0196031D03*
X0115042Y0177394D03*
X0115160Y0167209D03*
X0115751Y0155400D03*
X0115751Y0142425D03*
X0115751Y0134969D03*
X0190257Y0157866D03*
X0190257Y0167984D03*
X0191359Y0174100D03*
X0191910Y0177959D03*
X0191359Y0184350D03*
X0190166Y0203447D03*
X0192501Y0125650D03*
D19*
X0189883Y0128602D03*
X0189883Y0119102D03*
X0190001Y0119102D03*
X0192363Y0119102D03*
X0115613Y0134969D03*
X0113133Y0145260D03*
X0113133Y0158352D03*
X0115613Y0193197D03*
X0115613Y0199102D03*
X0113054Y0208998D03*
X0190304Y0208998D03*
D20*
X0190304Y0205100D03*
X0191446Y0202030D03*
X0191721Y0202030D03*
X0191800Y0202030D03*
X0190946Y0178589D03*
X0192875Y0157512D03*
X0190355Y0129311D03*
X0190276Y0128130D03*
X0191890Y0125059D03*
X0191812Y0119811D03*
X0190473Y0119811D03*
X0190276Y0118630D03*
X0189804Y0113433D03*
X0115140Y0154809D03*
X0113054Y0152093D03*
X0113526Y0157880D03*
X0113605Y0159061D03*
X0114196Y0167839D03*
X0115613Y0183156D03*
X0113526Y0185163D03*
X0113723Y0193787D03*
X0113054Y0194850D03*
X0113723Y0199693D03*
X0114196Y0202030D03*
X0114471Y0202030D03*
X0114550Y0202030D03*
X0113054Y0205100D03*
X0113605Y0145969D03*
X0113526Y0144787D03*
X0112778Y0142425D03*
X0114550Y0141244D03*
X0112778Y0134969D03*
X0113526Y0131543D03*
D21*
X0113251Y0132075D03*
X0115495Y0132075D03*
X0115613Y0142366D03*
X0113133Y0142366D03*
X0113251Y0145319D03*
X0115495Y0145319D03*
X0115613Y0155459D03*
X0115495Y0158411D03*
X0113251Y0158411D03*
X0113251Y0185695D03*
X0115495Y0185695D03*
X0113054Y0188411D03*
X0113251Y0193138D03*
X0115495Y0193138D03*
X0115495Y0199043D03*
X0113251Y0199043D03*
X0113054Y0203388D03*
X0115613Y0208939D03*
X0190304Y0203388D03*
X0192863Y0208939D03*
X0192245Y0128661D03*
X0190001Y0128661D03*
X0192363Y0125709D03*
X0192245Y0119161D03*
X0189804Y0116681D03*
D22*
X0189883Y0116622D03*
X0192363Y0116622D03*
X0192166Y0119102D03*
X0192638Y0123169D03*
X0189883Y0125650D03*
X0115416Y0132134D03*
X0115495Y0134969D03*
X0113133Y0134969D03*
X0113133Y0155400D03*
X0114196Y0174520D03*
X0112936Y0177315D03*
X0115416Y0185754D03*
X0114668Y0188352D03*
X0113133Y0188352D03*
X0115613Y0203329D03*
X0113133Y0208998D03*
X0190383Y0208998D03*
X0192863Y0203329D03*
D23*
X0192745Y0203270D03*
X0190383Y0203270D03*
X0192745Y0208939D03*
X0115495Y0208939D03*
X0115495Y0203270D03*
X0113133Y0203270D03*
X0113526Y0199043D03*
X0115416Y0199043D03*
X0115416Y0193138D03*
X0113526Y0193138D03*
X0113251Y0188293D03*
X0114550Y0188293D03*
X0114944Y0188293D03*
X0115062Y0188293D03*
X0114471Y0174461D03*
X0115731Y0174461D03*
X0113211Y0174303D03*
X0112936Y0174303D03*
X0115416Y0158411D03*
X0115495Y0155459D03*
X0113251Y0155459D03*
X0115416Y0145319D03*
X0115495Y0142366D03*
X0113251Y0142366D03*
X0190001Y0125709D03*
X0192245Y0125709D03*
X0192245Y0123228D03*
X0192166Y0123228D03*
X0192363Y0123228D03*
X0192166Y0128661D03*
X0192245Y0116563D03*
X0190001Y0116563D03*
D24*
X0192166Y0116504D03*
X0191418Y0113433D03*
X0192166Y0125768D03*
X0192048Y0177762D03*
X0189568Y0188012D03*
X0190501Y0203211D03*
X0192666Y0203211D03*
X0192666Y0208998D03*
X0190776Y0209116D03*
X0190501Y0208998D03*
X0115416Y0208998D03*
X0113526Y0209116D03*
X0113251Y0208998D03*
X0113251Y0203211D03*
X0115416Y0203211D03*
X0114471Y0188234D03*
X0113526Y0188234D03*
X0113211Y0177315D03*
X0115298Y0167012D03*
X0115416Y0155518D03*
X0115416Y0134969D03*
X0113251Y0134969D03*
D25*
X0113605Y0135854D03*
X0113251Y0137272D03*
X0114668Y0138453D03*
X0113251Y0139634D03*
X0113605Y0141539D03*
X0115140Y0143193D03*
X0115888Y0145319D03*
X0113999Y0145791D03*
X0113251Y0148272D03*
X0114668Y0149453D03*
X0113251Y0150634D03*
X0113251Y0152152D03*
X0113526Y0152388D03*
X0113605Y0152506D03*
X0113723Y0152624D03*
X0114944Y0152624D03*
X0115062Y0152506D03*
X0115140Y0152388D03*
X0115416Y0152270D03*
X0115495Y0152152D03*
X0115062Y0156404D03*
X0115888Y0158411D03*
X0113999Y0158884D03*
X0113605Y0134083D03*
X0115888Y0132075D03*
X0115888Y0185695D03*
X0115495Y0196091D03*
X0115416Y0196091D03*
X0115495Y0205159D03*
X0113251Y0206931D03*
X0113605Y0209884D03*
X0115140Y0209766D03*
X0190501Y0206931D03*
X0192745Y0205159D03*
X0192390Y0209766D03*
X0190855Y0209884D03*
X0190749Y0129134D03*
X0192638Y0128661D03*
X0191812Y0126654D03*
X0190749Y0119634D03*
X0189528Y0116917D03*
X0191812Y0115618D03*
D26*
X0190138Y0116504D03*
X0190138Y0125768D03*
X0191910Y0135986D03*
X0192186Y0146262D03*
X0191359Y0146262D03*
X0189981Y0165583D03*
X0190638Y0209116D03*
X0115318Y0177315D03*
X0113073Y0177315D03*
X0115593Y0174520D03*
X0114333Y0188234D03*
X0113388Y0209116D03*
X0113388Y0155518D03*
D27*
X0113388Y0152270D03*
X0113388Y0206931D03*
X0190638Y0206931D03*
X0190138Y0113492D03*
D28*
X0191083Y0112902D03*
X0191083Y0115382D03*
X0190611Y0115500D03*
X0190611Y0117272D03*
X0191083Y0117272D03*
X0191556Y0117272D03*
X0190611Y0119752D03*
X0190611Y0123937D03*
X0191083Y0123937D03*
X0191556Y0123937D03*
X0190138Y0123937D03*
X0190611Y0126772D03*
X0191083Y0126890D03*
X0191556Y0126772D03*
X0190611Y0129252D03*
X0189430Y0135376D03*
X0190257Y0146872D03*
X0189430Y0157453D03*
X0192737Y0157453D03*
X0190532Y0166350D03*
X0190257Y0166350D03*
X0191083Y0167571D03*
X0191359Y0167571D03*
X0191635Y0167571D03*
X0191910Y0167571D03*
X0192186Y0167571D03*
X0192461Y0167571D03*
X0192737Y0167571D03*
X0192737Y0183110D03*
X0192737Y0185591D03*
X0192737Y0186693D03*
X0189430Y0183110D03*
X0189930Y0193217D03*
X0193237Y0193217D03*
X0193237Y0195815D03*
X0193237Y0198177D03*
X0191583Y0201970D03*
X0192056Y0202089D03*
X0192056Y0203978D03*
X0191583Y0203978D03*
X0191111Y0203978D03*
X0191111Y0205041D03*
X0191583Y0205041D03*
X0190638Y0205041D03*
X0191583Y0206104D03*
X0191583Y0207049D03*
X0192056Y0207049D03*
X0192528Y0207049D03*
X0193001Y0207049D03*
X0192056Y0208112D03*
X0191583Y0210120D03*
X0115751Y0207049D03*
X0115278Y0207049D03*
X0114806Y0207049D03*
X0114333Y0207049D03*
X0114333Y0206104D03*
X0114333Y0205041D03*
X0113861Y0205041D03*
X0113388Y0205041D03*
X0113861Y0203978D03*
X0114333Y0203978D03*
X0114806Y0203978D03*
X0114806Y0202089D03*
X0114333Y0201970D03*
X0113861Y0198335D03*
X0113388Y0197154D03*
X0113861Y0196917D03*
X0114333Y0196681D03*
X0114333Y0195382D03*
X0115751Y0196091D03*
X0113861Y0192429D03*
X0113861Y0189002D03*
X0115278Y0189002D03*
X0115278Y0187467D03*
X0113861Y0187348D03*
X0114806Y0184986D03*
X0114806Y0183096D03*
X0115278Y0183096D03*
X0114333Y0183096D03*
X0113861Y0183096D03*
X0114058Y0178240D03*
X0112522Y0177256D03*
X0113625Y0175012D03*
X0115987Y0164315D03*
X0113861Y0159002D03*
X0114333Y0156640D03*
X0113861Y0156522D03*
X0114806Y0156522D03*
X0115278Y0153687D03*
X0115751Y0153687D03*
X0113388Y0153687D03*
X0114333Y0150752D03*
X0114806Y0150752D03*
X0115278Y0150752D03*
X0115751Y0150752D03*
X0114806Y0149453D03*
X0114806Y0148154D03*
X0115278Y0148154D03*
X0115751Y0148154D03*
X0115751Y0147091D03*
X0115278Y0147091D03*
X0114806Y0147091D03*
X0114333Y0147091D03*
X0113861Y0147091D03*
X0113388Y0147091D03*
X0113861Y0145909D03*
X0114333Y0148154D03*
X0114333Y0143547D03*
X0113861Y0143429D03*
X0114333Y0141185D03*
X0114806Y0141303D03*
X0114806Y0139752D03*
X0115278Y0139752D03*
X0115751Y0139752D03*
X0114333Y0139752D03*
X0114806Y0138453D03*
X0114806Y0137154D03*
X0115278Y0137154D03*
X0115751Y0137154D03*
X0114333Y0137154D03*
X0114333Y0136091D03*
X0114806Y0136091D03*
X0114806Y0133846D03*
X0114333Y0133846D03*
X0114806Y0131366D03*
X0114806Y0130303D03*
X0115278Y0130303D03*
X0115751Y0130303D03*
X0114333Y0130303D03*
X0113861Y0130303D03*
X0113388Y0130303D03*
X0114806Y0208112D03*
X0114333Y0210120D03*
D29*
X0113388Y0203152D03*
X0115278Y0203152D03*
X0113231Y0166953D03*
X0115278Y0155577D03*
X0113388Y0142366D03*
X0190808Y0165524D03*
X0191359Y0155366D03*
X0192186Y0155366D03*
X0189981Y0177703D03*
X0189705Y0187953D03*
X0191635Y0187953D03*
X0192528Y0203152D03*
X0190638Y0203152D03*
X0192028Y0125827D03*
X0192028Y0116445D03*
X0191556Y0113492D03*
D30*
X0190276Y0113433D03*
X0190355Y0115677D03*
X0192638Y0119102D03*
X0192638Y0125650D03*
X0191890Y0126476D03*
X0190355Y0126594D03*
X0191418Y0128130D03*
X0115888Y0134969D03*
X0115140Y0135795D03*
X0115140Y0134142D03*
X0113999Y0132606D03*
X0114668Y0131543D03*
X0113526Y0137331D03*
X0113526Y0139575D03*
X0115140Y0141598D03*
X0114668Y0144787D03*
X0113526Y0148331D03*
X0113526Y0150575D03*
X0115888Y0155400D03*
X0115140Y0156226D03*
X0113605Y0156344D03*
X0114668Y0157880D03*
X0114668Y0185163D03*
X0113999Y0186226D03*
X0112778Y0188589D03*
X0115888Y0193197D03*
X0115888Y0199102D03*
X0113605Y0202384D03*
X0115416Y0205219D03*
X0113526Y0206872D03*
X0114668Y0208289D03*
X0190776Y0206872D03*
X0191918Y0208289D03*
X0192666Y0205219D03*
X0190855Y0202384D03*
D31*
X0190776Y0203152D03*
X0192272Y0194437D03*
X0191772Y0184370D03*
X0190119Y0177703D03*
X0192875Y0177545D03*
X0192323Y0155366D03*
X0190276Y0125827D03*
X0190276Y0116445D03*
X0191890Y0116445D03*
X0115416Y0142366D03*
X0113526Y0155577D03*
X0113369Y0163921D03*
X0113369Y0166953D03*
X0116125Y0166795D03*
X0113526Y0203152D03*
D32*
X0113605Y0208289D03*
X0115888Y0196031D03*
X0115888Y0187407D03*
X0113605Y0185163D03*
X0115888Y0152093D03*
X0116007Y0134969D03*
X0113605Y0131543D03*
X0192638Y0114614D03*
X0190855Y0208289D03*
D33*
X0191367Y0208467D03*
X0191446Y0208467D03*
X0190855Y0206813D03*
X0192390Y0205278D03*
X0193138Y0208939D03*
X0115888Y0208939D03*
X0114196Y0208467D03*
X0114117Y0208467D03*
X0113605Y0206813D03*
X0115140Y0205278D03*
X0114196Y0198807D03*
X0114117Y0198689D03*
X0114471Y0198689D03*
X0115140Y0196091D03*
X0114196Y0192902D03*
X0114117Y0192783D03*
X0114471Y0192783D03*
X0113605Y0150516D03*
X0114550Y0149453D03*
X0113605Y0148390D03*
X0115888Y0142366D03*
X0113605Y0139516D03*
X0114550Y0138453D03*
X0113605Y0137390D03*
X0190355Y0113492D03*
X0191418Y0118571D03*
D34*
X0190473Y0113433D03*
X0114471Y0138512D03*
X0113723Y0139457D03*
X0113723Y0137449D03*
X0113723Y0148449D03*
X0114471Y0149512D03*
X0113723Y0150457D03*
X0113999Y0192724D03*
X0114550Y0192724D03*
X0115062Y0196031D03*
X0114550Y0198630D03*
X0113999Y0198630D03*
X0115062Y0205337D03*
X0113723Y0206754D03*
X0114471Y0208407D03*
X0114550Y0208407D03*
X0190973Y0206754D03*
X0191721Y0208407D03*
X0191800Y0208407D03*
X0192312Y0205337D03*
D35*
X0191111Y0202148D03*
X0191111Y0210061D03*
X0192056Y0210061D03*
X0192186Y0186909D03*
X0190808Y0178589D03*
X0190532Y0178589D03*
X0191910Y0175557D03*
X0191910Y0173628D03*
X0190532Y0164756D03*
X0190257Y0164756D03*
X0191083Y0157512D03*
X0191359Y0157512D03*
X0191635Y0157512D03*
X0191910Y0157512D03*
X0192186Y0157512D03*
X0192461Y0157512D03*
X0190532Y0156134D03*
X0190257Y0156134D03*
X0191910Y0154480D03*
X0190532Y0136813D03*
X0190257Y0136813D03*
X0191556Y0127894D03*
X0191556Y0118394D03*
X0191556Y0115441D03*
X0191083Y0114024D03*
X0114806Y0143488D03*
X0114806Y0144551D03*
X0113861Y0141362D03*
X0113861Y0136031D03*
X0113861Y0133906D03*
X0113861Y0132724D03*
X0115278Y0152329D03*
X0114806Y0157644D03*
X0113782Y0163429D03*
X0115160Y0164256D03*
X0115436Y0164256D03*
X0114058Y0167839D03*
X0113782Y0167839D03*
X0113861Y0186344D03*
X0114806Y0192370D03*
X0113388Y0194969D03*
X0113861Y0195205D03*
X0114806Y0198276D03*
X0113861Y0202148D03*
X0113861Y0210061D03*
X0114806Y0210061D03*
D36*
X0113999Y0206695D03*
X0114944Y0205396D03*
X0115888Y0203506D03*
X0113054Y0199043D03*
X0114944Y0196091D03*
X0113054Y0193138D03*
X0114117Y0185931D03*
X0114550Y0185341D03*
X0115180Y0177610D03*
X0112660Y0177335D03*
X0114117Y0158648D03*
X0114550Y0158057D03*
X0114471Y0153333D03*
X0114196Y0153333D03*
X0113999Y0150398D03*
X0113999Y0148508D03*
X0114117Y0145555D03*
X0114550Y0144965D03*
X0113999Y0139398D03*
X0113999Y0137508D03*
X0114117Y0132311D03*
X0114550Y0131720D03*
X0189292Y0146124D03*
X0190867Y0128898D03*
X0191300Y0128307D03*
X0191300Y0118807D03*
X0192638Y0116799D03*
X0190119Y0167925D03*
X0190946Y0174317D03*
X0191446Y0194516D03*
X0191721Y0194516D03*
X0193138Y0203506D03*
X0192194Y0205396D03*
X0191249Y0206695D03*
D37*
X0191367Y0206636D03*
X0191918Y0205455D03*
X0191772Y0177841D03*
X0190670Y0174100D03*
X0190670Y0167984D03*
X0192599Y0165937D03*
X0190670Y0157866D03*
X0190670Y0146616D03*
X0189804Y0128602D03*
X0190867Y0119339D03*
X0189804Y0119102D03*
X0190749Y0113433D03*
X0115022Y0167091D03*
X0113054Y0158352D03*
X0114117Y0153274D03*
X0114550Y0153274D03*
X0114117Y0150339D03*
X0114117Y0148567D03*
X0113054Y0145260D03*
X0114117Y0139339D03*
X0114117Y0137567D03*
X0113054Y0134969D03*
X0113054Y0132016D03*
X0114471Y0131898D03*
X0114471Y0185518D03*
X0113054Y0185636D03*
X0114668Y0205455D03*
X0114117Y0206636D03*
D38*
X0114196Y0206577D03*
X0114550Y0205514D03*
X0113133Y0199043D03*
X0113133Y0193138D03*
X0114196Y0185813D03*
X0113133Y0185695D03*
X0115613Y0185695D03*
X0112818Y0166874D03*
X0114196Y0158411D03*
X0114471Y0158175D03*
X0115613Y0158411D03*
X0113054Y0155459D03*
X0113999Y0153215D03*
X0114668Y0153215D03*
X0114196Y0145319D03*
X0114471Y0145083D03*
X0115613Y0145319D03*
X0113054Y0142366D03*
X0114196Y0132193D03*
X0113133Y0132075D03*
X0115613Y0132075D03*
X0189804Y0125709D03*
X0191221Y0128425D03*
X0190946Y0128661D03*
X0192363Y0128661D03*
X0190946Y0119161D03*
X0191221Y0118925D03*
X0190867Y0113492D03*
X0189568Y0155445D03*
X0190394Y0157925D03*
X0192048Y0165445D03*
X0189568Y0174593D03*
X0189568Y0177624D03*
X0191800Y0205514D03*
X0191446Y0206577D03*
D39*
X0192056Y0205396D03*
X0191635Y0177624D03*
X0191083Y0174317D03*
X0189430Y0174593D03*
X0190808Y0167925D03*
X0192737Y0165996D03*
X0192501Y0128661D03*
X0192501Y0119161D03*
X0190611Y0113492D03*
X0115751Y0132075D03*
X0113861Y0137508D03*
X0114333Y0138453D03*
X0113861Y0139398D03*
X0115751Y0145319D03*
X0113861Y0148508D03*
X0114333Y0149453D03*
X0113861Y0150398D03*
X0115751Y0158411D03*
X0114885Y0166874D03*
X0114609Y0176902D03*
X0115751Y0185695D03*
X0115751Y0193138D03*
X0115751Y0199043D03*
X0114806Y0205396D03*
D40*
X0115140Y0203093D03*
X0112778Y0183156D03*
X0112818Y0163980D03*
X0113093Y0163980D03*
X0113526Y0134969D03*
X0191694Y0113433D03*
X0192390Y0203093D03*
D41*
X0192528Y0208998D03*
X0115278Y0208998D03*
X0113231Y0163980D03*
X0112955Y0163980D03*
X0112680Y0163980D03*
X0115278Y0142425D03*
X0115278Y0134969D03*
X0113388Y0134969D03*
D42*
X0113388Y0137331D03*
X0113388Y0139575D03*
X0113388Y0148331D03*
X0113388Y0150575D03*
X0115278Y0196031D03*
X0115278Y0205219D03*
X0192528Y0205219D03*
D43*
X0193001Y0208939D03*
X0191859Y0194516D03*
X0191308Y0194516D03*
X0192737Y0174593D03*
X0190532Y0157925D03*
X0192737Y0155445D03*
X0192737Y0146400D03*
X0191083Y0128543D03*
X0191083Y0119043D03*
X0189666Y0116799D03*
X0114333Y0145201D03*
X0114333Y0158293D03*
X0112916Y0188530D03*
X0115751Y0208939D03*
D44*
X0115751Y0203447D03*
X0113388Y0185754D03*
X0114333Y0185636D03*
X0113861Y0153156D03*
X0114806Y0153156D03*
X0113388Y0132134D03*
X0114333Y0132016D03*
X0192501Y0116740D03*
X0193001Y0203447D03*
D45*
X0193138Y0205041D03*
X0193138Y0207049D03*
X0115888Y0207049D03*
X0115888Y0205041D03*
X0115888Y0189002D03*
X0115062Y0186404D03*
X0115888Y0183096D03*
X0115062Y0159120D03*
X0112778Y0155459D03*
X0113605Y0154750D03*
X0115888Y0153687D03*
X0115888Y0150752D03*
X0115062Y0149453D03*
X0115888Y0148154D03*
X0115888Y0147091D03*
X0115062Y0146028D03*
X0115888Y0139752D03*
X0115062Y0138453D03*
X0115888Y0137154D03*
X0115062Y0132783D03*
X0115888Y0130303D03*
X0189528Y0125709D03*
X0190355Y0125000D03*
X0191812Y0129370D03*
X0192638Y0112311D03*
D46*
X0192757Y0119102D03*
X0192757Y0125650D03*
X0192757Y0128602D03*
X0116007Y0145260D03*
X0112778Y0152093D03*
X0116007Y0155400D03*
X0116007Y0158352D03*
X0112778Y0194969D03*
X0112778Y0197213D03*
X0116007Y0208998D03*
X0193257Y0208998D03*
D47*
X0189792Y0198177D03*
D48*
X0189792Y0195756D03*
X0189792Y0193276D03*
X0193375Y0195756D03*
D49*
X0189930Y0198098D03*
D50*
X0190068Y0198177D03*
D51*
X0190205Y0198177D03*
D52*
X0190205Y0195677D03*
X0190757Y0195283D03*
X0192961Y0195677D03*
X0190257Y0186831D03*
X0189705Y0185610D03*
X0189705Y0183130D03*
X0192461Y0185610D03*
X0191083Y0177014D03*
X0190257Y0176856D03*
X0191635Y0173707D03*
X0189705Y0167709D03*
X0191910Y0165110D03*
X0189705Y0157591D03*
X0190532Y0154677D03*
X0114885Y0164059D03*
X0114609Y0163902D03*
X0114333Y0163783D03*
X0114058Y0163626D03*
X0113507Y0166106D03*
X0114333Y0166264D03*
D53*
X0113782Y0174953D03*
X0114333Y0176606D03*
X0189981Y0183327D03*
X0190257Y0183602D03*
X0191910Y0183602D03*
X0192186Y0183327D03*
X0192961Y0193276D03*
X0192686Y0193551D03*
X0192410Y0195205D03*
X0192686Y0195480D03*
X0190481Y0195480D03*
X0190205Y0193276D03*
X0190532Y0146813D03*
D54*
X0190343Y0198098D03*
X0114196Y0149453D03*
X0114196Y0138453D03*
D55*
X0114471Y0166323D03*
X0189843Y0157650D03*
X0191221Y0177073D03*
X0189843Y0183189D03*
X0190119Y0183465D03*
X0190394Y0183740D03*
X0192048Y0183465D03*
X0189292Y0188150D03*
X0192823Y0193413D03*
X0192548Y0195343D03*
X0192823Y0195618D03*
X0190619Y0195343D03*
X0190343Y0195618D03*
D56*
X0190343Y0193354D03*
X0192548Y0193630D03*
X0193099Y0193197D03*
X0192048Y0186988D03*
X0192323Y0186831D03*
X0190946Y0186831D03*
X0190394Y0185059D03*
X0189568Y0183130D03*
X0192599Y0183130D03*
X0190946Y0176856D03*
X0192048Y0175478D03*
X0191497Y0173825D03*
X0190670Y0166213D03*
X0190670Y0164835D03*
X0190119Y0164835D03*
X0191772Y0164953D03*
X0191497Y0156213D03*
X0192048Y0156213D03*
X0190119Y0156055D03*
X0190119Y0154677D03*
X0114747Y0164059D03*
X0114471Y0163902D03*
X0114196Y0163626D03*
X0113920Y0163508D03*
X0113644Y0163350D03*
X0114196Y0166106D03*
D57*
X0190481Y0198157D03*
D58*
X0191583Y0194516D03*
X0190757Y0193689D03*
X0190481Y0193413D03*
X0192410Y0193689D03*
X0192186Y0185394D03*
X0191910Y0185118D03*
X0190257Y0185118D03*
X0189981Y0185394D03*
X0192461Y0183189D03*
D59*
X0192599Y0185669D03*
X0192599Y0186772D03*
X0192599Y0188701D03*
X0192323Y0188701D03*
X0192048Y0188701D03*
X0190946Y0188701D03*
X0190670Y0188701D03*
X0190394Y0188701D03*
X0190394Y0186772D03*
X0190670Y0186772D03*
X0189568Y0185669D03*
X0190394Y0176797D03*
X0190670Y0176797D03*
X0189292Y0174593D03*
X0190394Y0173766D03*
X0192048Y0173766D03*
X0190119Y0166272D03*
X0191772Y0156272D03*
X0191497Y0154618D03*
X0192048Y0154618D03*
X0190394Y0154618D03*
X0191497Y0145573D03*
X0192048Y0145573D03*
X0190946Y0136951D03*
X0190670Y0136951D03*
X0189843Y0136675D03*
X0189568Y0136675D03*
X0189568Y0135297D03*
X0189843Y0135297D03*
X0190119Y0135297D03*
X0190394Y0135297D03*
X0190670Y0135297D03*
X0190946Y0135297D03*
X0192048Y0135297D03*
X0192323Y0135297D03*
X0192599Y0135297D03*
X0115849Y0164394D03*
X0115022Y0164118D03*
X0113920Y0166047D03*
X0113644Y0166047D03*
X0114747Y0173673D03*
X0115180Y0173673D03*
X0113920Y0176350D03*
X0113487Y0176469D03*
X0190619Y0198098D03*
X0190894Y0198098D03*
X0191170Y0198098D03*
X0191446Y0198098D03*
X0191721Y0198098D03*
X0191997Y0198098D03*
X0192272Y0198098D03*
X0192548Y0198098D03*
X0192823Y0198098D03*
D60*
X0190894Y0195205D03*
X0190894Y0193827D03*
X0190619Y0193551D03*
X0189843Y0185531D03*
X0190119Y0185256D03*
X0192048Y0185256D03*
X0192323Y0185531D03*
X0192323Y0183327D03*
X0189843Y0167787D03*
X0114471Y0176764D03*
D61*
X0114058Y0176469D03*
X0113782Y0176350D03*
X0113625Y0176469D03*
X0113625Y0178161D03*
X0113782Y0178161D03*
X0114885Y0173673D03*
X0115318Y0173673D03*
X0113507Y0167701D03*
X0113782Y0166047D03*
X0114058Y0166047D03*
X0115711Y0164394D03*
X0113507Y0163291D03*
X0190257Y0154618D03*
X0191635Y0154618D03*
X0191635Y0156272D03*
X0191910Y0156272D03*
X0191635Y0164894D03*
X0190532Y0173766D03*
X0190257Y0173766D03*
X0190257Y0175419D03*
X0190532Y0176797D03*
X0190808Y0176797D03*
X0190257Y0178451D03*
X0190532Y0186772D03*
X0190808Y0186772D03*
X0192461Y0186772D03*
X0192461Y0188701D03*
X0192186Y0188701D03*
X0192737Y0188701D03*
X0190808Y0188701D03*
X0190532Y0188701D03*
X0190257Y0188701D03*
X0190757Y0198098D03*
X0191032Y0198098D03*
X0191308Y0198098D03*
X0191583Y0198098D03*
X0191859Y0198098D03*
X0192135Y0198098D03*
X0192410Y0198098D03*
X0192686Y0198098D03*
X0192961Y0198098D03*
X0191910Y0145573D03*
X0191635Y0145573D03*
X0190808Y0136951D03*
X0189981Y0136675D03*
X0189705Y0136675D03*
X0189705Y0135297D03*
X0189981Y0135297D03*
X0190257Y0135297D03*
X0190532Y0135297D03*
X0190808Y0135297D03*
X0192186Y0135297D03*
X0192461Y0135297D03*
X0192737Y0135297D03*
D62*
X0192461Y0155445D03*
X0189981Y0155445D03*
X0189981Y0174593D03*
X0192461Y0174593D03*
X0191032Y0194516D03*
D63*
X0191170Y0194516D03*
X0192599Y0155445D03*
X0192599Y0146400D03*
X0190946Y0146400D03*
X0189568Y0146124D03*
D64*
X0190946Y0155366D03*
X0192323Y0165799D03*
X0191497Y0184370D03*
X0191997Y0194437D03*
X0112542Y0164039D03*
D65*
X0191083Y0165386D03*
X0190808Y0155386D03*
X0191083Y0146341D03*
X0189981Y0146183D03*
X0189705Y0146183D03*
X0192461Y0146341D03*
X0191635Y0184350D03*
X0190532Y0184350D03*
X0192135Y0194457D03*
D66*
X0193375Y0198098D03*
X0192875Y0188701D03*
X0192875Y0186772D03*
X0192048Y0146951D03*
X0192875Y0135297D03*
D67*
X0192875Y0183130D03*
X0192875Y0185610D03*
X0189292Y0183130D03*
X0193375Y0193197D03*
X0116282Y0174441D03*
D68*
X0189292Y0185669D03*
D69*
X0189430Y0188071D03*
X0192186Y0165642D03*
X0191359Y0165248D03*
X0190808Y0146478D03*
X0189430Y0146203D03*
D70*
X0189430Y0136675D03*
X0189430Y0185669D03*
D71*
X0189843Y0187874D03*
X0191497Y0187874D03*
X0191772Y0187874D03*
X0192323Y0174593D03*
X0190119Y0174593D03*
X0191772Y0136124D03*
D72*
X0191635Y0136183D03*
X0191359Y0136183D03*
X0192186Y0177565D03*
X0192737Y0177565D03*
X0191083Y0187815D03*
X0189981Y0187815D03*
X0115987Y0166815D03*
X0115436Y0166815D03*
D73*
X0190119Y0187815D03*
X0191221Y0187815D03*
X0191221Y0136183D03*
X0191497Y0136183D03*
D74*
X0190119Y0146262D03*
X0191221Y0165307D03*
X0190670Y0184429D03*
D75*
X0190808Y0184429D03*
X0190532Y0168063D03*
X0192461Y0165858D03*
X0112798Y0177315D03*
D76*
X0114747Y0166736D03*
X0190119Y0157787D03*
X0191221Y0174179D03*
X0191497Y0177486D03*
X0190946Y0184429D03*
D77*
X0191083Y0184370D03*
X0189430Y0177703D03*
X0191359Y0177270D03*
X0189981Y0167846D03*
X0189430Y0165524D03*
X0189981Y0157728D03*
X0189430Y0155366D03*
X0116144Y0174461D03*
X0114609Y0166520D03*
X0112680Y0166953D03*
D78*
X0191221Y0184370D03*
X0192875Y0174671D03*
X0192875Y0155366D03*
X0192875Y0146321D03*
D79*
X0191083Y0136124D03*
X0192186Y0174593D03*
X0191910Y0187874D03*
X0191359Y0187874D03*
X0116144Y0177177D03*
D80*
X0113349Y0174382D03*
X0112955Y0166874D03*
X0189705Y0174593D03*
X0189705Y0177624D03*
X0189705Y0155445D03*
X0191083Y0155445D03*
D81*
X0189843Y0155386D03*
X0191221Y0146341D03*
X0189843Y0146183D03*
X0189843Y0165504D03*
X0192599Y0174652D03*
X0189843Y0177683D03*
X0113093Y0166933D03*
D82*
X0189843Y0174593D03*
X0190946Y0165445D03*
X0191221Y0155445D03*
X0190670Y0155445D03*
X0192323Y0146400D03*
D83*
X0193012Y0146341D03*
X0190532Y0175360D03*
D84*
X0190808Y0174179D03*
X0190808Y0157787D03*
D85*
X0192323Y0177624D03*
X0192599Y0177624D03*
X0115849Y0166874D03*
X0115573Y0166874D03*
D86*
X0115711Y0166874D03*
X0192461Y0177624D03*
D87*
X0193012Y0174593D03*
X0193012Y0155445D03*
D88*
X0190946Y0158339D03*
X0191497Y0165583D03*
X0189292Y0167512D03*
D89*
X0190394Y0168063D03*
X0189568Y0165583D03*
X0116007Y0174520D03*
D90*
X0189705Y0165583D03*
D91*
X0190946Y0168398D03*
X0189292Y0157453D03*
X0189292Y0136754D03*
X0189292Y0135376D03*
X0115180Y0175169D03*
D92*
X0114885Y0174953D03*
X0191635Y0146813D03*
X0166085Y0068020D03*
D93*
X0191910Y0147030D03*
D94*
X0189666Y0125709D03*
X0112916Y0132075D03*
X0112916Y0142366D03*
X0112916Y0155459D03*
X0112916Y0185695D03*
X0114333Y0192902D03*
X0112916Y0193138D03*
X0114333Y0198807D03*
X0112916Y0199043D03*
D95*
X0113388Y0199043D03*
X0113388Y0193138D03*
X0113388Y0158411D03*
X0113388Y0145319D03*
X0190138Y0128661D03*
X0192028Y0123346D03*
X0190138Y0119161D03*
D96*
X0190355Y0118571D03*
X0191694Y0119870D03*
X0191812Y0125000D03*
X0190473Y0125000D03*
X0190355Y0128071D03*
X0191694Y0129370D03*
X0116007Y0142366D03*
X0113605Y0144728D03*
X0114944Y0146028D03*
X0115062Y0154750D03*
X0113723Y0154750D03*
X0113605Y0157821D03*
X0114944Y0159120D03*
X0114944Y0132783D03*
X0114944Y0186404D03*
X0116007Y0193138D03*
X0116007Y0199043D03*
D97*
X0115278Y0199043D03*
X0115278Y0193138D03*
X0113388Y0188293D03*
X0115278Y0185695D03*
X0114333Y0174461D03*
X0113073Y0174303D03*
X0115278Y0158411D03*
X0115278Y0145319D03*
X0115278Y0132075D03*
X0192028Y0128661D03*
X0192501Y0123228D03*
X0192028Y0119161D03*
D98*
X0191812Y0113492D03*
X0113526Y0142366D03*
D99*
X0191890Y0113433D03*
D100*
X0192028Y0113492D03*
X0115869Y0177177D03*
X0112916Y0183096D03*
D101*
X0109501Y0123555D03*
D102*
X0111745Y0121390D03*
X0105485Y0123555D03*
D103*
X0111686Y0123417D03*
D104*
X0109501Y0123417D03*
X0109501Y0122000D03*
X0109501Y0121528D03*
X0109501Y0121055D03*
X0109501Y0120583D03*
X0110564Y0120583D03*
X0112926Y0120583D03*
X0107493Y0123417D03*
X0105485Y0120583D03*
X0135534Y0071563D03*
X0125101Y0069083D03*
X0179117Y0068020D03*
D105*
X0111686Y0121055D03*
X0105426Y0123417D03*
D106*
X0105485Y0120720D03*
X0109501Y0120720D03*
X0109501Y0120839D03*
X0109501Y0120917D03*
X0109501Y0121193D03*
X0109501Y0121272D03*
X0109501Y0121390D03*
X0109501Y0121665D03*
X0109501Y0121783D03*
X0109501Y0121862D03*
X0111745Y0123280D03*
D107*
X0111686Y0123201D03*
X0111214Y0122138D03*
X0111096Y0121862D03*
X0110623Y0120917D03*
X0110623Y0120839D03*
X0110505Y0120720D03*
X0112395Y0121783D03*
X0112749Y0120917D03*
X0112867Y0120839D03*
X0112867Y0120720D03*
X0109442Y0123201D03*
X0109442Y0123280D03*
X0107552Y0123280D03*
X0107552Y0123201D03*
X0107552Y0123083D03*
X0107552Y0122807D03*
X0107552Y0122728D03*
X0107552Y0122610D03*
X0107552Y0122335D03*
X0107552Y0122217D03*
X0107552Y0122138D03*
X0105426Y0122138D03*
X0105426Y0122217D03*
X0105426Y0122335D03*
X0105426Y0122610D03*
X0105426Y0122728D03*
X0105426Y0122807D03*
X0105426Y0121862D03*
X0105426Y0121783D03*
X0105426Y0121665D03*
X0105426Y0121390D03*
X0105426Y0121272D03*
X0105426Y0121193D03*
X0105426Y0120917D03*
X0105426Y0120839D03*
D108*
X0105485Y0123201D03*
X0105485Y0123280D03*
D109*
X0107611Y0120839D03*
X0107611Y0120720D03*
X0109383Y0123083D03*
X0111036Y0121783D03*
X0112218Y0122138D03*
X0112336Y0121862D03*
X0111745Y0123083D03*
D110*
X0105426Y0123083D03*
D111*
X0114451Y0066957D03*
X0115160Y0071209D03*
X0112680Y0071209D03*
X0120121Y0071209D03*
X0141381Y0072626D03*
X0144215Y0072626D03*
X0160711Y0068374D03*
X0170790Y0072626D03*
X0176459Y0070854D03*
X0181774Y0071209D03*
X0184255Y0071209D03*
X0184255Y0071563D03*
X0184255Y0070854D03*
X0184255Y0069083D03*
X0184255Y0068728D03*
X0184255Y0068374D03*
X0187995Y0071563D03*
X0192050Y0071563D03*
X0192050Y0071209D03*
X0192050Y0069791D03*
X0192050Y0069437D03*
X0111686Y0122945D03*
X0109324Y0122945D03*
D112*
X0107552Y0122945D03*
X0107552Y0122472D03*
X0107552Y0122000D03*
X0107552Y0120583D03*
X0105426Y0121055D03*
X0105426Y0121528D03*
X0105426Y0122000D03*
X0105426Y0122472D03*
X0112277Y0122000D03*
D113*
X0105485Y0122945D03*
X0166007Y0070854D03*
X0166007Y0068728D03*
X0179117Y0072272D03*
X0186912Y0072272D03*
X0191164Y0070854D03*
X0191164Y0070146D03*
X0126322Y0069437D03*
D114*
X0111745Y0122807D03*
X0109265Y0122807D03*
X0109265Y0122728D03*
D115*
X0109206Y0122610D03*
X0107788Y0121272D03*
X0107788Y0121193D03*
X0111686Y0122728D03*
D116*
X0111745Y0122610D03*
X0107848Y0121390D03*
D117*
X0107907Y0121528D03*
X0111686Y0122472D03*
D118*
X0109147Y0122472D03*
X0116597Y0070146D03*
X0116597Y0069437D03*
X0118723Y0069437D03*
X0118723Y0070146D03*
X0113723Y0068728D03*
X0153093Y0072272D03*
X0164944Y0069437D03*
X0176282Y0071563D03*
X0178054Y0071563D03*
X0181951Y0071563D03*
X0185849Y0069791D03*
D119*
X0111745Y0122335D03*
X0109029Y0122138D03*
X0107966Y0121783D03*
X0107966Y0121665D03*
D120*
X0109088Y0122217D03*
X0109088Y0122335D03*
D121*
X0108025Y0121862D03*
X0111686Y0122217D03*
D122*
X0111155Y0122000D03*
X0108556Y0122000D03*
D123*
X0111745Y0121665D03*
D124*
X0111686Y0121528D03*
X0162483Y0072626D03*
X0150790Y0069791D03*
X0150790Y0069437D03*
X0136420Y0068374D03*
X0125987Y0068374D03*
X0113900Y0069791D03*
X0179136Y0068374D03*
D125*
X0111686Y0121272D03*
D126*
X0111745Y0121193D03*
D127*
X0107729Y0121055D03*
D128*
X0107670Y0120917D03*
D129*
X0107552Y0120445D03*
X0109560Y0120445D03*
X0112867Y0120445D03*
X0105426Y0120445D03*
D130*
X0110564Y0120445D03*
D131*
X0113861Y0193787D03*
X0113861Y0199693D03*
D132*
X0113133Y0183156D03*
X0113054Y0183156D03*
D133*
X0113251Y0183096D03*
X0115731Y0177177D03*
D134*
X0113388Y0183156D03*
D135*
X0114806Y0188352D03*
X0115869Y0174520D03*
X0112798Y0174244D03*
D136*
X0112522Y0174244D03*
D137*
X0112660Y0174323D03*
D138*
X0113349Y0177315D03*
D139*
X0113487Y0178083D03*
X0114196Y0176547D03*
D140*
X0113920Y0174736D03*
D141*
X0114058Y0174598D03*
D142*
X0114609Y0174382D03*
D143*
X0114747Y0177039D03*
D144*
X0114885Y0177256D03*
D145*
X0115042Y0173614D03*
D146*
X0115455Y0177256D03*
X0116007Y0177256D03*
D147*
X0115455Y0174382D03*
D148*
X0115593Y0177256D03*
D149*
X0190810Y0072803D03*
X0191164Y0070677D03*
X0191164Y0069969D03*
X0179117Y0068551D03*
X0179117Y0072094D03*
X0158054Y0071031D03*
X0158054Y0068551D03*
X0132345Y0068551D03*
X0132345Y0071031D03*
X0126164Y0068906D03*
X0125967Y0068551D03*
D150*
X0127129Y0069260D03*
X0125003Y0070323D03*
X0121971Y0071031D03*
X0120396Y0070323D03*
X0120042Y0071031D03*
X0113822Y0068551D03*
X0114176Y0067488D03*
X0113113Y0069969D03*
X0112955Y0070323D03*
X0112759Y0070677D03*
X0112759Y0071031D03*
X0131538Y0069969D03*
X0131538Y0069614D03*
X0135278Y0069614D03*
X0148546Y0071031D03*
X0152995Y0070677D03*
X0152995Y0070323D03*
X0152995Y0069969D03*
X0152995Y0069614D03*
X0152995Y0069260D03*
X0152995Y0068906D03*
X0152995Y0068551D03*
X0152995Y0072449D03*
X0157247Y0069969D03*
X0157247Y0069614D03*
X0160790Y0068551D03*
X0160790Y0071031D03*
X0160790Y0071386D03*
X0167168Y0069969D03*
X0167168Y0069614D03*
X0174058Y0071031D03*
X0174255Y0071386D03*
X0176381Y0071386D03*
X0181853Y0071386D03*
X0181853Y0070677D03*
X0185948Y0069260D03*
X0188073Y0071386D03*
X0187010Y0072803D03*
D151*
X0183644Y0072803D03*
X0153172Y0072094D03*
X0122857Y0069260D03*
X0121991Y0070323D03*
D152*
X0121007Y0068551D03*
X0179117Y0072803D03*
D153*
X0175219Y0072803D03*
D154*
X0170888Y0072803D03*
X0152975Y0072803D03*
X0141479Y0072803D03*
D155*
X0162562Y0072803D03*
X0166105Y0071386D03*
X0174609Y0070323D03*
X0178152Y0069969D03*
X0187010Y0068197D03*
X0187719Y0071031D03*
X0113822Y0068906D03*
D156*
X0112778Y0071386D03*
X0132778Y0071386D03*
X0132778Y0068197D03*
X0141479Y0068197D03*
X0146794Y0072803D03*
X0152975Y0068197D03*
X0157227Y0068197D03*
X0157227Y0071386D03*
D157*
X0154058Y0070677D03*
X0144294Y0072803D03*
X0135436Y0071386D03*
D158*
X0136518Y0072803D03*
X0138290Y0071031D03*
X0138290Y0070677D03*
X0138290Y0070323D03*
X0138290Y0069969D03*
X0141479Y0069614D03*
X0141479Y0069260D03*
X0141479Y0068906D03*
X0141479Y0068551D03*
X0141479Y0071031D03*
X0141479Y0071386D03*
X0141479Y0071740D03*
X0141479Y0072094D03*
X0141479Y0072449D03*
X0144314Y0072449D03*
X0144314Y0072094D03*
X0144314Y0071740D03*
X0144314Y0071386D03*
X0144314Y0071031D03*
X0144314Y0069614D03*
X0144314Y0069260D03*
X0144314Y0068906D03*
X0144314Y0068551D03*
X0148723Y0070323D03*
X0148723Y0070677D03*
X0163251Y0070677D03*
X0163251Y0071031D03*
X0163251Y0071386D03*
X0163251Y0069260D03*
X0163251Y0068906D03*
X0163251Y0068551D03*
X0164865Y0069614D03*
X0164865Y0069969D03*
X0170888Y0069969D03*
X0170888Y0070323D03*
X0170888Y0070677D03*
X0170888Y0071031D03*
X0170888Y0071386D03*
X0170888Y0071740D03*
X0170888Y0072094D03*
X0170888Y0072449D03*
X0170888Y0069614D03*
X0170888Y0069260D03*
X0177975Y0069614D03*
X0177975Y0071386D03*
X0185770Y0069614D03*
X0187896Y0071740D03*
X0133684Y0069969D03*
X0133684Y0069614D03*
X0129432Y0069614D03*
X0129432Y0069260D03*
X0129432Y0069969D03*
X0129432Y0071740D03*
X0129432Y0072094D03*
X0123762Y0071031D03*
X0123762Y0070677D03*
X0123566Y0070323D03*
X0122857Y0068551D03*
X0120219Y0070677D03*
X0118802Y0069969D03*
X0118802Y0069614D03*
X0113999Y0068197D03*
X0114353Y0067134D03*
D159*
X0136597Y0071917D03*
X0162109Y0071917D03*
X0162109Y0070500D03*
X0175219Y0069083D03*
X0175219Y0068374D03*
X0179117Y0069083D03*
X0183014Y0070500D03*
X0190810Y0069083D03*
X0190810Y0068374D03*
X0190810Y0071917D03*
X0190810Y0072626D03*
D160*
X0186912Y0072626D03*
X0178566Y0070854D03*
X0178566Y0070146D03*
X0175219Y0069791D03*
X0166007Y0068374D03*
X0166007Y0071209D03*
X0153448Y0070854D03*
X0146873Y0072626D03*
X0135731Y0070500D03*
X0135731Y0070146D03*
D161*
X0129255Y0070500D03*
X0129255Y0070854D03*
X0129255Y0071209D03*
X0157955Y0071209D03*
X0157955Y0068374D03*
X0175318Y0072272D03*
X0183467Y0072626D03*
X0186814Y0070500D03*
D162*
X0179215Y0072626D03*
X0175318Y0072626D03*
X0113822Y0069083D03*
D163*
X0122857Y0068374D03*
X0125888Y0068020D03*
X0152975Y0072626D03*
D164*
X0150869Y0069083D03*
X0136499Y0072626D03*
X0126066Y0071209D03*
X0113822Y0069437D03*
X0183625Y0069437D03*
X0187365Y0070854D03*
D165*
X0165987Y0071563D03*
X0146892Y0068020D03*
X0136420Y0068020D03*
X0129530Y0072626D03*
X0125987Y0071563D03*
D166*
X0162109Y0071740D03*
X0162109Y0070323D03*
X0175219Y0068906D03*
X0183014Y0071740D03*
X0190810Y0071740D03*
X0190810Y0072449D03*
X0190810Y0068906D03*
X0190810Y0068197D03*
D167*
X0186912Y0072449D03*
D168*
X0183290Y0072449D03*
X0191085Y0070323D03*
X0162385Y0072449D03*
X0146951Y0068551D03*
X0117385Y0068551D03*
D169*
X0150790Y0069260D03*
X0150790Y0069614D03*
X0166026Y0068551D03*
X0166026Y0071031D03*
X0179136Y0072449D03*
X0191341Y0071031D03*
D170*
X0175318Y0072449D03*
X0113822Y0069614D03*
D171*
X0126066Y0071031D03*
X0129255Y0071031D03*
X0129255Y0070677D03*
X0146971Y0072449D03*
X0183467Y0069614D03*
X0186656Y0070323D03*
X0187010Y0070677D03*
X0187010Y0068551D03*
D172*
X0136518Y0072449D03*
D173*
X0129530Y0072449D03*
X0128822Y0068197D03*
X0145987Y0069260D03*
X0148625Y0069969D03*
X0159451Y0069969D03*
X0159451Y0069614D03*
X0176459Y0070677D03*
X0176459Y0071031D03*
X0180357Y0069614D03*
X0181774Y0071031D03*
X0184255Y0071031D03*
X0184255Y0070677D03*
X0184255Y0071386D03*
X0186223Y0071740D03*
X0184255Y0069260D03*
X0184255Y0068906D03*
X0184255Y0068551D03*
X0192050Y0069614D03*
X0192050Y0071386D03*
D174*
X0190731Y0072272D03*
X0190731Y0068728D03*
X0175140Y0068728D03*
X0121991Y0069437D03*
D175*
X0117483Y0068728D03*
X0117483Y0070854D03*
X0132522Y0070500D03*
X0132522Y0069083D03*
X0136420Y0072272D03*
X0162286Y0072272D03*
X0162286Y0069791D03*
X0166026Y0069083D03*
X0166026Y0070500D03*
X0183192Y0072272D03*
D176*
X0180101Y0071563D03*
X0178133Y0071209D03*
X0177975Y0069791D03*
X0177975Y0069437D03*
X0180259Y0069437D03*
X0185770Y0069437D03*
X0187896Y0071209D03*
X0170888Y0071209D03*
X0170888Y0071563D03*
X0170888Y0071917D03*
X0170888Y0072272D03*
X0170888Y0070854D03*
X0170888Y0070500D03*
X0170888Y0070146D03*
X0170888Y0069791D03*
X0170888Y0069437D03*
X0164865Y0069791D03*
X0164865Y0070146D03*
X0163251Y0070854D03*
X0163251Y0071209D03*
X0163251Y0071563D03*
X0163251Y0069083D03*
X0163251Y0068728D03*
X0163251Y0068374D03*
X0159550Y0069791D03*
X0148723Y0070146D03*
X0148723Y0070500D03*
X0148723Y0070854D03*
X0144314Y0071209D03*
X0144314Y0071563D03*
X0144314Y0071917D03*
X0144314Y0072272D03*
X0144314Y0069791D03*
X0144314Y0069437D03*
X0144314Y0069083D03*
X0144314Y0068728D03*
X0144314Y0068374D03*
X0141479Y0068374D03*
X0141479Y0068728D03*
X0141479Y0069083D03*
X0141479Y0069437D03*
X0141479Y0069791D03*
X0141479Y0071209D03*
X0141479Y0071563D03*
X0141479Y0071917D03*
X0141479Y0072272D03*
X0138290Y0070854D03*
X0138290Y0070500D03*
X0138290Y0070146D03*
X0133684Y0070146D03*
X0133684Y0069437D03*
X0129432Y0069437D03*
X0129432Y0069791D03*
X0129432Y0070146D03*
X0129432Y0071563D03*
X0129432Y0071917D03*
X0129432Y0072272D03*
X0123762Y0070854D03*
X0123566Y0070500D03*
X0122857Y0068728D03*
X0120219Y0070500D03*
X0120219Y0070854D03*
X0118802Y0069791D03*
X0115062Y0070854D03*
X0114904Y0070500D03*
X0114707Y0070146D03*
X0113999Y0068020D03*
X0114353Y0067311D03*
D177*
X0146873Y0072272D03*
D178*
X0147148Y0071740D03*
X0136518Y0068906D03*
X0175140Y0068551D03*
X0190731Y0068551D03*
X0190731Y0072094D03*
D179*
X0187010Y0072094D03*
X0175318Y0072094D03*
X0175318Y0069260D03*
X0126066Y0070677D03*
D180*
X0132621Y0070323D03*
X0132621Y0069260D03*
X0136518Y0072094D03*
X0169825Y0068906D03*
X0169825Y0068551D03*
X0175140Y0068197D03*
X0183093Y0070323D03*
X0183093Y0072094D03*
D181*
X0187010Y0068906D03*
X0175318Y0071740D03*
X0162207Y0072094D03*
X0162207Y0069969D03*
X0162207Y0069614D03*
X0158310Y0069260D03*
X0158310Y0070323D03*
X0146971Y0072094D03*
X0126066Y0069969D03*
X0117562Y0070323D03*
X0117562Y0070677D03*
X0117562Y0069260D03*
X0117562Y0068906D03*
D182*
X0126066Y0068728D03*
X0126066Y0070854D03*
X0132444Y0070854D03*
X0132444Y0068728D03*
X0170003Y0069083D03*
X0175318Y0071917D03*
X0187010Y0071917D03*
X0187010Y0068728D03*
D183*
X0183093Y0070146D03*
X0183093Y0071917D03*
X0169825Y0068728D03*
X0169825Y0068374D03*
X0136518Y0068728D03*
X0126243Y0069791D03*
D184*
X0179117Y0068728D03*
X0179117Y0071917D03*
D185*
X0153270Y0071917D03*
X0135711Y0070854D03*
X0129176Y0069083D03*
X0128979Y0068728D03*
D186*
X0147050Y0069083D03*
X0147050Y0071917D03*
D187*
X0179117Y0071740D03*
X0179117Y0068906D03*
D188*
X0175416Y0069614D03*
X0153448Y0071740D03*
X0150770Y0069969D03*
X0135731Y0070323D03*
X0135731Y0070677D03*
D189*
X0136774Y0071740D03*
D190*
X0180101Y0071209D03*
X0186125Y0071563D03*
D191*
X0181853Y0070854D03*
X0176381Y0071209D03*
X0174255Y0071563D03*
X0174058Y0071209D03*
X0174255Y0070854D03*
X0167168Y0070146D03*
X0167168Y0069791D03*
X0167168Y0069437D03*
X0160948Y0069083D03*
X0160790Y0068728D03*
X0159373Y0069437D03*
X0159373Y0070146D03*
X0160790Y0070854D03*
X0160790Y0071209D03*
X0157247Y0069791D03*
X0152995Y0069791D03*
X0152995Y0069437D03*
X0152995Y0069083D03*
X0152995Y0068728D03*
X0152995Y0068374D03*
X0152995Y0070146D03*
X0152995Y0070500D03*
X0148546Y0069791D03*
X0148546Y0071209D03*
X0138113Y0071209D03*
X0138113Y0069791D03*
X0135278Y0069791D03*
X0135278Y0069437D03*
X0131538Y0069437D03*
X0131538Y0069791D03*
X0131538Y0070146D03*
X0127129Y0070146D03*
X0125003Y0070146D03*
X0121971Y0070854D03*
X0121105Y0068728D03*
X0116499Y0069791D03*
X0113822Y0068374D03*
X0114176Y0067665D03*
X0113113Y0070146D03*
X0112955Y0070500D03*
X0112759Y0070854D03*
D192*
X0157325Y0070146D03*
X0157325Y0069437D03*
X0160869Y0071563D03*
D193*
X0153526Y0071563D03*
X0153526Y0071209D03*
X0186479Y0070146D03*
X0186991Y0068374D03*
D194*
X0174432Y0070500D03*
X0148369Y0069437D03*
X0148211Y0071563D03*
X0137936Y0071563D03*
X0137936Y0069437D03*
X0126951Y0069083D03*
X0122857Y0069083D03*
X0121991Y0070500D03*
X0121085Y0069083D03*
D195*
X0121971Y0071209D03*
X0145908Y0071563D03*
X0180278Y0069791D03*
X0188073Y0069437D03*
D196*
X0180081Y0071386D03*
X0163270Y0068197D03*
X0160790Y0068197D03*
X0158467Y0068197D03*
X0158467Y0071386D03*
X0144294Y0068197D03*
X0131538Y0068197D03*
X0131538Y0071386D03*
X0123743Y0071386D03*
X0117916Y0071386D03*
X0116499Y0071386D03*
X0116499Y0068197D03*
X0117916Y0068197D03*
D197*
X0129235Y0071386D03*
X0153526Y0071386D03*
X0153526Y0071031D03*
D198*
X0148467Y0071386D03*
X0148467Y0069614D03*
X0160869Y0068906D03*
X0160869Y0070677D03*
X0165121Y0070323D03*
X0165121Y0069260D03*
X0174333Y0070677D03*
X0121892Y0070677D03*
D199*
X0128467Y0070323D03*
X0145829Y0071386D03*
D200*
X0138014Y0071386D03*
X0138014Y0069614D03*
X0135377Y0069260D03*
X0129510Y0070323D03*
X0127030Y0070323D03*
X0122936Y0068906D03*
X0121007Y0068906D03*
X0116597Y0069614D03*
X0116597Y0069969D03*
X0114983Y0070677D03*
X0114629Y0069969D03*
X0114077Y0067843D03*
X0161046Y0069260D03*
X0166007Y0068197D03*
X0167070Y0069260D03*
X0167070Y0070323D03*
X0178054Y0069260D03*
X0180180Y0069260D03*
X0187975Y0069260D03*
D201*
X0179136Y0068197D03*
X0148113Y0069260D03*
X0146892Y0068197D03*
X0137680Y0069260D03*
X0136420Y0068197D03*
X0135554Y0069969D03*
X0128979Y0068551D03*
X0125987Y0071386D03*
D202*
X0121971Y0071386D03*
X0188073Y0069614D03*
D203*
X0184274Y0068197D03*
X0121007Y0068197D03*
X0120140Y0071386D03*
D204*
X0115160Y0071386D03*
D205*
X0117385Y0071209D03*
X0117385Y0068374D03*
X0132266Y0068374D03*
X0132266Y0071209D03*
D206*
X0133762Y0069791D03*
X0123841Y0071209D03*
D207*
X0125888Y0068197D03*
X0129077Y0068906D03*
X0178487Y0071031D03*
D208*
X0116656Y0071031D03*
D209*
X0158133Y0070854D03*
X0158133Y0068728D03*
X0183290Y0069791D03*
X0191085Y0070500D03*
D210*
X0142896Y0070500D03*
X0142896Y0070146D03*
X0142896Y0070854D03*
D211*
X0113822Y0069260D03*
X0174963Y0069969D03*
X0178664Y0070323D03*
X0178664Y0070677D03*
D212*
X0183192Y0069969D03*
X0190987Y0069260D03*
X0169727Y0068197D03*
X0166026Y0068906D03*
X0166026Y0070677D03*
X0158231Y0070677D03*
X0158231Y0068906D03*
X0136420Y0068551D03*
X0132522Y0068906D03*
X0132522Y0070677D03*
X0126144Y0069614D03*
D213*
X0142896Y0069969D03*
X0142896Y0070323D03*
X0142896Y0070677D03*
D214*
X0178762Y0070500D03*
D215*
X0187010Y0069083D03*
X0162207Y0069437D03*
X0162207Y0070146D03*
X0158310Y0070500D03*
X0158310Y0069083D03*
X0146971Y0068728D03*
X0126066Y0070500D03*
X0117562Y0070500D03*
X0117562Y0069083D03*
D216*
X0114806Y0070323D03*
D217*
X0174786Y0070146D03*
X0175652Y0069437D03*
D218*
X0121892Y0070146D03*
D219*
X0121007Y0069260D03*
X0186203Y0069969D03*
D220*
X0121971Y0069969D03*
D221*
X0121971Y0069791D03*
D222*
X0121892Y0069614D03*
D223*
X0145908Y0069437D03*
D224*
X0136617Y0069083D03*
D225*
X0147050Y0068906D03*
D226*
X0146873Y0068374D03*
D227*
X0128900Y0068374D03*
D228*
X0121007Y0068374D03*
D229*
X0122857Y0068197D03*
D230*
X0186912Y0068020D03*
D231*
X0174589Y0080252D02*
X0174865Y0080606D01*
X0175022Y0081000D01*
X0175101Y0081512D01*
X0173841Y0081512D01*
X0173644Y0081512D01*
X0173644Y0081276D01*
X0173566Y0081079D01*
X0173448Y0080921D01*
X0173290Y0080803D01*
X0173133Y0080685D01*
X0172896Y0080646D01*
X0172699Y0080606D01*
X0172463Y0080567D01*
X0172306Y0080606D01*
X0172148Y0080606D01*
X0171991Y0080646D01*
X0171833Y0080724D01*
X0171676Y0080843D01*
X0171558Y0080961D01*
X0171518Y0081118D01*
X0171479Y0081276D01*
X0171518Y0081433D01*
X0171597Y0081591D01*
X0171755Y0081709D01*
X0171951Y0081827D01*
X0172188Y0081906D01*
X0172503Y0081984D01*
X0172818Y0082063D01*
X0173211Y0082142D01*
X0173566Y0082220D01*
X0173881Y0082339D01*
X0174156Y0082457D01*
X0174432Y0082614D01*
X0174668Y0082772D01*
X0174825Y0083008D01*
X0174944Y0083283D01*
X0174983Y0083638D01*
X0174944Y0084110D01*
X0174786Y0084504D01*
X0174510Y0084819D01*
X0174235Y0085055D01*
X0173841Y0085252D01*
X0173448Y0085331D01*
X0173014Y0085409D01*
X0172109Y0085409D01*
X0171676Y0085331D01*
X0171282Y0085213D01*
X0170928Y0085055D01*
X0170613Y0084819D01*
X0170377Y0084504D01*
X0170180Y0084110D01*
X0170101Y0083638D01*
X0171558Y0083638D01*
X0171597Y0083835D01*
X0171676Y0084031D01*
X0171755Y0084150D01*
X0171873Y0084228D01*
X0172030Y0084307D01*
X0172227Y0084386D01*
X0172896Y0084386D01*
X0173014Y0084346D01*
X0173172Y0084307D01*
X0173290Y0084268D01*
X0173369Y0084150D01*
X0173448Y0084031D01*
X0173448Y0083874D01*
X0173408Y0083717D01*
X0173290Y0083559D01*
X0173133Y0083441D01*
X0172896Y0083323D01*
X0172660Y0083244D01*
X0172345Y0083205D01*
X0172030Y0083126D01*
X0171715Y0083047D01*
X0171400Y0082969D01*
X0171046Y0082890D01*
X0170770Y0082732D01*
X0170495Y0082575D01*
X0170259Y0082378D01*
X0170101Y0082142D01*
X0169983Y0081866D01*
X0169944Y0081512D01*
X0170022Y0081000D01*
X0170180Y0080567D01*
X0170416Y0080252D01*
X0170731Y0079976D01*
X0171125Y0079780D01*
X0171558Y0079661D01*
X0172030Y0079583D01*
X0172503Y0079543D01*
X0172975Y0079583D01*
X0173448Y0079661D01*
X0173881Y0079780D01*
X0174274Y0079976D01*
X0174589Y0080252D01*
X0174506Y0080179D02*
X0170499Y0080179D01*
X0170247Y0080478D02*
X0174765Y0080478D01*
X0174933Y0080776D02*
X0173254Y0080776D01*
X0173563Y0081075D02*
X0175034Y0081075D01*
X0175080Y0081373D02*
X0173644Y0081373D01*
X0173695Y0082269D02*
X0170186Y0082269D01*
X0170028Y0081970D02*
X0172448Y0081970D01*
X0171706Y0081672D02*
X0169961Y0081672D01*
X0169965Y0081373D02*
X0171503Y0081373D01*
X0171529Y0081075D02*
X0170011Y0081075D01*
X0170104Y0080776D02*
X0171764Y0080776D01*
X0172034Y0079582D02*
X0172972Y0079582D01*
X0174083Y0079881D02*
X0170922Y0079881D01*
X0169314Y0079881D02*
X0167818Y0079881D01*
X0167818Y0080179D02*
X0169314Y0080179D01*
X0169314Y0080478D02*
X0164258Y0080478D01*
X0164274Y0080449D02*
X0164629Y0080094D01*
X0165062Y0079780D01*
X0165534Y0079622D01*
X0166125Y0079543D01*
X0166361Y0079583D01*
X0166597Y0079622D01*
X0166833Y0079661D01*
X0167070Y0079780D01*
X0167266Y0079898D01*
X0167463Y0080016D01*
X0167621Y0080213D01*
X0167778Y0080409D01*
X0167818Y0080409D01*
X0167818Y0076394D01*
X0167975Y0076551D01*
X0168172Y0076748D01*
X0168369Y0076906D01*
X0168566Y0077063D01*
X0168762Y0077220D01*
X0168959Y0077417D01*
X0169117Y0077575D01*
X0169314Y0077732D01*
X0169314Y0085016D01*
X0169156Y0085055D01*
X0168959Y0085094D01*
X0168762Y0085094D01*
X0168605Y0085134D01*
X0168408Y0085173D01*
X0168251Y0085213D01*
X0168054Y0085252D01*
X0167857Y0085291D01*
X0167857Y0084583D01*
X0167699Y0084780D01*
X0167542Y0084937D01*
X0167345Y0085094D01*
X0167148Y0085213D01*
X0166951Y0085331D01*
X0166715Y0085370D01*
X0166479Y0085409D01*
X0166203Y0085409D01*
X0165613Y0085370D01*
X0165062Y0085173D01*
X0164629Y0084898D01*
X0164274Y0084504D01*
X0163999Y0084071D01*
X0163841Y0083559D01*
X0163723Y0083008D01*
X0163684Y0082417D01*
X0165219Y0082457D01*
X0165219Y0082811D01*
X0165259Y0083126D01*
X0165377Y0083441D01*
X0165495Y0083717D01*
X0165692Y0083953D01*
X0165928Y0084110D01*
X0166203Y0084228D01*
X0166558Y0084268D01*
X0166873Y0084228D01*
X0167188Y0084110D01*
X0167385Y0083953D01*
X0167581Y0083717D01*
X0167699Y0083441D01*
X0167818Y0083126D01*
X0167857Y0082811D01*
X0167857Y0082142D01*
X0167778Y0081827D01*
X0167699Y0081512D01*
X0167581Y0081236D01*
X0167385Y0081039D01*
X0167148Y0080843D01*
X0166873Y0080764D01*
X0166518Y0080724D01*
X0166203Y0080764D01*
X0165888Y0080843D01*
X0165652Y0081039D01*
X0165495Y0081236D01*
X0165377Y0081512D01*
X0164038Y0080882D01*
X0164274Y0080449D01*
X0164096Y0080776D02*
X0166153Y0080776D01*
X0165624Y0081075D02*
X0164448Y0081075D01*
X0163958Y0081075D01*
X0164038Y0080882D02*
X0165377Y0081512D01*
X0165259Y0081827D01*
X0165219Y0082142D01*
X0165219Y0082457D01*
X0163684Y0082417D01*
X0163723Y0081866D01*
X0163841Y0081354D01*
X0164038Y0080882D01*
X0163837Y0081373D02*
X0165083Y0081373D01*
X0165436Y0081373D01*
X0165317Y0081672D02*
X0163768Y0081672D01*
X0163716Y0081970D02*
X0165241Y0081970D01*
X0165219Y0082269D02*
X0163694Y0082269D01*
X0163694Y0082568D02*
X0165219Y0082568D01*
X0165226Y0082866D02*
X0163714Y0082866D01*
X0163757Y0083165D02*
X0165273Y0083165D01*
X0165386Y0083463D02*
X0163821Y0083463D01*
X0163904Y0083762D02*
X0165532Y0083762D01*
X0165853Y0084060D02*
X0163995Y0084060D01*
X0164182Y0084359D02*
X0169314Y0084359D01*
X0169314Y0084657D02*
X0167857Y0084657D01*
X0167797Y0084657D02*
X0164412Y0084657D01*
X0164720Y0084956D02*
X0167519Y0084956D01*
X0167857Y0084956D02*
X0169314Y0084956D01*
X0169314Y0084060D02*
X0167250Y0084060D01*
X0167544Y0083762D02*
X0169314Y0083762D01*
X0169314Y0083463D02*
X0167690Y0083463D01*
X0167803Y0083165D02*
X0169314Y0083165D01*
X0169314Y0082866D02*
X0167850Y0082866D01*
X0167857Y0082568D02*
X0169314Y0082568D01*
X0169314Y0082269D02*
X0167857Y0082269D01*
X0167814Y0081970D02*
X0169314Y0081970D01*
X0169314Y0081672D02*
X0167740Y0081672D01*
X0167640Y0081373D02*
X0169314Y0081373D01*
X0169314Y0081075D02*
X0167420Y0081075D01*
X0166917Y0080776D02*
X0169314Y0080776D01*
X0169314Y0079582D02*
X0167818Y0079582D01*
X0167818Y0079284D02*
X0169314Y0079284D01*
X0169314Y0078985D02*
X0167818Y0078985D01*
X0167818Y0078687D02*
X0169314Y0078687D01*
X0169314Y0078388D02*
X0167818Y0078388D01*
X0167818Y0078090D02*
X0169314Y0078090D01*
X0169314Y0077791D02*
X0167818Y0077791D01*
X0167818Y0077493D02*
X0169035Y0077493D01*
X0168730Y0077194D02*
X0167818Y0077194D01*
X0167818Y0076896D02*
X0168357Y0076896D01*
X0168021Y0076597D02*
X0167818Y0076597D01*
X0166359Y0079582D02*
X0165832Y0079582D01*
X0164922Y0079881D02*
X0167239Y0079881D01*
X0167594Y0080179D02*
X0164544Y0080179D01*
X0163211Y0080803D02*
X0163211Y0081000D01*
X0163251Y0081197D01*
X0163172Y0081630D01*
X0163054Y0081984D01*
X0162896Y0082260D01*
X0162621Y0082496D01*
X0162345Y0082654D01*
X0162030Y0082772D01*
X0161715Y0082850D01*
X0161361Y0082890D01*
X0161046Y0082063D01*
X0161164Y0082024D01*
X0161243Y0081984D01*
X0161282Y0081945D01*
X0161361Y0081906D01*
X0161440Y0081866D01*
X0161479Y0081827D01*
X0161558Y0081787D01*
X0161597Y0081709D01*
X0161636Y0081630D01*
X0161676Y0081551D01*
X0161676Y0081472D01*
X0161715Y0081394D01*
X0161715Y0081197D01*
X0161676Y0081079D01*
X0161676Y0081000D01*
X0161636Y0080921D01*
X0161597Y0080882D01*
X0161558Y0080803D01*
X0161479Y0080764D01*
X0161440Y0080724D01*
X0161361Y0080685D01*
X0161282Y0080646D01*
X0161203Y0080646D01*
X0161125Y0080606D01*
X0161046Y0080606D01*
X0160967Y0080567D01*
X0160770Y0080567D01*
X0160573Y0080606D01*
X0160377Y0080606D01*
X0160219Y0080685D01*
X0160062Y0080724D01*
X0159944Y0080803D01*
X0159865Y0080882D01*
X0159786Y0081000D01*
X0159707Y0081079D01*
X0159668Y0081197D01*
X0159629Y0081315D01*
X0159589Y0081394D01*
X0159550Y0081512D01*
X0159550Y0082417D01*
X0159589Y0082378D01*
X0159629Y0082339D01*
X0159707Y0082339D01*
X0159786Y0082299D01*
X0159865Y0082260D01*
X0159944Y0082260D01*
X0160022Y0082220D01*
X0160180Y0082220D01*
X0160377Y0083008D01*
X0160101Y0083087D01*
X0159865Y0083165D01*
X0159668Y0083283D01*
X0159550Y0083441D01*
X0159550Y0083874D01*
X0159589Y0083953D01*
X0159629Y0084031D01*
X0159668Y0084110D01*
X0159707Y0084150D01*
X0159747Y0084228D01*
X0159825Y0084268D01*
X0159904Y0084307D01*
X0159983Y0084346D01*
X0160062Y0084346D01*
X0160140Y0084386D01*
X0160849Y0084386D01*
X0160928Y0084346D01*
X0161007Y0084307D01*
X0161085Y0084268D01*
X0161164Y0084228D01*
X0161243Y0084189D01*
X0161282Y0084150D01*
X0161361Y0084071D01*
X0161400Y0084031D01*
X0161440Y0083953D01*
X0161479Y0083835D01*
X0161518Y0083756D01*
X0161518Y0083559D01*
X0163054Y0083559D01*
X0163014Y0083795D01*
X0162975Y0084031D01*
X0162896Y0084268D01*
X0162778Y0084425D01*
X0162660Y0084622D01*
X0162542Y0084780D01*
X0162385Y0084898D01*
X0162188Y0085016D01*
X0161991Y0085134D01*
X0161794Y0085213D01*
X0161597Y0085252D01*
X0161361Y0085331D01*
X0161125Y0085370D01*
X0160928Y0085409D01*
X0160022Y0085409D01*
X0159825Y0085370D01*
X0159589Y0085370D01*
X0159392Y0085331D01*
X0159196Y0085252D01*
X0158999Y0085213D01*
X0158802Y0085134D01*
X0158644Y0085016D01*
X0158487Y0084898D01*
X0158329Y0084780D01*
X0158211Y0084622D01*
X0158133Y0084465D01*
X0158054Y0084268D01*
X0158014Y0084071D01*
X0158014Y0080646D01*
X0157975Y0080567D01*
X0157975Y0080213D01*
X0157936Y0080134D01*
X0157936Y0080055D01*
X0157896Y0079976D01*
X0157896Y0079858D01*
X0157857Y0079780D01*
X0157818Y0079740D01*
X0157818Y0079701D01*
X0159353Y0079701D01*
X0159353Y0079740D01*
X0159392Y0079780D01*
X0159392Y0079819D01*
X0159432Y0079858D01*
X0159432Y0079976D01*
X0159471Y0080016D01*
X0159471Y0080252D01*
X0159550Y0080134D01*
X0159668Y0080055D01*
X0159747Y0079976D01*
X0159865Y0079898D01*
X0159983Y0079858D01*
X0160101Y0079780D01*
X0160219Y0079740D01*
X0160337Y0079701D01*
X0160455Y0079661D01*
X0160573Y0079622D01*
X0160692Y0079622D01*
X0160810Y0079583D01*
X0160967Y0079583D01*
X0161085Y0079543D01*
X0161518Y0079543D01*
X0161715Y0079583D01*
X0161912Y0079583D01*
X0162070Y0079622D01*
X0162266Y0079701D01*
X0162424Y0079780D01*
X0162542Y0079858D01*
X0162699Y0079937D01*
X0162818Y0080055D01*
X0162896Y0080173D01*
X0163014Y0080331D01*
X0163093Y0080449D01*
X0163133Y0080646D01*
X0163211Y0080803D01*
X0163198Y0080776D02*
X0161504Y0080776D01*
X0161676Y0081075D02*
X0163226Y0081075D01*
X0163219Y0081373D02*
X0161715Y0081373D01*
X0161615Y0081672D02*
X0163158Y0081672D01*
X0163058Y0081970D02*
X0161257Y0081970D01*
X0161046Y0082063D02*
X0161361Y0082890D01*
X0161007Y0082929D01*
X0160652Y0082969D01*
X0160377Y0083008D01*
X0160180Y0082220D01*
X0160259Y0082181D01*
X0160337Y0082181D01*
X0160455Y0082142D01*
X0160613Y0082142D01*
X0160731Y0082102D01*
X0160888Y0082102D01*
X0160967Y0082063D01*
X0161046Y0082063D01*
X0161124Y0082269D02*
X0162886Y0082269D01*
X0162496Y0082568D02*
X0161238Y0082568D01*
X0160267Y0082568D01*
X0158014Y0082568D01*
X0158014Y0082866D02*
X0160341Y0082866D01*
X0161352Y0082866D01*
X0161575Y0082866D01*
X0161124Y0082269D02*
X0160192Y0082269D01*
X0159847Y0082269D01*
X0159550Y0082269D02*
X0158014Y0082269D01*
X0158014Y0081970D02*
X0159550Y0081970D01*
X0159550Y0081672D02*
X0158014Y0081672D01*
X0158014Y0081373D02*
X0159599Y0081373D01*
X0159711Y0081075D02*
X0158014Y0081075D01*
X0158014Y0080776D02*
X0159984Y0080776D01*
X0159519Y0080179D02*
X0162901Y0080179D01*
X0163099Y0080478D02*
X0157975Y0080478D01*
X0157958Y0080179D02*
X0159471Y0080179D01*
X0159432Y0079881D02*
X0157896Y0079881D01*
X0157148Y0079881D02*
X0155613Y0079881D01*
X0155613Y0079701D02*
X0157148Y0079701D01*
X0157148Y0084346D01*
X0157148Y0085016D01*
X0156951Y0085055D01*
X0156794Y0085094D01*
X0156597Y0085094D01*
X0156400Y0085134D01*
X0156243Y0085173D01*
X0156046Y0085213D01*
X0155849Y0085252D01*
X0155692Y0085291D01*
X0155692Y0084228D01*
X0155534Y0084504D01*
X0155377Y0084701D01*
X0155180Y0084937D01*
X0154983Y0085094D01*
X0154707Y0085252D01*
X0154471Y0085331D01*
X0154196Y0085409D01*
X0153644Y0085409D01*
X0153605Y0085370D01*
X0153566Y0085370D01*
X0153566Y0083953D01*
X0153605Y0083953D01*
X0153684Y0083992D01*
X0154117Y0083992D01*
X0154510Y0083953D01*
X0154825Y0083874D01*
X0155101Y0083717D01*
X0155298Y0083480D01*
X0155455Y0083205D01*
X0155534Y0082929D01*
X0155613Y0082575D01*
X0155613Y0079701D01*
X0155613Y0080179D02*
X0157148Y0080179D01*
X0157148Y0080478D02*
X0155613Y0080478D01*
X0155613Y0080776D02*
X0157148Y0080776D01*
X0157148Y0081075D02*
X0155613Y0081075D01*
X0155613Y0081373D02*
X0157148Y0081373D01*
X0157148Y0081672D02*
X0155613Y0081672D01*
X0155613Y0081970D02*
X0157148Y0081970D01*
X0157148Y0082269D02*
X0155613Y0082269D01*
X0155613Y0082568D02*
X0157148Y0082568D01*
X0157148Y0082866D02*
X0155548Y0082866D01*
X0155467Y0083165D02*
X0157148Y0083165D01*
X0157148Y0083463D02*
X0155308Y0083463D01*
X0155022Y0083762D02*
X0157148Y0083762D01*
X0157148Y0084060D02*
X0153566Y0084060D01*
X0153566Y0084359D02*
X0155617Y0084359D01*
X0155692Y0084359D02*
X0157148Y0084359D01*
X0157148Y0084657D02*
X0155692Y0084657D01*
X0155412Y0084657D02*
X0153566Y0084657D01*
X0153566Y0084956D02*
X0155157Y0084956D01*
X0155692Y0084956D02*
X0157148Y0084956D01*
X0158090Y0084359D02*
X0160086Y0084359D01*
X0159643Y0084060D02*
X0158014Y0084060D01*
X0158014Y0083762D02*
X0159550Y0083762D01*
X0159550Y0083463D02*
X0158014Y0083463D01*
X0158014Y0083165D02*
X0159867Y0083165D01*
X0160904Y0084359D02*
X0162828Y0084359D01*
X0162966Y0084060D02*
X0161372Y0084060D01*
X0161516Y0083762D02*
X0163020Y0083762D01*
X0162634Y0084657D02*
X0158238Y0084657D01*
X0158564Y0084956D02*
X0162288Y0084956D01*
X0161591Y0085254D02*
X0159201Y0085254D01*
X0155841Y0085254D02*
X0155692Y0085254D01*
X0154701Y0085254D02*
X0153566Y0085254D01*
X0152975Y0085254D02*
X0151440Y0085254D01*
X0151440Y0084956D02*
X0152975Y0084956D01*
X0152975Y0084657D02*
X0151440Y0084657D01*
X0151440Y0084359D02*
X0152975Y0084359D01*
X0152975Y0084060D02*
X0151440Y0084060D01*
X0151440Y0083762D02*
X0152975Y0083762D01*
X0152975Y0083463D02*
X0151440Y0083463D01*
X0151267Y0083463D02*
X0149563Y0083463D01*
X0149786Y0083244D02*
X0147463Y0079701D01*
X0149314Y0079701D01*
X0150849Y0082181D01*
X0151440Y0081630D01*
X0151440Y0079701D01*
X0152975Y0079701D01*
X0152975Y0086551D01*
X0151440Y0087378D01*
X0151440Y0083283D01*
X0149510Y0085291D01*
X0147699Y0085291D01*
X0149786Y0083244D01*
X0149734Y0083165D02*
X0152975Y0083165D01*
X0152975Y0082866D02*
X0149538Y0082866D01*
X0149343Y0082568D02*
X0152975Y0082568D01*
X0152975Y0082269D02*
X0149147Y0082269D01*
X0148951Y0081970D02*
X0150719Y0081970D01*
X0150534Y0081672D02*
X0148755Y0081672D01*
X0148560Y0081373D02*
X0150349Y0081373D01*
X0150164Y0081075D02*
X0148364Y0081075D01*
X0148168Y0080776D02*
X0149980Y0080776D01*
X0149795Y0080478D02*
X0147973Y0080478D01*
X0147777Y0080179D02*
X0149610Y0080179D01*
X0149425Y0079881D02*
X0147581Y0079881D01*
X0146518Y0079881D02*
X0145022Y0079881D01*
X0145022Y0079701D02*
X0146518Y0079701D01*
X0146518Y0083677D01*
X0146518Y0084268D01*
X0148054Y0084268D01*
X0147896Y0084386D01*
X0147778Y0084504D01*
X0147660Y0084622D01*
X0147503Y0084780D01*
X0147385Y0084898D01*
X0147266Y0085016D01*
X0147109Y0085134D01*
X0146991Y0085291D01*
X0146518Y0085291D01*
X0146518Y0086079D01*
X0146400Y0086394D01*
X0146282Y0086669D01*
X0146085Y0086906D01*
X0145810Y0087102D01*
X0145495Y0087260D01*
X0145101Y0087378D01*
X0143959Y0087378D01*
X0143881Y0087339D01*
X0143881Y0086236D01*
X0144550Y0086236D01*
X0144707Y0086197D01*
X0144786Y0086157D01*
X0144865Y0086118D01*
X0144944Y0086000D01*
X0144983Y0085921D01*
X0144983Y0085764D01*
X0145022Y0085606D01*
X0145022Y0085291D01*
X0143959Y0085291D01*
X0143959Y0084268D01*
X0145022Y0084268D01*
X0145022Y0079701D01*
X0145022Y0080179D02*
X0146518Y0080179D01*
X0146518Y0080478D02*
X0145022Y0080478D01*
X0145022Y0080776D02*
X0146518Y0080776D01*
X0146518Y0081075D02*
X0145022Y0081075D01*
X0145022Y0081373D02*
X0146518Y0081373D01*
X0146518Y0081672D02*
X0145022Y0081672D01*
X0145022Y0081970D02*
X0146518Y0081970D01*
X0146518Y0082269D02*
X0145022Y0082269D01*
X0145022Y0082568D02*
X0146518Y0082568D01*
X0146518Y0082866D02*
X0145022Y0082866D01*
X0145022Y0083165D02*
X0146518Y0083165D01*
X0146518Y0083463D02*
X0145022Y0083463D01*
X0145022Y0083762D02*
X0146518Y0083762D01*
X0146518Y0084060D02*
X0145022Y0084060D01*
X0143959Y0084359D02*
X0147933Y0084359D01*
X0147625Y0084657D02*
X0143959Y0084657D01*
X0143959Y0084956D02*
X0147327Y0084956D01*
X0147019Y0085254D02*
X0143959Y0085254D01*
X0143487Y0085254D02*
X0141991Y0085254D01*
X0141991Y0085291D02*
X0141991Y0082142D01*
X0141951Y0081827D01*
X0141912Y0081512D01*
X0141873Y0081276D01*
X0141755Y0081118D01*
X0141636Y0080961D01*
X0141440Y0080843D01*
X0141243Y0080803D01*
X0141007Y0080764D01*
X0140692Y0080803D01*
X0140455Y0080843D01*
X0140259Y0080961D01*
X0140101Y0081118D01*
X0139983Y0081354D01*
X0139865Y0081630D01*
X0139825Y0081945D01*
X0139825Y0085291D01*
X0138290Y0085291D01*
X0138290Y0080409D01*
X0138290Y0079701D01*
X0139747Y0079701D01*
X0139747Y0080488D01*
X0139786Y0080488D01*
X0139944Y0080252D01*
X0140101Y0080055D01*
X0140298Y0079898D01*
X0140534Y0079780D01*
X0140731Y0079701D01*
X0140967Y0079622D01*
X0141243Y0079583D01*
X0141479Y0079543D01*
X0142030Y0079583D01*
X0142463Y0079740D01*
X0142818Y0079937D01*
X0143093Y0080173D01*
X0143290Y0080528D01*
X0143408Y0080921D01*
X0143487Y0081354D01*
X0143487Y0085291D01*
X0141991Y0085291D01*
X0141991Y0084956D02*
X0143487Y0084956D01*
X0143487Y0084657D02*
X0141991Y0084657D01*
X0141991Y0084359D02*
X0143487Y0084359D01*
X0143487Y0084060D02*
X0141991Y0084060D01*
X0141991Y0083762D02*
X0143487Y0083762D01*
X0143487Y0083463D02*
X0141991Y0083463D01*
X0141991Y0083165D02*
X0143487Y0083165D01*
X0143487Y0082866D02*
X0141991Y0082866D01*
X0141991Y0082568D02*
X0143487Y0082568D01*
X0143487Y0082269D02*
X0141991Y0082269D01*
X0141969Y0081970D02*
X0143487Y0081970D01*
X0143487Y0081672D02*
X0141932Y0081672D01*
X0141889Y0081373D02*
X0143487Y0081373D01*
X0143436Y0081075D02*
X0141722Y0081075D01*
X0141083Y0080776D02*
X0143365Y0080776D01*
X0143262Y0080478D02*
X0139793Y0080478D01*
X0139747Y0080478D02*
X0138290Y0080478D01*
X0138290Y0080776D02*
X0140905Y0080776D01*
X0140144Y0081075D02*
X0138290Y0081075D01*
X0138290Y0081373D02*
X0139975Y0081373D01*
X0139860Y0081672D02*
X0138290Y0081672D01*
X0138290Y0081970D02*
X0139825Y0081970D01*
X0139825Y0082269D02*
X0138290Y0082269D01*
X0138290Y0082568D02*
X0139825Y0082568D01*
X0139825Y0082866D02*
X0138290Y0082866D01*
X0138290Y0083165D02*
X0139825Y0083165D01*
X0139825Y0083463D02*
X0138290Y0083463D01*
X0138290Y0083762D02*
X0139825Y0083762D01*
X0139825Y0084060D02*
X0138290Y0084060D01*
X0138290Y0084359D02*
X0139825Y0084359D01*
X0139825Y0084657D02*
X0138290Y0084657D01*
X0138290Y0084956D02*
X0139825Y0084956D01*
X0139825Y0085254D02*
X0138290Y0085254D01*
X0137463Y0085254D02*
X0136007Y0085254D01*
X0136007Y0085291D02*
X0136007Y0084504D01*
X0135967Y0084504D01*
X0135810Y0084740D01*
X0135652Y0084898D01*
X0135455Y0085055D01*
X0135219Y0085213D01*
X0134983Y0085291D01*
X0134747Y0085370D01*
X0134510Y0085409D01*
X0134274Y0085409D01*
X0133723Y0085370D01*
X0133290Y0085252D01*
X0132936Y0085055D01*
X0132660Y0084780D01*
X0132463Y0084465D01*
X0132345Y0084071D01*
X0132266Y0083638D01*
X0132227Y0083126D01*
X0132227Y0079701D01*
X0133762Y0079701D01*
X0133762Y0082850D01*
X0133802Y0083165D01*
X0133841Y0083441D01*
X0133881Y0083677D01*
X0133999Y0083874D01*
X0134117Y0084031D01*
X0134314Y0084150D01*
X0134510Y0084189D01*
X0134747Y0084228D01*
X0135062Y0084189D01*
X0135298Y0084150D01*
X0135495Y0084031D01*
X0135652Y0083835D01*
X0135770Y0083638D01*
X0135888Y0083362D01*
X0135928Y0083008D01*
X0135928Y0079701D01*
X0137463Y0079701D01*
X0137463Y0084583D01*
X0137463Y0085291D01*
X0136007Y0085291D01*
X0136007Y0084956D02*
X0137463Y0084956D01*
X0137463Y0084657D02*
X0136007Y0084657D01*
X0135865Y0084657D02*
X0132584Y0084657D01*
X0132431Y0084359D02*
X0137463Y0084359D01*
X0137463Y0084060D02*
X0135447Y0084060D01*
X0135696Y0083762D02*
X0137463Y0083762D01*
X0137463Y0083463D02*
X0135845Y0083463D01*
X0135910Y0083165D02*
X0137463Y0083165D01*
X0137463Y0082866D02*
X0135928Y0082866D01*
X0135928Y0082568D02*
X0137463Y0082568D01*
X0137463Y0082269D02*
X0135928Y0082269D01*
X0135928Y0081970D02*
X0137463Y0081970D01*
X0137463Y0081672D02*
X0135928Y0081672D01*
X0135928Y0081373D02*
X0137463Y0081373D01*
X0137463Y0081075D02*
X0135928Y0081075D01*
X0135928Y0080776D02*
X0137463Y0080776D01*
X0137463Y0080478D02*
X0135928Y0080478D01*
X0135928Y0080179D02*
X0137463Y0080179D01*
X0137463Y0079881D02*
X0135928Y0079881D01*
X0133762Y0079881D02*
X0132227Y0079881D01*
X0132227Y0080179D02*
X0133762Y0080179D01*
X0133762Y0080478D02*
X0132227Y0080478D01*
X0132227Y0080776D02*
X0133762Y0080776D01*
X0133762Y0081075D02*
X0132227Y0081075D01*
X0132227Y0081373D02*
X0133762Y0081373D01*
X0133762Y0081672D02*
X0132227Y0081672D01*
X0132227Y0081970D02*
X0133762Y0081970D01*
X0133762Y0082269D02*
X0132227Y0082269D01*
X0132227Y0082568D02*
X0133762Y0082568D01*
X0133764Y0082866D02*
X0132227Y0082866D01*
X0132230Y0083165D02*
X0133802Y0083165D01*
X0133845Y0083463D02*
X0132253Y0083463D01*
X0132289Y0083762D02*
X0133931Y0083762D01*
X0134164Y0084060D02*
X0132343Y0084060D01*
X0132836Y0084956D02*
X0135580Y0084956D01*
X0135095Y0085254D02*
X0133298Y0085254D01*
X0138290Y0080179D02*
X0139747Y0080179D01*
X0140002Y0080179D02*
X0143097Y0080179D01*
X0142717Y0079881D02*
X0140331Y0079881D01*
X0139747Y0079881D02*
X0138290Y0079881D01*
X0141244Y0079582D02*
X0142026Y0079582D01*
X0145022Y0085553D02*
X0146518Y0085553D01*
X0146518Y0085851D02*
X0144983Y0085851D01*
X0144802Y0086150D02*
X0146492Y0086150D01*
X0146377Y0086448D02*
X0143881Y0086448D01*
X0143881Y0086747D02*
X0146218Y0086747D01*
X0145890Y0087045D02*
X0143881Y0087045D01*
X0143891Y0087344D02*
X0145215Y0087344D01*
X0145654Y0089135D02*
X0149825Y0089135D01*
X0149825Y0089433D02*
X0144917Y0089433D01*
X0145062Y0089346D02*
X0144668Y0089583D01*
X0144353Y0089858D01*
X0144038Y0090173D01*
X0143762Y0090528D01*
X0143369Y0091236D01*
X0143172Y0091945D01*
X0143133Y0092654D01*
X0143251Y0093283D01*
X0143448Y0093835D01*
X0143723Y0094307D01*
X0144038Y0094661D01*
X0144353Y0094819D01*
X0144353Y0094504D01*
X0144392Y0094386D01*
X0144432Y0094268D01*
X0144550Y0094189D01*
X0144668Y0094150D01*
X0144944Y0094150D01*
X0145101Y0094228D01*
X0145259Y0094307D01*
X0145377Y0094386D01*
X0145534Y0094504D01*
X0145652Y0094583D01*
X0145770Y0094701D01*
X0145849Y0094858D01*
X0145928Y0094976D01*
X0145967Y0095134D01*
X0146007Y0095252D01*
X0145967Y0095370D01*
X0145928Y0095449D01*
X0145888Y0095567D01*
X0145810Y0095685D01*
X0145652Y0095803D01*
X0145495Y0095882D01*
X0145298Y0095921D01*
X0145140Y0095961D01*
X0145022Y0095961D01*
X0144904Y0095921D01*
X0144786Y0095921D01*
X0144825Y0095961D01*
X0144983Y0096079D01*
X0145219Y0096197D01*
X0145534Y0096315D01*
X0145888Y0096433D01*
X0146282Y0096433D01*
X0146715Y0096354D01*
X0147148Y0096118D01*
X0147503Y0095803D01*
X0147699Y0095528D01*
X0147818Y0095173D01*
X0147818Y0094858D01*
X0147739Y0094504D01*
X0147542Y0094150D01*
X0147266Y0093835D01*
X0146951Y0093480D01*
X0146676Y0093165D01*
X0146558Y0092890D01*
X0146558Y0092614D01*
X0146636Y0092378D01*
X0146794Y0092181D01*
X0147030Y0092024D01*
X0147345Y0091945D01*
X0147660Y0091945D01*
X0147857Y0091984D01*
X0148054Y0092063D01*
X0148172Y0092142D01*
X0148290Y0092260D01*
X0148369Y0092417D01*
X0148408Y0092535D01*
X0148408Y0092654D01*
X0148369Y0092772D01*
X0148290Y0092890D01*
X0148211Y0092969D01*
X0148133Y0093047D01*
X0148014Y0093087D01*
X0147936Y0093126D01*
X0147857Y0093165D01*
X0147818Y0093205D01*
X0147896Y0093244D01*
X0147975Y0093244D01*
X0148133Y0093283D01*
X0148448Y0093283D01*
X0148684Y0093244D01*
X0148881Y0093165D01*
X0149077Y0093087D01*
X0149235Y0092969D01*
X0149432Y0092850D01*
X0149550Y0092654D01*
X0149668Y0092417D01*
X0149747Y0092181D01*
X0149786Y0091827D01*
X0149825Y0091472D01*
X0149825Y0086433D01*
X0149786Y0086433D01*
X0149707Y0086551D01*
X0149589Y0086669D01*
X0149471Y0086827D01*
X0149274Y0087024D01*
X0149077Y0087260D01*
X0148841Y0087496D01*
X0148644Y0087772D01*
X0148369Y0088047D01*
X0148133Y0088283D01*
X0147936Y0088520D01*
X0147739Y0088677D01*
X0147542Y0088835D01*
X0147345Y0088953D01*
X0147109Y0088992D01*
X0146361Y0088992D01*
X0145888Y0089071D01*
X0145455Y0089189D01*
X0145062Y0089346D01*
X0144498Y0089732D02*
X0149825Y0089732D01*
X0149825Y0090030D02*
X0144181Y0090030D01*
X0143917Y0090329D02*
X0149825Y0090329D01*
X0149825Y0090627D02*
X0143707Y0090627D01*
X0143541Y0090926D02*
X0149825Y0090926D01*
X0149825Y0091224D02*
X0143375Y0091224D01*
X0143289Y0091523D02*
X0149820Y0091523D01*
X0149787Y0091821D02*
X0143206Y0091821D01*
X0143162Y0092120D02*
X0146886Y0092120D01*
X0146623Y0092418D02*
X0143146Y0092418D01*
X0143144Y0092717D02*
X0146558Y0092717D01*
X0146612Y0093015D02*
X0143200Y0093015D01*
X0143262Y0093314D02*
X0146806Y0093314D01*
X0147069Y0093612D02*
X0143368Y0093612D01*
X0143492Y0093911D02*
X0147333Y0093911D01*
X0147575Y0094209D02*
X0145063Y0094209D01*
X0144519Y0094209D02*
X0143666Y0094209D01*
X0143902Y0094508D02*
X0144353Y0094508D01*
X0144353Y0094806D02*
X0144328Y0094806D01*
X0145540Y0094508D02*
X0147740Y0094508D01*
X0147806Y0094806D02*
X0145823Y0094806D01*
X0145960Y0095105D02*
X0147818Y0095105D01*
X0147741Y0095403D02*
X0145950Y0095403D01*
X0145787Y0095702D02*
X0147575Y0095702D01*
X0147281Y0096001D02*
X0144879Y0096001D01*
X0145492Y0096299D02*
X0146817Y0096299D01*
X0148164Y0093015D02*
X0149172Y0093015D01*
X0149512Y0092717D02*
X0148387Y0092717D01*
X0148369Y0092418D02*
X0149667Y0092418D01*
X0149754Y0092120D02*
X0148139Y0092120D01*
X0147539Y0088836D02*
X0149825Y0088836D01*
X0149825Y0088538D02*
X0147913Y0088538D01*
X0148177Y0088239D02*
X0149825Y0088239D01*
X0149825Y0087941D02*
X0148475Y0087941D01*
X0148737Y0087642D02*
X0149825Y0087642D01*
X0149825Y0087344D02*
X0148994Y0087344D01*
X0149256Y0087045D02*
X0149825Y0087045D01*
X0149825Y0086747D02*
X0149531Y0086747D01*
X0149776Y0086448D02*
X0149825Y0086448D01*
X0149546Y0085254D02*
X0147737Y0085254D01*
X0148042Y0084956D02*
X0149833Y0084956D01*
X0150120Y0084657D02*
X0148346Y0084657D01*
X0148650Y0084359D02*
X0150407Y0084359D01*
X0150693Y0084060D02*
X0148954Y0084060D01*
X0149259Y0083762D02*
X0150980Y0083762D01*
X0151075Y0081970D02*
X0152975Y0081970D01*
X0152975Y0081672D02*
X0151395Y0081672D01*
X0151440Y0081373D02*
X0152975Y0081373D01*
X0152975Y0081075D02*
X0151440Y0081075D01*
X0151440Y0080776D02*
X0152975Y0080776D01*
X0152975Y0080478D02*
X0151440Y0080478D01*
X0151440Y0080179D02*
X0152975Y0080179D01*
X0152975Y0079881D02*
X0151440Y0079881D01*
X0151440Y0085553D02*
X0152975Y0085553D01*
X0152975Y0085851D02*
X0151440Y0085851D01*
X0151440Y0086150D02*
X0152975Y0086150D01*
X0152975Y0086448D02*
X0151440Y0086448D01*
X0151440Y0086747D02*
X0152612Y0086747D01*
X0152058Y0087045D02*
X0151440Y0087045D01*
X0151440Y0087344D02*
X0151503Y0087344D01*
X0159915Y0079881D02*
X0162587Y0079881D01*
X0161714Y0079582D02*
X0160968Y0079582D01*
X0165288Y0085254D02*
X0167079Y0085254D01*
X0167857Y0085254D02*
X0168043Y0085254D01*
X0170304Y0084359D02*
X0172159Y0084359D01*
X0171695Y0084060D02*
X0170171Y0084060D01*
X0170122Y0083762D02*
X0171582Y0083762D01*
X0172184Y0083165D02*
X0174893Y0083165D01*
X0174964Y0083463D02*
X0173162Y0083463D01*
X0173419Y0083762D02*
X0174973Y0083762D01*
X0174948Y0084060D02*
X0173428Y0084060D01*
X0172978Y0084359D02*
X0174844Y0084359D01*
X0174652Y0084657D02*
X0170491Y0084657D01*
X0170795Y0084956D02*
X0174351Y0084956D01*
X0173830Y0085254D02*
X0171421Y0085254D01*
X0171004Y0082866D02*
X0174731Y0082866D01*
X0174350Y0082568D02*
X0170486Y0082568D01*
X0124603Y0095300D02*
X0121427Y0094978D01*
X0121085Y0093911D01*
X0116483Y0093911D01*
X0116542Y0093942D02*
X0117008Y0094325D01*
X0117391Y0094791D01*
X0117675Y0095323D01*
X0117850Y0095900D01*
X0117909Y0096500D01*
X0117844Y0097128D01*
X0117653Y0097730D01*
X0117342Y0098280D01*
X0116926Y0098755D01*
X0116421Y0099135D01*
X0115849Y0099403D01*
X0115235Y0099550D01*
X0114604Y0099567D01*
X0113982Y0099456D01*
X0113396Y0099220D01*
X0112871Y0098869D01*
X0112429Y0098418D01*
X0112088Y0097886D01*
X0111862Y0097296D01*
X0111762Y0096673D01*
X0111792Y0096042D01*
X0111950Y0095430D01*
X0112229Y0094864D01*
X0112618Y0094366D01*
X0113101Y0093959D01*
X0113656Y0093658D01*
X0112244Y0090248D01*
X0111248Y0090761D01*
X0108773Y0088744D01*
X0107077Y0090440D01*
X0109095Y0092914D01*
X0108582Y0093911D01*
X0113189Y0093911D01*
X0112804Y0094209D02*
X0108486Y0094209D01*
X0108582Y0093911D02*
X0108240Y0094978D01*
X0105064Y0095300D01*
X0105064Y0097700D01*
X0108240Y0098022D01*
X0108582Y0099089D01*
X0109095Y0100086D01*
X0107077Y0102560D01*
X0108773Y0104256D01*
X0111248Y0102239D01*
X0112244Y0102752D01*
X0113311Y0103093D01*
X0113634Y0106269D01*
X0116033Y0106269D01*
X0116355Y0103093D01*
X0117423Y0102752D01*
X0118419Y0102239D01*
X0120893Y0104256D01*
X0122589Y0102560D01*
X0120572Y0100086D01*
X0121085Y0099089D01*
X0121427Y0098022D01*
X0124603Y0097700D01*
X0124603Y0095300D01*
X0124603Y0095403D02*
X0117700Y0095403D01*
X0117790Y0095702D02*
X0124603Y0095702D01*
X0124603Y0096001D02*
X0117860Y0096001D01*
X0117890Y0096299D02*
X0124603Y0096299D01*
X0124603Y0096598D02*
X0117899Y0096598D01*
X0117868Y0096896D02*
X0124603Y0096896D01*
X0124603Y0097195D02*
X0117823Y0097195D01*
X0117728Y0097493D02*
X0124603Y0097493D01*
X0123697Y0097792D02*
X0117618Y0097792D01*
X0117449Y0098090D02*
X0121405Y0098090D01*
X0121309Y0098389D02*
X0117247Y0098389D01*
X0116985Y0098687D02*
X0121214Y0098687D01*
X0121118Y0098986D02*
X0116619Y0098986D01*
X0116103Y0099284D02*
X0120985Y0099284D01*
X0120831Y0099583D02*
X0108836Y0099583D01*
X0108989Y0099881D02*
X0120677Y0099881D01*
X0120648Y0100180D02*
X0109018Y0100180D01*
X0108775Y0100478D02*
X0120892Y0100478D01*
X0121135Y0100777D02*
X0108531Y0100777D01*
X0108288Y0101075D02*
X0121379Y0101075D01*
X0121622Y0101374D02*
X0108045Y0101374D01*
X0107801Y0101672D02*
X0121865Y0101672D01*
X0122109Y0101971D02*
X0107558Y0101971D01*
X0107314Y0102269D02*
X0111210Y0102269D01*
X0111307Y0102269D02*
X0118360Y0102269D01*
X0118457Y0102269D02*
X0122352Y0102269D01*
X0122581Y0102568D02*
X0118823Y0102568D01*
X0119189Y0102866D02*
X0122283Y0102866D01*
X0121984Y0103165D02*
X0119555Y0103165D01*
X0119921Y0103463D02*
X0121686Y0103463D01*
X0121387Y0103762D02*
X0120287Y0103762D01*
X0120653Y0104060D02*
X0121089Y0104060D01*
X0117780Y0102568D02*
X0111887Y0102568D01*
X0112602Y0102866D02*
X0117065Y0102866D01*
X0116348Y0103165D02*
X0113319Y0103165D01*
X0113349Y0103463D02*
X0116318Y0103463D01*
X0116287Y0103762D02*
X0113379Y0103762D01*
X0113409Y0104060D02*
X0116257Y0104060D01*
X0116227Y0104359D02*
X0113440Y0104359D01*
X0113470Y0104657D02*
X0116197Y0104657D01*
X0116166Y0104956D02*
X0113500Y0104956D01*
X0113531Y0105254D02*
X0116136Y0105254D01*
X0116106Y0105553D02*
X0113561Y0105553D01*
X0113591Y0105851D02*
X0116075Y0105851D01*
X0116045Y0106150D02*
X0113622Y0106150D01*
X0110844Y0102568D02*
X0107085Y0102568D01*
X0107384Y0102866D02*
X0110478Y0102866D01*
X0110112Y0103165D02*
X0107682Y0103165D01*
X0107981Y0103463D02*
X0109746Y0103463D01*
X0109379Y0103762D02*
X0108279Y0103762D01*
X0108578Y0104060D02*
X0109013Y0104060D01*
X0108682Y0099284D02*
X0113556Y0099284D01*
X0113046Y0098986D02*
X0108548Y0098986D01*
X0108453Y0098687D02*
X0112693Y0098687D01*
X0112410Y0098389D02*
X0108357Y0098389D01*
X0108262Y0098090D02*
X0112218Y0098090D01*
X0112051Y0097792D02*
X0105970Y0097792D01*
X0105064Y0097493D02*
X0111937Y0097493D01*
X0111846Y0097195D02*
X0105064Y0097195D01*
X0105064Y0096896D02*
X0111798Y0096896D01*
X0111766Y0096598D02*
X0105064Y0096598D01*
X0105064Y0096299D02*
X0111780Y0096299D01*
X0111802Y0096001D02*
X0105064Y0096001D01*
X0105064Y0095702D02*
X0111879Y0095702D01*
X0111963Y0095403D02*
X0105064Y0095403D01*
X0106989Y0095105D02*
X0112110Y0095105D01*
X0112274Y0094806D02*
X0108295Y0094806D01*
X0108390Y0094508D02*
X0112507Y0094508D01*
X0113637Y0093612D02*
X0108735Y0093612D01*
X0108889Y0093314D02*
X0113514Y0093314D01*
X0113390Y0093015D02*
X0109043Y0093015D01*
X0108934Y0092717D02*
X0113266Y0092717D01*
X0113143Y0092418D02*
X0108690Y0092418D01*
X0108447Y0092120D02*
X0113019Y0092120D01*
X0112895Y0091821D02*
X0108204Y0091821D01*
X0107960Y0091523D02*
X0112772Y0091523D01*
X0112648Y0091224D02*
X0107717Y0091224D01*
X0107473Y0090926D02*
X0112524Y0090926D01*
X0112401Y0090627D02*
X0111508Y0090627D01*
X0111083Y0090627D02*
X0107230Y0090627D01*
X0107189Y0090329D02*
X0110717Y0090329D01*
X0110351Y0090030D02*
X0107487Y0090030D01*
X0107786Y0089732D02*
X0109985Y0089732D01*
X0109619Y0089433D02*
X0108084Y0089433D01*
X0108383Y0089135D02*
X0109253Y0089135D01*
X0108887Y0088836D02*
X0108681Y0088836D01*
X0112087Y0090329D02*
X0112277Y0090329D01*
X0116648Y0092120D02*
X0121220Y0092120D01*
X0121463Y0091821D02*
X0116771Y0091821D01*
X0116895Y0091523D02*
X0121706Y0091523D01*
X0121950Y0091224D02*
X0117019Y0091224D01*
X0117142Y0090926D02*
X0122193Y0090926D01*
X0122437Y0090627D02*
X0118584Y0090627D01*
X0118419Y0090761D02*
X0117423Y0090248D01*
X0116010Y0093658D01*
X0116542Y0093942D01*
X0116868Y0094209D02*
X0121181Y0094209D01*
X0121085Y0093911D02*
X0120572Y0092914D01*
X0122589Y0090440D01*
X0120893Y0088744D01*
X0118419Y0090761D01*
X0118159Y0090627D02*
X0117266Y0090627D01*
X0117390Y0090329D02*
X0117580Y0090329D01*
X0118950Y0090329D02*
X0122478Y0090329D01*
X0122179Y0090030D02*
X0119316Y0090030D01*
X0119682Y0089732D02*
X0121881Y0089732D01*
X0121582Y0089433D02*
X0120048Y0089433D01*
X0120414Y0089135D02*
X0121284Y0089135D01*
X0120985Y0088836D02*
X0120780Y0088836D01*
X0120976Y0092418D02*
X0116524Y0092418D01*
X0116400Y0092717D02*
X0120733Y0092717D01*
X0120624Y0093015D02*
X0116277Y0093015D01*
X0116153Y0093314D02*
X0120778Y0093314D01*
X0120932Y0093612D02*
X0116029Y0093612D01*
X0117159Y0094508D02*
X0121276Y0094508D01*
X0121372Y0094806D02*
X0117399Y0094806D01*
X0117559Y0095105D02*
X0122678Y0095105D01*
D232*
X0194329Y0095921D03*
D233*
X0194408Y0095882D03*
D234*
X0194487Y0095882D03*
D235*
X0194566Y0095882D03*
D236*
X0194644Y0095882D03*
D237*
X0194723Y0095882D03*
D238*
X0194802Y0095882D03*
D239*
X0194881Y0095921D03*
D240*
X0194959Y0095882D03*
D241*
X0195038Y0095921D03*
D242*
X0195117Y0095921D03*
D243*
X0195196Y0095882D03*
D244*
X0195274Y0095882D03*
D245*
X0195353Y0095882D03*
D246*
X0195432Y0095882D03*
D247*
X0195510Y0095882D03*
D248*
X0195589Y0095882D03*
D249*
X0195668Y0095921D03*
D250*
X0195747Y0095882D03*
D251*
X0195825Y0095882D03*
D252*
X0196062Y0086472D03*
X0196140Y0086472D03*
X0199684Y0086472D03*
X0199762Y0086472D03*
X0195904Y0105213D03*
D253*
X0195904Y0102654D03*
X0197361Y0098520D03*
X0198621Y0097063D03*
X0198699Y0097063D03*
X0198778Y0097063D03*
X0197361Y0095567D03*
X0197440Y0093638D03*
X0197518Y0093638D03*
X0197597Y0093638D03*
X0196495Y0089898D03*
D254*
X0195904Y0100823D03*
D255*
X0195904Y0098480D03*
X0195983Y0098480D03*
X0195983Y0095528D03*
X0195904Y0095528D03*
X0199920Y0089465D03*
X0199251Y0105882D03*
X0199172Y0105961D03*
X0199093Y0105961D03*
X0199014Y0106039D03*
X0198936Y0106039D03*
X0198699Y0106118D03*
X0198621Y0106118D03*
X0198306Y0106197D03*
X0198227Y0106197D03*
X0198148Y0106197D03*
X0198070Y0106197D03*
X0197833Y0106197D03*
X0197755Y0106197D03*
X0197676Y0106197D03*
X0197597Y0106197D03*
X0197518Y0106197D03*
X0197203Y0106118D03*
X0197125Y0106118D03*
X0197046Y0106118D03*
X0196967Y0106039D03*
X0196888Y0106039D03*
X0196731Y0105961D03*
D256*
X0199014Y0103205D03*
X0199605Y0102339D03*
X0198463Y0098441D03*
X0197755Y0097063D03*
X0197676Y0097063D03*
X0197597Y0097063D03*
X0198385Y0095567D03*
X0198463Y0095567D03*
X0195904Y0093323D03*
D257*
X0196219Y0093402D03*
X0196337Y0093402D03*
X0196337Y0091748D03*
X0196416Y0091748D03*
X0196495Y0091748D03*
X0196573Y0091748D03*
X0196652Y0091748D03*
X0196731Y0091748D03*
X0196810Y0091748D03*
X0196888Y0091748D03*
X0196967Y0091748D03*
X0197046Y0091748D03*
X0197125Y0091748D03*
X0197203Y0091748D03*
X0197282Y0091748D03*
X0197361Y0091748D03*
X0197440Y0091748D03*
X0197518Y0091748D03*
X0197597Y0091748D03*
X0197676Y0091748D03*
X0197755Y0091748D03*
X0197833Y0091748D03*
X0197912Y0091748D03*
X0197991Y0091748D03*
X0198070Y0091748D03*
X0198148Y0091748D03*
X0198227Y0091748D03*
X0198306Y0091748D03*
X0198385Y0091748D03*
X0198463Y0091748D03*
X0198542Y0091748D03*
X0198621Y0091748D03*
X0198699Y0091748D03*
X0198778Y0091748D03*
X0198857Y0091748D03*
X0198936Y0091748D03*
X0199014Y0091748D03*
X0199093Y0091748D03*
X0199172Y0091748D03*
X0199251Y0091748D03*
X0199329Y0091748D03*
X0199448Y0091748D03*
X0199526Y0091748D03*
X0199605Y0091748D03*
X0199684Y0091748D03*
X0199762Y0091748D03*
X0199841Y0091748D03*
X0199920Y0091748D03*
X0198542Y0090134D03*
X0198463Y0090134D03*
X0198385Y0090134D03*
X0198306Y0090134D03*
X0198227Y0090134D03*
X0198148Y0090134D03*
X0197991Y0090134D03*
X0197755Y0090134D03*
X0197676Y0090134D03*
X0197597Y0090134D03*
X0197518Y0090134D03*
X0197440Y0090134D03*
X0197361Y0090134D03*
X0196219Y0091748D03*
X0196140Y0091748D03*
X0196062Y0091748D03*
X0195983Y0091748D03*
X0195904Y0091748D03*
X0198148Y0095567D03*
X0198227Y0095567D03*
X0197991Y0097063D03*
X0197912Y0097063D03*
X0197833Y0097063D03*
X0196140Y0102417D03*
X0199762Y0102417D03*
D258*
X0199684Y0105606D03*
X0196219Y0105606D03*
X0195904Y0089346D03*
D259*
X0195904Y0086551D03*
X0199920Y0086551D03*
X0199999Y0086551D03*
X0199920Y0105291D03*
X0195983Y0105370D03*
D260*
X0196967Y0103205D03*
X0195983Y0102575D03*
X0199920Y0102575D03*
X0198542Y0097063D03*
X0198463Y0097063D03*
X0198385Y0097063D03*
X0197676Y0095567D03*
X0197597Y0095567D03*
X0197203Y0093559D03*
X0197125Y0093559D03*
X0197046Y0093559D03*
X0196731Y0089976D03*
X0196652Y0089976D03*
X0199172Y0089976D03*
X0199251Y0089976D03*
D261*
X0196140Y0100783D03*
X0196062Y0100783D03*
X0195983Y0100783D03*
D262*
X0196219Y0102378D03*
X0199684Y0102378D03*
X0198385Y0098480D03*
X0198306Y0098480D03*
X0198227Y0098480D03*
X0198306Y0095528D03*
X0196140Y0093362D03*
X0196062Y0093362D03*
X0195983Y0093362D03*
X0197833Y0090173D03*
X0197912Y0090173D03*
X0198070Y0090173D03*
D263*
X0195983Y0089504D03*
X0196062Y0095567D03*
X0196140Y0095567D03*
X0197282Y0106157D03*
X0197361Y0106157D03*
X0197440Y0106157D03*
X0197912Y0106236D03*
X0197991Y0106236D03*
X0198385Y0106157D03*
X0198463Y0106157D03*
X0198542Y0106157D03*
X0198778Y0106079D03*
X0198857Y0106079D03*
D264*
X0199841Y0086512D03*
X0195983Y0086512D03*
D265*
X0196062Y0105449D03*
X0199841Y0105370D03*
D266*
X0199841Y0102496D03*
X0196062Y0102496D03*
X0198070Y0097063D03*
X0198148Y0097063D03*
X0198227Y0097063D03*
X0197991Y0095567D03*
X0197912Y0095567D03*
X0197833Y0095567D03*
X0196731Y0093480D03*
X0196652Y0093480D03*
X0196573Y0093480D03*
X0196967Y0090055D03*
X0197046Y0090055D03*
X0198857Y0090055D03*
X0198936Y0090055D03*
D267*
X0196219Y0095528D03*
X0196219Y0098480D03*
X0196140Y0098480D03*
X0196062Y0098480D03*
X0201495Y0103008D03*
D268*
X0196337Y0095567D03*
X0196062Y0089583D03*
X0199841Y0089583D03*
D269*
X0199762Y0105488D03*
X0196140Y0105567D03*
D270*
X0196495Y0095567D03*
X0196573Y0095567D03*
X0196140Y0089661D03*
X0199762Y0089661D03*
D271*
X0196219Y0100744D03*
D272*
X0196810Y0095567D03*
X0196888Y0095567D03*
X0198306Y0093795D03*
X0198385Y0093795D03*
X0198463Y0093795D03*
X0199684Y0089740D03*
X0196219Y0089740D03*
D273*
X0196219Y0086433D03*
X0199526Y0086433D03*
X0199605Y0086433D03*
X0199999Y0105094D03*
D274*
X0196278Y0105685D03*
D275*
X0196278Y0102339D03*
D276*
X0196278Y0100744D03*
D277*
X0196278Y0098480D03*
D278*
X0196278Y0095567D03*
D279*
X0196278Y0093402D03*
X0196278Y0091748D03*
X0199388Y0091748D03*
D280*
X0196278Y0089780D03*
D281*
X0196278Y0086433D03*
D282*
X0196337Y0105724D03*
X0196416Y0105803D03*
X0199526Y0105724D03*
X0199605Y0105646D03*
D283*
X0199526Y0102299D03*
X0196337Y0102299D03*
X0198542Y0098480D03*
X0198621Y0098480D03*
X0198542Y0095528D03*
D284*
X0196495Y0100705D03*
X0196416Y0100705D03*
X0196337Y0100705D03*
D285*
X0196337Y0098480D03*
X0196416Y0098480D03*
X0196495Y0098480D03*
X0196416Y0095528D03*
X0197203Y0103165D03*
X0198699Y0103165D03*
D286*
X0198857Y0097063D03*
X0198936Y0097063D03*
X0199014Y0097063D03*
X0197125Y0095567D03*
X0197046Y0095567D03*
X0197912Y0093717D03*
X0197991Y0093717D03*
X0199526Y0089819D03*
X0196337Y0089819D03*
D287*
X0196337Y0086394D03*
X0196416Y0086394D03*
X0199448Y0086394D03*
D288*
X0198778Y0090094D03*
X0198699Y0090094D03*
X0198621Y0090094D03*
X0197282Y0090094D03*
X0197203Y0090094D03*
X0197125Y0090094D03*
X0196495Y0093441D03*
X0196416Y0093441D03*
X0198070Y0095528D03*
X0198070Y0098480D03*
X0198148Y0098480D03*
X0197991Y0098480D03*
X0197912Y0098480D03*
D289*
X0197282Y0098480D03*
X0197203Y0098480D03*
X0197125Y0098480D03*
X0197203Y0095528D03*
X0197282Y0095528D03*
X0197676Y0093677D03*
X0197755Y0093677D03*
X0197833Y0093677D03*
X0196416Y0089858D03*
X0199448Y0089858D03*
X0199999Y0102693D03*
D290*
X0199448Y0105764D03*
X0199329Y0105843D03*
X0196810Y0106000D03*
X0196652Y0105921D03*
X0196573Y0105921D03*
X0196495Y0105843D03*
D291*
X0196495Y0086354D03*
X0196573Y0086354D03*
X0199251Y0086354D03*
X0199329Y0086354D03*
D292*
X0196731Y0100665D03*
X0196652Y0100665D03*
X0196573Y0100665D03*
D293*
X0196573Y0098480D03*
X0196652Y0098480D03*
X0196731Y0098480D03*
X0196810Y0098480D03*
X0196731Y0095528D03*
X0196652Y0095528D03*
X0198542Y0093835D03*
X0198621Y0093835D03*
X0198699Y0093835D03*
X0198778Y0103165D03*
X0197125Y0103165D03*
D294*
X0198936Y0103165D03*
X0197597Y0098480D03*
X0197518Y0098480D03*
X0197440Y0098480D03*
X0197440Y0095528D03*
X0197518Y0095528D03*
X0197361Y0093598D03*
X0197282Y0093598D03*
X0196573Y0089937D03*
X0199329Y0089937D03*
D295*
X0199172Y0086315D03*
X0199093Y0086315D03*
X0199014Y0086315D03*
X0196810Y0086315D03*
X0196731Y0086315D03*
X0196652Y0086315D03*
D296*
X0196810Y0100626D03*
X0196888Y0100626D03*
X0196967Y0100626D03*
D297*
X0197676Y0098480D03*
X0197755Y0098480D03*
X0197833Y0098480D03*
X0198306Y0097024D03*
X0197755Y0095528D03*
X0196967Y0093520D03*
X0196888Y0093520D03*
X0196810Y0093520D03*
X0196810Y0090016D03*
X0196888Y0090016D03*
X0199014Y0090016D03*
X0199093Y0090016D03*
D298*
X0199605Y0089780D03*
X0198227Y0093756D03*
X0198148Y0093756D03*
X0198070Y0093756D03*
X0196967Y0095528D03*
X0196967Y0098480D03*
X0196888Y0098480D03*
X0197046Y0098480D03*
X0197046Y0103165D03*
X0198857Y0103165D03*
D299*
X0196888Y0086295D03*
D300*
X0196967Y0086492D03*
D301*
X0197046Y0100587D03*
X0197125Y0100587D03*
X0197203Y0100587D03*
D302*
X0197046Y0086591D03*
X0198857Y0086591D03*
D303*
X0198778Y0086630D03*
X0197125Y0086630D03*
D304*
X0197203Y0086630D03*
X0198621Y0086709D03*
D305*
X0199448Y0093972D03*
X0199526Y0093972D03*
X0199329Y0100193D03*
X0199251Y0100193D03*
X0199172Y0100193D03*
X0198621Y0103146D03*
X0198542Y0103146D03*
X0197361Y0103146D03*
X0197282Y0103146D03*
D306*
X0197282Y0100547D03*
X0197361Y0100547D03*
D307*
X0197361Y0086669D03*
X0197282Y0086669D03*
X0198542Y0086669D03*
D308*
X0199762Y0094051D03*
X0199841Y0094051D03*
X0199920Y0094051D03*
X0199762Y0100114D03*
X0199684Y0100114D03*
X0199605Y0100114D03*
X0198463Y0103146D03*
X0198385Y0103146D03*
X0197518Y0103146D03*
X0197440Y0103146D03*
D309*
X0197440Y0100508D03*
X0197518Y0100508D03*
X0197597Y0100508D03*
D310*
X0197518Y0086709D03*
X0197440Y0086709D03*
X0198306Y0086709D03*
X0198385Y0086709D03*
X0198463Y0086709D03*
D311*
X0199841Y0100075D03*
X0199920Y0100075D03*
X0198306Y0103185D03*
X0197597Y0103185D03*
D312*
X0197597Y0086748D03*
X0197676Y0086748D03*
X0197755Y0086748D03*
X0197833Y0086748D03*
X0197912Y0086748D03*
X0197991Y0086748D03*
X0198070Y0086748D03*
X0198148Y0086748D03*
X0198227Y0086748D03*
D313*
X0198227Y0103146D03*
X0198148Y0103146D03*
X0198070Y0103146D03*
X0197991Y0103146D03*
X0197912Y0103146D03*
X0197833Y0103146D03*
X0197755Y0103146D03*
X0197676Y0103146D03*
D314*
X0197676Y0100469D03*
X0197755Y0100469D03*
X0197833Y0100469D03*
D315*
X0197912Y0100429D03*
X0197991Y0100429D03*
D316*
X0198070Y0100390D03*
X0198148Y0100390D03*
X0198227Y0100390D03*
X0199093Y0097043D03*
X0199172Y0097043D03*
X0199251Y0097043D03*
D317*
X0199329Y0097004D03*
X0198463Y0100350D03*
X0198385Y0100350D03*
X0198306Y0100350D03*
D318*
X0198542Y0100311D03*
X0198621Y0100311D03*
X0198699Y0100311D03*
X0199448Y0097043D03*
X0199526Y0097043D03*
X0198936Y0093854D03*
X0198857Y0093854D03*
X0198778Y0093854D03*
D319*
X0198699Y0086669D03*
D320*
X0199014Y0093894D03*
X0199093Y0093894D03*
X0198857Y0100272D03*
X0198778Y0100272D03*
D321*
X0198936Y0100232D03*
X0199014Y0100232D03*
X0199093Y0100232D03*
X0199605Y0097043D03*
X0199684Y0097043D03*
X0199762Y0097043D03*
X0199329Y0093933D03*
X0199251Y0093933D03*
X0199172Y0093933D03*
D322*
X0198936Y0086531D03*
X0200865Y0103854D03*
D323*
X0199388Y0105843D03*
D324*
X0199388Y0100154D03*
D325*
X0199388Y0097043D03*
D326*
X0199388Y0093972D03*
D327*
X0199388Y0089898D03*
D328*
X0199388Y0086394D03*
D329*
X0199605Y0094012D03*
X0199684Y0094012D03*
X0199841Y0097043D03*
X0199920Y0097043D03*
X0199526Y0100154D03*
X0199448Y0100154D03*
D330*
X0199999Y0094583D03*
D331*
X0200077Y0104248D03*
D332*
X0200077Y0093224D03*
D333*
X0200156Y0104209D03*
X0200235Y0104209D03*
D334*
X0200156Y0093264D03*
D335*
X0200235Y0093303D03*
D336*
X0200314Y0104169D03*
D337*
X0200314Y0093343D03*
D338*
X0200392Y0104130D03*
D339*
X0200392Y0093382D03*
D340*
X0200471Y0104091D03*
D341*
X0200471Y0093421D03*
X0200550Y0093421D03*
D342*
X0200550Y0104051D03*
D343*
X0200629Y0104012D03*
D344*
X0200629Y0093500D03*
D345*
X0200707Y0103933D03*
D346*
X0200707Y0093539D03*
D347*
X0200786Y0103894D03*
D348*
X0200786Y0093579D03*
D349*
X0200865Y0093657D03*
D350*
X0200944Y0103776D03*
D351*
X0200944Y0093697D03*
D352*
X0201022Y0103736D03*
D353*
X0201022Y0093776D03*
D354*
X0201101Y0103657D03*
D355*
X0201101Y0093815D03*
D356*
X0201180Y0103579D03*
D357*
X0201180Y0093894D03*
D358*
X0201259Y0103461D03*
D359*
X0201259Y0094012D03*
D360*
X0201337Y0103382D03*
D361*
X0201337Y0094130D03*
D362*
X0201416Y0103224D03*
D363*
X0201416Y0094287D03*
D364*
X0201495Y0094484D03*
M02*
