%
M48
M72
T01C0.0150
T02C0.0400
%
T01
X10583Y8550
X11543Y9850
X11883Y9850
X12233Y9850
X12738Y9975
X13533Y9350
X13933Y9400
X14793Y9830
X15283Y9830
X15783Y9830
X16633Y10630
X16633Y11000
X18283Y10600
X19138Y9797
X19273Y9430
X18978Y8950
X17833Y8520
X18117Y7827
X18683Y7650
X17738Y7500
X17183Y8100
X16983Y8450
X19563Y8040
X17483Y5860
X16133Y5900
X14433Y5900
X13093Y5880
X11595Y6650
X11433Y7030
X12349Y8500
X12383Y8950
X13283Y7650
X19123Y12100
X18133Y12900
X17891Y12600
X17083Y12905
X18333Y13562
X18752Y13550
X18013Y14417
X17583Y14250
X16733Y14250
X16967Y15067
X16783Y15750
X16633Y16150
X17543Y16030
X17433Y16810
X16703Y17500
X17353Y17600
X16733Y18000
X17222Y18566
X17243Y18925
X17493Y19220
X17205Y19494
X16633Y18850
X15283Y18900
X14783Y18600
X14283Y19100
X13933Y18850
X13213Y18540
X13253Y19280
X13273Y19705
X13533Y20200
X14283Y20100
X14783Y20100
X15283Y20100
X15283Y19600
X14783Y19600
X14283Y19600
X14283Y20600
X14783Y20600
X15283Y20600
X15783Y20600
X16283Y20600
X16283Y20100
X15783Y20100
X16783Y20600
X17283Y20600
X19072Y19500
X19157Y18423
X15283Y18100
X14783Y17600
X14283Y17100
X14783Y16600
X15283Y16100
X15283Y15600
X14783Y15600
X14283Y15600
X13933Y16150
X13083Y16040
X13243Y14300
X14183Y14305
X14783Y14010
X15333Y14955
X15629Y12905
X14933Y12900
X13733Y12900
X11383Y12700
X15283Y17100
X14283Y18100
T02
X10783Y17600
X10783Y16600
X10783Y15600
X10783Y14600
X10783Y13600
X10783Y12600
X10833Y11600
X19783Y11600
X19783Y12600
X19783Y13600
X19783Y14600
X19783Y15600
X19783Y16600
X19783Y17600
X19783Y18600
X19783Y19600
X19783Y20600
X10783Y20600
X10783Y19600
X10783Y18600
M30
