G75*
%MOIN*%
%OFA0B0*%
%FSLAX25Y25*%
%IPPOS*%
%LPD*%
%AMOC8*
5,1,8,0,0,1.08239X$1,22.5*
%
%ADD10R,0.03937X0.11811*%
D10*
X0129191Y0048972D03*
X0137065Y0048972D03*
X0144939Y0048972D03*
X0152813Y0048972D03*
X0160687Y0048972D03*
X0168561Y0048972D03*
X0176435Y0048972D03*
X0184309Y0048972D03*
X0184309Y0108028D03*
X0176435Y0108028D03*
X0168561Y0108028D03*
X0160687Y0108028D03*
X0152813Y0108028D03*
X0144939Y0108028D03*
X0137065Y0108028D03*
X0129191Y0108028D03*
X0129191Y0150972D03*
X0137065Y0150972D03*
X0144939Y0150972D03*
X0152813Y0150972D03*
X0160687Y0150972D03*
X0168561Y0150972D03*
X0176435Y0150972D03*
X0184309Y0150972D03*
X0184309Y0210028D03*
X0176435Y0210028D03*
X0168561Y0210028D03*
X0160687Y0210028D03*
X0152813Y0210028D03*
X0144939Y0210028D03*
X0137065Y0210028D03*
X0129191Y0210028D03*
X0129191Y0252972D03*
X0137065Y0252972D03*
X0144939Y0252972D03*
X0152813Y0252972D03*
X0160687Y0252972D03*
X0168561Y0252972D03*
X0176435Y0252972D03*
X0184309Y0252972D03*
X0184309Y0312028D03*
X0176435Y0312028D03*
X0168561Y0312028D03*
X0160687Y0312028D03*
X0152813Y0312028D03*
X0144939Y0312028D03*
X0137065Y0312028D03*
X0129191Y0312028D03*
X0129191Y0354972D03*
X0137065Y0354972D03*
X0144939Y0354972D03*
X0152813Y0354972D03*
X0160687Y0354972D03*
X0168561Y0354972D03*
X0176435Y0354972D03*
X0184309Y0354972D03*
X0184309Y0414028D03*
X0176435Y0414028D03*
X0168561Y0414028D03*
X0160687Y0414028D03*
X0152813Y0414028D03*
X0144939Y0414028D03*
X0137065Y0414028D03*
X0129191Y0414028D03*
X0319191Y0414028D03*
X0327065Y0414028D03*
X0334939Y0414028D03*
X0342813Y0414028D03*
X0350687Y0414028D03*
X0358561Y0414028D03*
X0366435Y0414028D03*
X0374309Y0414028D03*
X0374309Y0354972D03*
X0366435Y0354972D03*
X0358561Y0354972D03*
X0350687Y0354972D03*
X0342813Y0354972D03*
X0334939Y0354972D03*
X0327065Y0354972D03*
X0319191Y0354972D03*
X0319191Y0312028D03*
X0327065Y0312028D03*
X0334939Y0312028D03*
X0342813Y0312028D03*
X0350687Y0312028D03*
X0358561Y0312028D03*
X0366435Y0312028D03*
X0374309Y0312028D03*
X0374309Y0252972D03*
X0366435Y0252972D03*
X0358561Y0252972D03*
X0350687Y0252972D03*
X0342813Y0252972D03*
X0334939Y0252972D03*
X0327065Y0252972D03*
X0319191Y0252972D03*
X0319191Y0210028D03*
X0327065Y0210028D03*
X0334939Y0210028D03*
X0342813Y0210028D03*
X0350687Y0210028D03*
X0358561Y0210028D03*
X0366435Y0210028D03*
X0374309Y0210028D03*
X0374309Y0150972D03*
X0366435Y0150972D03*
X0358561Y0150972D03*
X0350687Y0150972D03*
X0342813Y0150972D03*
X0334939Y0150972D03*
X0327065Y0150972D03*
X0319191Y0150972D03*
X0319191Y0108028D03*
X0327065Y0108028D03*
X0334939Y0108028D03*
X0342813Y0108028D03*
X0350687Y0108028D03*
X0358561Y0108028D03*
X0366435Y0108028D03*
X0374309Y0108028D03*
X0374309Y0048972D03*
X0366435Y0048972D03*
X0358561Y0048972D03*
X0350687Y0048972D03*
X0342813Y0048972D03*
X0334939Y0048972D03*
X0327065Y0048972D03*
X0319191Y0048972D03*
X0509191Y0048972D03*
X0517065Y0048972D03*
X0524939Y0048972D03*
X0532813Y0048972D03*
X0540687Y0048972D03*
X0548561Y0048972D03*
X0556435Y0048972D03*
X0564309Y0048972D03*
X0564309Y0108028D03*
X0556435Y0108028D03*
X0548561Y0108028D03*
X0540687Y0108028D03*
X0532813Y0108028D03*
X0524939Y0108028D03*
X0517065Y0108028D03*
X0509191Y0108028D03*
X0509191Y0150972D03*
X0517065Y0150972D03*
X0524939Y0150972D03*
X0532813Y0150972D03*
X0540687Y0150972D03*
X0548561Y0150972D03*
X0556435Y0150972D03*
X0564309Y0150972D03*
X0564309Y0210028D03*
X0556435Y0210028D03*
X0548561Y0210028D03*
X0540687Y0210028D03*
X0532813Y0210028D03*
X0524939Y0210028D03*
X0517065Y0210028D03*
X0509191Y0210028D03*
X0509191Y0252972D03*
X0517065Y0252972D03*
X0524939Y0252972D03*
X0532813Y0252972D03*
X0540687Y0252972D03*
X0548561Y0252972D03*
X0556435Y0252972D03*
X0564309Y0252972D03*
X0564309Y0312028D03*
X0556435Y0312028D03*
X0548561Y0312028D03*
X0540687Y0312028D03*
X0532813Y0312028D03*
X0524939Y0312028D03*
X0517065Y0312028D03*
X0509191Y0312028D03*
X0509191Y0354972D03*
X0517065Y0354972D03*
X0524939Y0354972D03*
X0532813Y0354972D03*
X0540687Y0354972D03*
X0548561Y0354972D03*
X0556435Y0354972D03*
X0564309Y0354972D03*
X0564309Y0414028D03*
X0556435Y0414028D03*
X0548561Y0414028D03*
X0540687Y0414028D03*
X0532813Y0414028D03*
X0524939Y0414028D03*
X0517065Y0414028D03*
X0509191Y0414028D03*
M02*
