G75*
%MOIN*%
%OFA0B0*%
%FSLAX25Y25*%
%IPPOS*%
%LPD*%
%AMOC8*
5,1,8,0,0,1.08239X$1,22.5*
%
%ADD10R,0.04331X0.03937*%
%ADD11R,0.01181X0.02598*%
%ADD12R,0.03937X0.04331*%
%ADD13R,0.03543X0.05906*%
%ADD14R,0.05906X0.03543*%
%ADD15R,0.23622X0.23622*%
%ADD16R,0.05748X0.07874*%
%ADD17R,0.09843X0.05610*%
%ADD18C,0.00400*%
%ADD19C,0.00197*%
%ADD20R,0.02165X0.04724*%
%ADD21R,0.04724X0.07874*%
%ADD22R,0.02362X0.05315*%
%ADD23R,0.03543X0.03937*%
%ADD24C,0.01181*%
%ADD25R,0.08661X0.03346*%
%ADD26R,0.04134X0.03937*%
%ADD27R,0.04724X0.02362*%
D10*
X0043904Y0046000D03*
X0050596Y0046000D03*
X0050596Y0058500D03*
X0043904Y0058500D03*
X0070904Y0061000D03*
X0077596Y0061000D03*
X0077596Y0055000D03*
X0070904Y0055000D03*
X0098404Y0048000D03*
X0105096Y0048000D03*
X0105096Y0068000D03*
X0098404Y0068000D03*
X0098404Y0074500D03*
X0098404Y0080500D03*
X0098404Y0086500D03*
X0098404Y0092500D03*
X0105096Y0092500D03*
X0105096Y0086500D03*
X0105096Y0080500D03*
X0105096Y0074500D03*
X0051096Y0098000D03*
X0044404Y0098000D03*
X0044404Y0111000D03*
X0051096Y0111000D03*
X0050596Y0148000D03*
X0043904Y0148000D03*
X0043904Y0160500D03*
X0050596Y0160500D03*
X0070904Y0163000D03*
X0077596Y0163000D03*
X0077596Y0157000D03*
X0070904Y0157000D03*
X0098404Y0150000D03*
X0105096Y0150000D03*
X0105096Y0170000D03*
X0098404Y0170000D03*
X0098404Y0176500D03*
X0098404Y0182500D03*
X0098404Y0188500D03*
X0105096Y0188500D03*
X0105096Y0182500D03*
X0105096Y0176500D03*
X0105096Y0194500D03*
X0098404Y0194500D03*
X0051096Y0200000D03*
X0044404Y0200000D03*
X0044404Y0213000D03*
X0051096Y0213000D03*
X0050596Y0250000D03*
X0043904Y0250000D03*
X0043904Y0262500D03*
X0050596Y0262500D03*
X0070904Y0265000D03*
X0077596Y0265000D03*
X0077596Y0259000D03*
X0070904Y0259000D03*
X0098404Y0252000D03*
X0105096Y0252000D03*
X0105096Y0272000D03*
X0098404Y0272000D03*
X0098404Y0278500D03*
X0098404Y0284500D03*
X0098404Y0290500D03*
X0105096Y0290500D03*
X0105096Y0284500D03*
X0105096Y0278500D03*
X0105096Y0296500D03*
X0098404Y0296500D03*
X0051096Y0302000D03*
X0044404Y0302000D03*
X0044404Y0315000D03*
X0051096Y0315000D03*
X0050596Y0352000D03*
X0043904Y0352000D03*
X0043904Y0364500D03*
X0050596Y0364500D03*
X0070904Y0367000D03*
X0077596Y0367000D03*
X0077596Y0361000D03*
X0070904Y0361000D03*
X0098404Y0354000D03*
X0105096Y0354000D03*
X0105096Y0374000D03*
X0098404Y0374000D03*
X0098404Y0380500D03*
X0098404Y0386500D03*
X0098404Y0392500D03*
X0105096Y0392500D03*
X0105096Y0386500D03*
X0105096Y0380500D03*
X0105096Y0398500D03*
X0098404Y0398500D03*
X0051096Y0404000D03*
X0044404Y0404000D03*
X0044404Y0417000D03*
X0051096Y0417000D03*
X0234404Y0417000D03*
X0241096Y0417000D03*
X0241096Y0404000D03*
X0234404Y0404000D03*
X0288404Y0398500D03*
X0295096Y0398500D03*
X0295096Y0392500D03*
X0295096Y0386500D03*
X0295096Y0380500D03*
X0288404Y0380500D03*
X0288404Y0386500D03*
X0288404Y0392500D03*
X0288404Y0374000D03*
X0295096Y0374000D03*
X0295096Y0354000D03*
X0288404Y0354000D03*
X0267596Y0361000D03*
X0260904Y0361000D03*
X0260904Y0367000D03*
X0267596Y0367000D03*
X0240596Y0364500D03*
X0233904Y0364500D03*
X0233904Y0352000D03*
X0240596Y0352000D03*
X0241096Y0315000D03*
X0234404Y0315000D03*
X0234404Y0302000D03*
X0241096Y0302000D03*
X0288404Y0296500D03*
X0295096Y0296500D03*
X0295096Y0290500D03*
X0295096Y0284500D03*
X0295096Y0278500D03*
X0288404Y0278500D03*
X0288404Y0284500D03*
X0288404Y0290500D03*
X0288404Y0272000D03*
X0295096Y0272000D03*
X0295096Y0252000D03*
X0288404Y0252000D03*
X0267596Y0259000D03*
X0260904Y0259000D03*
X0260904Y0265000D03*
X0267596Y0265000D03*
X0240596Y0262500D03*
X0233904Y0262500D03*
X0233904Y0250000D03*
X0240596Y0250000D03*
X0241096Y0213000D03*
X0234404Y0213000D03*
X0234404Y0200000D03*
X0241096Y0200000D03*
X0288404Y0194500D03*
X0295096Y0194500D03*
X0295096Y0188500D03*
X0295096Y0182500D03*
X0295096Y0176500D03*
X0288404Y0176500D03*
X0288404Y0182500D03*
X0288404Y0188500D03*
X0288404Y0170000D03*
X0295096Y0170000D03*
X0295096Y0150000D03*
X0288404Y0150000D03*
X0267596Y0157000D03*
X0260904Y0157000D03*
X0260904Y0163000D03*
X0267596Y0163000D03*
X0240596Y0160500D03*
X0233904Y0160500D03*
X0233904Y0148000D03*
X0240596Y0148000D03*
X0241096Y0111000D03*
X0234404Y0111000D03*
X0234404Y0098000D03*
X0241096Y0098000D03*
X0288404Y0092500D03*
X0288404Y0086500D03*
X0288404Y0080500D03*
X0288404Y0074500D03*
X0295096Y0074500D03*
X0295096Y0080500D03*
X0295096Y0086500D03*
X0295096Y0092500D03*
X0295096Y0068000D03*
X0288404Y0068000D03*
X0267596Y0061000D03*
X0260904Y0061000D03*
X0260904Y0055000D03*
X0267596Y0055000D03*
X0288404Y0048000D03*
X0295096Y0048000D03*
X0240596Y0046000D03*
X0233904Y0046000D03*
X0233904Y0058500D03*
X0240596Y0058500D03*
X0423904Y0058500D03*
X0430596Y0058500D03*
X0430596Y0046000D03*
X0423904Y0046000D03*
X0450904Y0055000D03*
X0457596Y0055000D03*
X0457596Y0061000D03*
X0450904Y0061000D03*
X0478404Y0068000D03*
X0485096Y0068000D03*
X0485096Y0074500D03*
X0485096Y0080500D03*
X0485096Y0086500D03*
X0485096Y0092500D03*
X0478404Y0092500D03*
X0478404Y0086500D03*
X0478404Y0080500D03*
X0478404Y0074500D03*
X0478404Y0048000D03*
X0485096Y0048000D03*
X0431096Y0098000D03*
X0424404Y0098000D03*
X0424404Y0111000D03*
X0431096Y0111000D03*
X0430596Y0148000D03*
X0423904Y0148000D03*
X0423904Y0160500D03*
X0430596Y0160500D03*
X0450904Y0163000D03*
X0457596Y0163000D03*
X0457596Y0157000D03*
X0450904Y0157000D03*
X0478404Y0150000D03*
X0485096Y0150000D03*
X0485096Y0170000D03*
X0478404Y0170000D03*
X0478404Y0176500D03*
X0478404Y0182500D03*
X0478404Y0188500D03*
X0485096Y0188500D03*
X0485096Y0182500D03*
X0485096Y0176500D03*
X0485096Y0194500D03*
X0478404Y0194500D03*
X0431096Y0200000D03*
X0424404Y0200000D03*
X0424404Y0213000D03*
X0431096Y0213000D03*
X0430596Y0250000D03*
X0423904Y0250000D03*
X0423904Y0262500D03*
X0430596Y0262500D03*
X0450904Y0265000D03*
X0457596Y0265000D03*
X0457596Y0259000D03*
X0450904Y0259000D03*
X0478404Y0252000D03*
X0485096Y0252000D03*
X0485096Y0272000D03*
X0478404Y0272000D03*
X0478404Y0278500D03*
X0478404Y0284500D03*
X0478404Y0290500D03*
X0485096Y0290500D03*
X0485096Y0284500D03*
X0485096Y0278500D03*
X0485096Y0296500D03*
X0478404Y0296500D03*
X0431096Y0302000D03*
X0424404Y0302000D03*
X0424404Y0315000D03*
X0431096Y0315000D03*
X0430596Y0352000D03*
X0423904Y0352000D03*
X0423904Y0364500D03*
X0430596Y0364500D03*
X0450904Y0367000D03*
X0457596Y0367000D03*
X0457596Y0361000D03*
X0450904Y0361000D03*
X0478404Y0354000D03*
X0485096Y0354000D03*
X0485096Y0374000D03*
X0478404Y0374000D03*
X0478404Y0380500D03*
X0478404Y0386500D03*
X0478404Y0392500D03*
X0485096Y0392500D03*
X0485096Y0386500D03*
X0485096Y0380500D03*
X0485096Y0398500D03*
X0478404Y0398500D03*
X0431096Y0404000D03*
X0424404Y0404000D03*
X0424404Y0417000D03*
X0431096Y0417000D03*
D11*
X0479191Y0368122D03*
X0481750Y0368122D03*
X0484309Y0368122D03*
X0484309Y0360878D03*
X0481750Y0360878D03*
X0479191Y0360878D03*
X0479191Y0266122D03*
X0481750Y0266122D03*
X0484309Y0266122D03*
X0484309Y0258878D03*
X0481750Y0258878D03*
X0479191Y0258878D03*
X0479191Y0164122D03*
X0481750Y0164122D03*
X0484309Y0164122D03*
X0484309Y0156878D03*
X0481750Y0156878D03*
X0479191Y0156878D03*
X0479191Y0062122D03*
X0481750Y0062122D03*
X0484309Y0062122D03*
X0484309Y0054878D03*
X0481750Y0054878D03*
X0479191Y0054878D03*
X0294309Y0054878D03*
X0291750Y0054878D03*
X0289191Y0054878D03*
X0289191Y0062122D03*
X0291750Y0062122D03*
X0294309Y0062122D03*
X0294309Y0156878D03*
X0291750Y0156878D03*
X0289191Y0156878D03*
X0289191Y0164122D03*
X0291750Y0164122D03*
X0294309Y0164122D03*
X0294309Y0258878D03*
X0291750Y0258878D03*
X0289191Y0258878D03*
X0289191Y0266122D03*
X0291750Y0266122D03*
X0294309Y0266122D03*
X0294309Y0360878D03*
X0291750Y0360878D03*
X0289191Y0360878D03*
X0289191Y0368122D03*
X0291750Y0368122D03*
X0294309Y0368122D03*
X0104309Y0368122D03*
X0101750Y0368122D03*
X0099191Y0368122D03*
X0099191Y0360878D03*
X0101750Y0360878D03*
X0104309Y0360878D03*
X0104309Y0266122D03*
X0101750Y0266122D03*
X0099191Y0266122D03*
X0099191Y0258878D03*
X0101750Y0258878D03*
X0104309Y0258878D03*
X0104309Y0164122D03*
X0101750Y0164122D03*
X0099191Y0164122D03*
X0099191Y0156878D03*
X0101750Y0156878D03*
X0104309Y0156878D03*
X0104309Y0062122D03*
X0101750Y0062122D03*
X0099191Y0062122D03*
X0099191Y0054878D03*
X0101750Y0054878D03*
X0104309Y0054878D03*
D12*
X0057750Y0103154D03*
X0057750Y0109846D03*
X0064250Y0112754D03*
X0070250Y0112654D03*
X0070250Y0119346D03*
X0064250Y0119446D03*
X0088750Y0119346D03*
X0088750Y0112654D03*
X0057750Y0205154D03*
X0057750Y0211846D03*
X0064250Y0214754D03*
X0070250Y0214654D03*
X0070250Y0221346D03*
X0064250Y0221446D03*
X0088750Y0221346D03*
X0088750Y0214654D03*
X0057750Y0307154D03*
X0057750Y0313846D03*
X0064250Y0316754D03*
X0070250Y0316654D03*
X0070250Y0323346D03*
X0064250Y0323446D03*
X0088750Y0323346D03*
X0088750Y0316654D03*
X0057750Y0409154D03*
X0057750Y0415846D03*
X0064250Y0418754D03*
X0070250Y0418654D03*
X0070250Y0425346D03*
X0064250Y0425446D03*
X0088750Y0425346D03*
X0088750Y0418654D03*
X0247750Y0415846D03*
X0247750Y0409154D03*
X0254250Y0418754D03*
X0260250Y0418654D03*
X0260250Y0425346D03*
X0254250Y0425446D03*
X0278750Y0425346D03*
X0278750Y0418654D03*
X0278750Y0323346D03*
X0278750Y0316654D03*
X0260250Y0316654D03*
X0254250Y0316754D03*
X0254250Y0323446D03*
X0260250Y0323346D03*
X0247750Y0313846D03*
X0247750Y0307154D03*
X0254250Y0221446D03*
X0260250Y0221346D03*
X0260250Y0214654D03*
X0254250Y0214754D03*
X0247750Y0211846D03*
X0247750Y0205154D03*
X0278750Y0214654D03*
X0278750Y0221346D03*
X0278750Y0119346D03*
X0278750Y0112654D03*
X0260250Y0112654D03*
X0254250Y0112754D03*
X0254250Y0119446D03*
X0260250Y0119346D03*
X0247750Y0109846D03*
X0247750Y0103154D03*
X0437750Y0103154D03*
X0437750Y0109846D03*
X0444250Y0112754D03*
X0450250Y0112654D03*
X0450250Y0119346D03*
X0444250Y0119446D03*
X0468750Y0119346D03*
X0468750Y0112654D03*
X0437750Y0205154D03*
X0437750Y0211846D03*
X0444250Y0214754D03*
X0450250Y0214654D03*
X0450250Y0221346D03*
X0444250Y0221446D03*
X0468750Y0221346D03*
X0468750Y0214654D03*
X0437750Y0307154D03*
X0437750Y0313846D03*
X0444250Y0316754D03*
X0450250Y0316654D03*
X0450250Y0323346D03*
X0444250Y0323446D03*
X0468750Y0323346D03*
X0468750Y0316654D03*
X0437750Y0409154D03*
X0437750Y0415846D03*
X0444250Y0418754D03*
X0450250Y0418654D03*
X0450250Y0425346D03*
X0444250Y0425446D03*
X0468750Y0425346D03*
X0468750Y0418654D03*
D13*
X0501065Y0416933D03*
X0506065Y0416933D03*
X0511065Y0416933D03*
X0516065Y0416933D03*
X0521065Y0416933D03*
X0526065Y0416933D03*
X0531065Y0416933D03*
X0536065Y0416933D03*
X0541065Y0416933D03*
X0546065Y0416933D03*
X0551065Y0416933D03*
X0556065Y0416933D03*
X0561065Y0416933D03*
X0566065Y0416933D03*
X0566065Y0352067D03*
X0561065Y0352067D03*
X0556065Y0352067D03*
X0551065Y0352067D03*
X0546065Y0352067D03*
X0541065Y0352067D03*
X0536065Y0352067D03*
X0531065Y0352067D03*
X0526065Y0352067D03*
X0521065Y0352067D03*
X0516065Y0352067D03*
X0511065Y0352067D03*
X0506065Y0352067D03*
X0501065Y0352067D03*
X0501065Y0314933D03*
X0506065Y0314933D03*
X0511065Y0314933D03*
X0516065Y0314933D03*
X0521065Y0314933D03*
X0526065Y0314933D03*
X0531065Y0314933D03*
X0536065Y0314933D03*
X0541065Y0314933D03*
X0546065Y0314933D03*
X0551065Y0314933D03*
X0556065Y0314933D03*
X0561065Y0314933D03*
X0566065Y0314933D03*
X0566065Y0250067D03*
X0561065Y0250067D03*
X0556065Y0250067D03*
X0551065Y0250067D03*
X0546065Y0250067D03*
X0541065Y0250067D03*
X0536065Y0250067D03*
X0531065Y0250067D03*
X0526065Y0250067D03*
X0521065Y0250067D03*
X0516065Y0250067D03*
X0511065Y0250067D03*
X0506065Y0250067D03*
X0501065Y0250067D03*
X0501065Y0212933D03*
X0506065Y0212933D03*
X0511065Y0212933D03*
X0516065Y0212933D03*
X0521065Y0212933D03*
X0526065Y0212933D03*
X0531065Y0212933D03*
X0536065Y0212933D03*
X0541065Y0212933D03*
X0546065Y0212933D03*
X0551065Y0212933D03*
X0556065Y0212933D03*
X0561065Y0212933D03*
X0566065Y0212933D03*
X0566065Y0148067D03*
X0561065Y0148067D03*
X0556065Y0148067D03*
X0551065Y0148067D03*
X0546065Y0148067D03*
X0541065Y0148067D03*
X0536065Y0148067D03*
X0531065Y0148067D03*
X0526065Y0148067D03*
X0521065Y0148067D03*
X0516065Y0148067D03*
X0511065Y0148067D03*
X0506065Y0148067D03*
X0501065Y0148067D03*
X0501065Y0110933D03*
X0506065Y0110933D03*
X0511065Y0110933D03*
X0516065Y0110933D03*
X0521065Y0110933D03*
X0526065Y0110933D03*
X0531065Y0110933D03*
X0536065Y0110933D03*
X0541065Y0110933D03*
X0546065Y0110933D03*
X0551065Y0110933D03*
X0556065Y0110933D03*
X0561065Y0110933D03*
X0566065Y0110933D03*
X0566065Y0046067D03*
X0561065Y0046067D03*
X0556065Y0046067D03*
X0551065Y0046067D03*
X0546065Y0046067D03*
X0541065Y0046067D03*
X0536065Y0046067D03*
X0531065Y0046067D03*
X0526065Y0046067D03*
X0521065Y0046067D03*
X0516065Y0046067D03*
X0511065Y0046067D03*
X0506065Y0046067D03*
X0501065Y0046067D03*
X0376065Y0046067D03*
X0371065Y0046067D03*
X0366065Y0046067D03*
X0361065Y0046067D03*
X0356065Y0046067D03*
X0351065Y0046067D03*
X0346065Y0046067D03*
X0341065Y0046067D03*
X0336065Y0046067D03*
X0331065Y0046067D03*
X0326065Y0046067D03*
X0321065Y0046067D03*
X0316065Y0046067D03*
X0311065Y0046067D03*
X0311065Y0110933D03*
X0316065Y0110933D03*
X0321065Y0110933D03*
X0326065Y0110933D03*
X0331065Y0110933D03*
X0336065Y0110933D03*
X0341065Y0110933D03*
X0346065Y0110933D03*
X0351065Y0110933D03*
X0356065Y0110933D03*
X0361065Y0110933D03*
X0366065Y0110933D03*
X0371065Y0110933D03*
X0376065Y0110933D03*
X0376065Y0148067D03*
X0371065Y0148067D03*
X0366065Y0148067D03*
X0361065Y0148067D03*
X0356065Y0148067D03*
X0351065Y0148067D03*
X0346065Y0148067D03*
X0341065Y0148067D03*
X0336065Y0148067D03*
X0331065Y0148067D03*
X0326065Y0148067D03*
X0321065Y0148067D03*
X0316065Y0148067D03*
X0311065Y0148067D03*
X0311065Y0212933D03*
X0316065Y0212933D03*
X0321065Y0212933D03*
X0326065Y0212933D03*
X0331065Y0212933D03*
X0336065Y0212933D03*
X0341065Y0212933D03*
X0346065Y0212933D03*
X0351065Y0212933D03*
X0356065Y0212933D03*
X0361065Y0212933D03*
X0366065Y0212933D03*
X0371065Y0212933D03*
X0376065Y0212933D03*
X0376065Y0250067D03*
X0371065Y0250067D03*
X0366065Y0250067D03*
X0361065Y0250067D03*
X0356065Y0250067D03*
X0351065Y0250067D03*
X0346065Y0250067D03*
X0341065Y0250067D03*
X0336065Y0250067D03*
X0331065Y0250067D03*
X0326065Y0250067D03*
X0321065Y0250067D03*
X0316065Y0250067D03*
X0311065Y0250067D03*
X0311065Y0314933D03*
X0316065Y0314933D03*
X0321065Y0314933D03*
X0326065Y0314933D03*
X0331065Y0314933D03*
X0336065Y0314933D03*
X0341065Y0314933D03*
X0346065Y0314933D03*
X0351065Y0314933D03*
X0356065Y0314933D03*
X0361065Y0314933D03*
X0366065Y0314933D03*
X0371065Y0314933D03*
X0376065Y0314933D03*
X0376065Y0352067D03*
X0371065Y0352067D03*
X0366065Y0352067D03*
X0361065Y0352067D03*
X0356065Y0352067D03*
X0351065Y0352067D03*
X0346065Y0352067D03*
X0341065Y0352067D03*
X0336065Y0352067D03*
X0331065Y0352067D03*
X0326065Y0352067D03*
X0321065Y0352067D03*
X0316065Y0352067D03*
X0311065Y0352067D03*
X0311065Y0416933D03*
X0316065Y0416933D03*
X0321065Y0416933D03*
X0326065Y0416933D03*
X0331065Y0416933D03*
X0336065Y0416933D03*
X0341065Y0416933D03*
X0346065Y0416933D03*
X0351065Y0416933D03*
X0356065Y0416933D03*
X0361065Y0416933D03*
X0366065Y0416933D03*
X0371065Y0416933D03*
X0376065Y0416933D03*
X0186065Y0416933D03*
X0181065Y0416933D03*
X0176065Y0416933D03*
X0171065Y0416933D03*
X0166065Y0416933D03*
X0161065Y0416933D03*
X0156065Y0416933D03*
X0151065Y0416933D03*
X0146065Y0416933D03*
X0141065Y0416933D03*
X0136065Y0416933D03*
X0131065Y0416933D03*
X0126065Y0416933D03*
X0121065Y0416933D03*
X0121065Y0352067D03*
X0126065Y0352067D03*
X0131065Y0352067D03*
X0136065Y0352067D03*
X0141065Y0352067D03*
X0146065Y0352067D03*
X0151065Y0352067D03*
X0156065Y0352067D03*
X0161065Y0352067D03*
X0166065Y0352067D03*
X0171065Y0352067D03*
X0176065Y0352067D03*
X0181065Y0352067D03*
X0186065Y0352067D03*
X0186065Y0314933D03*
X0181065Y0314933D03*
X0176065Y0314933D03*
X0171065Y0314933D03*
X0166065Y0314933D03*
X0161065Y0314933D03*
X0156065Y0314933D03*
X0151065Y0314933D03*
X0146065Y0314933D03*
X0141065Y0314933D03*
X0136065Y0314933D03*
X0131065Y0314933D03*
X0126065Y0314933D03*
X0121065Y0314933D03*
X0121065Y0250067D03*
X0126065Y0250067D03*
X0131065Y0250067D03*
X0136065Y0250067D03*
X0141065Y0250067D03*
X0146065Y0250067D03*
X0151065Y0250067D03*
X0156065Y0250067D03*
X0161065Y0250067D03*
X0166065Y0250067D03*
X0171065Y0250067D03*
X0176065Y0250067D03*
X0181065Y0250067D03*
X0186065Y0250067D03*
X0186065Y0212933D03*
X0181065Y0212933D03*
X0176065Y0212933D03*
X0171065Y0212933D03*
X0166065Y0212933D03*
X0161065Y0212933D03*
X0156065Y0212933D03*
X0151065Y0212933D03*
X0146065Y0212933D03*
X0141065Y0212933D03*
X0136065Y0212933D03*
X0131065Y0212933D03*
X0126065Y0212933D03*
X0121065Y0212933D03*
X0121065Y0148067D03*
X0126065Y0148067D03*
X0131065Y0148067D03*
X0136065Y0148067D03*
X0141065Y0148067D03*
X0146065Y0148067D03*
X0151065Y0148067D03*
X0156065Y0148067D03*
X0161065Y0148067D03*
X0166065Y0148067D03*
X0171065Y0148067D03*
X0176065Y0148067D03*
X0181065Y0148067D03*
X0186065Y0148067D03*
X0186065Y0110933D03*
X0181065Y0110933D03*
X0176065Y0110933D03*
X0171065Y0110933D03*
X0166065Y0110933D03*
X0161065Y0110933D03*
X0156065Y0110933D03*
X0151065Y0110933D03*
X0146065Y0110933D03*
X0141065Y0110933D03*
X0136065Y0110933D03*
X0131065Y0110933D03*
X0126065Y0110933D03*
X0121065Y0110933D03*
X0121065Y0046067D03*
X0126065Y0046067D03*
X0131065Y0046067D03*
X0136065Y0046067D03*
X0141065Y0046067D03*
X0146065Y0046067D03*
X0151065Y0046067D03*
X0156065Y0046067D03*
X0161065Y0046067D03*
X0166065Y0046067D03*
X0171065Y0046067D03*
X0176065Y0046067D03*
X0181065Y0046067D03*
X0186065Y0046067D03*
D14*
X0115199Y0056000D03*
X0115199Y0061000D03*
X0115199Y0066000D03*
X0115199Y0071000D03*
X0115199Y0076000D03*
X0115199Y0081000D03*
X0115199Y0086000D03*
X0115199Y0091000D03*
X0115199Y0096000D03*
X0115199Y0101000D03*
X0115199Y0158000D03*
X0115199Y0163000D03*
X0115199Y0168000D03*
X0115199Y0173000D03*
X0115199Y0178000D03*
X0115199Y0183000D03*
X0115199Y0188000D03*
X0115199Y0193000D03*
X0115199Y0198000D03*
X0115199Y0203000D03*
X0115199Y0260000D03*
X0115199Y0265000D03*
X0115199Y0270000D03*
X0115199Y0275000D03*
X0115199Y0280000D03*
X0115199Y0285000D03*
X0115199Y0290000D03*
X0115199Y0295000D03*
X0115199Y0300000D03*
X0115199Y0305000D03*
X0115199Y0362000D03*
X0115199Y0367000D03*
X0115199Y0372000D03*
X0115199Y0377000D03*
X0115199Y0382000D03*
X0115199Y0387000D03*
X0115199Y0392000D03*
X0115199Y0397000D03*
X0115199Y0402000D03*
X0115199Y0407000D03*
X0305199Y0407000D03*
X0305199Y0402000D03*
X0305199Y0397000D03*
X0305199Y0392000D03*
X0305199Y0387000D03*
X0305199Y0382000D03*
X0305199Y0377000D03*
X0305199Y0372000D03*
X0305199Y0367000D03*
X0305199Y0362000D03*
X0305199Y0305000D03*
X0305199Y0300000D03*
X0305199Y0295000D03*
X0305199Y0290000D03*
X0305199Y0285000D03*
X0305199Y0280000D03*
X0305199Y0275000D03*
X0305199Y0270000D03*
X0305199Y0265000D03*
X0305199Y0260000D03*
X0305199Y0203000D03*
X0305199Y0198000D03*
X0305199Y0193000D03*
X0305199Y0188000D03*
X0305199Y0183000D03*
X0305199Y0178000D03*
X0305199Y0173000D03*
X0305199Y0168000D03*
X0305199Y0163000D03*
X0305199Y0158000D03*
X0305199Y0101000D03*
X0305199Y0096000D03*
X0305199Y0091000D03*
X0305199Y0086000D03*
X0305199Y0081000D03*
X0305199Y0076000D03*
X0305199Y0071000D03*
X0305199Y0066000D03*
X0305199Y0061000D03*
X0305199Y0056000D03*
X0495199Y0056000D03*
X0495199Y0061000D03*
X0495199Y0066000D03*
X0495199Y0071000D03*
X0495199Y0076000D03*
X0495199Y0081000D03*
X0495199Y0086000D03*
X0495199Y0091000D03*
X0495199Y0096000D03*
X0495199Y0101000D03*
X0495199Y0158000D03*
X0495199Y0163000D03*
X0495199Y0168000D03*
X0495199Y0173000D03*
X0495199Y0178000D03*
X0495199Y0183000D03*
X0495199Y0188000D03*
X0495199Y0193000D03*
X0495199Y0198000D03*
X0495199Y0203000D03*
X0495199Y0260000D03*
X0495199Y0265000D03*
X0495199Y0270000D03*
X0495199Y0275000D03*
X0495199Y0280000D03*
X0495199Y0285000D03*
X0495199Y0290000D03*
X0495199Y0295000D03*
X0495199Y0300000D03*
X0495199Y0305000D03*
X0495199Y0362000D03*
X0495199Y0367000D03*
X0495199Y0372000D03*
X0495199Y0377000D03*
X0495199Y0382000D03*
X0495199Y0387000D03*
X0495199Y0392000D03*
X0495199Y0397000D03*
X0495199Y0402000D03*
X0495199Y0407000D03*
D15*
X0535750Y0384500D03*
X0535750Y0282500D03*
X0535750Y0180500D03*
X0535750Y0078500D03*
X0345750Y0078500D03*
X0345750Y0180500D03*
X0345750Y0282500D03*
X0345750Y0384500D03*
X0155750Y0384500D03*
X0155750Y0282500D03*
X0155750Y0180500D03*
X0155750Y0078500D03*
D16*
X0247333Y0067083D03*
X0247333Y0089917D03*
X0247333Y0169083D03*
X0247333Y0191917D03*
X0247333Y0271083D03*
X0247333Y0293917D03*
X0247333Y0373083D03*
X0247333Y0395917D03*
X0057333Y0395917D03*
X0057333Y0373083D03*
X0057333Y0293917D03*
X0057333Y0271083D03*
X0057333Y0191917D03*
X0057333Y0169083D03*
X0057333Y0089917D03*
X0057333Y0067083D03*
X0437333Y0067083D03*
X0437333Y0089917D03*
X0437333Y0169083D03*
X0437333Y0191917D03*
X0437333Y0271083D03*
X0437333Y0293917D03*
X0437333Y0373083D03*
X0437333Y0395917D03*
D17*
X0425719Y0388289D03*
X0425719Y0380711D03*
X0425719Y0286289D03*
X0425719Y0278711D03*
X0425719Y0184289D03*
X0425719Y0176711D03*
X0425719Y0082289D03*
X0425719Y0074711D03*
X0235719Y0074711D03*
X0235719Y0082289D03*
X0235719Y0176711D03*
X0235719Y0184289D03*
X0235719Y0278711D03*
X0235719Y0286289D03*
X0235719Y0380711D03*
X0235719Y0388289D03*
X0045719Y0388289D03*
X0045719Y0380711D03*
X0045719Y0286289D03*
X0045719Y0278711D03*
X0045719Y0184289D03*
X0045719Y0176711D03*
X0045719Y0082289D03*
X0045719Y0074711D03*
D18*
X0043690Y0070694D02*
X0043401Y0070661D01*
X0043126Y0070565D01*
X0042880Y0070410D01*
X0042674Y0070204D01*
X0042519Y0069958D01*
X0042423Y0069683D01*
X0042390Y0069394D01*
X0042390Y0066494D01*
X0042420Y0066227D01*
X0042509Y0065973D01*
X0042652Y0065746D01*
X0042842Y0065555D01*
X0043070Y0065413D01*
X0043323Y0065324D01*
X0043590Y0065294D01*
X0050490Y0065294D01*
X0050528Y0065286D01*
X0050561Y0065264D01*
X0050583Y0065232D01*
X0050590Y0065194D01*
X0050590Y0063294D01*
X0053690Y0063294D01*
X0053690Y0070694D01*
X0043690Y0070694D01*
X0042813Y0070344D02*
X0053690Y0070344D01*
X0053690Y0069945D02*
X0042515Y0069945D01*
X0042407Y0069547D02*
X0053690Y0069547D01*
X0053690Y0069148D02*
X0042390Y0069148D01*
X0042390Y0068750D02*
X0053690Y0068750D01*
X0053690Y0068351D02*
X0042390Y0068351D01*
X0042390Y0067953D02*
X0053690Y0067953D01*
X0053690Y0067554D02*
X0042390Y0067554D01*
X0042390Y0067156D02*
X0053690Y0067156D01*
X0053690Y0066757D02*
X0042390Y0066757D01*
X0042405Y0066359D02*
X0053690Y0066359D01*
X0053690Y0065960D02*
X0042517Y0065960D01*
X0042836Y0065562D02*
X0053690Y0065562D01*
X0053690Y0065163D02*
X0050590Y0065163D01*
X0050590Y0064765D02*
X0053690Y0064765D01*
X0053690Y0064366D02*
X0050590Y0064366D01*
X0050590Y0063968D02*
X0053690Y0063968D01*
X0053690Y0063569D02*
X0050590Y0063569D01*
X0053690Y0086357D02*
X0043690Y0086357D01*
X0043401Y0086389D01*
X0043126Y0086486D01*
X0042880Y0086640D01*
X0042674Y0086846D01*
X0042519Y0087093D01*
X0042423Y0087368D01*
X0042390Y0087657D01*
X0042390Y0090557D01*
X0042420Y0090824D01*
X0042509Y0091077D01*
X0042652Y0091305D01*
X0042842Y0091495D01*
X0043070Y0091638D01*
X0043323Y0091727D01*
X0043590Y0091757D01*
X0050490Y0091757D01*
X0050528Y0091764D01*
X0050561Y0091786D01*
X0050583Y0091819D01*
X0050590Y0091857D01*
X0050590Y0093757D01*
X0053690Y0093757D01*
X0053690Y0086357D01*
X0053690Y0086683D02*
X0042837Y0086683D01*
X0042526Y0087081D02*
X0053690Y0087081D01*
X0053690Y0087480D02*
X0042410Y0087480D01*
X0042390Y0087878D02*
X0053690Y0087878D01*
X0053690Y0088277D02*
X0042390Y0088277D01*
X0042390Y0088675D02*
X0053690Y0088675D01*
X0053690Y0089074D02*
X0042390Y0089074D01*
X0042390Y0089472D02*
X0053690Y0089472D01*
X0053690Y0089871D02*
X0042390Y0089871D01*
X0042390Y0090269D02*
X0053690Y0090269D01*
X0053690Y0090668D02*
X0042403Y0090668D01*
X0042505Y0091066D02*
X0053690Y0091066D01*
X0053690Y0091465D02*
X0042812Y0091465D01*
X0050590Y0091863D02*
X0053690Y0091863D01*
X0053690Y0092262D02*
X0050590Y0092262D01*
X0050590Y0092660D02*
X0053690Y0092660D01*
X0053690Y0093059D02*
X0050590Y0093059D01*
X0050590Y0093457D02*
X0053690Y0093457D01*
X0053690Y0165294D02*
X0053690Y0172694D01*
X0043690Y0172694D01*
X0043401Y0172661D01*
X0043126Y0172565D01*
X0042880Y0172410D01*
X0042674Y0172204D01*
X0042519Y0171958D01*
X0042423Y0171683D01*
X0042390Y0171394D01*
X0042390Y0168494D01*
X0042420Y0168227D01*
X0042509Y0167973D01*
X0042652Y0167746D01*
X0042842Y0167555D01*
X0043070Y0167413D01*
X0043323Y0167324D01*
X0043590Y0167294D01*
X0050490Y0167294D01*
X0050528Y0167286D01*
X0050561Y0167264D01*
X0050583Y0167232D01*
X0050590Y0167194D01*
X0050590Y0165294D01*
X0053690Y0165294D01*
X0053690Y0165588D02*
X0050590Y0165588D01*
X0050590Y0165986D02*
X0053690Y0165986D01*
X0053690Y0166385D02*
X0050590Y0166385D01*
X0050590Y0166783D02*
X0053690Y0166783D01*
X0053690Y0167182D02*
X0050590Y0167182D01*
X0053690Y0167580D02*
X0042817Y0167580D01*
X0042507Y0167979D02*
X0053690Y0167979D01*
X0053690Y0168377D02*
X0042403Y0168377D01*
X0042390Y0168776D02*
X0053690Y0168776D01*
X0053690Y0169174D02*
X0042390Y0169174D01*
X0042390Y0169573D02*
X0053690Y0169573D01*
X0053690Y0169972D02*
X0042390Y0169972D01*
X0042390Y0170370D02*
X0053690Y0170370D01*
X0053690Y0170769D02*
X0042390Y0170769D01*
X0042390Y0171167D02*
X0053690Y0171167D01*
X0053690Y0171566D02*
X0042410Y0171566D01*
X0042523Y0171964D02*
X0053690Y0171964D01*
X0053690Y0172363D02*
X0042832Y0172363D01*
X0043690Y0188357D02*
X0043401Y0188389D01*
X0043126Y0188486D01*
X0042880Y0188640D01*
X0042674Y0188846D01*
X0042519Y0189093D01*
X0042423Y0189368D01*
X0042390Y0189657D01*
X0042390Y0192557D01*
X0042420Y0192824D01*
X0042509Y0193077D01*
X0042652Y0193305D01*
X0042842Y0193495D01*
X0043070Y0193638D01*
X0043323Y0193727D01*
X0043590Y0193757D01*
X0050490Y0193757D01*
X0050528Y0193764D01*
X0050561Y0193786D01*
X0050583Y0193819D01*
X0050590Y0193857D01*
X0050590Y0195757D01*
X0053690Y0195757D01*
X0053690Y0188357D01*
X0043690Y0188357D01*
X0042819Y0188702D02*
X0053690Y0188702D01*
X0053690Y0189100D02*
X0042516Y0189100D01*
X0042408Y0189499D02*
X0053690Y0189499D01*
X0053690Y0189897D02*
X0042390Y0189897D01*
X0042390Y0190296D02*
X0053690Y0190296D01*
X0053690Y0190694D02*
X0042390Y0190694D01*
X0042390Y0191093D02*
X0053690Y0191093D01*
X0053690Y0191491D02*
X0042390Y0191491D01*
X0042390Y0191890D02*
X0053690Y0191890D01*
X0053690Y0192288D02*
X0042390Y0192288D01*
X0042405Y0192687D02*
X0053690Y0192687D01*
X0053690Y0193085D02*
X0042514Y0193085D01*
X0042831Y0193484D02*
X0053690Y0193484D01*
X0053690Y0193882D02*
X0050590Y0193882D01*
X0050590Y0194281D02*
X0053690Y0194281D01*
X0053690Y0194679D02*
X0050590Y0194679D01*
X0050590Y0195078D02*
X0053690Y0195078D01*
X0053690Y0195476D02*
X0050590Y0195476D01*
X0050590Y0267294D02*
X0053690Y0267294D01*
X0053690Y0274694D01*
X0043690Y0274694D01*
X0043401Y0274661D01*
X0043126Y0274565D01*
X0042880Y0274410D01*
X0042674Y0274204D01*
X0042519Y0273958D01*
X0042423Y0273683D01*
X0042390Y0273394D01*
X0042390Y0270494D01*
X0042420Y0270227D01*
X0042509Y0269973D01*
X0042652Y0269746D01*
X0042842Y0269555D01*
X0043070Y0269413D01*
X0043323Y0269324D01*
X0043590Y0269294D01*
X0050490Y0269294D01*
X0050528Y0269286D01*
X0050561Y0269264D01*
X0050583Y0269232D01*
X0050590Y0269194D01*
X0050590Y0267294D01*
X0050590Y0267607D02*
X0053690Y0267607D01*
X0053690Y0268005D02*
X0050590Y0268005D01*
X0050590Y0268404D02*
X0053690Y0268404D01*
X0053690Y0268802D02*
X0050590Y0268802D01*
X0050589Y0269201D02*
X0053690Y0269201D01*
X0053690Y0269599D02*
X0042798Y0269599D01*
X0042500Y0269998D02*
X0053690Y0269998D01*
X0053690Y0270396D02*
X0042401Y0270396D01*
X0042390Y0270795D02*
X0053690Y0270795D01*
X0053690Y0271193D02*
X0042390Y0271193D01*
X0042390Y0271592D02*
X0053690Y0271592D01*
X0053690Y0271990D02*
X0042390Y0271990D01*
X0042390Y0272389D02*
X0053690Y0272389D01*
X0053690Y0272787D02*
X0042390Y0272787D01*
X0042390Y0273186D02*
X0053690Y0273186D01*
X0053690Y0273584D02*
X0042412Y0273584D01*
X0042535Y0273983D02*
X0053690Y0273983D01*
X0053690Y0274381D02*
X0042851Y0274381D01*
X0043690Y0290357D02*
X0043401Y0290389D01*
X0043126Y0290486D01*
X0042880Y0290640D01*
X0042674Y0290846D01*
X0042519Y0291093D01*
X0042423Y0291368D01*
X0042390Y0291657D01*
X0042390Y0294557D01*
X0042420Y0294824D01*
X0042509Y0295077D01*
X0042652Y0295305D01*
X0042842Y0295495D01*
X0043070Y0295638D01*
X0043323Y0295727D01*
X0043590Y0295757D01*
X0050490Y0295757D01*
X0050528Y0295764D01*
X0050561Y0295786D01*
X0050583Y0295819D01*
X0050590Y0295857D01*
X0050590Y0297757D01*
X0053690Y0297757D01*
X0053690Y0290357D01*
X0043690Y0290357D01*
X0042800Y0290720D02*
X0053690Y0290720D01*
X0053690Y0291119D02*
X0042510Y0291119D01*
X0042406Y0291517D02*
X0053690Y0291517D01*
X0053690Y0291916D02*
X0042390Y0291916D01*
X0042390Y0292314D02*
X0053690Y0292314D01*
X0053690Y0292713D02*
X0042390Y0292713D01*
X0042390Y0293112D02*
X0053690Y0293112D01*
X0053690Y0293510D02*
X0042390Y0293510D01*
X0042390Y0293909D02*
X0053690Y0293909D01*
X0053690Y0294307D02*
X0042390Y0294307D01*
X0042407Y0294706D02*
X0053690Y0294706D01*
X0053690Y0295104D02*
X0042526Y0295104D01*
X0042854Y0295503D02*
X0053690Y0295503D01*
X0053690Y0295901D02*
X0050590Y0295901D01*
X0050590Y0296300D02*
X0053690Y0296300D01*
X0053690Y0296698D02*
X0050590Y0296698D01*
X0050590Y0297097D02*
X0053690Y0297097D01*
X0053690Y0297495D02*
X0050590Y0297495D01*
X0050590Y0369294D02*
X0053690Y0369294D01*
X0053690Y0376694D01*
X0043690Y0376694D01*
X0043401Y0376661D01*
X0043126Y0376565D01*
X0042880Y0376410D01*
X0042674Y0376204D01*
X0042519Y0375958D01*
X0042423Y0375683D01*
X0042390Y0375394D01*
X0042390Y0372494D01*
X0042420Y0372227D01*
X0042509Y0371973D01*
X0042652Y0371746D01*
X0042842Y0371555D01*
X0043070Y0371413D01*
X0043323Y0371324D01*
X0043590Y0371294D01*
X0050490Y0371294D01*
X0050528Y0371286D01*
X0050561Y0371264D01*
X0050583Y0371232D01*
X0050590Y0371194D01*
X0050590Y0369294D01*
X0050590Y0369626D02*
X0053690Y0369626D01*
X0053690Y0370024D02*
X0050590Y0370024D01*
X0050590Y0370423D02*
X0053690Y0370423D01*
X0053690Y0370821D02*
X0050590Y0370821D01*
X0050585Y0371220D02*
X0053690Y0371220D01*
X0053690Y0371618D02*
X0042779Y0371618D01*
X0042494Y0372017D02*
X0053690Y0372017D01*
X0053690Y0372415D02*
X0042399Y0372415D01*
X0042390Y0372814D02*
X0053690Y0372814D01*
X0053690Y0373212D02*
X0042390Y0373212D01*
X0042390Y0373611D02*
X0053690Y0373611D01*
X0053690Y0374009D02*
X0042390Y0374009D01*
X0042390Y0374408D02*
X0053690Y0374408D01*
X0053690Y0374806D02*
X0042390Y0374806D01*
X0042390Y0375205D02*
X0053690Y0375205D01*
X0053690Y0375603D02*
X0042414Y0375603D01*
X0042547Y0376002D02*
X0053690Y0376002D01*
X0053690Y0376400D02*
X0042870Y0376400D01*
X0043690Y0392357D02*
X0043401Y0392389D01*
X0043126Y0392486D01*
X0042880Y0392640D01*
X0042674Y0392846D01*
X0042519Y0393093D01*
X0042423Y0393368D01*
X0042390Y0393657D01*
X0042390Y0396557D01*
X0042420Y0396824D01*
X0042509Y0397077D01*
X0042652Y0397305D01*
X0042842Y0397495D01*
X0043070Y0397638D01*
X0043323Y0397727D01*
X0043590Y0397757D01*
X0050490Y0397757D01*
X0050528Y0397764D01*
X0050561Y0397786D01*
X0050583Y0397819D01*
X0050590Y0397857D01*
X0050590Y0399757D01*
X0053690Y0399757D01*
X0053690Y0392357D01*
X0043690Y0392357D01*
X0042781Y0392739D02*
X0053690Y0392739D01*
X0053690Y0393138D02*
X0042503Y0393138D01*
X0042404Y0393536D02*
X0053690Y0393536D01*
X0053690Y0393935D02*
X0042390Y0393935D01*
X0042390Y0394333D02*
X0053690Y0394333D01*
X0053690Y0394732D02*
X0042390Y0394732D01*
X0042390Y0395130D02*
X0053690Y0395130D01*
X0053690Y0395529D02*
X0042390Y0395529D01*
X0042390Y0395927D02*
X0053690Y0395927D01*
X0053690Y0396326D02*
X0042390Y0396326D01*
X0042409Y0396724D02*
X0053690Y0396724D01*
X0053690Y0397123D02*
X0042538Y0397123D01*
X0042884Y0397521D02*
X0053690Y0397521D01*
X0053690Y0397920D02*
X0050590Y0397920D01*
X0050590Y0398319D02*
X0053690Y0398319D01*
X0053690Y0398717D02*
X0050590Y0398717D01*
X0050590Y0399116D02*
X0053690Y0399116D01*
X0053690Y0399514D02*
X0050590Y0399514D01*
X0232390Y0396557D02*
X0232420Y0396824D01*
X0232509Y0397077D01*
X0232652Y0397305D01*
X0232842Y0397495D01*
X0233070Y0397638D01*
X0233323Y0397727D01*
X0233590Y0397757D01*
X0240490Y0397757D01*
X0240528Y0397764D01*
X0240561Y0397786D01*
X0240583Y0397819D01*
X0240590Y0397857D01*
X0240590Y0399757D01*
X0243690Y0399757D01*
X0243690Y0392357D01*
X0233690Y0392357D01*
X0233401Y0392389D01*
X0233126Y0392486D01*
X0232880Y0392640D01*
X0232674Y0392846D01*
X0232519Y0393093D01*
X0232423Y0393368D01*
X0232390Y0393657D01*
X0232390Y0396557D01*
X0232409Y0396724D02*
X0243690Y0396724D01*
X0243690Y0396326D02*
X0232390Y0396326D01*
X0232390Y0395927D02*
X0243690Y0395927D01*
X0243690Y0395529D02*
X0232390Y0395529D01*
X0232390Y0395130D02*
X0243690Y0395130D01*
X0243690Y0394732D02*
X0232390Y0394732D01*
X0232390Y0394333D02*
X0243690Y0394333D01*
X0243690Y0393935D02*
X0232390Y0393935D01*
X0232404Y0393536D02*
X0243690Y0393536D01*
X0243690Y0393138D02*
X0232503Y0393138D01*
X0232781Y0392739D02*
X0243690Y0392739D01*
X0243690Y0397123D02*
X0232538Y0397123D01*
X0232884Y0397521D02*
X0243690Y0397521D01*
X0243690Y0397920D02*
X0240590Y0397920D01*
X0240590Y0398319D02*
X0243690Y0398319D01*
X0243690Y0398717D02*
X0240590Y0398717D01*
X0240590Y0399116D02*
X0243690Y0399116D01*
X0243690Y0399514D02*
X0240590Y0399514D01*
X0243690Y0376694D02*
X0233690Y0376694D01*
X0233401Y0376661D01*
X0233126Y0376565D01*
X0232880Y0376410D01*
X0232674Y0376204D01*
X0232519Y0375958D01*
X0232423Y0375683D01*
X0232390Y0375394D01*
X0232390Y0372494D01*
X0232420Y0372227D01*
X0232509Y0371973D01*
X0232652Y0371746D01*
X0232842Y0371555D01*
X0233070Y0371413D01*
X0233323Y0371324D01*
X0233590Y0371294D01*
X0240490Y0371294D01*
X0240528Y0371286D01*
X0240561Y0371264D01*
X0240583Y0371232D01*
X0240590Y0371194D01*
X0240590Y0369294D01*
X0243690Y0369294D01*
X0243690Y0376694D01*
X0243690Y0376400D02*
X0232870Y0376400D01*
X0232547Y0376002D02*
X0243690Y0376002D01*
X0243690Y0375603D02*
X0232414Y0375603D01*
X0232390Y0375205D02*
X0243690Y0375205D01*
X0243690Y0374806D02*
X0232390Y0374806D01*
X0232390Y0374408D02*
X0243690Y0374408D01*
X0243690Y0374009D02*
X0232390Y0374009D01*
X0232390Y0373611D02*
X0243690Y0373611D01*
X0243690Y0373212D02*
X0232390Y0373212D01*
X0232390Y0372814D02*
X0243690Y0372814D01*
X0243690Y0372415D02*
X0232399Y0372415D01*
X0232494Y0372017D02*
X0243690Y0372017D01*
X0243690Y0371618D02*
X0232779Y0371618D01*
X0240585Y0371220D02*
X0243690Y0371220D01*
X0243690Y0370821D02*
X0240590Y0370821D01*
X0240590Y0370423D02*
X0243690Y0370423D01*
X0243690Y0370024D02*
X0240590Y0370024D01*
X0240590Y0369626D02*
X0243690Y0369626D01*
X0243690Y0297757D02*
X0240590Y0297757D01*
X0240590Y0295857D01*
X0240583Y0295819D01*
X0240561Y0295786D01*
X0240528Y0295764D01*
X0240490Y0295757D01*
X0233590Y0295757D01*
X0233323Y0295727D01*
X0233070Y0295638D01*
X0232842Y0295495D01*
X0232652Y0295305D01*
X0232509Y0295077D01*
X0232420Y0294824D01*
X0232390Y0294557D01*
X0232390Y0291657D01*
X0232423Y0291368D01*
X0232519Y0291093D01*
X0232674Y0290846D01*
X0232880Y0290640D01*
X0233126Y0290486D01*
X0233401Y0290389D01*
X0233690Y0290357D01*
X0243690Y0290357D01*
X0243690Y0297757D01*
X0243690Y0297495D02*
X0240590Y0297495D01*
X0240590Y0297097D02*
X0243690Y0297097D01*
X0243690Y0296698D02*
X0240590Y0296698D01*
X0240590Y0296300D02*
X0243690Y0296300D01*
X0243690Y0295901D02*
X0240590Y0295901D01*
X0243690Y0295503D02*
X0232854Y0295503D01*
X0232526Y0295104D02*
X0243690Y0295104D01*
X0243690Y0294706D02*
X0232407Y0294706D01*
X0232390Y0294307D02*
X0243690Y0294307D01*
X0243690Y0293909D02*
X0232390Y0293909D01*
X0232390Y0293510D02*
X0243690Y0293510D01*
X0243690Y0293112D02*
X0232390Y0293112D01*
X0232390Y0292713D02*
X0243690Y0292713D01*
X0243690Y0292314D02*
X0232390Y0292314D01*
X0232390Y0291916D02*
X0243690Y0291916D01*
X0243690Y0291517D02*
X0232406Y0291517D01*
X0232510Y0291119D02*
X0243690Y0291119D01*
X0243690Y0290720D02*
X0232800Y0290720D01*
X0233690Y0274694D02*
X0233401Y0274661D01*
X0233126Y0274565D01*
X0232880Y0274410D01*
X0232674Y0274204D01*
X0232519Y0273958D01*
X0232423Y0273683D01*
X0232390Y0273394D01*
X0232390Y0270494D01*
X0232420Y0270227D01*
X0232509Y0269973D01*
X0232652Y0269746D01*
X0232842Y0269555D01*
X0233070Y0269413D01*
X0233323Y0269324D01*
X0233590Y0269294D01*
X0240490Y0269294D01*
X0240528Y0269286D01*
X0240561Y0269264D01*
X0240583Y0269232D01*
X0240590Y0269194D01*
X0240590Y0267294D01*
X0243690Y0267294D01*
X0243690Y0274694D01*
X0233690Y0274694D01*
X0232851Y0274381D02*
X0243690Y0274381D01*
X0243690Y0273983D02*
X0232535Y0273983D01*
X0232412Y0273584D02*
X0243690Y0273584D01*
X0243690Y0273186D02*
X0232390Y0273186D01*
X0232390Y0272787D02*
X0243690Y0272787D01*
X0243690Y0272389D02*
X0232390Y0272389D01*
X0232390Y0271990D02*
X0243690Y0271990D01*
X0243690Y0271592D02*
X0232390Y0271592D01*
X0232390Y0271193D02*
X0243690Y0271193D01*
X0243690Y0270795D02*
X0232390Y0270795D01*
X0232401Y0270396D02*
X0243690Y0270396D01*
X0243690Y0269998D02*
X0232500Y0269998D01*
X0232798Y0269599D02*
X0243690Y0269599D01*
X0243690Y0269201D02*
X0240589Y0269201D01*
X0240590Y0268802D02*
X0243690Y0268802D01*
X0243690Y0268404D02*
X0240590Y0268404D01*
X0240590Y0268005D02*
X0243690Y0268005D01*
X0243690Y0267607D02*
X0240590Y0267607D01*
X0240590Y0195757D02*
X0243690Y0195757D01*
X0243690Y0188357D01*
X0233690Y0188357D01*
X0233401Y0188389D01*
X0233126Y0188486D01*
X0232880Y0188640D01*
X0232674Y0188846D01*
X0232519Y0189093D01*
X0232423Y0189368D01*
X0232390Y0189657D01*
X0232390Y0192557D01*
X0232420Y0192824D01*
X0232509Y0193077D01*
X0232652Y0193305D01*
X0232842Y0193495D01*
X0233070Y0193638D01*
X0233323Y0193727D01*
X0233590Y0193757D01*
X0240490Y0193757D01*
X0240528Y0193764D01*
X0240561Y0193786D01*
X0240583Y0193819D01*
X0240590Y0193857D01*
X0240590Y0195757D01*
X0240590Y0195476D02*
X0243690Y0195476D01*
X0243690Y0195078D02*
X0240590Y0195078D01*
X0240590Y0194679D02*
X0243690Y0194679D01*
X0243690Y0194281D02*
X0240590Y0194281D01*
X0240590Y0193882D02*
X0243690Y0193882D01*
X0243690Y0193484D02*
X0232831Y0193484D01*
X0232514Y0193085D02*
X0243690Y0193085D01*
X0243690Y0192687D02*
X0232405Y0192687D01*
X0232390Y0192288D02*
X0243690Y0192288D01*
X0243690Y0191890D02*
X0232390Y0191890D01*
X0232390Y0191491D02*
X0243690Y0191491D01*
X0243690Y0191093D02*
X0232390Y0191093D01*
X0232390Y0190694D02*
X0243690Y0190694D01*
X0243690Y0190296D02*
X0232390Y0190296D01*
X0232390Y0189897D02*
X0243690Y0189897D01*
X0243690Y0189499D02*
X0232408Y0189499D01*
X0232516Y0189100D02*
X0243690Y0189100D01*
X0243690Y0188702D02*
X0232819Y0188702D01*
X0233690Y0172694D02*
X0233401Y0172661D01*
X0233126Y0172565D01*
X0232880Y0172410D01*
X0232674Y0172204D01*
X0232519Y0171958D01*
X0232423Y0171683D01*
X0232390Y0171394D01*
X0232390Y0168494D01*
X0232420Y0168227D01*
X0232509Y0167973D01*
X0232652Y0167746D01*
X0232842Y0167555D01*
X0233070Y0167413D01*
X0233323Y0167324D01*
X0233590Y0167294D01*
X0240490Y0167294D01*
X0240528Y0167286D01*
X0240561Y0167264D01*
X0240583Y0167232D01*
X0240590Y0167194D01*
X0240590Y0165294D01*
X0243690Y0165294D01*
X0243690Y0172694D01*
X0233690Y0172694D01*
X0232832Y0172363D02*
X0243690Y0172363D01*
X0243690Y0171964D02*
X0232523Y0171964D01*
X0232410Y0171566D02*
X0243690Y0171566D01*
X0243690Y0171167D02*
X0232390Y0171167D01*
X0232390Y0170769D02*
X0243690Y0170769D01*
X0243690Y0170370D02*
X0232390Y0170370D01*
X0232390Y0169972D02*
X0243690Y0169972D01*
X0243690Y0169573D02*
X0232390Y0169573D01*
X0232390Y0169174D02*
X0243690Y0169174D01*
X0243690Y0168776D02*
X0232390Y0168776D01*
X0232403Y0168377D02*
X0243690Y0168377D01*
X0243690Y0167979D02*
X0232507Y0167979D01*
X0232817Y0167580D02*
X0243690Y0167580D01*
X0243690Y0167182D02*
X0240590Y0167182D01*
X0240590Y0166783D02*
X0243690Y0166783D01*
X0243690Y0166385D02*
X0240590Y0166385D01*
X0240590Y0165986D02*
X0243690Y0165986D01*
X0243690Y0165588D02*
X0240590Y0165588D01*
X0240590Y0093757D02*
X0243690Y0093757D01*
X0243690Y0086357D01*
X0233690Y0086357D01*
X0233401Y0086389D01*
X0233126Y0086486D01*
X0232880Y0086640D01*
X0232674Y0086846D01*
X0232519Y0087093D01*
X0232423Y0087368D01*
X0232390Y0087657D01*
X0232390Y0090557D01*
X0232420Y0090824D01*
X0232509Y0091077D01*
X0232652Y0091305D01*
X0232842Y0091495D01*
X0233070Y0091638D01*
X0233323Y0091727D01*
X0233590Y0091757D01*
X0240490Y0091757D01*
X0240528Y0091764D01*
X0240561Y0091786D01*
X0240583Y0091819D01*
X0240590Y0091857D01*
X0240590Y0093757D01*
X0240590Y0093457D02*
X0243690Y0093457D01*
X0243690Y0093059D02*
X0240590Y0093059D01*
X0240590Y0092660D02*
X0243690Y0092660D01*
X0243690Y0092262D02*
X0240590Y0092262D01*
X0240590Y0091863D02*
X0243690Y0091863D01*
X0243690Y0091465D02*
X0232812Y0091465D01*
X0232505Y0091066D02*
X0243690Y0091066D01*
X0243690Y0090668D02*
X0232403Y0090668D01*
X0232390Y0090269D02*
X0243690Y0090269D01*
X0243690Y0089871D02*
X0232390Y0089871D01*
X0232390Y0089472D02*
X0243690Y0089472D01*
X0243690Y0089074D02*
X0232390Y0089074D01*
X0232390Y0088675D02*
X0243690Y0088675D01*
X0243690Y0088277D02*
X0232390Y0088277D01*
X0232390Y0087878D02*
X0243690Y0087878D01*
X0243690Y0087480D02*
X0232410Y0087480D01*
X0232526Y0087081D02*
X0243690Y0087081D01*
X0243690Y0086683D02*
X0232837Y0086683D01*
X0233690Y0070694D02*
X0233401Y0070661D01*
X0233126Y0070565D01*
X0232880Y0070410D01*
X0232674Y0070204D01*
X0232519Y0069958D01*
X0232423Y0069683D01*
X0232390Y0069394D01*
X0232390Y0066494D01*
X0232420Y0066227D01*
X0232509Y0065973D01*
X0232652Y0065746D01*
X0232842Y0065555D01*
X0233070Y0065413D01*
X0233323Y0065324D01*
X0233590Y0065294D01*
X0240490Y0065294D01*
X0240528Y0065286D01*
X0240561Y0065264D01*
X0240583Y0065232D01*
X0240590Y0065194D01*
X0240590Y0063294D01*
X0243690Y0063294D01*
X0243690Y0070694D01*
X0233690Y0070694D01*
X0232813Y0070344D02*
X0243690Y0070344D01*
X0243690Y0069945D02*
X0232515Y0069945D01*
X0232407Y0069547D02*
X0243690Y0069547D01*
X0243690Y0069148D02*
X0232390Y0069148D01*
X0232390Y0068750D02*
X0243690Y0068750D01*
X0243690Y0068351D02*
X0232390Y0068351D01*
X0232390Y0067953D02*
X0243690Y0067953D01*
X0243690Y0067554D02*
X0232390Y0067554D01*
X0232390Y0067156D02*
X0243690Y0067156D01*
X0243690Y0066757D02*
X0232390Y0066757D01*
X0232405Y0066359D02*
X0243690Y0066359D01*
X0243690Y0065960D02*
X0232517Y0065960D01*
X0232836Y0065562D02*
X0243690Y0065562D01*
X0243690Y0065163D02*
X0240590Y0065163D01*
X0240590Y0064765D02*
X0243690Y0064765D01*
X0243690Y0064366D02*
X0240590Y0064366D01*
X0240590Y0063968D02*
X0243690Y0063968D01*
X0243690Y0063569D02*
X0240590Y0063569D01*
X0422390Y0066494D02*
X0422420Y0066227D01*
X0422509Y0065973D01*
X0422652Y0065746D01*
X0422842Y0065555D01*
X0423070Y0065413D01*
X0423323Y0065324D01*
X0423590Y0065294D01*
X0430490Y0065294D01*
X0430528Y0065286D01*
X0430561Y0065264D01*
X0430583Y0065232D01*
X0430590Y0065194D01*
X0430590Y0063294D01*
X0433690Y0063294D01*
X0433690Y0070694D01*
X0423690Y0070694D01*
X0423401Y0070661D01*
X0423126Y0070565D01*
X0422880Y0070410D01*
X0422674Y0070204D01*
X0422519Y0069958D01*
X0422423Y0069683D01*
X0422390Y0069394D01*
X0422390Y0066494D01*
X0422405Y0066359D02*
X0433690Y0066359D01*
X0433690Y0066757D02*
X0422390Y0066757D01*
X0422390Y0067156D02*
X0433690Y0067156D01*
X0433690Y0067554D02*
X0422390Y0067554D01*
X0422390Y0067953D02*
X0433690Y0067953D01*
X0433690Y0068351D02*
X0422390Y0068351D01*
X0422390Y0068750D02*
X0433690Y0068750D01*
X0433690Y0069148D02*
X0422390Y0069148D01*
X0422407Y0069547D02*
X0433690Y0069547D01*
X0433690Y0069945D02*
X0422515Y0069945D01*
X0422813Y0070344D02*
X0433690Y0070344D01*
X0433690Y0065960D02*
X0422517Y0065960D01*
X0422836Y0065562D02*
X0433690Y0065562D01*
X0433690Y0065163D02*
X0430590Y0065163D01*
X0430590Y0064765D02*
X0433690Y0064765D01*
X0433690Y0064366D02*
X0430590Y0064366D01*
X0430590Y0063968D02*
X0433690Y0063968D01*
X0433690Y0063569D02*
X0430590Y0063569D01*
X0433690Y0086357D02*
X0423690Y0086357D01*
X0423401Y0086389D01*
X0423126Y0086486D01*
X0422880Y0086640D01*
X0422674Y0086846D01*
X0422519Y0087093D01*
X0422423Y0087368D01*
X0422390Y0087657D01*
X0422390Y0090557D01*
X0422420Y0090824D01*
X0422509Y0091077D01*
X0422652Y0091305D01*
X0422842Y0091495D01*
X0423070Y0091638D01*
X0423323Y0091727D01*
X0423590Y0091757D01*
X0430490Y0091757D01*
X0430528Y0091764D01*
X0430561Y0091786D01*
X0430583Y0091819D01*
X0430590Y0091857D01*
X0430590Y0093757D01*
X0433690Y0093757D01*
X0433690Y0086357D01*
X0433690Y0086683D02*
X0422837Y0086683D01*
X0422526Y0087081D02*
X0433690Y0087081D01*
X0433690Y0087480D02*
X0422410Y0087480D01*
X0422390Y0087878D02*
X0433690Y0087878D01*
X0433690Y0088277D02*
X0422390Y0088277D01*
X0422390Y0088675D02*
X0433690Y0088675D01*
X0433690Y0089074D02*
X0422390Y0089074D01*
X0422390Y0089472D02*
X0433690Y0089472D01*
X0433690Y0089871D02*
X0422390Y0089871D01*
X0422390Y0090269D02*
X0433690Y0090269D01*
X0433690Y0090668D02*
X0422403Y0090668D01*
X0422505Y0091066D02*
X0433690Y0091066D01*
X0433690Y0091465D02*
X0422812Y0091465D01*
X0430590Y0091863D02*
X0433690Y0091863D01*
X0433690Y0092262D02*
X0430590Y0092262D01*
X0430590Y0092660D02*
X0433690Y0092660D01*
X0433690Y0093059D02*
X0430590Y0093059D01*
X0430590Y0093457D02*
X0433690Y0093457D01*
X0433690Y0165294D02*
X0430590Y0165294D01*
X0430590Y0167194D01*
X0430583Y0167232D01*
X0430561Y0167264D01*
X0430528Y0167286D01*
X0430490Y0167294D01*
X0423590Y0167294D01*
X0423323Y0167324D01*
X0423070Y0167413D01*
X0422842Y0167555D01*
X0422652Y0167746D01*
X0422509Y0167973D01*
X0422420Y0168227D01*
X0422390Y0168494D01*
X0422390Y0171394D01*
X0422423Y0171683D01*
X0422519Y0171958D01*
X0422674Y0172204D01*
X0422880Y0172410D01*
X0423126Y0172565D01*
X0423401Y0172661D01*
X0423690Y0172694D01*
X0433690Y0172694D01*
X0433690Y0165294D01*
X0433690Y0165588D02*
X0430590Y0165588D01*
X0430590Y0165986D02*
X0433690Y0165986D01*
X0433690Y0166385D02*
X0430590Y0166385D01*
X0430590Y0166783D02*
X0433690Y0166783D01*
X0433690Y0167182D02*
X0430590Y0167182D01*
X0433690Y0167580D02*
X0422817Y0167580D01*
X0422507Y0167979D02*
X0433690Y0167979D01*
X0433690Y0168377D02*
X0422403Y0168377D01*
X0422390Y0168776D02*
X0433690Y0168776D01*
X0433690Y0169174D02*
X0422390Y0169174D01*
X0422390Y0169573D02*
X0433690Y0169573D01*
X0433690Y0169972D02*
X0422390Y0169972D01*
X0422390Y0170370D02*
X0433690Y0170370D01*
X0433690Y0170769D02*
X0422390Y0170769D01*
X0422390Y0171167D02*
X0433690Y0171167D01*
X0433690Y0171566D02*
X0422410Y0171566D01*
X0422523Y0171964D02*
X0433690Y0171964D01*
X0433690Y0172363D02*
X0422832Y0172363D01*
X0423690Y0188357D02*
X0423401Y0188389D01*
X0423126Y0188486D01*
X0422880Y0188640D01*
X0422674Y0188846D01*
X0422519Y0189093D01*
X0422423Y0189368D01*
X0422390Y0189657D01*
X0422390Y0192557D01*
X0422420Y0192824D01*
X0422509Y0193077D01*
X0422652Y0193305D01*
X0422842Y0193495D01*
X0423070Y0193638D01*
X0423323Y0193727D01*
X0423590Y0193757D01*
X0430490Y0193757D01*
X0430528Y0193764D01*
X0430561Y0193786D01*
X0430583Y0193819D01*
X0430590Y0193857D01*
X0430590Y0195757D01*
X0433690Y0195757D01*
X0433690Y0188357D01*
X0423690Y0188357D01*
X0422819Y0188702D02*
X0433690Y0188702D01*
X0433690Y0189100D02*
X0422516Y0189100D01*
X0422408Y0189499D02*
X0433690Y0189499D01*
X0433690Y0189897D02*
X0422390Y0189897D01*
X0422390Y0190296D02*
X0433690Y0190296D01*
X0433690Y0190694D02*
X0422390Y0190694D01*
X0422390Y0191093D02*
X0433690Y0191093D01*
X0433690Y0191491D02*
X0422390Y0191491D01*
X0422390Y0191890D02*
X0433690Y0191890D01*
X0433690Y0192288D02*
X0422390Y0192288D01*
X0422405Y0192687D02*
X0433690Y0192687D01*
X0433690Y0193085D02*
X0422514Y0193085D01*
X0422831Y0193484D02*
X0433690Y0193484D01*
X0433690Y0193882D02*
X0430590Y0193882D01*
X0430590Y0194281D02*
X0433690Y0194281D01*
X0433690Y0194679D02*
X0430590Y0194679D01*
X0430590Y0195078D02*
X0433690Y0195078D01*
X0433690Y0195476D02*
X0430590Y0195476D01*
X0430590Y0267294D02*
X0433690Y0267294D01*
X0433690Y0274694D01*
X0423690Y0274694D01*
X0423401Y0274661D01*
X0423126Y0274565D01*
X0422880Y0274410D01*
X0422674Y0274204D01*
X0422519Y0273958D01*
X0422423Y0273683D01*
X0422390Y0273394D01*
X0422390Y0270494D01*
X0422420Y0270227D01*
X0422509Y0269973D01*
X0422652Y0269746D01*
X0422842Y0269555D01*
X0423070Y0269413D01*
X0423323Y0269324D01*
X0423590Y0269294D01*
X0430490Y0269294D01*
X0430528Y0269286D01*
X0430561Y0269264D01*
X0430583Y0269232D01*
X0430590Y0269194D01*
X0430590Y0267294D01*
X0430590Y0267607D02*
X0433690Y0267607D01*
X0433690Y0268005D02*
X0430590Y0268005D01*
X0430590Y0268404D02*
X0433690Y0268404D01*
X0433690Y0268802D02*
X0430590Y0268802D01*
X0430589Y0269201D02*
X0433690Y0269201D01*
X0433690Y0269599D02*
X0422798Y0269599D01*
X0422500Y0269998D02*
X0433690Y0269998D01*
X0433690Y0270396D02*
X0422401Y0270396D01*
X0422390Y0270795D02*
X0433690Y0270795D01*
X0433690Y0271193D02*
X0422390Y0271193D01*
X0422390Y0271592D02*
X0433690Y0271592D01*
X0433690Y0271990D02*
X0422390Y0271990D01*
X0422390Y0272389D02*
X0433690Y0272389D01*
X0433690Y0272787D02*
X0422390Y0272787D01*
X0422390Y0273186D02*
X0433690Y0273186D01*
X0433690Y0273584D02*
X0422412Y0273584D01*
X0422535Y0273983D02*
X0433690Y0273983D01*
X0433690Y0274381D02*
X0422851Y0274381D01*
X0423690Y0290357D02*
X0423401Y0290389D01*
X0423126Y0290486D01*
X0422880Y0290640D01*
X0422674Y0290846D01*
X0422519Y0291093D01*
X0422423Y0291368D01*
X0422390Y0291657D01*
X0422390Y0294557D01*
X0422420Y0294824D01*
X0422509Y0295077D01*
X0422652Y0295305D01*
X0422842Y0295495D01*
X0423070Y0295638D01*
X0423323Y0295727D01*
X0423590Y0295757D01*
X0430490Y0295757D01*
X0430528Y0295764D01*
X0430561Y0295786D01*
X0430583Y0295819D01*
X0430590Y0295857D01*
X0430590Y0297757D01*
X0433690Y0297757D01*
X0433690Y0290357D01*
X0423690Y0290357D01*
X0422800Y0290720D02*
X0433690Y0290720D01*
X0433690Y0291119D02*
X0422510Y0291119D01*
X0422406Y0291517D02*
X0433690Y0291517D01*
X0433690Y0291916D02*
X0422390Y0291916D01*
X0422390Y0292314D02*
X0433690Y0292314D01*
X0433690Y0292713D02*
X0422390Y0292713D01*
X0422390Y0293112D02*
X0433690Y0293112D01*
X0433690Y0293510D02*
X0422390Y0293510D01*
X0422390Y0293909D02*
X0433690Y0293909D01*
X0433690Y0294307D02*
X0422390Y0294307D01*
X0422407Y0294706D02*
X0433690Y0294706D01*
X0433690Y0295104D02*
X0422526Y0295104D01*
X0422854Y0295503D02*
X0433690Y0295503D01*
X0433690Y0295901D02*
X0430590Y0295901D01*
X0430590Y0296300D02*
X0433690Y0296300D01*
X0433690Y0296698D02*
X0430590Y0296698D01*
X0430590Y0297097D02*
X0433690Y0297097D01*
X0433690Y0297495D02*
X0430590Y0297495D01*
X0430590Y0369294D02*
X0433690Y0369294D01*
X0433690Y0376694D01*
X0423690Y0376694D01*
X0423401Y0376661D01*
X0423126Y0376565D01*
X0422880Y0376410D01*
X0422674Y0376204D01*
X0422519Y0375958D01*
X0422423Y0375683D01*
X0422390Y0375394D01*
X0422390Y0372494D01*
X0422420Y0372227D01*
X0422509Y0371973D01*
X0422652Y0371746D01*
X0422842Y0371555D01*
X0423070Y0371413D01*
X0423323Y0371324D01*
X0423590Y0371294D01*
X0430490Y0371294D01*
X0430528Y0371286D01*
X0430561Y0371264D01*
X0430583Y0371232D01*
X0430590Y0371194D01*
X0430590Y0369294D01*
X0430590Y0369626D02*
X0433690Y0369626D01*
X0433690Y0370024D02*
X0430590Y0370024D01*
X0430590Y0370423D02*
X0433690Y0370423D01*
X0433690Y0370821D02*
X0430590Y0370821D01*
X0430585Y0371220D02*
X0433690Y0371220D01*
X0433690Y0371618D02*
X0422779Y0371618D01*
X0422494Y0372017D02*
X0433690Y0372017D01*
X0433690Y0372415D02*
X0422399Y0372415D01*
X0422390Y0372814D02*
X0433690Y0372814D01*
X0433690Y0373212D02*
X0422390Y0373212D01*
X0422390Y0373611D02*
X0433690Y0373611D01*
X0433690Y0374009D02*
X0422390Y0374009D01*
X0422390Y0374408D02*
X0433690Y0374408D01*
X0433690Y0374806D02*
X0422390Y0374806D01*
X0422390Y0375205D02*
X0433690Y0375205D01*
X0433690Y0375603D02*
X0422414Y0375603D01*
X0422547Y0376002D02*
X0433690Y0376002D01*
X0433690Y0376400D02*
X0422870Y0376400D01*
X0423690Y0392357D02*
X0423401Y0392389D01*
X0423126Y0392486D01*
X0422880Y0392640D01*
X0422674Y0392846D01*
X0422519Y0393093D01*
X0422423Y0393368D01*
X0422390Y0393657D01*
X0422390Y0396557D01*
X0422420Y0396824D01*
X0422509Y0397077D01*
X0422652Y0397305D01*
X0422842Y0397495D01*
X0423070Y0397638D01*
X0423323Y0397727D01*
X0423590Y0397757D01*
X0430490Y0397757D01*
X0430528Y0397764D01*
X0430561Y0397786D01*
X0430583Y0397819D01*
X0430590Y0397857D01*
X0430590Y0399757D01*
X0433690Y0399757D01*
X0433690Y0392357D01*
X0423690Y0392357D01*
X0422781Y0392739D02*
X0433690Y0392739D01*
X0433690Y0393138D02*
X0422503Y0393138D01*
X0422404Y0393536D02*
X0433690Y0393536D01*
X0433690Y0393935D02*
X0422390Y0393935D01*
X0422390Y0394333D02*
X0433690Y0394333D01*
X0433690Y0394732D02*
X0422390Y0394732D01*
X0422390Y0395130D02*
X0433690Y0395130D01*
X0433690Y0395529D02*
X0422390Y0395529D01*
X0422390Y0395927D02*
X0433690Y0395927D01*
X0433690Y0396326D02*
X0422390Y0396326D01*
X0422409Y0396724D02*
X0433690Y0396724D01*
X0433690Y0397123D02*
X0422538Y0397123D01*
X0422884Y0397521D02*
X0433690Y0397521D01*
X0433690Y0397920D02*
X0430590Y0397920D01*
X0430590Y0398319D02*
X0433690Y0398319D01*
X0433690Y0398717D02*
X0430590Y0398717D01*
X0430590Y0399116D02*
X0433690Y0399116D01*
X0433690Y0399514D02*
X0430590Y0399514D01*
D19*
X0433077Y0390110D02*
X0439475Y0390110D01*
X0439475Y0389126D01*
X0433077Y0389126D01*
X0433077Y0390110D01*
X0433077Y0389919D02*
X0439475Y0389919D01*
X0439475Y0389724D02*
X0433077Y0389724D01*
X0433077Y0389528D02*
X0439475Y0389528D01*
X0439475Y0389333D02*
X0433077Y0389333D01*
X0433077Y0389138D02*
X0439475Y0389138D01*
X0439475Y0387551D02*
X0433077Y0387551D01*
X0433077Y0386567D01*
X0439475Y0386567D01*
X0439475Y0387551D01*
X0439475Y0387379D02*
X0433077Y0387379D01*
X0433077Y0387184D02*
X0439475Y0387184D01*
X0439475Y0386989D02*
X0433077Y0386989D01*
X0433077Y0386793D02*
X0439475Y0386793D01*
X0439475Y0386598D02*
X0433077Y0386598D01*
X0433077Y0384992D02*
X0439475Y0384992D01*
X0439475Y0384008D01*
X0433077Y0384008D01*
X0433077Y0384992D01*
X0433077Y0384840D02*
X0439475Y0384840D01*
X0439475Y0384644D02*
X0433077Y0384644D01*
X0433077Y0384449D02*
X0439475Y0384449D01*
X0439475Y0384254D02*
X0433077Y0384254D01*
X0433077Y0384058D02*
X0439475Y0384058D01*
X0439475Y0382433D02*
X0433077Y0382433D01*
X0433077Y0381449D01*
X0439475Y0381449D01*
X0439475Y0382433D01*
X0439475Y0382300D02*
X0433077Y0382300D01*
X0433077Y0382105D02*
X0439475Y0382105D01*
X0439475Y0381909D02*
X0433077Y0381909D01*
X0433077Y0381714D02*
X0439475Y0381714D01*
X0439475Y0381519D02*
X0433077Y0381519D01*
X0433077Y0379874D02*
X0439475Y0379874D01*
X0439475Y0378890D01*
X0433077Y0378890D01*
X0433077Y0379874D01*
X0433077Y0379760D02*
X0439475Y0379760D01*
X0439475Y0379565D02*
X0433077Y0379565D01*
X0433077Y0379370D02*
X0439475Y0379370D01*
X0439475Y0379174D02*
X0433077Y0379174D01*
X0433077Y0378979D02*
X0439475Y0378979D01*
X0439475Y0288110D02*
X0433077Y0288110D01*
X0433077Y0287126D01*
X0439475Y0287126D01*
X0439475Y0288110D01*
X0439475Y0287940D02*
X0433077Y0287940D01*
X0433077Y0287745D02*
X0439475Y0287745D01*
X0439475Y0287550D02*
X0433077Y0287550D01*
X0433077Y0287354D02*
X0439475Y0287354D01*
X0439475Y0287159D02*
X0433077Y0287159D01*
X0433077Y0285551D02*
X0439475Y0285551D01*
X0439475Y0284567D01*
X0433077Y0284567D01*
X0433077Y0285551D01*
X0433077Y0285401D02*
X0439475Y0285401D01*
X0439475Y0285205D02*
X0433077Y0285205D01*
X0433077Y0285010D02*
X0439475Y0285010D01*
X0439475Y0284815D02*
X0433077Y0284815D01*
X0433077Y0284619D02*
X0439475Y0284619D01*
X0439475Y0282992D02*
X0433077Y0282992D01*
X0433077Y0282008D01*
X0439475Y0282008D01*
X0439475Y0282992D01*
X0439475Y0282861D02*
X0433077Y0282861D01*
X0433077Y0282666D02*
X0439475Y0282666D01*
X0439475Y0282470D02*
X0433077Y0282470D01*
X0433077Y0282275D02*
X0439475Y0282275D01*
X0439475Y0282080D02*
X0433077Y0282080D01*
X0433077Y0280433D02*
X0439475Y0280433D01*
X0439475Y0279449D01*
X0433077Y0279449D01*
X0433077Y0280433D01*
X0433077Y0280321D02*
X0439475Y0280321D01*
X0439475Y0280126D02*
X0433077Y0280126D01*
X0433077Y0279931D02*
X0439475Y0279931D01*
X0439475Y0279735D02*
X0433077Y0279735D01*
X0433077Y0279540D02*
X0439475Y0279540D01*
X0439475Y0277874D02*
X0433077Y0277874D01*
X0433077Y0276890D01*
X0439475Y0276890D01*
X0439475Y0277874D01*
X0439475Y0277782D02*
X0433077Y0277782D01*
X0433077Y0277586D02*
X0439475Y0277586D01*
X0439475Y0277391D02*
X0433077Y0277391D01*
X0433077Y0277195D02*
X0439475Y0277195D01*
X0439475Y0277000D02*
X0433077Y0277000D01*
X0433077Y0186110D02*
X0439475Y0186110D01*
X0439475Y0185126D01*
X0433077Y0185126D01*
X0433077Y0186110D01*
X0433077Y0185962D02*
X0439475Y0185962D01*
X0439475Y0185766D02*
X0433077Y0185766D01*
X0433077Y0185571D02*
X0439475Y0185571D01*
X0439475Y0185375D02*
X0433077Y0185375D01*
X0433077Y0185180D02*
X0439475Y0185180D01*
X0439475Y0183551D02*
X0433077Y0183551D01*
X0433077Y0182567D01*
X0439475Y0182567D01*
X0439475Y0183551D01*
X0439475Y0183422D02*
X0433077Y0183422D01*
X0433077Y0183226D02*
X0439475Y0183226D01*
X0439475Y0183031D02*
X0433077Y0183031D01*
X0433077Y0182836D02*
X0439475Y0182836D01*
X0439475Y0182640D02*
X0433077Y0182640D01*
X0433077Y0180992D02*
X0439475Y0180992D01*
X0439475Y0180008D01*
X0433077Y0180008D01*
X0433077Y0180992D01*
X0433077Y0180882D02*
X0439475Y0180882D01*
X0439475Y0180687D02*
X0433077Y0180687D01*
X0433077Y0180491D02*
X0439475Y0180491D01*
X0439475Y0180296D02*
X0433077Y0180296D01*
X0433077Y0180101D02*
X0439475Y0180101D01*
X0439475Y0178433D02*
X0433077Y0178433D01*
X0433077Y0177449D01*
X0439475Y0177449D01*
X0439475Y0178433D01*
X0439475Y0178342D02*
X0433077Y0178342D01*
X0433077Y0178147D02*
X0439475Y0178147D01*
X0439475Y0177952D02*
X0433077Y0177952D01*
X0433077Y0177756D02*
X0439475Y0177756D01*
X0439475Y0177561D02*
X0433077Y0177561D01*
X0433077Y0175874D02*
X0439475Y0175874D01*
X0439475Y0174890D01*
X0433077Y0174890D01*
X0433077Y0175874D01*
X0433077Y0175803D02*
X0439475Y0175803D01*
X0439475Y0175607D02*
X0433077Y0175607D01*
X0433077Y0175412D02*
X0439475Y0175412D01*
X0439475Y0175217D02*
X0433077Y0175217D01*
X0433077Y0175021D02*
X0439475Y0175021D01*
X0439475Y0084110D02*
X0433077Y0084110D01*
X0433077Y0083126D01*
X0439475Y0083126D01*
X0439475Y0084110D01*
X0439475Y0083983D02*
X0433077Y0083983D01*
X0433077Y0083787D02*
X0439475Y0083787D01*
X0439475Y0083592D02*
X0433077Y0083592D01*
X0433077Y0083397D02*
X0439475Y0083397D01*
X0439475Y0083201D02*
X0433077Y0083201D01*
X0433077Y0081551D02*
X0439475Y0081551D01*
X0439475Y0080567D01*
X0433077Y0080567D01*
X0433077Y0081551D01*
X0433077Y0081443D02*
X0439475Y0081443D01*
X0439475Y0081248D02*
X0433077Y0081248D01*
X0433077Y0081052D02*
X0439475Y0081052D01*
X0439475Y0080857D02*
X0433077Y0080857D01*
X0433077Y0080662D02*
X0439475Y0080662D01*
X0439475Y0078992D02*
X0433077Y0078992D01*
X0433077Y0078008D01*
X0439475Y0078008D01*
X0439475Y0078992D01*
X0439475Y0078903D02*
X0433077Y0078903D01*
X0433077Y0078708D02*
X0439475Y0078708D01*
X0439475Y0078513D02*
X0433077Y0078513D01*
X0433077Y0078317D02*
X0439475Y0078317D01*
X0439475Y0078122D02*
X0433077Y0078122D01*
X0433077Y0076433D02*
X0439475Y0076433D01*
X0439475Y0075449D01*
X0433077Y0075449D01*
X0433077Y0076433D01*
X0433077Y0076364D02*
X0439475Y0076364D01*
X0439475Y0076168D02*
X0433077Y0076168D01*
X0433077Y0075973D02*
X0439475Y0075973D01*
X0439475Y0075778D02*
X0433077Y0075778D01*
X0433077Y0075582D02*
X0439475Y0075582D01*
X0439475Y0073874D02*
X0433077Y0073874D01*
X0433077Y0072890D01*
X0439475Y0072890D01*
X0439475Y0073874D01*
X0439475Y0073824D02*
X0433077Y0073824D01*
X0433077Y0073629D02*
X0439475Y0073629D01*
X0439475Y0073433D02*
X0433077Y0073433D01*
X0433077Y0073238D02*
X0439475Y0073238D01*
X0439475Y0073042D02*
X0433077Y0073042D01*
X0249475Y0073042D02*
X0243077Y0073042D01*
X0243077Y0072890D02*
X0243077Y0073874D01*
X0249475Y0073874D01*
X0249475Y0072890D01*
X0243077Y0072890D01*
X0243077Y0073238D02*
X0249475Y0073238D01*
X0249475Y0073433D02*
X0243077Y0073433D01*
X0243077Y0073629D02*
X0249475Y0073629D01*
X0249475Y0073824D02*
X0243077Y0073824D01*
X0243077Y0075449D02*
X0243077Y0076433D01*
X0249475Y0076433D01*
X0249475Y0075449D01*
X0243077Y0075449D01*
X0243077Y0075582D02*
X0249475Y0075582D01*
X0249475Y0075778D02*
X0243077Y0075778D01*
X0243077Y0075973D02*
X0249475Y0075973D01*
X0249475Y0076168D02*
X0243077Y0076168D01*
X0243077Y0076364D02*
X0249475Y0076364D01*
X0249475Y0078008D02*
X0243077Y0078008D01*
X0243077Y0078992D01*
X0249475Y0078992D01*
X0249475Y0078008D01*
X0249475Y0078122D02*
X0243077Y0078122D01*
X0243077Y0078317D02*
X0249475Y0078317D01*
X0249475Y0078513D02*
X0243077Y0078513D01*
X0243077Y0078708D02*
X0249475Y0078708D01*
X0249475Y0078903D02*
X0243077Y0078903D01*
X0243077Y0080567D02*
X0243077Y0081551D01*
X0249475Y0081551D01*
X0249475Y0080567D01*
X0243077Y0080567D01*
X0243077Y0080662D02*
X0249475Y0080662D01*
X0249475Y0080857D02*
X0243077Y0080857D01*
X0243077Y0081052D02*
X0249475Y0081052D01*
X0249475Y0081248D02*
X0243077Y0081248D01*
X0243077Y0081443D02*
X0249475Y0081443D01*
X0249475Y0083126D02*
X0243077Y0083126D01*
X0243077Y0084110D01*
X0249475Y0084110D01*
X0249475Y0083126D01*
X0249475Y0083201D02*
X0243077Y0083201D01*
X0243077Y0083397D02*
X0249475Y0083397D01*
X0249475Y0083592D02*
X0243077Y0083592D01*
X0243077Y0083787D02*
X0249475Y0083787D01*
X0249475Y0083983D02*
X0243077Y0083983D01*
X0243077Y0174890D02*
X0243077Y0175874D01*
X0249475Y0175874D01*
X0249475Y0174890D01*
X0243077Y0174890D01*
X0243077Y0175021D02*
X0249475Y0175021D01*
X0249475Y0175217D02*
X0243077Y0175217D01*
X0243077Y0175412D02*
X0249475Y0175412D01*
X0249475Y0175607D02*
X0243077Y0175607D01*
X0243077Y0175803D02*
X0249475Y0175803D01*
X0249475Y0177449D02*
X0243077Y0177449D01*
X0243077Y0178433D01*
X0249475Y0178433D01*
X0249475Y0177449D01*
X0249475Y0177561D02*
X0243077Y0177561D01*
X0243077Y0177756D02*
X0249475Y0177756D01*
X0249475Y0177952D02*
X0243077Y0177952D01*
X0243077Y0178147D02*
X0249475Y0178147D01*
X0249475Y0178342D02*
X0243077Y0178342D01*
X0243077Y0180008D02*
X0243077Y0180992D01*
X0249475Y0180992D01*
X0249475Y0180008D01*
X0243077Y0180008D01*
X0243077Y0180101D02*
X0249475Y0180101D01*
X0249475Y0180296D02*
X0243077Y0180296D01*
X0243077Y0180491D02*
X0249475Y0180491D01*
X0249475Y0180687D02*
X0243077Y0180687D01*
X0243077Y0180882D02*
X0249475Y0180882D01*
X0249475Y0182567D02*
X0243077Y0182567D01*
X0243077Y0183551D01*
X0249475Y0183551D01*
X0249475Y0182567D01*
X0249475Y0182640D02*
X0243077Y0182640D01*
X0243077Y0182836D02*
X0249475Y0182836D01*
X0249475Y0183031D02*
X0243077Y0183031D01*
X0243077Y0183226D02*
X0249475Y0183226D01*
X0249475Y0183422D02*
X0243077Y0183422D01*
X0243077Y0185126D02*
X0243077Y0186110D01*
X0249475Y0186110D01*
X0249475Y0185126D01*
X0243077Y0185126D01*
X0243077Y0185180D02*
X0249475Y0185180D01*
X0249475Y0185375D02*
X0243077Y0185375D01*
X0243077Y0185571D02*
X0249475Y0185571D01*
X0249475Y0185766D02*
X0243077Y0185766D01*
X0243077Y0185962D02*
X0249475Y0185962D01*
X0249475Y0276890D02*
X0243077Y0276890D01*
X0243077Y0277874D01*
X0249475Y0277874D01*
X0249475Y0276890D01*
X0249475Y0277000D02*
X0243077Y0277000D01*
X0243077Y0277195D02*
X0249475Y0277195D01*
X0249475Y0277391D02*
X0243077Y0277391D01*
X0243077Y0277586D02*
X0249475Y0277586D01*
X0249475Y0277782D02*
X0243077Y0277782D01*
X0243077Y0279449D02*
X0243077Y0280433D01*
X0249475Y0280433D01*
X0249475Y0279449D01*
X0243077Y0279449D01*
X0243077Y0279540D02*
X0249475Y0279540D01*
X0249475Y0279735D02*
X0243077Y0279735D01*
X0243077Y0279931D02*
X0249475Y0279931D01*
X0249475Y0280126D02*
X0243077Y0280126D01*
X0243077Y0280321D02*
X0249475Y0280321D01*
X0249475Y0282008D02*
X0243077Y0282008D01*
X0243077Y0282992D01*
X0249475Y0282992D01*
X0249475Y0282008D01*
X0249475Y0282080D02*
X0243077Y0282080D01*
X0243077Y0282275D02*
X0249475Y0282275D01*
X0249475Y0282470D02*
X0243077Y0282470D01*
X0243077Y0282666D02*
X0249475Y0282666D01*
X0249475Y0282861D02*
X0243077Y0282861D01*
X0243077Y0284567D02*
X0243077Y0285551D01*
X0249475Y0285551D01*
X0249475Y0284567D01*
X0243077Y0284567D01*
X0243077Y0284619D02*
X0249475Y0284619D01*
X0249475Y0284815D02*
X0243077Y0284815D01*
X0243077Y0285010D02*
X0249475Y0285010D01*
X0249475Y0285205D02*
X0243077Y0285205D01*
X0243077Y0285401D02*
X0249475Y0285401D01*
X0249475Y0287126D02*
X0243077Y0287126D01*
X0243077Y0288110D01*
X0249475Y0288110D01*
X0249475Y0287126D01*
X0249475Y0287159D02*
X0243077Y0287159D01*
X0243077Y0287354D02*
X0249475Y0287354D01*
X0249475Y0287550D02*
X0243077Y0287550D01*
X0243077Y0287745D02*
X0249475Y0287745D01*
X0249475Y0287940D02*
X0243077Y0287940D01*
X0243077Y0378890D02*
X0243077Y0379874D01*
X0249475Y0379874D01*
X0249475Y0378890D01*
X0243077Y0378890D01*
X0243077Y0378979D02*
X0249475Y0378979D01*
X0249475Y0379174D02*
X0243077Y0379174D01*
X0243077Y0379370D02*
X0249475Y0379370D01*
X0249475Y0379565D02*
X0243077Y0379565D01*
X0243077Y0379760D02*
X0249475Y0379760D01*
X0249475Y0381449D02*
X0243077Y0381449D01*
X0243077Y0382433D01*
X0249475Y0382433D01*
X0249475Y0381449D01*
X0249475Y0381519D02*
X0243077Y0381519D01*
X0243077Y0381714D02*
X0249475Y0381714D01*
X0249475Y0381909D02*
X0243077Y0381909D01*
X0243077Y0382105D02*
X0249475Y0382105D01*
X0249475Y0382300D02*
X0243077Y0382300D01*
X0243077Y0384008D02*
X0243077Y0384992D01*
X0249475Y0384992D01*
X0249475Y0384008D01*
X0243077Y0384008D01*
X0243077Y0384058D02*
X0249475Y0384058D01*
X0249475Y0384254D02*
X0243077Y0384254D01*
X0243077Y0384449D02*
X0249475Y0384449D01*
X0249475Y0384644D02*
X0243077Y0384644D01*
X0243077Y0384840D02*
X0249475Y0384840D01*
X0249475Y0386567D02*
X0243077Y0386567D01*
X0243077Y0387551D01*
X0249475Y0387551D01*
X0249475Y0386567D01*
X0249475Y0386598D02*
X0243077Y0386598D01*
X0243077Y0386793D02*
X0249475Y0386793D01*
X0249475Y0386989D02*
X0243077Y0386989D01*
X0243077Y0387184D02*
X0249475Y0387184D01*
X0249475Y0387379D02*
X0243077Y0387379D01*
X0243077Y0389126D02*
X0243077Y0390110D01*
X0249475Y0390110D01*
X0249475Y0389126D01*
X0243077Y0389126D01*
X0243077Y0389138D02*
X0249475Y0389138D01*
X0249475Y0389333D02*
X0243077Y0389333D01*
X0243077Y0389528D02*
X0249475Y0389528D01*
X0249475Y0389724D02*
X0243077Y0389724D01*
X0243077Y0389919D02*
X0249475Y0389919D01*
X0059475Y0389919D02*
X0053077Y0389919D01*
X0053077Y0390110D02*
X0059475Y0390110D01*
X0059475Y0389126D01*
X0053077Y0389126D01*
X0053077Y0390110D01*
X0053077Y0389724D02*
X0059475Y0389724D01*
X0059475Y0389528D02*
X0053077Y0389528D01*
X0053077Y0389333D02*
X0059475Y0389333D01*
X0059475Y0389138D02*
X0053077Y0389138D01*
X0053077Y0387551D02*
X0059475Y0387551D01*
X0059475Y0386567D01*
X0053077Y0386567D01*
X0053077Y0387551D01*
X0053077Y0387379D02*
X0059475Y0387379D01*
X0059475Y0387184D02*
X0053077Y0387184D01*
X0053077Y0386989D02*
X0059475Y0386989D01*
X0059475Y0386793D02*
X0053077Y0386793D01*
X0053077Y0386598D02*
X0059475Y0386598D01*
X0059475Y0384992D02*
X0053077Y0384992D01*
X0053077Y0384008D01*
X0059475Y0384008D01*
X0059475Y0384992D01*
X0059475Y0384840D02*
X0053077Y0384840D01*
X0053077Y0384644D02*
X0059475Y0384644D01*
X0059475Y0384449D02*
X0053077Y0384449D01*
X0053077Y0384254D02*
X0059475Y0384254D01*
X0059475Y0384058D02*
X0053077Y0384058D01*
X0053077Y0382433D02*
X0059475Y0382433D01*
X0059475Y0381449D01*
X0053077Y0381449D01*
X0053077Y0382433D01*
X0053077Y0382300D02*
X0059475Y0382300D01*
X0059475Y0382105D02*
X0053077Y0382105D01*
X0053077Y0381909D02*
X0059475Y0381909D01*
X0059475Y0381714D02*
X0053077Y0381714D01*
X0053077Y0381519D02*
X0059475Y0381519D01*
X0059475Y0379874D02*
X0053077Y0379874D01*
X0053077Y0378890D01*
X0059475Y0378890D01*
X0059475Y0379874D01*
X0059475Y0379760D02*
X0053077Y0379760D01*
X0053077Y0379565D02*
X0059475Y0379565D01*
X0059475Y0379370D02*
X0053077Y0379370D01*
X0053077Y0379174D02*
X0059475Y0379174D01*
X0059475Y0378979D02*
X0053077Y0378979D01*
X0053077Y0288110D02*
X0059475Y0288110D01*
X0059475Y0287126D01*
X0053077Y0287126D01*
X0053077Y0288110D01*
X0053077Y0287940D02*
X0059475Y0287940D01*
X0059475Y0287745D02*
X0053077Y0287745D01*
X0053077Y0287550D02*
X0059475Y0287550D01*
X0059475Y0287354D02*
X0053077Y0287354D01*
X0053077Y0287159D02*
X0059475Y0287159D01*
X0059475Y0285551D02*
X0053077Y0285551D01*
X0053077Y0284567D01*
X0059475Y0284567D01*
X0059475Y0285551D01*
X0059475Y0285401D02*
X0053077Y0285401D01*
X0053077Y0285205D02*
X0059475Y0285205D01*
X0059475Y0285010D02*
X0053077Y0285010D01*
X0053077Y0284815D02*
X0059475Y0284815D01*
X0059475Y0284619D02*
X0053077Y0284619D01*
X0053077Y0282992D02*
X0059475Y0282992D01*
X0059475Y0282008D01*
X0053077Y0282008D01*
X0053077Y0282992D01*
X0053077Y0282861D02*
X0059475Y0282861D01*
X0059475Y0282666D02*
X0053077Y0282666D01*
X0053077Y0282470D02*
X0059475Y0282470D01*
X0059475Y0282275D02*
X0053077Y0282275D01*
X0053077Y0282080D02*
X0059475Y0282080D01*
X0059475Y0280433D02*
X0053077Y0280433D01*
X0053077Y0279449D01*
X0059475Y0279449D01*
X0059475Y0280433D01*
X0059475Y0280321D02*
X0053077Y0280321D01*
X0053077Y0280126D02*
X0059475Y0280126D01*
X0059475Y0279931D02*
X0053077Y0279931D01*
X0053077Y0279735D02*
X0059475Y0279735D01*
X0059475Y0279540D02*
X0053077Y0279540D01*
X0053077Y0277874D02*
X0059475Y0277874D01*
X0059475Y0276890D01*
X0053077Y0276890D01*
X0053077Y0277874D01*
X0053077Y0277782D02*
X0059475Y0277782D01*
X0059475Y0277586D02*
X0053077Y0277586D01*
X0053077Y0277391D02*
X0059475Y0277391D01*
X0059475Y0277195D02*
X0053077Y0277195D01*
X0053077Y0277000D02*
X0059475Y0277000D01*
X0059475Y0186110D02*
X0053077Y0186110D01*
X0053077Y0185126D01*
X0059475Y0185126D01*
X0059475Y0186110D01*
X0059475Y0185962D02*
X0053077Y0185962D01*
X0053077Y0185766D02*
X0059475Y0185766D01*
X0059475Y0185571D02*
X0053077Y0185571D01*
X0053077Y0185375D02*
X0059475Y0185375D01*
X0059475Y0185180D02*
X0053077Y0185180D01*
X0053077Y0183551D02*
X0059475Y0183551D01*
X0059475Y0182567D01*
X0053077Y0182567D01*
X0053077Y0183551D01*
X0053077Y0183422D02*
X0059475Y0183422D01*
X0059475Y0183226D02*
X0053077Y0183226D01*
X0053077Y0183031D02*
X0059475Y0183031D01*
X0059475Y0182836D02*
X0053077Y0182836D01*
X0053077Y0182640D02*
X0059475Y0182640D01*
X0059475Y0180992D02*
X0053077Y0180992D01*
X0053077Y0180008D01*
X0059475Y0180008D01*
X0059475Y0180992D01*
X0059475Y0180882D02*
X0053077Y0180882D01*
X0053077Y0180687D02*
X0059475Y0180687D01*
X0059475Y0180491D02*
X0053077Y0180491D01*
X0053077Y0180296D02*
X0059475Y0180296D01*
X0059475Y0180101D02*
X0053077Y0180101D01*
X0053077Y0178433D02*
X0059475Y0178433D01*
X0059475Y0177449D01*
X0053077Y0177449D01*
X0053077Y0178433D01*
X0053077Y0178342D02*
X0059475Y0178342D01*
X0059475Y0178147D02*
X0053077Y0178147D01*
X0053077Y0177952D02*
X0059475Y0177952D01*
X0059475Y0177756D02*
X0053077Y0177756D01*
X0053077Y0177561D02*
X0059475Y0177561D01*
X0059475Y0175874D02*
X0053077Y0175874D01*
X0053077Y0174890D01*
X0059475Y0174890D01*
X0059475Y0175874D01*
X0059475Y0175803D02*
X0053077Y0175803D01*
X0053077Y0175607D02*
X0059475Y0175607D01*
X0059475Y0175412D02*
X0053077Y0175412D01*
X0053077Y0175217D02*
X0059475Y0175217D01*
X0059475Y0175021D02*
X0053077Y0175021D01*
X0053077Y0084110D02*
X0059475Y0084110D01*
X0059475Y0083126D01*
X0053077Y0083126D01*
X0053077Y0084110D01*
X0053077Y0083983D02*
X0059475Y0083983D01*
X0059475Y0083787D02*
X0053077Y0083787D01*
X0053077Y0083592D02*
X0059475Y0083592D01*
X0059475Y0083397D02*
X0053077Y0083397D01*
X0053077Y0083201D02*
X0059475Y0083201D01*
X0059475Y0081551D02*
X0053077Y0081551D01*
X0053077Y0080567D01*
X0059475Y0080567D01*
X0059475Y0081551D01*
X0059475Y0081443D02*
X0053077Y0081443D01*
X0053077Y0081248D02*
X0059475Y0081248D01*
X0059475Y0081052D02*
X0053077Y0081052D01*
X0053077Y0080857D02*
X0059475Y0080857D01*
X0059475Y0080662D02*
X0053077Y0080662D01*
X0053077Y0078992D02*
X0059475Y0078992D01*
X0059475Y0078008D01*
X0053077Y0078008D01*
X0053077Y0078992D01*
X0053077Y0078903D02*
X0059475Y0078903D01*
X0059475Y0078708D02*
X0053077Y0078708D01*
X0053077Y0078513D02*
X0059475Y0078513D01*
X0059475Y0078317D02*
X0053077Y0078317D01*
X0053077Y0078122D02*
X0059475Y0078122D01*
X0059475Y0076433D02*
X0053077Y0076433D01*
X0053077Y0075449D01*
X0059475Y0075449D01*
X0059475Y0076433D01*
X0059475Y0076364D02*
X0053077Y0076364D01*
X0053077Y0076168D02*
X0059475Y0076168D01*
X0059475Y0075973D02*
X0053077Y0075973D01*
X0053077Y0075778D02*
X0059475Y0075778D01*
X0059475Y0075582D02*
X0053077Y0075582D01*
X0053077Y0073874D02*
X0059475Y0073874D01*
X0059475Y0072890D01*
X0053077Y0072890D01*
X0053077Y0073874D01*
X0053077Y0073824D02*
X0059475Y0073824D01*
X0059475Y0073629D02*
X0053077Y0073629D01*
X0053077Y0073433D02*
X0059475Y0073433D01*
X0059475Y0073238D02*
X0053077Y0073238D01*
X0053077Y0073042D02*
X0059475Y0073042D01*
D20*
X0075510Y0110881D03*
X0079250Y0110881D03*
X0082990Y0110881D03*
X0082990Y0121119D03*
X0075510Y0121119D03*
X0075510Y0212881D03*
X0079250Y0212881D03*
X0082990Y0212881D03*
X0082990Y0223119D03*
X0075510Y0223119D03*
X0075510Y0314881D03*
X0079250Y0314881D03*
X0082990Y0314881D03*
X0082990Y0325119D03*
X0075510Y0325119D03*
X0075510Y0416881D03*
X0079250Y0416881D03*
X0082990Y0416881D03*
X0082990Y0427119D03*
X0075510Y0427119D03*
X0265510Y0427119D03*
X0272990Y0427119D03*
X0272990Y0416881D03*
X0269250Y0416881D03*
X0265510Y0416881D03*
X0265510Y0325119D03*
X0272990Y0325119D03*
X0272990Y0314881D03*
X0269250Y0314881D03*
X0265510Y0314881D03*
X0265510Y0223119D03*
X0272990Y0223119D03*
X0272990Y0212881D03*
X0269250Y0212881D03*
X0265510Y0212881D03*
X0265510Y0121119D03*
X0272990Y0121119D03*
X0272990Y0110881D03*
X0269250Y0110881D03*
X0265510Y0110881D03*
X0455510Y0110881D03*
X0459250Y0110881D03*
X0462990Y0110881D03*
X0462990Y0121119D03*
X0455510Y0121119D03*
X0455510Y0212881D03*
X0459250Y0212881D03*
X0462990Y0212881D03*
X0462990Y0223119D03*
X0455510Y0223119D03*
X0455510Y0314881D03*
X0459250Y0314881D03*
X0462990Y0314881D03*
X0462990Y0325119D03*
X0455510Y0325119D03*
X0455510Y0416881D03*
X0459250Y0416881D03*
X0462990Y0416881D03*
X0462990Y0427119D03*
X0455510Y0427119D03*
D21*
X0445726Y0340031D03*
X0467774Y0340031D03*
X0467774Y0238031D03*
X0445726Y0238031D03*
X0445726Y0136031D03*
X0467774Y0136031D03*
X0467774Y0034031D03*
X0445726Y0034031D03*
X0277774Y0034031D03*
X0255726Y0034031D03*
X0255726Y0136031D03*
X0277774Y0136031D03*
X0277774Y0238031D03*
X0255726Y0238031D03*
X0255726Y0340031D03*
X0277774Y0340031D03*
X0087774Y0340031D03*
X0065726Y0340031D03*
X0065726Y0238031D03*
X0087774Y0238031D03*
X0087774Y0136031D03*
X0065726Y0136031D03*
X0065726Y0034031D03*
X0087774Y0034031D03*
D22*
X0082656Y0048500D03*
X0078719Y0048500D03*
X0074781Y0048500D03*
X0070844Y0048500D03*
X0070844Y0150500D03*
X0074781Y0150500D03*
X0078719Y0150500D03*
X0082656Y0150500D03*
X0082656Y0252500D03*
X0078719Y0252500D03*
X0074781Y0252500D03*
X0070844Y0252500D03*
X0070844Y0354500D03*
X0074781Y0354500D03*
X0078719Y0354500D03*
X0082656Y0354500D03*
X0260844Y0354500D03*
X0264781Y0354500D03*
X0268719Y0354500D03*
X0272656Y0354500D03*
X0272656Y0252500D03*
X0268719Y0252500D03*
X0264781Y0252500D03*
X0260844Y0252500D03*
X0260844Y0150500D03*
X0264781Y0150500D03*
X0268719Y0150500D03*
X0272656Y0150500D03*
X0272656Y0048500D03*
X0268719Y0048500D03*
X0264781Y0048500D03*
X0260844Y0048500D03*
X0450844Y0048500D03*
X0454781Y0048500D03*
X0458719Y0048500D03*
X0462656Y0048500D03*
X0462656Y0150500D03*
X0458719Y0150500D03*
X0454781Y0150500D03*
X0450844Y0150500D03*
X0450844Y0252500D03*
X0454781Y0252500D03*
X0458719Y0252500D03*
X0462656Y0252500D03*
X0462656Y0354500D03*
X0458719Y0354500D03*
X0454781Y0354500D03*
X0450844Y0354500D03*
D23*
X0040179Y0032350D03*
X0040179Y0038650D03*
X0056321Y0038650D03*
X0056321Y0032350D03*
X0055821Y0117850D03*
X0055821Y0124150D03*
X0039679Y0124150D03*
X0039679Y0117850D03*
X0040179Y0134350D03*
X0040179Y0140650D03*
X0056321Y0140650D03*
X0056321Y0134350D03*
X0055821Y0219850D03*
X0055821Y0226150D03*
X0039679Y0226150D03*
X0039679Y0219850D03*
X0040179Y0236350D03*
X0040179Y0242650D03*
X0056321Y0242650D03*
X0056321Y0236350D03*
X0055821Y0321850D03*
X0055821Y0328150D03*
X0039679Y0328150D03*
X0039679Y0321850D03*
X0040179Y0338350D03*
X0040179Y0344650D03*
X0056321Y0344650D03*
X0056321Y0338350D03*
X0055821Y0423850D03*
X0055821Y0430150D03*
X0039679Y0430150D03*
X0039679Y0423850D03*
X0229679Y0423850D03*
X0229679Y0430150D03*
X0245821Y0430150D03*
X0245821Y0423850D03*
X0246321Y0344650D03*
X0246321Y0338350D03*
X0230179Y0338350D03*
X0230179Y0344650D03*
X0229679Y0328150D03*
X0229679Y0321850D03*
X0245821Y0321850D03*
X0245821Y0328150D03*
X0246321Y0242650D03*
X0246321Y0236350D03*
X0230179Y0236350D03*
X0230179Y0242650D03*
X0229679Y0226150D03*
X0229679Y0219850D03*
X0245821Y0219850D03*
X0245821Y0226150D03*
X0246321Y0140650D03*
X0246321Y0134350D03*
X0230179Y0134350D03*
X0230179Y0140650D03*
X0229679Y0124150D03*
X0229679Y0117850D03*
X0245821Y0117850D03*
X0245821Y0124150D03*
X0246321Y0038650D03*
X0246321Y0032350D03*
X0230179Y0032350D03*
X0230179Y0038650D03*
X0420179Y0038650D03*
X0420179Y0032350D03*
X0436321Y0032350D03*
X0436321Y0038650D03*
X0435821Y0117850D03*
X0435821Y0124150D03*
X0419679Y0124150D03*
X0419679Y0117850D03*
X0420179Y0134350D03*
X0420179Y0140650D03*
X0436321Y0140650D03*
X0436321Y0134350D03*
X0435821Y0219850D03*
X0435821Y0226150D03*
X0419679Y0226150D03*
X0419679Y0219850D03*
X0420179Y0236350D03*
X0420179Y0242650D03*
X0436321Y0242650D03*
X0436321Y0236350D03*
X0435821Y0321850D03*
X0435821Y0328150D03*
X0419679Y0328150D03*
X0419679Y0321850D03*
X0420179Y0338350D03*
X0420179Y0344650D03*
X0436321Y0344650D03*
X0436321Y0338350D03*
X0435821Y0423850D03*
X0435821Y0430150D03*
X0419679Y0430150D03*
X0419679Y0423850D03*
D24*
X0422919Y0411878D02*
X0422919Y0409122D01*
X0422919Y0411878D02*
X0425675Y0411878D01*
X0425675Y0409122D01*
X0422919Y0409122D01*
X0422919Y0410244D02*
X0425675Y0410244D01*
X0425675Y0411366D02*
X0422919Y0411366D01*
X0429825Y0411878D02*
X0429825Y0409122D01*
X0429825Y0411878D02*
X0432581Y0411878D01*
X0432581Y0409122D01*
X0429825Y0409122D01*
X0429825Y0410244D02*
X0432581Y0410244D01*
X0432581Y0411366D02*
X0429825Y0411366D01*
X0429325Y0359378D02*
X0429325Y0356622D01*
X0429325Y0359378D02*
X0432081Y0359378D01*
X0432081Y0356622D01*
X0429325Y0356622D01*
X0429325Y0357744D02*
X0432081Y0357744D01*
X0432081Y0358866D02*
X0429325Y0358866D01*
X0422419Y0359378D02*
X0422419Y0356622D01*
X0422419Y0359378D02*
X0425175Y0359378D01*
X0425175Y0356622D01*
X0422419Y0356622D01*
X0422419Y0357744D02*
X0425175Y0357744D01*
X0425175Y0358866D02*
X0422419Y0358866D01*
X0422919Y0309878D02*
X0422919Y0307122D01*
X0422919Y0309878D02*
X0425675Y0309878D01*
X0425675Y0307122D01*
X0422919Y0307122D01*
X0422919Y0308244D02*
X0425675Y0308244D01*
X0425675Y0309366D02*
X0422919Y0309366D01*
X0429825Y0309878D02*
X0429825Y0307122D01*
X0429825Y0309878D02*
X0432581Y0309878D01*
X0432581Y0307122D01*
X0429825Y0307122D01*
X0429825Y0308244D02*
X0432581Y0308244D01*
X0432581Y0309366D02*
X0429825Y0309366D01*
X0429325Y0257378D02*
X0429325Y0254622D01*
X0429325Y0257378D02*
X0432081Y0257378D01*
X0432081Y0254622D01*
X0429325Y0254622D01*
X0429325Y0255744D02*
X0432081Y0255744D01*
X0432081Y0256866D02*
X0429325Y0256866D01*
X0422419Y0257378D02*
X0422419Y0254622D01*
X0422419Y0257378D02*
X0425175Y0257378D01*
X0425175Y0254622D01*
X0422419Y0254622D01*
X0422419Y0255744D02*
X0425175Y0255744D01*
X0425175Y0256866D02*
X0422419Y0256866D01*
X0422919Y0207878D02*
X0422919Y0205122D01*
X0422919Y0207878D02*
X0425675Y0207878D01*
X0425675Y0205122D01*
X0422919Y0205122D01*
X0422919Y0206244D02*
X0425675Y0206244D01*
X0425675Y0207366D02*
X0422919Y0207366D01*
X0429825Y0207878D02*
X0429825Y0205122D01*
X0429825Y0207878D02*
X0432581Y0207878D01*
X0432581Y0205122D01*
X0429825Y0205122D01*
X0429825Y0206244D02*
X0432581Y0206244D01*
X0432581Y0207366D02*
X0429825Y0207366D01*
X0429325Y0155378D02*
X0429325Y0152622D01*
X0429325Y0155378D02*
X0432081Y0155378D01*
X0432081Y0152622D01*
X0429325Y0152622D01*
X0429325Y0153744D02*
X0432081Y0153744D01*
X0432081Y0154866D02*
X0429325Y0154866D01*
X0422419Y0155378D02*
X0422419Y0152622D01*
X0422419Y0155378D02*
X0425175Y0155378D01*
X0425175Y0152622D01*
X0422419Y0152622D01*
X0422419Y0153744D02*
X0425175Y0153744D01*
X0425175Y0154866D02*
X0422419Y0154866D01*
X0422919Y0105878D02*
X0422919Y0103122D01*
X0422919Y0105878D02*
X0425675Y0105878D01*
X0425675Y0103122D01*
X0422919Y0103122D01*
X0422919Y0104244D02*
X0425675Y0104244D01*
X0425675Y0105366D02*
X0422919Y0105366D01*
X0429825Y0105878D02*
X0429825Y0103122D01*
X0429825Y0105878D02*
X0432581Y0105878D01*
X0432581Y0103122D01*
X0429825Y0103122D01*
X0429825Y0104244D02*
X0432581Y0104244D01*
X0432581Y0105366D02*
X0429825Y0105366D01*
X0429325Y0053378D02*
X0429325Y0050622D01*
X0429325Y0053378D02*
X0432081Y0053378D01*
X0432081Y0050622D01*
X0429325Y0050622D01*
X0429325Y0051744D02*
X0432081Y0051744D01*
X0432081Y0052866D02*
X0429325Y0052866D01*
X0422419Y0053378D02*
X0422419Y0050622D01*
X0422419Y0053378D02*
X0425175Y0053378D01*
X0425175Y0050622D01*
X0422419Y0050622D01*
X0422419Y0051744D02*
X0425175Y0051744D01*
X0425175Y0052866D02*
X0422419Y0052866D01*
X0239325Y0053378D02*
X0239325Y0050622D01*
X0239325Y0053378D02*
X0242081Y0053378D01*
X0242081Y0050622D01*
X0239325Y0050622D01*
X0239325Y0051744D02*
X0242081Y0051744D01*
X0242081Y0052866D02*
X0239325Y0052866D01*
X0232419Y0053378D02*
X0232419Y0050622D01*
X0232419Y0053378D02*
X0235175Y0053378D01*
X0235175Y0050622D01*
X0232419Y0050622D01*
X0232419Y0051744D02*
X0235175Y0051744D01*
X0235175Y0052866D02*
X0232419Y0052866D01*
X0232919Y0103122D02*
X0232919Y0105878D01*
X0235675Y0105878D01*
X0235675Y0103122D01*
X0232919Y0103122D01*
X0232919Y0104244D02*
X0235675Y0104244D01*
X0235675Y0105366D02*
X0232919Y0105366D01*
X0239825Y0105878D02*
X0239825Y0103122D01*
X0239825Y0105878D02*
X0242581Y0105878D01*
X0242581Y0103122D01*
X0239825Y0103122D01*
X0239825Y0104244D02*
X0242581Y0104244D01*
X0242581Y0105366D02*
X0239825Y0105366D01*
X0239325Y0152622D02*
X0239325Y0155378D01*
X0242081Y0155378D01*
X0242081Y0152622D01*
X0239325Y0152622D01*
X0239325Y0153744D02*
X0242081Y0153744D01*
X0242081Y0154866D02*
X0239325Y0154866D01*
X0232419Y0155378D02*
X0232419Y0152622D01*
X0232419Y0155378D02*
X0235175Y0155378D01*
X0235175Y0152622D01*
X0232419Y0152622D01*
X0232419Y0153744D02*
X0235175Y0153744D01*
X0235175Y0154866D02*
X0232419Y0154866D01*
X0232919Y0205122D02*
X0232919Y0207878D01*
X0235675Y0207878D01*
X0235675Y0205122D01*
X0232919Y0205122D01*
X0232919Y0206244D02*
X0235675Y0206244D01*
X0235675Y0207366D02*
X0232919Y0207366D01*
X0239825Y0207878D02*
X0239825Y0205122D01*
X0239825Y0207878D02*
X0242581Y0207878D01*
X0242581Y0205122D01*
X0239825Y0205122D01*
X0239825Y0206244D02*
X0242581Y0206244D01*
X0242581Y0207366D02*
X0239825Y0207366D01*
X0239325Y0254622D02*
X0239325Y0257378D01*
X0242081Y0257378D01*
X0242081Y0254622D01*
X0239325Y0254622D01*
X0239325Y0255744D02*
X0242081Y0255744D01*
X0242081Y0256866D02*
X0239325Y0256866D01*
X0232419Y0257378D02*
X0232419Y0254622D01*
X0232419Y0257378D02*
X0235175Y0257378D01*
X0235175Y0254622D01*
X0232419Y0254622D01*
X0232419Y0255744D02*
X0235175Y0255744D01*
X0235175Y0256866D02*
X0232419Y0256866D01*
X0232919Y0307122D02*
X0232919Y0309878D01*
X0235675Y0309878D01*
X0235675Y0307122D01*
X0232919Y0307122D01*
X0232919Y0308244D02*
X0235675Y0308244D01*
X0235675Y0309366D02*
X0232919Y0309366D01*
X0239825Y0309878D02*
X0239825Y0307122D01*
X0239825Y0309878D02*
X0242581Y0309878D01*
X0242581Y0307122D01*
X0239825Y0307122D01*
X0239825Y0308244D02*
X0242581Y0308244D01*
X0242581Y0309366D02*
X0239825Y0309366D01*
X0239325Y0356622D02*
X0239325Y0359378D01*
X0242081Y0359378D01*
X0242081Y0356622D01*
X0239325Y0356622D01*
X0239325Y0357744D02*
X0242081Y0357744D01*
X0242081Y0358866D02*
X0239325Y0358866D01*
X0232419Y0359378D02*
X0232419Y0356622D01*
X0232419Y0359378D02*
X0235175Y0359378D01*
X0235175Y0356622D01*
X0232419Y0356622D01*
X0232419Y0357744D02*
X0235175Y0357744D01*
X0235175Y0358866D02*
X0232419Y0358866D01*
X0232919Y0409122D02*
X0232919Y0411878D01*
X0235675Y0411878D01*
X0235675Y0409122D01*
X0232919Y0409122D01*
X0232919Y0410244D02*
X0235675Y0410244D01*
X0235675Y0411366D02*
X0232919Y0411366D01*
X0239825Y0411878D02*
X0239825Y0409122D01*
X0239825Y0411878D02*
X0242581Y0411878D01*
X0242581Y0409122D01*
X0239825Y0409122D01*
X0239825Y0410244D02*
X0242581Y0410244D01*
X0242581Y0411366D02*
X0239825Y0411366D01*
X0049825Y0411878D02*
X0049825Y0409122D01*
X0049825Y0411878D02*
X0052581Y0411878D01*
X0052581Y0409122D01*
X0049825Y0409122D01*
X0049825Y0410244D02*
X0052581Y0410244D01*
X0052581Y0411366D02*
X0049825Y0411366D01*
X0042919Y0411878D02*
X0042919Y0409122D01*
X0042919Y0411878D02*
X0045675Y0411878D01*
X0045675Y0409122D01*
X0042919Y0409122D01*
X0042919Y0410244D02*
X0045675Y0410244D01*
X0045675Y0411366D02*
X0042919Y0411366D01*
X0042419Y0359378D02*
X0042419Y0356622D01*
X0042419Y0359378D02*
X0045175Y0359378D01*
X0045175Y0356622D01*
X0042419Y0356622D01*
X0042419Y0357744D02*
X0045175Y0357744D01*
X0045175Y0358866D02*
X0042419Y0358866D01*
X0049325Y0359378D02*
X0049325Y0356622D01*
X0049325Y0359378D02*
X0052081Y0359378D01*
X0052081Y0356622D01*
X0049325Y0356622D01*
X0049325Y0357744D02*
X0052081Y0357744D01*
X0052081Y0358866D02*
X0049325Y0358866D01*
X0049825Y0309878D02*
X0049825Y0307122D01*
X0049825Y0309878D02*
X0052581Y0309878D01*
X0052581Y0307122D01*
X0049825Y0307122D01*
X0049825Y0308244D02*
X0052581Y0308244D01*
X0052581Y0309366D02*
X0049825Y0309366D01*
X0042919Y0309878D02*
X0042919Y0307122D01*
X0042919Y0309878D02*
X0045675Y0309878D01*
X0045675Y0307122D01*
X0042919Y0307122D01*
X0042919Y0308244D02*
X0045675Y0308244D01*
X0045675Y0309366D02*
X0042919Y0309366D01*
X0042419Y0257378D02*
X0042419Y0254622D01*
X0042419Y0257378D02*
X0045175Y0257378D01*
X0045175Y0254622D01*
X0042419Y0254622D01*
X0042419Y0255744D02*
X0045175Y0255744D01*
X0045175Y0256866D02*
X0042419Y0256866D01*
X0049325Y0257378D02*
X0049325Y0254622D01*
X0049325Y0257378D02*
X0052081Y0257378D01*
X0052081Y0254622D01*
X0049325Y0254622D01*
X0049325Y0255744D02*
X0052081Y0255744D01*
X0052081Y0256866D02*
X0049325Y0256866D01*
X0049825Y0207878D02*
X0049825Y0205122D01*
X0049825Y0207878D02*
X0052581Y0207878D01*
X0052581Y0205122D01*
X0049825Y0205122D01*
X0049825Y0206244D02*
X0052581Y0206244D01*
X0052581Y0207366D02*
X0049825Y0207366D01*
X0042919Y0207878D02*
X0042919Y0205122D01*
X0042919Y0207878D02*
X0045675Y0207878D01*
X0045675Y0205122D01*
X0042919Y0205122D01*
X0042919Y0206244D02*
X0045675Y0206244D01*
X0045675Y0207366D02*
X0042919Y0207366D01*
X0042419Y0155378D02*
X0042419Y0152622D01*
X0042419Y0155378D02*
X0045175Y0155378D01*
X0045175Y0152622D01*
X0042419Y0152622D01*
X0042419Y0153744D02*
X0045175Y0153744D01*
X0045175Y0154866D02*
X0042419Y0154866D01*
X0049325Y0155378D02*
X0049325Y0152622D01*
X0049325Y0155378D02*
X0052081Y0155378D01*
X0052081Y0152622D01*
X0049325Y0152622D01*
X0049325Y0153744D02*
X0052081Y0153744D01*
X0052081Y0154866D02*
X0049325Y0154866D01*
X0049825Y0105878D02*
X0049825Y0103122D01*
X0049825Y0105878D02*
X0052581Y0105878D01*
X0052581Y0103122D01*
X0049825Y0103122D01*
X0049825Y0104244D02*
X0052581Y0104244D01*
X0052581Y0105366D02*
X0049825Y0105366D01*
X0042919Y0105878D02*
X0042919Y0103122D01*
X0042919Y0105878D02*
X0045675Y0105878D01*
X0045675Y0103122D01*
X0042919Y0103122D01*
X0042919Y0104244D02*
X0045675Y0104244D01*
X0045675Y0105366D02*
X0042919Y0105366D01*
X0042419Y0053378D02*
X0042419Y0050622D01*
X0042419Y0053378D02*
X0045175Y0053378D01*
X0045175Y0050622D01*
X0042419Y0050622D01*
X0042419Y0051744D02*
X0045175Y0051744D01*
X0045175Y0052866D02*
X0042419Y0052866D01*
X0049325Y0053378D02*
X0049325Y0050622D01*
X0049325Y0053378D02*
X0052081Y0053378D01*
X0052081Y0050622D01*
X0049325Y0050622D01*
X0049325Y0051744D02*
X0052081Y0051744D01*
X0052081Y0052866D02*
X0049325Y0052866D01*
D25*
X0103050Y0097287D03*
X0103050Y0108113D03*
X0103050Y0199287D03*
X0103050Y0210113D03*
X0103050Y0301287D03*
X0103050Y0312113D03*
X0103050Y0403287D03*
X0103050Y0414113D03*
X0293050Y0414113D03*
X0293050Y0403287D03*
X0293050Y0312113D03*
X0293050Y0301287D03*
X0293050Y0210113D03*
X0293050Y0199287D03*
X0293050Y0108113D03*
X0293050Y0097287D03*
X0483050Y0097287D03*
X0483050Y0108113D03*
X0483050Y0199287D03*
X0483050Y0210113D03*
X0483050Y0301287D03*
X0483050Y0312113D03*
X0483050Y0403287D03*
X0483050Y0414113D03*
D26*
X0477046Y0408700D03*
X0489054Y0408700D03*
X0489054Y0306700D03*
X0477046Y0306700D03*
X0477046Y0204700D03*
X0489054Y0204700D03*
X0489054Y0102700D03*
X0477046Y0102700D03*
X0299054Y0102700D03*
X0287046Y0102700D03*
X0287046Y0204700D03*
X0299054Y0204700D03*
X0299054Y0306700D03*
X0287046Y0306700D03*
X0287046Y0408700D03*
X0299054Y0408700D03*
X0109054Y0408700D03*
X0097046Y0408700D03*
X0097046Y0306700D03*
X0109054Y0306700D03*
X0109054Y0204700D03*
X0097046Y0204700D03*
X0097046Y0102700D03*
X0109054Y0102700D03*
D27*
X0087774Y0104000D03*
X0087774Y0099000D03*
X0087774Y0094000D03*
X0087774Y0089000D03*
X0087774Y0084000D03*
X0087774Y0079000D03*
X0087774Y0074000D03*
X0087774Y0069000D03*
X0065726Y0069000D03*
X0065726Y0074000D03*
X0065726Y0079000D03*
X0065726Y0084000D03*
X0065726Y0089000D03*
X0065726Y0094000D03*
X0065726Y0099000D03*
X0065726Y0104000D03*
X0065726Y0171000D03*
X0065726Y0176000D03*
X0065726Y0181000D03*
X0065726Y0186000D03*
X0065726Y0191000D03*
X0065726Y0196000D03*
X0065726Y0201000D03*
X0065726Y0206000D03*
X0087774Y0206000D03*
X0087774Y0201000D03*
X0087774Y0196000D03*
X0087774Y0191000D03*
X0087774Y0186000D03*
X0087774Y0181000D03*
X0087774Y0176000D03*
X0087774Y0171000D03*
X0087774Y0273000D03*
X0087774Y0278000D03*
X0087774Y0283000D03*
X0087774Y0288000D03*
X0087774Y0293000D03*
X0087774Y0298000D03*
X0087774Y0303000D03*
X0087774Y0308000D03*
X0065726Y0308000D03*
X0065726Y0303000D03*
X0065726Y0298000D03*
X0065726Y0293000D03*
X0065726Y0288000D03*
X0065726Y0283000D03*
X0065726Y0278000D03*
X0065726Y0273000D03*
X0065726Y0375000D03*
X0065726Y0380000D03*
X0065726Y0385000D03*
X0065726Y0390000D03*
X0065726Y0395000D03*
X0065726Y0400000D03*
X0065726Y0405000D03*
X0065726Y0410000D03*
X0087774Y0410000D03*
X0087774Y0405000D03*
X0087774Y0400000D03*
X0087774Y0395000D03*
X0087774Y0390000D03*
X0087774Y0385000D03*
X0087774Y0380000D03*
X0087774Y0375000D03*
X0255726Y0375000D03*
X0255726Y0380000D03*
X0255726Y0385000D03*
X0255726Y0390000D03*
X0255726Y0395000D03*
X0255726Y0400000D03*
X0255726Y0405000D03*
X0255726Y0410000D03*
X0277774Y0410000D03*
X0277774Y0405000D03*
X0277774Y0400000D03*
X0277774Y0395000D03*
X0277774Y0390000D03*
X0277774Y0385000D03*
X0277774Y0380000D03*
X0277774Y0375000D03*
X0277774Y0308000D03*
X0277774Y0303000D03*
X0277774Y0298000D03*
X0277774Y0293000D03*
X0277774Y0288000D03*
X0277774Y0283000D03*
X0277774Y0278000D03*
X0277774Y0273000D03*
X0255726Y0273000D03*
X0255726Y0278000D03*
X0255726Y0283000D03*
X0255726Y0288000D03*
X0255726Y0293000D03*
X0255726Y0298000D03*
X0255726Y0303000D03*
X0255726Y0308000D03*
X0255726Y0206000D03*
X0255726Y0201000D03*
X0255726Y0196000D03*
X0255726Y0191000D03*
X0255726Y0186000D03*
X0255726Y0181000D03*
X0255726Y0176000D03*
X0255726Y0171000D03*
X0277774Y0171000D03*
X0277774Y0176000D03*
X0277774Y0181000D03*
X0277774Y0186000D03*
X0277774Y0191000D03*
X0277774Y0196000D03*
X0277774Y0201000D03*
X0277774Y0206000D03*
X0277774Y0104000D03*
X0277774Y0099000D03*
X0277774Y0094000D03*
X0277774Y0089000D03*
X0277774Y0084000D03*
X0277774Y0079000D03*
X0277774Y0074000D03*
X0277774Y0069000D03*
X0255726Y0069000D03*
X0255726Y0074000D03*
X0255726Y0079000D03*
X0255726Y0084000D03*
X0255726Y0089000D03*
X0255726Y0094000D03*
X0255726Y0099000D03*
X0255726Y0104000D03*
X0445726Y0104000D03*
X0445726Y0099000D03*
X0445726Y0094000D03*
X0445726Y0089000D03*
X0445726Y0084000D03*
X0445726Y0079000D03*
X0445726Y0074000D03*
X0445726Y0069000D03*
X0467774Y0069000D03*
X0467774Y0074000D03*
X0467774Y0079000D03*
X0467774Y0084000D03*
X0467774Y0089000D03*
X0467774Y0094000D03*
X0467774Y0099000D03*
X0467774Y0104000D03*
X0467774Y0171000D03*
X0467774Y0176000D03*
X0467774Y0181000D03*
X0467774Y0186000D03*
X0467774Y0191000D03*
X0467774Y0196000D03*
X0467774Y0201000D03*
X0467774Y0206000D03*
X0445726Y0206000D03*
X0445726Y0201000D03*
X0445726Y0196000D03*
X0445726Y0191000D03*
X0445726Y0186000D03*
X0445726Y0181000D03*
X0445726Y0176000D03*
X0445726Y0171000D03*
X0445726Y0273000D03*
X0445726Y0278000D03*
X0445726Y0283000D03*
X0445726Y0288000D03*
X0445726Y0293000D03*
X0445726Y0298000D03*
X0445726Y0303000D03*
X0445726Y0308000D03*
X0467774Y0308000D03*
X0467774Y0303000D03*
X0467774Y0298000D03*
X0467774Y0293000D03*
X0467774Y0288000D03*
X0467774Y0283000D03*
X0467774Y0278000D03*
X0467774Y0273000D03*
X0467774Y0375000D03*
X0467774Y0380000D03*
X0467774Y0385000D03*
X0467774Y0390000D03*
X0467774Y0395000D03*
X0467774Y0400000D03*
X0467774Y0405000D03*
X0467774Y0410000D03*
X0445726Y0410000D03*
X0445726Y0405000D03*
X0445726Y0400000D03*
X0445726Y0395000D03*
X0445726Y0390000D03*
X0445726Y0385000D03*
X0445726Y0380000D03*
X0445726Y0375000D03*
M02*
