%
M48
M72
T01C0.0150
T02C0.0400
%
T01
X6115Y3570
X7025Y4155
X7505Y3860
X7872Y3995
X8675Y4850
X10175Y4010
X10975Y5000
X10675Y5242
X11637Y4800
X11625Y4382
X12492Y5120
X12325Y5550
X12325Y6400
X13142Y6167
X13825Y6350
X14225Y6500
X14105Y5590
X14885Y5700
X15675Y5780
X16075Y6400
X15575Y6580
X16925Y6500
X17000Y5890
X16641Y5911
X17295Y5640
X17569Y5928
X18175Y6850
X18175Y7350
X18175Y7850
X17675Y7850
X16975Y7850
X16075Y7850
X15075Y7850
X14175Y7850
X13675Y7850
X13030Y7800
X13675Y8350
X13675Y8850
X14225Y9200
X14575Y8350
X15075Y8850
X15575Y8350
X16075Y8850
X16575Y8350
X17175Y8850
X16925Y9200
X17675Y8850
X17675Y8350
X18175Y8350
X18175Y8850
X18675Y8850
X18675Y8350
X18675Y7850
X18675Y7350
X18675Y6850
X18675Y6350
X18675Y5850
X17575Y4062
X16498Y3977
X10980Y6050
X10980Y7505
X10975Y8200
X12085Y8350
X12380Y8950
X12375Y9890
X10975Y9400
X8050Y10395
X7575Y10350
X7025Y10750
X6425Y10785
X5725Y9850
X7425Y9600
X7475Y9200
X7905Y8340
X7905Y7850
X7905Y7350
X8705Y6500
X9075Y6500
X6525Y6150
X6175Y5950
X6595Y5300
X5902Y5017
X5575Y5395
X5725Y4450
X3935Y5650
X3975Y7000
X3975Y8700
X3955Y10040
X4725Y11538
X5105Y11700
X6625Y12550
X7925Y12550
X7925Y12150
X6115Y13770
X5725Y14650
X5902Y15217
X5575Y15595
X6175Y16150
X6525Y16350
X6595Y15500
X7025Y14355
X7505Y14060
X7872Y14195
X8675Y15050
X10175Y14210
X10975Y15200
X10675Y15442
X11637Y15000
X11625Y14582
X12492Y15320
X12325Y15750
X12325Y16600
X13142Y16367
X13825Y16550
X14225Y16700
X14105Y15790
X14885Y15900
X15675Y15980
X16075Y16600
X15575Y16780
X16925Y16700
X17000Y16090
X16641Y16111
X17295Y15840
X17569Y16128
X18175Y17050
X18175Y17550
X18175Y18050
X17675Y18050
X16975Y18050
X16075Y18050
X15075Y18050
X14175Y18050
X13675Y18050
X13030Y18000
X13675Y18550
X13675Y19050
X14225Y19400
X14575Y18550
X15075Y19050
X15575Y18550
X16075Y19050
X16575Y18550
X17175Y19050
X16925Y19400
X17675Y19050
X17675Y18550
X18175Y18550
X18175Y19050
X18675Y19050
X18675Y18550
X18675Y18050
X18675Y17550
X18675Y17050
X18675Y16550
X18675Y16050
X17575Y14262
X16498Y14177
X10980Y16250
X10980Y17705
X10975Y18400
X12085Y18550
X12380Y19150
X12375Y20090
X10975Y19600
X8050Y20595
X7575Y20550
X7025Y20950
X6425Y20985
X5725Y20050
X7425Y19800
X7475Y19400
X7905Y18540
X7905Y18050
X7905Y17550
X8705Y16700
X9075Y16700
X3975Y17200
X3935Y15850
X3975Y18900
X3955Y20240
X4725Y21738
X5105Y21900
X6625Y22750
X7925Y22750
X7925Y22350
X6115Y23970
X5725Y24850
X5902Y25417
X5575Y25795
X6175Y26350
X6525Y26550
X6595Y25700
X7025Y24555
X7505Y24260
X7872Y24395
X8675Y25250
X10175Y24410
X10975Y25400
X10675Y25642
X11637Y25200
X11625Y24782
X12492Y25520
X12325Y25950
X12325Y26800
X13142Y26567
X13825Y26750
X14225Y26900
X14105Y25990
X14885Y26100
X15675Y26180
X16075Y26800
X15575Y26980
X16925Y26900
X17000Y26290
X16641Y26311
X17295Y26040
X17569Y26328
X18175Y27250
X18175Y27750
X18675Y27750
X18675Y27250
X18675Y26750
X18675Y26250
X17575Y24462
X16498Y24377
X13030Y28200
X13675Y28250
X13675Y28750
X13675Y29250
X14225Y29600
X14575Y28750
X14175Y28250
X15075Y28250
X15575Y28750
X15075Y29250
X16075Y29250
X16575Y28750
X16975Y28250
X17675Y28250
X17675Y28750
X17675Y29250
X17175Y29250
X16925Y29600
X16615Y30320
X17355Y30280
X17780Y30260
X18275Y30000
X18175Y29250
X18175Y28750
X18175Y28250
X18675Y28250
X18675Y28750
X18675Y29250
X16075Y28250
X14115Y30450
X12375Y30290
X12380Y29350
X12085Y28750
X10975Y28600
X10980Y27905
X10980Y26450
X9075Y26900
X8705Y26900
X7905Y27750
X7905Y28250
X7905Y28740
X7475Y29600
X7425Y30000
X7575Y30750
X8050Y30795
X7025Y31150
X6425Y31185
X5725Y30250
X3955Y30440
X3975Y29100
X3975Y27400
X3935Y26050
X10775Y21950
X14115Y20250
X16615Y20120
X17355Y20080
X17780Y20060
X18275Y19800
X22955Y20240
X24725Y20050
X25425Y20985
X26025Y20950
X26575Y20550
X27050Y20595
X26425Y19800
X26475Y19400
X26905Y18540
X26905Y18050
X26905Y17550
X27705Y16700
X28075Y16700
X29980Y16250
X29675Y15442
X29975Y15200
X30637Y15000
X30625Y14582
X31492Y15320
X31325Y15750
X31325Y16600
X32142Y16367
X32825Y16550
X33225Y16700
X33105Y15790
X33885Y15900
X34675Y15980
X35075Y16600
X34575Y16780
X35641Y16111
X36000Y16090
X36295Y15840
X36569Y16128
X35925Y16700
X37175Y17050
X37175Y17550
X37175Y18050
X36675Y18050
X35975Y18050
X35075Y18050
X34075Y18050
X33575Y18550
X34075Y19050
X34575Y18550
X35075Y19050
X35575Y18550
X36175Y19050
X35925Y19400
X36675Y19050
X36675Y18550
X37175Y18550
X37175Y19050
X37675Y19050
X37675Y18550
X37675Y18050
X37675Y17550
X37675Y17050
X37675Y16550
X37675Y16050
X36575Y14262
X35498Y14177
X33175Y18050
X32675Y18050
X32030Y18000
X32675Y18550
X32675Y19050
X33225Y19400
X33115Y20250
X31375Y20090
X31380Y19150
X31085Y18550
X29975Y18400
X29980Y17705
X29975Y19600
X29775Y21950
X26925Y22350
X26925Y22750
X25625Y22750
X25115Y23970
X24725Y24850
X24902Y25417
X24575Y25795
X25175Y26350
X25525Y26550
X25595Y25700
X26025Y24555
X26505Y24260
X26872Y24395
X27675Y25250
X29175Y24410
X29975Y25400
X29675Y25642
X29980Y26450
X31325Y26800
X32142Y26567
X32825Y26750
X33225Y26900
X33105Y25990
X33885Y26100
X34675Y26180
X35075Y26800
X34575Y26980
X35641Y26311
X36000Y26290
X36295Y26040
X36569Y26328
X35925Y26900
X37175Y27250
X37175Y27750
X37675Y27750
X37675Y27250
X37675Y26750
X37675Y26250
X36575Y24462
X35498Y24377
X31492Y25520
X31325Y25950
X30637Y25200
X30625Y24782
X28075Y26900
X27705Y26900
X26905Y27750
X26905Y28250
X26905Y28740
X26475Y29600
X26425Y30000
X26575Y30750
X27050Y30795
X26025Y31150
X25425Y31185
X24725Y30250
X22955Y30440
X22975Y29100
X22975Y27400
X22935Y26050
X24105Y21900
X23725Y21738
X22975Y18900
X22975Y17200
X22935Y15850
X24575Y15595
X24902Y15217
X24725Y14650
X25115Y13770
X26025Y14355
X26505Y14060
X26872Y14195
X27675Y15050
X29175Y14210
X26925Y12550
X26925Y12150
X25625Y12550
X24105Y11700
X23725Y11538
X25425Y10785
X26025Y10750
X26575Y10350
X27050Y10395
X26425Y9600
X26475Y9200
X26905Y8340
X26905Y7850
X26905Y7350
X27705Y6500
X28075Y6500
X29980Y6050
X29675Y5242
X29975Y5000
X30637Y4800
X30625Y4382
X31492Y5120
X31325Y5550
X31325Y6400
X32142Y6167
X32825Y6350
X33225Y6500
X33105Y5590
X33885Y5700
X34675Y5780
X35075Y6400
X34575Y6580
X35641Y5911
X36000Y5890
X36295Y5640
X36569Y5928
X35925Y6500
X37175Y6850
X37175Y7350
X37175Y7850
X36675Y7850
X35975Y7850
X35075Y7850
X34075Y7850
X33575Y8350
X34075Y8850
X34575Y8350
X35075Y8850
X35575Y8350
X36175Y8850
X35925Y9200
X36675Y8850
X36675Y8350
X37175Y8350
X37175Y8850
X37675Y8850
X37675Y8350
X37675Y7850
X37675Y7350
X37675Y6850
X37675Y6350
X37675Y5850
X36575Y4062
X35498Y3977
X33175Y7850
X32675Y7850
X32030Y7800
X32675Y8350
X32675Y8850
X33225Y9200
X33115Y10050
X31375Y9890
X31380Y8950
X31085Y8350
X29975Y8200
X29980Y7505
X29975Y9400
X29775Y11750
X24725Y9850
X22955Y10040
X22975Y8700
X22975Y7000
X22935Y5650
X24575Y5395
X24902Y5017
X24725Y4450
X25115Y3570
X26025Y4155
X26505Y3860
X26872Y3995
X27675Y4850
X29175Y4010
X25595Y5300
X25175Y5950
X25525Y6150
X18275Y9600
X17780Y9860
X17355Y9880
X16615Y9920
X14115Y10050
X10775Y11750
X25175Y16150
X25525Y16350
X25595Y15500
X35615Y20120
X36355Y20080
X36780Y20060
X37275Y19800
X41955Y20240
X43725Y20050
X44425Y20985
X45025Y20950
X45575Y20550
X46050Y20595
X45425Y19800
X45475Y19400
X45905Y18540
X45905Y18050
X45905Y17550
X46705Y16700
X47075Y16700
X48980Y16250
X48675Y15442
X48975Y15200
X49637Y15000
X49625Y14582
X50492Y15320
X50325Y15750
X50325Y16600
X51142Y16367
X51825Y16550
X52225Y16700
X52105Y15790
X52885Y15900
X53675Y15980
X54075Y16600
X53575Y16780
X54641Y16111
X55000Y16090
X55295Y15840
X55569Y16128
X54925Y16700
X56175Y17050
X56175Y17550
X56175Y18050
X55675Y18050
X54975Y18050
X54075Y18050
X53575Y18550
X53075Y19050
X52575Y18550
X51675Y18550
X51675Y19050
X52225Y19400
X52115Y20250
X50375Y20090
X50380Y19150
X50085Y18550
X48975Y18400
X48980Y17705
X51030Y18000
X51675Y18050
X52175Y18050
X53075Y18050
X54075Y19050
X54575Y18550
X55175Y19050
X54925Y19400
X55675Y19050
X55675Y18550
X56175Y18550
X56175Y19050
X56675Y19050
X56675Y18550
X56675Y18050
X56675Y17550
X56675Y17050
X56675Y16550
X56675Y16050
X55575Y14262
X54498Y14177
X48775Y11750
X46050Y10395
X45575Y10350
X45025Y10750
X44425Y10785
X43725Y9850
X41955Y10040
X41975Y8700
X41975Y7000
X41935Y5650
X43575Y5395
X43902Y5017
X43725Y4450
X44115Y3570
X45025Y4155
X45505Y3860
X45872Y3995
X46675Y4850
X44595Y5300
X44175Y5950
X44525Y6150
X45905Y7350
X45905Y7850
X45905Y8340
X45475Y9200
X45425Y9600
X42725Y11538
X43105Y11700
X44625Y12550
X45925Y12550
X45925Y12150
X44115Y13770
X43725Y14650
X43902Y15217
X43575Y15595
X44175Y16150
X44525Y16350
X44595Y15500
X45025Y14355
X45505Y14060
X45872Y14195
X46675Y15050
X48175Y14210
X50375Y9890
X50380Y8950
X50085Y8350
X48975Y8200
X48980Y7505
X48980Y6050
X48675Y5242
X48975Y5000
X49637Y4800
X49625Y4382
X50492Y5120
X50325Y5550
X50325Y6400
X51142Y6167
X51825Y6350
X52225Y6500
X52105Y5590
X52885Y5700
X53675Y5780
X54075Y6400
X53575Y6580
X54641Y5911
X55000Y5890
X55295Y5640
X55569Y5928
X54925Y6500
X56175Y6850
X56175Y7350
X56175Y7850
X55675Y7850
X54975Y7850
X54075Y7850
X53575Y8350
X53075Y8850
X52575Y8350
X51675Y8350
X51675Y8850
X52225Y9200
X52115Y10050
X54075Y8850
X54575Y8350
X55175Y8850
X54925Y9200
X55675Y8850
X55675Y8350
X56175Y8350
X56175Y8850
X56675Y8850
X56675Y8350
X56675Y7850
X56675Y7350
X56675Y6850
X56675Y6350
X56675Y5850
X55575Y4062
X54498Y3977
X53075Y7850
X52175Y7850
X51675Y7850
X51030Y7800
X48975Y9400
X47075Y6500
X46705Y6500
X48175Y4010
X56275Y9600
X55780Y9860
X55355Y9880
X54615Y9920
X41935Y15850
X41975Y17200
X41975Y18900
X42725Y21738
X43105Y21900
X44625Y22750
X45925Y22750
X45925Y22350
X44115Y23970
X43725Y24850
X43902Y25417
X43575Y25795
X44175Y26350
X44525Y26550
X44595Y25700
X45025Y24555
X45505Y24260
X45872Y24395
X46675Y25250
X48175Y24410
X48975Y25400
X48675Y25642
X48980Y26450
X50325Y26800
X51142Y26567
X51825Y26750
X52225Y26900
X52105Y25990
X52885Y26100
X53675Y26180
X54075Y26800
X53575Y26980
X54641Y26311
X55000Y26290
X55295Y26040
X55569Y26328
X54925Y26900
X56175Y27250
X56175Y27750
X56675Y27750
X56675Y27250
X56675Y26750
X56675Y26250
X55575Y24462
X54498Y24377
X50492Y25520
X50325Y25950
X49637Y25200
X49625Y24782
X47075Y26900
X46705Y26900
X45905Y27750
X45905Y28250
X45905Y28740
X45475Y29600
X45425Y30000
X45575Y30750
X46050Y30795
X45025Y31150
X44425Y31185
X43725Y30250
X41955Y30440
X41975Y29100
X41975Y27400
X41935Y26050
X37675Y28250
X37675Y28750
X37675Y29250
X37175Y29250
X37175Y28750
X37175Y28250
X36675Y28250
X36675Y28750
X36675Y29250
X36175Y29250
X35925Y29600
X35575Y28750
X35975Y28250
X35075Y28250
X34575Y28750
X34075Y28250
X33575Y28750
X33175Y28250
X32675Y28250
X32675Y28750
X32675Y29250
X33225Y29600
X33115Y30450
X34075Y29250
X35075Y29250
X35615Y30320
X36355Y30280
X36780Y30260
X37275Y30000
X32030Y28200
X31085Y28750
X31380Y29350
X31375Y30290
X29975Y29800
X29975Y28600
X29980Y27905
X29775Y32150
X26925Y32550
X26925Y32950
X25625Y32950
X25115Y34170
X24725Y35050
X24902Y35617
X24575Y35995
X25175Y36550
X25525Y36750
X25595Y35900
X26025Y34755
X26505Y34460
X26872Y34595
X27675Y35450
X29175Y34610
X29975Y35600
X29675Y35842
X29980Y36650
X31325Y37000
X32142Y36767
X32825Y36950
X33225Y37100
X33105Y36190
X33885Y36300
X34675Y36380
X35075Y37000
X34575Y37180
X35641Y36511
X36000Y36490
X36295Y36240
X36569Y36528
X35925Y37100
X37175Y37450
X37175Y37950
X37675Y37950
X37675Y37450
X37675Y36950
X37675Y36450
X36575Y34662
X35498Y34577
X31492Y35720
X31325Y36150
X30637Y35400
X30625Y34982
X28075Y37100
X27705Y37100
X26905Y37950
X26905Y38450
X26905Y38940
X26475Y39800
X26425Y40200
X26575Y40950
X27050Y40995
X26025Y41350
X25425Y41385
X24725Y40450
X22955Y40640
X22975Y39300
X22975Y37600
X22935Y36250
X18675Y36450
X18675Y36950
X18675Y37450
X18675Y37950
X18175Y37950
X18175Y37450
X17569Y36528
X17295Y36240
X17000Y36490
X16641Y36511
X16075Y37000
X15575Y37180
X16925Y37100
X15675Y36380
X14885Y36300
X14105Y36190
X13825Y36950
X14225Y37100
X13142Y36767
X12325Y37000
X12325Y36150
X12492Y35720
X11637Y35400
X11625Y34982
X10975Y35600
X10675Y35842
X10980Y36650
X10980Y38105
X10975Y38800
X12085Y38950
X12380Y39550
X12375Y40490
X10975Y40000
X13030Y38400
X13675Y38450
X13675Y38950
X13675Y39450
X14225Y39800
X14575Y38950
X14175Y38450
X15075Y38450
X15575Y38950
X15075Y39450
X16075Y39450
X16575Y38950
X16975Y38450
X17675Y38450
X17675Y38950
X17675Y39450
X17175Y39450
X16925Y39800
X16615Y40520
X17355Y40480
X17780Y40460
X18275Y40200
X18175Y39450
X18175Y38950
X18175Y38450
X18675Y38450
X18675Y38950
X18675Y39450
X16075Y38450
X14115Y40650
X10775Y42350
X7925Y42750
X7925Y43150
X6625Y43150
X5105Y42300
X4725Y42138
X6425Y41385
X7025Y41350
X7575Y40950
X8050Y40995
X7425Y40200
X7475Y39800
X7905Y38940
X7905Y38450
X7905Y37950
X8705Y37100
X9075Y37100
X6525Y36750
X6175Y36550
X6595Y35900
X5902Y35617
X5575Y35995
X5725Y35050
X7025Y34755
X7505Y34460
X7872Y34595
X8675Y35450
X10175Y34610
X7925Y32950
X7925Y32550
X6625Y32950
X6115Y34170
X5105Y32100
X4725Y31938
X10775Y32150
X10975Y29800
X16498Y34577
X17575Y34662
X23725Y31938
X24105Y32100
X29980Y38105
X29975Y38800
X31085Y38950
X31380Y39550
X31375Y40490
X29975Y40000
X32030Y38400
X32675Y38450
X33175Y38450
X33575Y38950
X34075Y38450
X34575Y38950
X34075Y39450
X35075Y39450
X35575Y38950
X35975Y38450
X36675Y38450
X36675Y38950
X36675Y39450
X36175Y39450
X35925Y39800
X35615Y40520
X36355Y40480
X36780Y40460
X37275Y40200
X37175Y39450
X37175Y38950
X37175Y38450
X37675Y38450
X37675Y38950
X37675Y39450
X35075Y38450
X33225Y39800
X32675Y39450
X32675Y38950
X33115Y40650
X29775Y42350
X26925Y42750
X26925Y43150
X25625Y43150
X24105Y42300
X23725Y42138
X5725Y40450
X3955Y40640
X3975Y39300
X3975Y37600
X3935Y36250
X41935Y36250
X43575Y35995
X43902Y35617
X43725Y35050
X44115Y34170
X45025Y34755
X45505Y34460
X45872Y34595
X46675Y35450
X44595Y35900
X44175Y36550
X44525Y36750
X45905Y37950
X46705Y37100
X47075Y37100
X45905Y38450
X45905Y38940
X45475Y39800
X45425Y40200
X45575Y40950
X46050Y40995
X45025Y41350
X44425Y41385
X43725Y40450
X41955Y40640
X41975Y39300
X41975Y37600
X48175Y34610
X48975Y35600
X48675Y35842
X48980Y36650
X50325Y37000
X51142Y36767
X51825Y36950
X52225Y37100
X52105Y36190
X52885Y36300
X53675Y36380
X54075Y37000
X53575Y37180
X54641Y36511
X55000Y36490
X55295Y36240
X55569Y36528
X54925Y37100
X56175Y37450
X56175Y37950
X56675Y37950
X56675Y37450
X56675Y36950
X56675Y36450
X55575Y34662
X54498Y34577
X50492Y35720
X50325Y36150
X49637Y35400
X49625Y34982
X48775Y32150
X50375Y30290
X50380Y29350
X50085Y28750
X48975Y28600
X48980Y27905
X51030Y28200
X51675Y28250
X52175Y28250
X52575Y28750
X53075Y28250
X53575Y28750
X53075Y29250
X52225Y29600
X51675Y29250
X51675Y28750
X52115Y30450
X54075Y29250
X54575Y28750
X54975Y28250
X55675Y28250
X55675Y28750
X55675Y29250
X55175Y29250
X54925Y29600
X54615Y30320
X55355Y30280
X55780Y30260
X56275Y30000
X56175Y29250
X56175Y28750
X56175Y28250
X56675Y28250
X56675Y28750
X56675Y29250
X54075Y28250
X48975Y29800
X45925Y32550
X45925Y32950
X44625Y32950
X43105Y32100
X42725Y31938
X48980Y38105
X48975Y38800
X50085Y38950
X50380Y39550
X50375Y40490
X48975Y40000
X51030Y38400
X51675Y38450
X52175Y38450
X52575Y38950
X53075Y38450
X53575Y38950
X53075Y39450
X52225Y39800
X51675Y39450
X51675Y38950
X52115Y40650
X54075Y39450
X54575Y38950
X54975Y38450
X55675Y38450
X55675Y38950
X55675Y39450
X55175Y39450
X54925Y39800
X54615Y40520
X55355Y40480
X55780Y40460
X56275Y40200
X56175Y39450
X56175Y38950
X56175Y38450
X56675Y38450
X56675Y38950
X56675Y39450
X54075Y38450
X48775Y42350
X45925Y42750
X45925Y43150
X44625Y43150
X43105Y42300
X42725Y42138
X48775Y21950
X48975Y19600
X54615Y20120
X55355Y20080
X55780Y20060
X56275Y19800
X37275Y9600
X36780Y9860
X36355Y9880
X35615Y9920
T02
X35675Y12350
X36675Y12350
X37675Y12350
X37675Y13550
X36675Y13550
X35675Y13550
X34675Y13550
X33675Y13550
X32675Y13550
X31675Y13550
X30675Y13550
X29675Y13550
X28675Y13550
X28675Y12300
X29675Y12350
X30675Y12350
X31675Y12350
X32675Y12350
X33675Y12350
X34675Y12350
X34675Y3350
X33675Y3350
X32675Y3350
X31675Y3350
X30675Y3350
X29675Y3350
X28675Y3350
X35675Y3350
X36675Y3350
X37675Y3350
X47675Y3350
X48675Y3350
X49675Y3350
X50675Y3350
X51675Y3350
X52675Y3350
X53675Y3350
X54675Y3350
X55675Y3350
X56675Y3350
X56675Y12350
X55675Y12350
X54675Y12350
X53675Y12350
X52675Y12350
X51675Y12350
X50675Y12350
X49675Y12350
X48675Y12350
X47675Y12300
X47675Y13550
X48675Y13550
X49675Y13550
X50675Y13550
X51675Y13550
X52675Y13550
X53675Y13550
X54675Y13550
X55675Y13550
X56675Y13550
X56675Y22550
X55675Y22550
X54675Y22550
X53675Y22550
X52675Y22550
X51675Y22550
X50675Y22550
X49675Y22550
X48675Y22550
X47675Y22500
X47675Y23750
X48675Y23750
X49675Y23750
X50675Y23750
X51675Y23750
X52675Y23750
X53675Y23750
X54675Y23750
X55675Y23750
X56675Y23750
X56675Y32750
X55675Y32750
X54675Y32750
X53675Y32750
X52675Y32750
X51675Y32750
X50675Y32750
X49675Y32750
X48675Y32750
X47675Y32700
X47675Y33950
X48675Y33950
X49675Y33950
X50675Y33950
X51675Y33950
X52675Y33950
X53675Y33950
X54675Y33950
X55675Y33950
X56675Y33950
X56675Y42950
X55675Y42950
X54675Y42950
X53675Y42950
X52675Y42950
X51675Y42950
X50675Y42950
X49675Y42950
X48675Y42950
X47675Y42900
X37675Y42950
X36675Y42950
X35675Y42950
X34675Y42950
X33675Y42950
X32675Y42950
X31675Y42950
X30675Y42950
X29675Y42950
X28675Y42900
X18675Y42950
X17675Y42950
X16675Y42950
X15675Y42950
X14675Y42950
X13675Y42950
X12675Y42950
X11675Y42950
X10675Y42950
X9675Y42900
X9675Y33950
X10675Y33950
X11675Y33950
X12675Y33950
X13675Y33950
X14675Y33950
X15675Y33950
X16675Y33950
X17675Y33950
X18675Y33950
X18675Y32750
X17675Y32750
X16675Y32750
X15675Y32750
X14675Y32750
X13675Y32750
X12675Y32750
X11675Y32750
X10675Y32750
X9675Y32700
X9675Y23750
X10675Y23750
X11675Y23750
X12675Y23750
X13675Y23750
X14675Y23750
X15675Y23750
X16675Y23750
X17675Y23750
X18675Y23750
X18675Y22550
X17675Y22550
X16675Y22550
X15675Y22550
X14675Y22550
X13675Y22550
X12675Y22550
X11675Y22550
X10675Y22550
X9675Y22500
X9675Y13550
X10675Y13550
X11675Y13550
X12675Y13550
X13675Y13550
X14675Y13550
X15675Y13550
X16675Y13550
X17675Y13550
X18675Y13550
X18675Y12350
X17675Y12350
X16675Y12350
X15675Y12350
X14675Y12350
X13675Y12350
X12675Y12350
X11675Y12350
X10675Y12350
X9675Y12300
X9675Y3350
X10675Y3350
X11675Y3350
X12675Y3350
X13675Y3350
X14675Y3350
X15675Y3350
X16675Y3350
X17675Y3350
X18675Y3350
X28675Y22500
X29675Y22550
X30675Y22550
X31675Y22550
X32675Y22550
X33675Y22550
X34675Y22550
X35675Y22550
X36675Y22550
X37675Y22550
X37675Y23750
X36675Y23750
X35675Y23750
X34675Y23750
X33675Y23750
X32675Y23750
X31675Y23750
X30675Y23750
X29675Y23750
X28675Y23750
X28675Y32700
X29675Y32750
X30675Y32750
X31675Y32750
X32675Y32750
X33675Y32750
X34675Y32750
X35675Y32750
X36675Y32750
X37675Y32750
X37675Y33950
X36675Y33950
X35675Y33950
X34675Y33950
X33675Y33950
X32675Y33950
X31675Y33950
X30675Y33950
X29675Y33950
X28675Y33950
M30
